  0
SECTION
  2
HEADER
  9
$ACADVER
  1
AC1006
  9
$EXTMIN
 10
0.000000
 20
0.000000
 30
0.000000
  9
$EXTMAX
 10
400.000000
 20
300.000000
 30
0.000000
  0
ENDSEC
  0
SECTION
  2
ENTITIES
  0
POLYLINE
  8
0
 66
1
 70
1
  0
VERTEX
  8
0
 10
141.500000
 20
227.071287
 42
0.103367
  0
VERTEX
  8
0
 10
134.664290
 20
223.829723
 42
0.106336
  0
VERTEX
  8
0
 10
129.780355
 20
218.148941
 42
0.043599
  0
VERTEX
  8
0
 10
125.001982
 20
207.187780
 42
0.004864
  0
VERTEX
  8
0
 10
116.572339
 20
181.250000
 42
0.122284
  0
VERTEX
  8
0
 10
116.493999
 20
179.970282
 42
0.287456
  0
VERTEX
  8
0
 10
117.114510
 20
179.293483
 42
0.063989
  0
VERTEX
  8
0
 10
118.906561
 20
179.038865
 42
0.003334
  0
VERTEX
  8
0
 10
124.735799
 20
179.000000
 42
0.000000
  0
VERTEX
  8
0
 10
133.606374
 20
179.000000
 42
0.000000
  0
VERTEX
  8
0
 10
137.000000
 20
189.500000
 42
0.000000
  0
VERTEX
  8
0
 10
140.393626
 20
200.000000
 42
0.000000
  0
VERTEX
  8
0
 10
148.696813
 20
200.000000
 42
-0.002822
  0
VERTEX
  8
0
 10
151.879447
 20
199.982038
 42
-0.004719
  0
VERTEX
  8
0
 10
154.555750
 20
199.926562
 42
-0.000898
  0
VERTEX
  8
0
 10
156.890527
 20
199.851920
 42
-0.425030
  0
VERTEX
  8
0
 10
156.982335
 20
199.750000
 42
-0.057273
  0
VERTEX
  8
0
 10
156.945904
 20
199.555290
 42
-0.000136
  0
VERTEX
  8
0
 10
156.093798
 20
196.797311
 42
-0.000886
  0
VERTEX
  8
0
 10
155.126926
 20
193.690404
 42
-0.000551
  0
VERTEX
  8
0
 10
153.982335
 20
190.049358
 42
0.002372
  0
VERTEX
  8
0
 10
152.839530
 20
186.367177
 42
0.003516
  0
VERTEX
  8
0
 10
151.876061
 20
183.128594
 42
0.001590
  0
VERTEX
  8
0
 10
151.083300
 20
180.360722
 42
0.069052
  0
VERTEX
  8
0
 10
151.000000
 20
179.760425
 42
0.385814
  0
VERTEX
  8
0
 10
151.294262
 20
179.435839
 42
0.008735
  0
VERTEX
  8
0
 10
153.558762
 20
179.253256
 42
0.015017
  0
VERTEX
  8
0
 10
156.370749
 20
179.160565
 42
0.009019
  0
VERTEX
  8
0
 10
159.710678
 20
179.211067
 42
0.000000
  0
VERTEX
  8
0
 10
168.421357
 20
179.500000
 42
0.000000
  0
VERTEX
  8
0
 10
174.163827
 20
197.500000
 42
0.003975
  0
VERTEX
  8
0
 10
176.366862
 20
204.599964
 42
0.005413
  0
VERTEX
  8
0
 10
178.233210
 20
211.039624
 42
0.003657
  0
VERTEX
  8
0
 10
179.697878
 20
216.459145
 42
0.060072
  0
VERTEX
  8
0
 10
179.953149
 20
218.315741
 42
0.125929
  0
VERTEX
  8
0
 10
178.815784
 20
223.089310
 42
0.171250
  0
VERTEX
  8
0
 10
175.593197
 20
226.074326
 42
0.086580
  0
VERTEX
  8
0
 10
169.301431
 20
227.582101
 42
0.017548
  0
VERTEX
  8
0
 10
157.782119
 20
227.897639
 42
0.004834
  0
VERTEX
  8
0
 10
152.476674
 20
227.805450
 42
0.005917
  0
VERTEX
  8
0
 10
147.520372
 20
227.612674
 42
0.004993
  0
VERTEX
  8
0
 10
143.363491
 20
227.360062
 42
0.041554
  0
SEQEND
  0
POLYLINE
  8
0
 66
1
 70
1
  0
VERTEX
  8
0
 10
161.671308
 20
219.414175
 42
-0.096105
  0
VERTEX
  8
0
 10
161.836471
 20
218.478875
 42
-0.017279
  0
VERTEX
  8
0
 10
161.745169
 20
216.703772
 42
-0.018079
  0
VERTEX
  8
0
 10
161.487419
 20
214.603287
 42
-0.015479
  0
VERTEX
  8
0
 10
161.068207
 20
212.414175
 42
0.000000
  0
VERTEX
  8
0
 10
159.856568
 20
207.000000
 42
0.000000
  0
VERTEX
  8
0
 10
151.428284
 20
207.000000
 42
-0.007828
  0
VERTEX
  8
0
 10
147.439909
 20
207.062442
 42
-0.029032
  0
VERTEX
  8
0
 10
144.935944
 20
207.286788
 42
-0.047053
  0
VERTEX
  8
0
 10
143.426507
 20
207.658479
 42
-0.321192
  0
VERTEX
  8
0
 10
143.009769
 20
208.250000
 42
-0.101689
  0
VERTEX
  8
0
 10
143.498592
 20
210.537843
 42
-0.014486
  0
VERTEX
  8
0
 10
145.563566
 20
214.899793
 42
-0.011491
  0
VERTEX
  8
0
 10
147.878520
 20
219.197364
 42
-0.170285
  0
VERTEX
  8
0
 10
149.149932
 20
220.304363
 42
-0.062151
  0
VERTEX
  8
0
 10
149.971510
 20
220.518445
 42
-0.009509
  0
VERTEX
  8
0
 10
151.654824
 20
220.707334
 42
-0.010507
  0
VERTEX
  8
0
 10
153.660356
 20
220.851407
 42
-0.008939
  0
VERTEX
  8
0
 10
155.781385
 20
220.921053
 42
-0.014989
  0
VERTEX
  8
0
 10
158.373409
 20
220.882096
 42
-0.051411
  0
VERTEX
  8
0
 10
160.036933
 20
220.634530
 42
-0.088078
  0
VERTEX
  8
0
 10
161.083856
 20
220.159234
 42
-0.151779
  0
SEQEND
  0
POLYLINE
  8
0
 66
1
 70
1
  0
VERTEX
  8
0
 10
65.086021
 20
210.250000
 42
0.000212
  0
VERTEX
  8
0
 10
62.861084
 20
203.299312
 42
0.000205
  0
VERTEX
  8
0
 10
60.616169
 20
196.265982
 42
0.000203
  0
VERTEX
  8
0
 10
58.644523
 20
190.071365
 42
0.000753
  0
VERTEX
  8
0
 10
57.409758
 20
186.166108
 42
0.000000
  0
VERTEX
  8
0
 10
55.103070
 20
178.832216
 42
0.000000
  0
VERTEX
  8
0
 10
76.801535
 20
179.175211
 42
0.002185
  0
VERTEX
  8
0
 10
89.925680
 20
179.440042
 42
0.018477
  0
VERTEX
  8
0
 10
95.821909
 20
179.803090
 42
0.041769
  0
VERTEX
  8
0
 10
99.500333
 20
180.479800
 42
0.056046
  0
VERTEX
  8
0
 10
102.649228
 20
181.728017
 42
0.098990
  0
VERTEX
  8
0
 10
107.575002
 20
185.766264
 42
0.082636
  0
VERTEX
  8
0
 10
110.953036
 20
191.640860
 42
0.094215
  0
VERTEX
  8
0
 10
111.967013
 20
197.580626
 42
0.194032
  0
VERTEX
  8
0
 10
110.152420
 20
201.847580
 42
0.000000
  0
VERTEX
  8
0
 10
108.071083
 20
203.928917
 42
0.000000
  0
VERTEX
  8
0
 10
111.056783
 20
205.692614
 42
0.089670
  0
VERTEX
  8
0
 10
113.477719
 20
207.783714
 42
0.043498
  0
VERTEX
  8
0
 10
115.769571
 20
211.187736
 42
0.043409
  0
VERTEX
  8
0
 10
117.452718
 20
214.968346
 42
0.083215
  0
VERTEX
  8
0
 10
118.000000
 20
218.233937
 42
0.122471
  0
VERTEX
  8
0
 10
116.823259
 20
222.966032
 42
0.195383
  0
VERTEX
  8
0
 10
113.672163
 20
225.606372
 42
0.070716
  0
VERTEX
  8
0
 10
106.938604
 20
226.764543
 42
0.007284
  0
VERTEX
  8
0
 10
90.777457
 20
227.000000
 42
0.000000
  0
VERTEX
  8
0
 10
70.455594
 20
227.000000
 42
0.000000
  0
SEQEND
  0
POLYLINE
  8
0
 66
1
 70
1
  0
VERTEX
  8
0
 10
97.800000
 20
219.800000
 42
-0.130939
  0
VERTEX
  8
0
 10
98.688886
 20
218.265381
 42
-0.073816
  0
VERTEX
  8
0
 10
98.942250
 20
216.114238
 42
-0.062717
  0
VERTEX
  8
0
 10
98.551322
 20
213.618803
 42
-0.049186
  0
VERTEX
  8
0
 10
97.536985
 20
211.071521
 42
-0.061549
  0
VERTEX
  8
0
 10
96.064987
 20
208.920794
 42
-0.117724
  0
VERTEX
  8
0
 10
94.363298
 20
207.723094
 42
-0.078258
  0
VERTEX
  8
0
 10
91.835244
 20
207.150538
 42
-0.016633
  0
VERTEX
  8
0
 10
87.311224
 20
207.000000
 42
-0.011544
  0
VERTEX
  8
0
 10
84.697889
 20
207.060345
 42
-0.049194
  0
VERTEX
  8
0
 10
83.154424
 20
207.284915
 42
-0.121923
  0
VERTEX
  8
0
 10
82.402654
 20
207.681509
 42
-0.311582
  0
VERTEX
  8
0
 10
82.264371
 20
208.250000
 42
0.011096
  0
VERTEX
  8
0
 10
82.543652
 20
209.031318
 42
0.001246
  0
VERTEX
  8
0
 10
83.134264
 20
210.821875
 42
0.001512
  0
VERTEX
  8
0
 10
83.825412
 20
212.956745
 42
0.001227
  0
VERTEX
  8
0
 10
84.553982
 20
215.250000
 42
0.000000
  0
VERTEX
  8
0
 10
86.365244
 20
221.000000
 42
0.000000
  0
VERTEX
  8
0
 10
91.482622
 20
221.000000
 42
-0.021511
  0
VERTEX
  8
0
 10
93.529751
 20
220.911886
 42
-0.025426
  0
VERTEX
  8
0
 10
95.449270
 20
220.647500
 42
-0.025549
  0
VERTEX
  8
0
 10
97.019868
 20
220.265140
 42
-0.124514
  0
SEQEND
  0
POLYLINE
  8
0
 66
1
 70
1
  0
VERTEX
  8
0
 10
92.721966
 20
198.706606
 42
-0.063832
  0
VERTEX
  8
0
 10
93.520961
 20
197.672650
 42
-0.114985
  0
VERTEX
  8
0
 10
93.837403
 20
196.654915
 42
-0.075057
  0
VERTEX
  8
0
 10
93.733568
 20
195.315112
 42
-0.015981
  0
VERTEX
  8
0
 10
93.132801
 20
193.048913
 42
-0.082892
  0
VERTEX
  8
0
 10
91.546366
 20
189.818548
 42
-0.109100
  0
VERTEX
  8
0
 10
89.110231
 20
187.631614
 42
-0.088881
  0
VERTEX
  8
0
 10
85.575652
 20
186.393577
 42
-0.039925
  0
VERTEX
  8
0
 10
80.654521
 20
186.000000
 42
0.000000
  0
VERTEX
  8
0
 10
75.209722
 20
186.000000
 42
0.000000
  0
VERTEX
  8
0
 10
77.125059
 20
192.250000
 42
-0.001003
  0
VERTEX
  8
0
 10
77.894732
 20
194.743676
 42
-0.001234
  0
VERTEX
  8
0
 10
78.623301
 20
197.067244
 42
-0.001019
  0
VERTEX
  8
0
 10
79.244373
 20
199.017153
 42
-0.009005
  0
VERTEX
  8
0
 10
79.535834
 20
199.872533
 42
-0.306263
  0
VERTEX
  8
0
 10
81.008645
 20
200.946382
 42
-0.030961
  0
VERTEX
  8
0
 10
85.573117
 20
200.826361
 42
-0.034681
  0
VERTEX
  8
0
 10
90.233057
 20
200.086173
 42
-0.140550
  0
SEQEND
  0
POLYLINE
  8
0
 66
1
 70
1
  0
VERTEX
  8
0
 10
190.086021
 20
210.250000
 42
0.000214
  0
VERTEX
  8
0
 10
187.860600
 20
203.297744
 42
0.000206
  0
VERTEX
  8
0
 10
185.614234
 20
196.259708
 42
0.000204
  0
VERTEX
  8
0
 10
183.640675
 20
190.058866
 42
0.000754
  0
VERTEX
  8
0
 10
182.403169
 20
186.144751
 42
0.000000
  0
VERTEX
  8
0
 10
180.089891
 20
178.789502
 42
0.000000
  0
VERTEX
  8
0
 10
199.294945
 20
179.177248
 42
0.002622
  0
VERTEX
  8
0
 10
211.482095
 20
179.487246
 42
0.024200
  0
VERTEX
  8
0
 10
216.746381
 20
179.904340
 42
0.047852
  0
VERTEX
  8
0
 10
220.493111
 20
180.754341
 42
0.027403
  0
VERTEX
  8
0
 10
224.813277
 20
182.447457
 42
0.046387
  0
VERTEX
  8
0
 10
230.505663
 20
185.714359
 42
0.069201
  0
VERTEX
  8
0
 10
234.691567
 20
189.628821
 42
0.061292
  0
VERTEX
  8
0
 10
237.981458
 20
194.896351
 42
0.028574
  0
VERTEX
  8
0
 10
240.963167
 20
202.389440
 42
0.014743
  0
VERTEX
  8
0
 10
242.997629
 20
209.155133
 42
0.044489
  0
VERTEX
  8
0
 10
243.829129
 20
213.893943
 42
0.064871
  0
VERTEX
  8
0
 10
243.663216
 20
217.596282
 42
0.075871
  0
VERTEX
  8
0
 10
242.538418
 20
220.925709
 42
0.130803
  0
VERTEX
  8
0
 10
239.708696
 20
224.041132
 42
0.090768
  0
VERTEX
  8
0
 10
235.290901
 20
225.868710
 42
0.044590
  0
VERTEX
  8
0
 10
227.911760
 20
226.774104
 42
0.008241
  0
VERTEX
  8
0
 10
214.207561
 20
227.000000
 42
0.000000
  0
VERTEX
  8
0
 10
195.455594
 20
227.000000
 42
0.000000
  0
SEQEND
  0
POLYLINE
  8
0
 66
1
 70
1
  0
VERTEX
  8
0
 10
223.777494
 20
219.443296
 42
-0.146993
  0
VERTEX
  8
0
 10
225.397915
 20
217.389067
 42
-0.106431
  0
VERTEX
  8
0
 10
225.876461
 20
214.496026
 42
-0.053956
  0
VERTEX
  8
0
 10
225.177192
 20
210.048297
 42
-0.011563
  0
VERTEX
  8
0
 10
222.963439
 20
202.544393
 42
-0.012070
  0
VERTEX
  8
0
 10
221.372956
 20
197.962947
 42
-0.024218
  0
VERTEX
  8
0
 10
219.858353
 20
194.446510
 42
-0.030376
  0
VERTEX
  8
0
 10
218.303413
 20
191.704535
 42
-0.044913
  0
VERTEX
  8
0
 10
216.595361
 20
189.532436
 42
-0.025675
  0
VERTEX
  8
0
 10
214.437999
 20
187.468284
 42
-0.092297
  0
VERTEX
  8
0
 10
212.799106
 20
186.512625
 42
-0.073511
  0
VERTEX
  8
0
 10
210.736792
 20
186.100840
 42
-0.012581
  0
VERTEX
  8
0
 10
206.729869
 20
186.000000
 42
0.000000
  0
VERTEX
  8
0
 10
200.195893
 20
186.000000
 42
0.000000
  0
VERTEX
  8
0
 10
204.597319
 20
199.750000
 42
0.000249
  0
VERTEX
  8
0
 10
206.367431
 20
205.289307
 42
0.000289
  0
VERTEX
  8
0
 10
208.046257
 20
210.562500
 42
0.000257
  0
VERTEX
  8
0
 10
209.462660
 20
215.028273
 42
0.001721
  0
VERTEX
  8
0
 10
210.157660
 20
217.250000
 42
-0.025994
  0
VERTEX
  8
0
 10
211.006597
 20
219.563386
 42
-0.158474
  0
VERTEX
  8
0
 10
211.833768
 20
220.510270
 42
-0.122263
  0
VERTEX
  8
0
 10
213.166061
 20
220.915287
 42
-0.012952
  0
VERTEX
  8
0
 10
216.435781
 20
221.000000
 42
-0.024625
  0
VERTEX
  8
0
 10
218.643895
 20
220.891182
 42
-0.027622
  0
VERTEX
  8
0
 10
220.746362
 20
220.565440
 42
-0.029962
  0
VERTEX
  8
0
 10
222.541959
 20
220.070723
 42
-0.070683
  0
SEQEND
  0
POLYLINE
  8
0
 66
1
 70
1
  0
VERTEX
  8
0
 10
266.000000
 20
224.915970
 42
0.063043
  0
VERTEX
  8
0
 10
260.353427
 20
221.441890
 42
0.076860
  0
VERTEX
  8
0
 10
256.174265
 20
216.864014
 42
0.057114
  0
VERTEX
  8
0
 10
252.758269
 20
210.178565
 42
0.019734
  0
VERTEX
  8
0
 10
249.353784
 20
199.864114
 42
0.022746
  0
VERTEX
  8
0
 10
247.671263
 20
192.801252
 42
0.074025
  0
VERTEX
  8
0
 10
247.476523
 20
188.006955
 42
0.111113
  0
VERTEX
  8
0
 10
248.676582
 20
184.486183
 42
0.095725
  0
VERTEX
  8
0
 10
251.319383
 20
181.595826
 42
0.074967
  0
VERTEX
  8
0
 10
253.479925
 20
180.444567
 42
0.051545
  0
VERTEX
  8
0
 10
256.182361
 20
179.792017
 42
0.024511
  0
VERTEX
  8
0
 10
260.497559
 20
179.424688
 42
0.003551
  0
VERTEX
  8
0
 10
269.319383
 20
179.170515
 42
0.009378
  0
VERTEX
  8
0
 10
280.468035
 20
179.137674
 42
0.043593
  0
VERTEX
  8
0
 10
286.862944
 20
179.798308
 42
0.077886
  0
VERTEX
  8
0
 10
291.072430
 20
181.313602
 42
0.092841
  0
VERTEX
  8
0
 10
294.332106
 20
183.982839
 42
0.074914
  0
VERTEX
  8
0
 10
296.200111
 20
187.029920
 42
0.007454
  0
VERTEX
  8
0
 10
299.429112
 20
194.986925
 42
0.006924
  0
VERTEX
  8
0
 10
302.442736
 20
203.073010
 42
0.085935
  0
VERTEX
  8
0
 10
303.000000
 20
206.291406
 42
0.388686
  0
VERTEX
  8
0
 10
302.720737
 20
206.596373
 42
0.007727
  0
VERTEX
  8
0
 10
300.440121
 20
206.761969
 42
0.014088
  0
VERTEX
  8
0
 10
297.626935
 20
206.843170
 42
0.008457
  0
VERTEX
  8
0
 10
294.285518
 20
206.788933
 42
0.000000
  0
VERTEX
  8
0
 10
285.571036
 20
206.500000
 42
0.000000
  0
VERTEX
  8
0
 10
282.035518
 20
196.000000
 42
-0.011730
  0
VERTEX
  8
0
 10
279.350193
 20
188.603378
 42
-0.117190
  0
VERTEX
  8
0
 10
277.490394
 20
185.914018
 42
-0.190469
  0
VERTEX
  8
0
 10
274.991945
 20
184.984911
 42
-0.041284
  0
VERTEX
  8
0
 10
270.323805
 20
185.467077
 42
-0.116202
  0
VERTEX
  8
0
 10
267.164850
 20
186.865716
 42
-0.195027
  0
VERTEX
  8
0
 10
265.700596
 20
189.322931
 42
-0.095344
  0
VERTEX
  8
0
 10
265.860794
 20
193.544059
 42
-0.017087
  0
VERTEX
  8
0
 10
267.912623
 20
201.188831
 42
-0.016037
  0
VERTEX
  8
0
 10
272.167242
 20
213.672971
 42
-0.135566
  0
VERTEX
  8
0
 10
275.631794
 20
218.424526
 42
-0.148460
  0
VERTEX
  8
0
 10
280.910212
 20
220.511545
 42
-0.020442
  0
VERTEX
  8
0
 10
292.852515
 20
221.000000
 42
0.000000
  0
VERTEX
  8
0
 10
305.804350
 20
221.000000
 42
0.000000
  0
VERTEX
  8
0
 10
306.850155
 20
224.000000
 42
0.000000
  0
VERTEX
  8
0
 10
307.895961
 20
227.000000
 42
0.000000
  0
VERTEX
  8
0
 10
289.197980
 20
226.978038
 42
0.002969
  0
VERTEX
  8
0
 10
278.354156
 20
226.900917
 42
0.018904
  0
VERTEX
  8
0
 10
272.856568
 20
226.621106
 42
0.037132
  0
VERTEX
  8
0
 10
269.217736
 20
226.023088
 42
0.047166
  0
SEQEND
  0
POLYLINE
  8
0
 66
1
 70
1
  0
VERTEX
  8
0
 10
313.869789
 20
203.250000
 42
0.000000
  0
VERTEX
  8
0
 10
306.258221
 20
179.500000
 42
0.000000
  0
VERTEX
  8
0
 10
326.307836
 20
179.228725
 42
0.003644
  0
VERTEX
  8
0
 10
334.047383
 20
179.180418
 42
0.005747
  0
VERTEX
  8
0
 10
340.688339
 20
179.263699
 42
0.001807
  0
VERTEX
  8
0
 10
346.412035
 20
179.421982
 42
0.194338
  0
VERTEX
  8
0
 10
347.107963
 20
179.728725
 42
0.078222
  0
VERTEX
  8
0
 10
347.441103
 20
180.199708
 42
0.018458
  0
VERTEX
  8
0
 10
347.837518
 20
181.081251
 42
0.018560
  0
VERTEX
  8
0
 10
348.222503
 20
182.140648
 42
0.017332
  0
VERTEX
  8
0
 10
348.537645
 20
183.250000
 42
0.000000
  0
VERTEX
  8
0
 10
349.216816
 20
186.000000
 42
0.000000
  0
VERTEX
  8
0
 10
337.748023
 20
186.000000
 42
0.000000
  0
VERTEX
  8
0
 10
326.279229
 20
186.000000
 42
0.000000
  0
VERTEX
  8
0
 10
328.340655
 20
193.000000
 42
0.000000
  0
VERTEX
  8
0
 10
330.402081
 20
200.000000
 42
0.000000
  0
VERTEX
  8
0
 10
340.603215
 20
200.000000
 42
0.000000
  0
VERTEX
  8
0
 10
350.804350
 20
200.000000
 42
0.000000
  0
VERTEX
  8
0
 10
351.850155
 20
203.000000
 42
0.000000
  0
VERTEX
  8
0
 10
352.895961
 20
206.000000
 42
0.000000
  0
VERTEX
  8
0
 10
342.947980
 20
206.000000
 42
-0.006400
  0
VERTEX
  8
0
 10
339.133585
 20
206.048824
 42
-0.010639
  0
VERTEX
  8
0
 10
335.922219
 20
206.199472
 42
-0.004473
  0
VERTEX
  8
0
 10
333.250642
 20
206.405860
 42
-0.389230
  0
VERTEX
  8
0
 10
333.000000
 20
206.679053
 42
-0.069391
  0
VERTEX
  8
0
 10
333.066838
 20
207.158335
 42
-0.001955
  0
VERTEX
  8
0
 10
333.645320
 20
209.162287
 42
-0.003956
  0
VERTEX
  8
0
 10
334.355081
 20
211.516224
 42
-0.002705
  0
VERTEX
  8
0
 10
335.196833
 20
214.179053
 42
0.000000
  0
VERTEX
  8
0
 10
337.393666
 20
221.000000
 42
0.000000
  0
VERTEX
  8
0
 10
349.099008
 20
221.000000
 42
0.000000
  0
VERTEX
  8
0
 10
360.804350
 20
221.000000
 42
0.000000
  0
VERTEX
  8
0
 10
361.850155
 20
224.000000
 42
0.000000
  0
VERTEX
  8
0
 10
362.895961
 20
227.000000
 42
0.000000
  0
VERTEX
  8
0
 10
342.188659
 20
227.000000
 42
0.000000
  0
VERTEX
  8
0
 10
321.481357
 20
227.000000
 42
0.000000
  0
SEQEND
  0
ENDSEC
  0
EOF
