  0
SECTION
  2
HEADER
  9
$ACADVER
  1
AC1006
  9
$EXTMIN
 10
0.000000
 20
0.000000
 30
0.000000
  9
$EXTMAX
 10
400.000000
 20
300.000000
 30
0.000000
  0
ENDSEC
  0
SECTION
  2
ENTITIES
  0
POLYLINE
  8
0
 66
1
 70
1
  0
VERTEX
  8
0
 10
141.086021
 20
237.250000
 42
0.000212
  0
VERTEX
  8
0
 10
138.861084
 20
230.299312
 42
0.000205
  0
VERTEX
  8
0
 10
136.616169
 20
223.265982
 42
0.000203
  0
VERTEX
  8
0
 10
134.644523
 20
217.071365
 42
0.000753
  0
VERTEX
  8
0
 10
133.409758
 20
213.166108
 42
0.000000
  0
VERTEX
  8
0
 10
131.103070
 20
205.832216
 42
0.000000
  0
VERTEX
  8
0
 10
152.801535
 20
206.175211
 42
0.002185
  0
VERTEX
  8
0
 10
165.925680
 20
206.440042
 42
0.018477
  0
VERTEX
  8
0
 10
171.821909
 20
206.803090
 42
0.041769
  0
VERTEX
  8
0
 10
175.500333
 20
207.479800
 42
0.056046
  0
VERTEX
  8
0
 10
178.649228
 20
208.728017
 42
0.098990
  0
VERTEX
  8
0
 10
183.575002
 20
212.766264
 42
0.082636
  0
VERTEX
  8
0
 10
186.953036
 20
218.640860
 42
0.094215
  0
VERTEX
  8
0
 10
187.967013
 20
224.580626
 42
0.194032
  0
VERTEX
  8
0
 10
186.152420
 20
228.847580
 42
0.000000
  0
VERTEX
  8
0
 10
184.071083
 20
230.928917
 42
0.000000
  0
VERTEX
  8
0
 10
187.056783
 20
232.692614
 42
0.089670
  0
VERTEX
  8
0
 10
189.477719
 20
234.783714
 42
0.043498
  0
VERTEX
  8
0
 10
191.769571
 20
238.187736
 42
0.043409
  0
VERTEX
  8
0
 10
193.452718
 20
241.968346
 42
0.083215
  0
VERTEX
  8
0
 10
194.000000
 20
245.233937
 42
0.122471
  0
VERTEX
  8
0
 10
192.823259
 20
249.966032
 42
0.195383
  0
VERTEX
  8
0
 10
189.672163
 20
252.606372
 42
0.070716
  0
VERTEX
  8
0
 10
182.938604
 20
253.764543
 42
0.007284
  0
VERTEX
  8
0
 10
166.777457
 20
254.000000
 42
0.000000
  0
VERTEX
  8
0
 10
146.455594
 20
254.000000
 42
0.000000
  0
SEQEND
  0
POLYLINE
  8
0
 66
1
 70
1
  0
VERTEX
  8
0
 10
173.800000
 20
246.800000
 42
-0.130939
  0
VERTEX
  8
0
 10
174.688886
 20
245.265381
 42
-0.073816
  0
VERTEX
  8
0
 10
174.942250
 20
243.114238
 42
-0.062717
  0
VERTEX
  8
0
 10
174.551322
 20
240.618803
 42
-0.049186
  0
VERTEX
  8
0
 10
173.536985
 20
238.071521
 42
-0.061549
  0
VERTEX
  8
0
 10
172.064987
 20
235.920794
 42
-0.117724
  0
VERTEX
  8
0
 10
170.363298
 20
234.723094
 42
-0.078258
  0
VERTEX
  8
0
 10
167.835244
 20
234.150538
 42
-0.016633
  0
VERTEX
  8
0
 10
163.311224
 20
234.000000
 42
-0.011544
  0
VERTEX
  8
0
 10
160.697889
 20
234.060345
 42
-0.049194
  0
VERTEX
  8
0
 10
159.154424
 20
234.284915
 42
-0.121923
  0
VERTEX
  8
0
 10
158.402654
 20
234.681509
 42
-0.311582
  0
VERTEX
  8
0
 10
158.264371
 20
235.250000
 42
0.011096
  0
VERTEX
  8
0
 10
158.543652
 20
236.031318
 42
0.001246
  0
VERTEX
  8
0
 10
159.134264
 20
237.821875
 42
0.001512
  0
VERTEX
  8
0
 10
159.825412
 20
239.956745
 42
0.001227
  0
VERTEX
  8
0
 10
160.553982
 20
242.250000
 42
0.000000
  0
VERTEX
  8
0
 10
162.365244
 20
248.000000
 42
0.000000
  0
VERTEX
  8
0
 10
167.482622
 20
248.000000
 42
-0.021511
  0
VERTEX
  8
0
 10
169.529751
 20
247.911886
 42
-0.025426
  0
VERTEX
  8
0
 10
171.449270
 20
247.647500
 42
-0.025549
  0
VERTEX
  8
0
 10
173.019868
 20
247.265140
 42
-0.124514
  0
SEQEND
  0
POLYLINE
  8
0
 66
1
 70
1
  0
VERTEX
  8
0
 10
168.721966
 20
225.706606
 42
-0.063832
  0
VERTEX
  8
0
 10
169.520961
 20
224.672650
 42
-0.114985
  0
VERTEX
  8
0
 10
169.837403
 20
223.654915
 42
-0.075057
  0
VERTEX
  8
0
 10
169.733568
 20
222.315112
 42
-0.015981
  0
VERTEX
  8
0
 10
169.132801
 20
220.048913
 42
-0.082892
  0
VERTEX
  8
0
 10
167.546366
 20
216.818548
 42
-0.109100
  0
VERTEX
  8
0
 10
165.110231
 20
214.631614
 42
-0.088881
  0
VERTEX
  8
0
 10
161.575652
 20
213.393577
 42
-0.039925
  0
VERTEX
  8
0
 10
156.654521
 20
213.000000
 42
0.000000
  0
VERTEX
  8
0
 10
151.209722
 20
213.000000
 42
0.000000
  0
VERTEX
  8
0
 10
153.125059
 20
219.250000
 42
-0.001003
  0
VERTEX
  8
0
 10
153.894732
 20
221.743676
 42
-0.001234
  0
VERTEX
  8
0
 10
154.623301
 20
224.067244
 42
-0.001019
  0
VERTEX
  8
0
 10
155.244373
 20
226.017153
 42
-0.009005
  0
VERTEX
  8
0
 10
155.535834
 20
226.872533
 42
-0.306263
  0
VERTEX
  8
0
 10
157.008645
 20
227.946382
 42
-0.030961
  0
VERTEX
  8
0
 10
161.573117
 20
227.826361
 42
-0.034681
  0
VERTEX
  8
0
 10
166.233057
 20
227.086173
 42
-0.140550
  0
SEQEND
  0
POLYLINE
  8
0
 66
1
 70
1
  0
VERTEX
  8
0
 10
202.086021
 20
237.250000
 42
0.000208
  0
VERTEX
  8
0
 10
199.862985
 20
230.305471
 42
0.000202
  0
VERTEX
  8
0
 10
197.623773
 20
223.290625
 42
0.000199
  0
VERTEX
  8
0
 10
195.659627
 20
217.120421
 42
0.000749
  0
VERTEX
  8
0
 10
194.435642
 20
213.250000
 42
0.000000
  0
VERTEX
  8
0
 10
192.154837
 20
206.000000
 42
0.000000
  0
VERTEX
  8
0
 10
201.014520
 20
206.000000
 42
0.000000
  0
VERTEX
  8
0
 10
209.874202
 20
206.000000
 42
0.000000
  0
VERTEX
  8
0
 10
217.437101
 20
229.402850
 42
0.000699
  0
VERTEX
  8
0
 10
220.336475
 20
238.417789
 42
0.001126
  0
VERTEX
  8
0
 10
222.778398
 20
246.106526
 42
0.000166
  0
VERTEX
  8
0
 10
224.928653
 20
252.938025
 42
0.076299
  0
VERTEX
  8
0
 10
225.000000
 20
253.402850
 42
0.389311
  0
VERTEX
  8
0
 10
224.779513
 20
253.643107
 42
0.004449
  0
VERTEX
  8
0
 10
222.423165
 20
253.824587
 42
0.010610
  0
VERTEX
  8
0
 10
219.591360
 20
253.957065
 42
0.006382
  0
VERTEX
  8
0
 10
216.227797
 20
254.000000
 42
0.000000
  0
VERTEX
  8
0
 10
207.455594
 20
254.000000
 42
0.000000
  0
SEQEND
  0
POLYLINE
  8
0
 66
1
 70
1
  0
VERTEX
  8
0
 10
244.000000
 20
251.915970
 42
0.063043
  0
VERTEX
  8
0
 10
238.353427
 20
248.441890
 42
0.076860
  0
VERTEX
  8
0
 10
234.174265
 20
243.864014
 42
0.057114
  0
VERTEX
  8
0
 10
230.758269
 20
237.178565
 42
0.019734
  0
VERTEX
  8
0
 10
227.353784
 20
226.864114
 42
0.022746
  0
VERTEX
  8
0
 10
225.671263
 20
219.801252
 42
0.074025
  0
VERTEX
  8
0
 10
225.476523
 20
215.006955
 42
0.111113
  0
VERTEX
  8
0
 10
226.676582
 20
211.486183
 42
0.095725
  0
VERTEX
  8
0
 10
229.319383
 20
208.595826
 42
0.074967
  0
VERTEX
  8
0
 10
231.479925
 20
207.444567
 42
0.051545
  0
VERTEX
  8
0
 10
234.182361
 20
206.792017
 42
0.024511
  0
VERTEX
  8
0
 10
238.497559
 20
206.424688
 42
0.003551
  0
VERTEX
  8
0
 10
247.319383
 20
206.170515
 42
0.009378
  0
VERTEX
  8
0
 10
258.468035
 20
206.137674
 42
0.043593
  0
VERTEX
  8
0
 10
264.862944
 20
206.798308
 42
0.077886
  0
VERTEX
  8
0
 10
269.072430
 20
208.313602
 42
0.092841
  0
VERTEX
  8
0
 10
272.332106
 20
210.982839
 42
0.074914
  0
VERTEX
  8
0
 10
274.200111
 20
214.029920
 42
0.007454
  0
VERTEX
  8
0
 10
277.429112
 20
221.986925
 42
0.006924
  0
VERTEX
  8
0
 10
280.442736
 20
230.073010
 42
0.085935
  0
VERTEX
  8
0
 10
281.000000
 20
233.291406
 42
0.388686
  0
VERTEX
  8
0
 10
280.720737
 20
233.596373
 42
0.007727
  0
VERTEX
  8
0
 10
278.440121
 20
233.761969
 42
0.014088
  0
VERTEX
  8
0
 10
275.626935
 20
233.843170
 42
0.008457
  0
VERTEX
  8
0
 10
272.285518
 20
233.788933
 42
0.000000
  0
VERTEX
  8
0
 10
263.571036
 20
233.500000
 42
0.000000
  0
VERTEX
  8
0
 10
260.035518
 20
223.000000
 42
-0.011730
  0
VERTEX
  8
0
 10
257.350193
 20
215.603378
 42
-0.117190
  0
VERTEX
  8
0
 10
255.490394
 20
212.914018
 42
-0.190469
  0
VERTEX
  8
0
 10
252.991945
 20
211.984911
 42
-0.041284
  0
VERTEX
  8
0
 10
248.323805
 20
212.467077
 42
-0.116202
  0
VERTEX
  8
0
 10
245.164850
 20
213.865716
 42
-0.195027
  0
VERTEX
  8
0
 10
243.700596
 20
216.322931
 42
-0.095344
  0
VERTEX
  8
0
 10
243.860794
 20
220.544059
 42
-0.017087
  0
VERTEX
  8
0
 10
245.912623
 20
228.188831
 42
-0.016037
  0
VERTEX
  8
0
 10
250.167242
 20
240.672971
 42
-0.135566
  0
VERTEX
  8
0
 10
253.631794
 20
245.424526
 42
-0.148460
  0
VERTEX
  8
0
 10
258.910212
 20
247.511545
 42
-0.020442
  0
VERTEX
  8
0
 10
270.852515
 20
248.000000
 42
0.000000
  0
VERTEX
  8
0
 10
283.804350
 20
248.000000
 42
0.000000
  0
VERTEX
  8
0
 10
284.850155
 20
251.000000
 42
0.000000
  0
VERTEX
  8
0
 10
285.895961
 20
254.000000
 42
0.000000
  0
VERTEX
  8
0
 10
267.197980
 20
253.978038
 42
0.002969
  0
VERTEX
  8
0
 10
256.354156
 20
253.900917
 42
0.018904
  0
VERTEX
  8
0
 10
250.856568
 20
253.621106
 42
0.037132
  0
VERTEX
  8
0
 10
247.217736
 20
253.023088
 42
0.047166
  0
SEQEND
  0
ENDSEC
  0
EOF
