<?xml version="1.0" encoding="UTF-8"?>
<!DOCTYPE svg PUBLIC "-//W3C//DTD SVG 1.1//EN" "http://www.w3.org/Graphics/SVG/1.1/DTD/svg11.dtd">
<!-- Creator: CorelDRAW 2019 (64-Bit) -->
<svg xmlns="http://www.w3.org/2000/svg" xml:space="preserve" width="125.082mm" height="123.188mm" version="1.1" style="shape-rendering:geometricPrecision; text-rendering:geometricPrecision; image-rendering:optimizeQuality; fill-rule:evenodd; clip-rule:evenodd"
viewBox="0 0 12678.57 12486.51"
 xmlns:xlink="http://www.w3.org/1999/xlink"
 xmlns:xodm="http://www.corel.com/coreldraw/odm/2003">
 <defs>
  <style type="text/css">
   <![CDATA[
    .str1 {stroke:#2E2D2C;stroke-width:143.03;stroke-miterlimit:22.9256}
    .str2 {stroke:#2E2D2C;stroke-width:143.03;stroke-miterlimit:22.9256}
    .str20 {stroke:#2E2D2C;stroke-width:143.03;stroke-miterlimit:22.9256}
    .str19 {stroke:#2E2D2C;stroke-width:143.03;stroke-miterlimit:22.9256}
    .str50 {stroke:#2E2D2C;stroke-width:143.03;stroke-miterlimit:22.9256}
    .str49 {stroke:#2E2D2C;stroke-width:143.03;stroke-miterlimit:22.9256}
    .str0 {stroke:#2E2D2C;stroke-width:143.03;stroke-miterlimit:22.9256}
    .str13 {stroke:#2E2D2C;stroke-width:143.03;stroke-miterlimit:22.9256}
    .str14 {stroke:#2E2D2C;stroke-width:143.03;stroke-miterlimit:22.9256}
    .str8 {stroke:#2E2D2C;stroke-width:143.03;stroke-miterlimit:22.9256}
    .str7 {stroke:#2E2D2C;stroke-width:143.03;stroke-miterlimit:22.9256}
    .str21 {stroke:#2E2D2C;stroke-width:143.03;stroke-miterlimit:22.9256}
    .str22 {stroke:#2E2D2C;stroke-width:143.03;stroke-miterlimit:22.9256}
    .str9 {stroke:#2E2D2C;stroke-width:143.03;stroke-miterlimit:22.9256}
    .str10 {stroke:#2E2D2C;stroke-width:143.03;stroke-miterlimit:22.9256}
    .str4 {stroke:#2E2D2C;stroke-width:143.03;stroke-miterlimit:22.9256}
    .str3 {stroke:#2E2D2C;stroke-width:143.03;stroke-miterlimit:22.9256}
    .str17 {stroke:#2E2D2C;stroke-width:143.03;stroke-miterlimit:22.9256}
    .str18 {stroke:#2E2D2C;stroke-width:143.03;stroke-miterlimit:22.9256}
    .str6 {stroke:#2E2D2C;stroke-width:143.03;stroke-miterlimit:22.9256}
    .str5 {stroke:#2E2D2C;stroke-width:143.03;stroke-miterlimit:22.9256}
    .str37 {stroke:#2E2D2C;stroke-width:143.03;stroke-miterlimit:22.9256}
    .str38 {stroke:#2E2D2C;stroke-width:143.03;stroke-miterlimit:22.9256}
    .str31 {stroke:#2E2D2C;stroke-width:143.03;stroke-miterlimit:22.9256}
    .str32 {stroke:#2E2D2C;stroke-width:143.03;stroke-miterlimit:22.9256}
    .str26 {stroke:#2E2D2C;stroke-width:143.03;stroke-miterlimit:22.9256}
    .str25 {stroke:#2E2D2C;stroke-width:143.03;stroke-miterlimit:22.9256}
    .str33 {stroke:#2E2D2C;stroke-width:143.03;stroke-miterlimit:22.9256}
    .str34 {stroke:#2E2D2C;stroke-width:143.03;stroke-miterlimit:22.9256}
    .str27 {stroke:#2E2D2C;stroke-width:143.03;stroke-miterlimit:22.9256}
    .str28 {stroke:#2E2D2C;stroke-width:143.03;stroke-miterlimit:22.9256}
    .str51 {stroke:#2E2D2C;stroke-width:143.03;stroke-miterlimit:22.9256}
    .str52 {stroke:#2E2D2C;stroke-width:143.03;stroke-miterlimit:22.9256}
    .str24 {stroke:#2E2D2C;stroke-width:143.03;stroke-miterlimit:22.9256}
    .str23 {stroke:#2E2D2C;stroke-width:143.03;stroke-miterlimit:22.9256}
    .str11 {stroke:#2E2D2C;stroke-width:143.03;stroke-miterlimit:22.9256}
    .str12 {stroke:#2E2D2C;stroke-width:143.03;stroke-miterlimit:22.9256}
    .str16 {stroke:#2E2D2C;stroke-width:143.03;stroke-miterlimit:22.9256}
    .str15 {stroke:#2E2D2C;stroke-width:143.03;stroke-miterlimit:22.9256}
    .str53 {stroke:#2E2D2C;stroke-width:143.03;stroke-miterlimit:22.9256}
    .str54 {stroke:#2E2D2C;stroke-width:143.03;stroke-miterlimit:22.9256}
    .str45 {stroke:#2E2D2C;stroke-width:143.03;stroke-miterlimit:22.9256}
    .str46 {stroke:#2E2D2C;stroke-width:143.03;stroke-miterlimit:22.9256}
    .str39 {stroke:#2E2D2C;stroke-width:143.03;stroke-miterlimit:22.9256}
    .str40 {stroke:#2E2D2C;stroke-width:143.03;stroke-miterlimit:22.9256}
    .str44 {stroke:#2E2D2C;stroke-width:143.03;stroke-miterlimit:22.9256}
    .str43 {stroke:#2E2D2C;stroke-width:143.03;stroke-miterlimit:22.9256}
    .str35 {stroke:#2E2D2C;stroke-width:143.03;stroke-miterlimit:22.9256}
    .str36 {stroke:#2E2D2C;stroke-width:143.03;stroke-miterlimit:22.9256}
    .str30 {stroke:#2E2D2C;stroke-width:143.03;stroke-miterlimit:22.9256}
    .str29 {stroke:#2E2D2C;stroke-width:143.03;stroke-miterlimit:22.9256}
    .str42 {stroke:#2E2D2C;stroke-width:143.03;stroke-miterlimit:22.9256}
    .str41 {stroke:#2E2D2C;stroke-width:143.03;stroke-miterlimit:22.9256}
    .str47 {stroke:#2E2D2C;stroke-width:143.03;stroke-miterlimit:22.9256}
    .str48 {stroke:#2E2D2C;stroke-width:143.03;stroke-miterlimit:22.9256}
    .fil1 {fill:none}
    .fil0 {fill:#FEFEFE}
   ]]>
  </style>
 </defs>
 <g id="Ebene_x0020_1">
  <metadata id="CorelCorpID_0Corel-Layer"/>
  <circle class="fil0 str0" transform="matrix(0.956304 -0.1344 0.1344 0.956304 6233.2 6117.88)" r="5108.65"/>
  <g id="_1820500893008">
   <path class="fil0 str1" d="M5241.82 1730.77l-122.79 -873.69c-308.8,-14.26 -539.22,-118.65 -561.22,-275.12 -29.16,-207.54 319.36,-428.09 778.47,-492.62 459.11,-64.52 854.93,51.42 884.09,258.96 22,156.46 -170.73,320.33 -463.64,419.15l122.79 873.69c15.66,111.44 -115.02,222.76 -290.38,247.41 -175.37,24.64 -331.66,-46.35 -347.32,-157.79z"/>
   <path class="fil1 str2" d="M5119.04 857.09c218.34,11.15 431.1,-17.26 637.7,-89.62"/>
  </g>
  <g id="_1820500894448">
   <path class="fil0 str3" d="M7504.53 1725.79l330.5 -818.03c-260.3,-166.74 -407.66,-372.37 -348.47,-518.86 78.5,-194.32 490.62,-211.06 920.48,-37.38 429.87,173.67 714.68,471.99 636.17,666.3 -59.19,146.5 -308.03,192.05 -611.1,131.17l-330.51 818.03c-42.15,104.34 -210.97,135.42 -375.17,69.09 -164.2,-66.34 -264.05,-205.98 -221.89,-310.32z"/>
   <path class="fil1 str4" d="M7835.03 907.76c183.52,118.84 381.97,200.61 597.07,241.23"/>
  </g>
  <g id="_1820500902128">
   <path class="fil0 str5" d="M9547.12 2957.87l695.24 -543.18c-142.06,-274.56 -166.86,-526.32 -42.36,-623.59 165.15,-129.03 530.43,62.53 815.85,427.86 285.43,365.34 382.93,766.1 217.79,895.13 -124.5,97.28 -362.78,12.31 -594.82,-191.95l-695.24 543.18c-88.67,69.28 -250.42,11.79 -359.45,-127.77 -109.02,-139.54 -125.69,-310.4 -37.01,-379.68z"/>
   <path class="fil1 str6" d="M10242.36 2414.69c99.52,194.67 230.5,364.71 396.46,507.45"/>
  </g>
  <g id="_1820500910448">
   <path class="fil0 str7" d="M10947.81 4958.23l873.68 -122.79c14.26,-308.8 118.65,-539.23 275.12,-561.22 207.54,-29.17 428.09,319.36 492.62,778.47 64.52,459.1 -51.42,854.93 -258.96,884.09 -156.46,22 -320.32,-170.73 -419.15,-463.65l-873.69 122.79c-111.44,15.66 -222.76,-115.01 -247.41,-290.37 -24.64,-175.37 46.36,-331.66 157.8,-347.32z"/>
   <path class="fil1 str8" d="M11821.48 4835.44c-11.15,218.34 17.26,431.09 89.62,637.69"/>
  </g>
  <g id="_1819237218832">
   <path class="fil0 str9" d="M10621.13 7476.48l818.03 330.51c166.75,-260.31 372.37,-407.66 518.87,-348.47 194.31,78.5 211.06,490.62 37.38,920.48 -173.67,429.86 -471.99,714.67 -666.31,636.17 -146.49,-59.19 -192.04,-308.03 -131.17,-611.1l-818.03 -330.51c-104.33,-42.16 -135.42,-210.98 -69.08,-375.18 66.34,-164.19 205.98,-264.05 310.31,-221.89z"/>
   <path class="fil1 str10" d="M11439.16 7806.99c-118.83,183.52 -200.6,381.97 -241.23,597.07"/>
  </g>
  <g id="_1819237205424">
   <path class="fil0 str11" d="M9417.08 9670.08l543.18 695.24c274.56,-142.06 526.32,-166.86 623.59,-42.36 129.03,165.15 -62.53,530.42 -427.86,815.85 -365.34,285.43 -766.1,382.93 -895.13,217.79 -97.28,-124.5 -12.31,-362.78 191.95,-594.82l-543.18 -695.24c-69.28,-88.67 -11.79,-250.42 127.77,-359.45 139.54,-109.03 310.4,-125.69 379.68,-37.01z"/>
   <path class="fil1 str12" d="M9960.26 10365.32c-194.67,99.51 -364.71,230.5 -507.45,396.46"/>
  </g>
  <g id="_1819237208560">
   <path class="fil0 str13" d="M6984.59 10755.73l122.79 873.69c308.8,14.26 539.22,118.65 561.22,275.12 29.16,207.54 -319.36,428.09 -778.47,492.62 -459.11,64.52 -854.93,-51.42 -884.1,-258.96 -21.99,-156.46 170.74,-320.33 463.65,-419.15l-122.79 -873.69c-15.66,-111.44 115.01,-222.77 290.37,-247.41 175.37,-24.65 331.67,46.35 347.33,157.79z"/>
   <path class="fil1 str14" d="M7107.38 11629.42c-218.34,-11.15 -431.1,17.26 -637.7,89.62"/>
  </g>
  <g id="_1819239515312">
   <path class="fil0 str15" d="M4831.2 10447.49l-330.51 818.03c260.31,166.75 407.66,372.37 348.47,518.87 -78.5,194.31 -490.62,211.06 -920.48,37.38 -429.86,-173.67 -714.68,-472 -636.17,-666.31 59.19,-146.5 308.03,-192.05 611.1,-131.17l330.51 -818.03c42.16,-104.33 210.98,-135.42 375.17,-69.08 164.2,66.34 264.05,205.98 221.9,310.31z"/>
   <path class="fil1 str16" d="M4500.69 11265.52c-183.52,-118.83 -381.97,-200.6 -597.07,-241.23"/>
  </g>
  <g id="_1819239503152">
   <path class="fil0 str17" d="M2674.45 8978.66l-695.24 543.18c142.06,274.56 166.86,526.31 42.35,623.59 -165.14,129.02 -530.42,-62.53 -815.84,-427.87 -285.43,-365.34 -382.93,-766.09 -217.79,-895.13 124.5,-97.27 362.78,-12.3 594.82,191.96l695.23 -543.19c88.68,-69.28 250.43,-11.78 359.46,127.77 109.02,139.54 125.69,310.4 37.01,379.69z"/>
   <path class="fil1 str18" d="M1979.21 9521.84c-99.52,-194.68 -230.5,-364.71 -396.46,-507.45"/>
  </g>
  <g id="_1819049291008">
   <path class="fil0 str19" d="M1730.77 6914.33l-873.69 122.78c-14.26,308.81 -118.65,539.23 -275.12,561.22 -207.54,29.17 -428.09,-319.36 -492.62,-778.46 -64.52,-459.11 51.42,-854.93 258.96,-884.1 156.46,-21.99 320.33,170.73 419.15,463.65l873.69 -122.79c111.44,-15.66 222.76,115.01 247.41,290.37 24.64,175.37 -46.35,331.66 -157.79,347.33z"/>
   <path class="fil1 str20" d="M857.09 7037.1c11.15,-218.34 -17.26,-431.09 -89.62,-637.69"/>
  </g>
  <g id="_1819049293536">
   <path class="fil0 str21" d="M1677.97 4898.32l-818.03 -330.5c-166.75,260.3 -372.37,407.66 -518.87,348.47 -194.31,-78.5 -211.06,-490.62 -37.38,-920.48 173.67,-429.87 471.99,-714.68 666.31,-636.18 146.49,59.2 192.04,308.03 131.17,611.11l818.03 330.5c104.33,42.16 135.42,210.98 69.08,375.18 -66.34,164.2 -205.98,264.05 -310.31,221.89z"/>
   <path class="fil1 str22" d="M859.94 4567.82c118.83,-183.52 200.6,-381.97 241.23,-597.07"/>
  </g>
  <g id="_1819235552144">
   <path class="fil0 str23" d="M3273.34 2681.04l-543.18 -695.24c-274.56,142.06 -526.31,166.86 -623.59,42.36 -129.02,-165.15 62.53,-530.42 427.87,-815.85 365.34,-285.43 766.09,-382.93 895.13,-217.79 97.27,124.5 12.3,362.78 -191.96,594.82l543.19 695.24c69.28,88.67 11.78,250.42 -127.77,359.45 -139.54,109.02 -310.4,125.69 -379.69,37.01z"/>
   <path class="fil1 str24" d="M2730.16 1985.8c194.68,-99.51 364.71,-230.5 507.45,-396.46"/>
  </g>
  <g id="_1819042791408">
   <path class="fil1 str25" d="M4938.04 3775.77l-171.59 -404.22c-271.18,30.2 -512.87,-68.63 -597.39,-267.75 -112.1,-264.09 94.71,-604.56 461.95,-760.44 367.22,-155.88 755.8,-68.14 867.9,195.95 84.52,199.12 -12.27,441.61 -222.38,615.71l171.59 404.23c50.23,118.35 -23.42,263.91 -163.7,323.45 -140.27,59.54 -296.14,11.42 -346.38,-106.94z"/>
   <path class="fil1 str26" d="M4766.46 3371.55c194.16,-15.39 364.92,-85.76 510.08,-216.52"/>
  </g>
  <g id="_1821029390288">
   <path class="fil1 str27" d="M3986.92 4392.97l-350.71 -264.28c-219.75,161.75 -478.47,197.01 -651.22,66.83 -229.13,-172.66 -220.26,-570.92 19.83,-889.53 240.1,-318.61 620.48,-436.91 849.6,-264.25 172.75,130.17 210.18,388.58 115.27,644.41l350.71 264.28c102.69,77.38 111.67,240.26 19.96,361.96 -91.7,121.71 -250.75,157.96 -353.44,80.58z"/>
   <path class="fil1 str28" d="M3636.21 4128.69c160.45,-110.4 273.15,-256.72 333.48,-442.55"/>
  </g>
  <g id="_1820253517520">
   <path class="fil1 str29" d="M3592.17 5793.31l-435.87 -53.51c-109.44,249.95 -315.86,409.84 -530.56,383.47 -284.77,-34.96 -476.22,-384.3 -427.59,-780.26 48.62,-395.97 318.89,-688.62 603.66,-653.65 214.69,26.35 376.31,231.43 422.03,500.44l435.87 53.52c127.61,15.66 216.83,152.24 198.26,303.49 -18.57,151.24 -138.18,262.17 -265.8,246.5z"/>
   <path class="fil1 str30" d="M3156.31 5739.81c83.76,-175.84 108.19,-358.91 67.54,-550"/>
  </g>
  <g id="_1821021728240">
   <path class="fil1 str31" d="M3632.74 7304.51l-404.23 171.59c30.2,271.19 -68.63,512.87 -267.75,597.39 -264.09,112.11 -604.56,-94.71 -760.44,-461.94 -155.88,-367.23 -68.14,-755.8 195.95,-867.91 199.12,-84.52 441.61,12.27 615.71,222.39l404.23 -171.59c118.35,-50.25 263.91,23.42 323.45,163.7 59.54,140.26 11.42,296.14 -106.93,346.37z"/>
   <path class="fil1 str32" d="M3228.51 7476.09c-15.39,-194.15 -85.76,-364.91 -216.52,-510.07"/>
  </g>
  <g id="_1819326861488">
   <path class="fil1 str33" d="M4631.18 8243.84l-264.27 350.7c161.74,219.76 197,478.48 66.82,651.23 -172.66,229.13 -570.92,220.26 -889.53,-19.84 -318.61,-240.09 -436.91,-620.48 -264.25,-849.6 130.18,-172.75 388.58,-210.17 644.41,-115.27l264.28 -350.71c77.38,-102.68 240.27,-111.66 361.96,-19.96 121.71,91.71 157.96,250.76 80.58,353.45z"/>
   <path class="fil1 str34" d="M4366.91 8594.54c-110.41,-160.45 -256.73,-273.15 -442.56,-333.48"/>
  </g>
  <g id="_1819326860208">
   <path class="fil1 str35" d="M6039.52 8831.47l-53.52 435.87c249.96,109.43 409.84,315.86 383.48,530.56 -34.97,284.77 -384.3,476.21 -780.27,427.59 -395.97,-48.62 -688.62,-318.89 -653.65,-603.66 26.35,-214.69 231.44,-376.31 500.44,-422.03l53.52 -435.87c15.67,-127.61 152.24,-216.83 303.49,-198.26 151.25,18.57 262.18,138.18 246.51,265.8z"/>
   <path class="fil1 str36" d="M5986 9267.34c-175.84,-83.76 -358.91,-108.19 -550,-67.54"/>
  </g>
  <g id="_1819326862832">
   <path class="fil1 str37" d="M7675 8610.99l171.58 404.23c271.19,-30.21 512.87,68.63 597.4,267.74 112.1,264.1 -94.71,604.56 -461.95,760.45 -367.22,155.87 -755.8,68.14 -867.9,-195.95 -84.53,-199.12 12.27,-441.62 222.38,-615.72l-171.59 -404.22c-50.23,-118.36 23.42,-263.91 163.7,-323.45 140.26,-59.55 296.14,-11.42 346.38,106.93z"/>
   <path class="fil1 str38" d="M7846.58 9015.22c-194.15,15.39 -364.91,85.75 -510.07,216.51"/>
  </g>
  <g id="_1819326862480">
   <path class="fil1 str39" d="M8451.25 7286.73l350.71 264.28c219.75,-161.74 478.47,-197 651.22,-66.82 229.13,172.66 220.26,570.92 -19.84,889.53 -240.09,318.61 -620.48,436.91 -849.6,264.25 -172.75,-130.18 -210.17,-388.59 -115.27,-644.42l-350.71 -264.27c-102.68,-77.38 -111.66,-240.27 -19.95,-361.96 91.7,-121.71 250.75,-157.97 353.44,-80.59z"/>
   <path class="fil1 str40" d="M8801.97 7551.01c-160.46,110.4 -273.15,256.73 -333.49,442.55"/>
  </g>
  <g id="_1819326862192">
   <path class="fil1 str41" d="M8863.54 6161.48l435.87 53.51c109.44,-249.95 315.87,-409.84 530.57,-383.48 284.76,34.97 476.21,384.31 427.58,780.27 -48.61,395.97 -318.88,688.62 -603.65,653.65 -214.69,-26.35 -376.32,-231.43 -422.03,-500.44l-435.87 -53.52c-127.62,-15.66 -216.83,-152.24 -198.26,-303.49 18.57,-151.24 138.18,-262.17 265.79,-246.5z"/>
   <path class="fil1 str42" d="M9299.41 6214.99c-83.75,175.84 -108.19,358.91 -67.53,550"/>
  </g>
  <g id="_1819326863920">
   <path class="fil1 str43" d="M8705.24 4607.27l404.23 -171.59c-30.2,-271.18 68.63,-512.87 267.75,-597.39 264.09,-112.1 604.55,94.71 760.44,461.94 155.88,367.23 68.14,755.81 -195.95,867.91 -199.12,84.52 -441.62,-12.27 -615.71,-222.38l-404.23 171.59c-118.36,50.23 -263.91,-23.43 -323.45,-163.7 -59.54,-140.27 -11.42,-296.15 106.93,-346.38z"/>
   <path class="fil1 str44" d="M9109.47 4435.68c15.39,194.16 85.75,364.92 216.52,510.08"/>
  </g>
  <g id="_1819326863888">
   <path class="fil1 str45" d="M7461.94 3825.31l264.28 -350.71c-161.75,-219.75 -197,-478.47 -66.83,-651.23 172.67,-229.13 570.93,-220.25 889.54,19.84 318.61,240.09 436.91,620.48 264.25,849.6 -130.18,172.75 -388.59,210.18 -644.42,115.27l-264.28 350.71c-77.38,102.69 -240.26,111.67 -361.96,19.96 -121.69,-91.71 -157.96,-250.76 -80.58,-353.44z"/>
   <path class="fil1 str46" d="M7726.22 3474.6c110.4,160.45 256.73,273.15 442.55,333.48"/>
  </g>
  <g id="_1819326866576">
   <path class="fil1 str47" d="M6244.43 3205.36l53.52 -435.86c-249.95,-109.44 -409.84,-315.87 -383.48,-530.57 34.97,-284.77 384.3,-476.21 780.27,-427.59 395.97,48.62 688.62,318.89 653.65,603.66 -26.35,214.69 -231.44,376.31 -500.44,422.03l-53.52 435.87c-15.67,127.61 -152.24,216.83 -303.49,198.26 -151.25,-18.57 -262.17,-138.18 -246.51,-265.8z"/>
   <path class="fil1 str48" d="M6297.95 2769.51c175.84,83.75 358.91,108.18 550,67.53"/>
  </g>
  <g id="_1819326867696">
   <path class="fil1 str49" d="M5918.87 5526.8l-2.98 -21.18c-226.29,-60.25 -406.6,-253.26 -441.71,-503.08 -46.57,-331.34 179.92,-637.11 505.89,-682.92 325.97,-45.82 627.96,185.67 674.53,517.03 35.1,249.81 -85.02,485.05 -285.94,605.33l2.98 21.18c14.76,105.05 -75.03,205.33 -199.54,222.82 -124.51,17.5 -238.46,-54.14 -253.22,-159.19z"/>
   <path class="fil1 str50" d="M5915.89 5505.62c158.02,29.19 309.14,9.58 452.76,-63.63"/>
  </g>
  <g id="_1819326868592">
   <path class="fil1 str51" d="M5878.48 6685.64l-16.86 13.17c60.97,226.1 -16.03,478.76 -214.82,634.07 -263.67,206.01 -641.72,162.75 -844.37,-96.65 -202.65,-259.38 -153.18,-636.66 110.49,-842.67 198.79,-155.31 462.57,-168.89 667.2,-55.04l16.86 -13.17c83.6,-65.32 215.33,-37.69 292.74,61.39 77.41,99.08 72.34,233.58 -11.25,298.9z"/>
   <path class="fil1 str52" d="M5861.62 6698.81c-53.73,-151.45 -146.28,-272.52 -281.49,-360.29"/>
  </g>
  <g id="_1819326869136">
   <path class="fil1 str53" d="M6902.26 6141.2l19.83 8.02c165.33,-165.86 422.64,-225.5 656.53,-131 310.25,125.34 461.79,474.37 338.49,779.57 -123.31,305.19 -474.78,450.99 -785.02,325.65 -233.9,-94.5 -377.56,-316.16 -381.27,-550.3l-19.84 -8.01c-98.36,-39.74 -140.31,-167.64 -93.2,-284.22 47.1,-116.58 166.11,-179.45 264.48,-139.71z"/>
   <path class="fil1 str54" d="M6922.09 6149.22c-104.29,122.25 -162.87,262.93 -171.27,423.92"/>
  </g>
 </g>
</svg>
