  0
SECTION
  2
HEADER
  9
$ACADVER
  1
AC1009
  9
$FILLMODE
 70
 0
  9
$SPLFRAME
 70
 1
  9
$EXTMIN
 10
0
 20
0
 30
0.0
  9
$EXTMAX
 10
41.6667
 20
41.6667
 30
0.0
  0
ENDSEC
  0
SECTION
  2
TABLES
  0
TABLE
  2
LAYER
 70
1
  0
LAYER
  2
0
 70
     0
 62
     7
  6
CONTINUOUS
  0
ENDTAB
  0
ENDSEC
  0
SECTION
  2
ENTITIES
  0
POLYLINE
  8
0
 62
     7
 66
     1
 10
0
 20
0
 30
0.0
 70
     1
 40
0
 41
0
  0
VERTEX
  8
0
 10
4.31858
 20
2.75151
 30
0.0
 40
0
 41
0
  0
VERTEX
  8
0
 10
4.32536
 20
2.70307
 30
0.0
 40
0
 41
0
  0
VERTEX
  8
0
 10
4.33604
 20
2.55615
 30
0.0
 40
0
 41
0
  0
VERTEX
  8
0
 10
4.33376
 20
2.36372
 30
0.0
 40
0
 41
0
  0
VERTEX
  8
0
 10
4.31256
 20
2.17529
 30
0.0
 40
0
 41
0
  0
VERTEX
  8
0
 10
4.27322
 20
1.99197
 30
0.0
 40
0
 41
0
  0
VERTEX
  8
0
 10
4.21664
 20
1.81489
 30
0.0
 40
0
 41
0
  0
VERTEX
  8
0
 10
4.14361
 20
1.64507
 30
0.0
 40
0
 41
0
  0
VERTEX
  8
0
 10
4.0549
 20
1.48367
 30
0.0
 40
0
 41
0
  0
VERTEX
  8
0
 10
3.95139
 20
1.33171
 30
0.0
 40
0
 41
0
  0
VERTEX
  8
0
 10
3.83382
 20
1.19027
 30
0.0
 40
0
 41
0
  0
VERTEX
  8
0
 10
3.70307
 20
1.06049
 30
0.0
 40
0
 41
0
  0
VERTEX
  8
0
 10
3.56
 20
0.943468
 30
0.0
 40
0
 41
0
  0
VERTEX
  8
0
 10
3.40539
 20
0.840278
 30
0.0
 40
0
 41
0
  0
VERTEX
  8
0
 10
3.23996
 20
0.751953
 30
0.0
 40
0
 41
0
  0
VERTEX
  8
0
 10
3.06472
 20
0.679633
 30
0.0
 40
0
 41
0
  0
VERTEX
  8
0
 10
2.88032
 20
0.624403
 30
0.0
 40
0
 41
0
  0
VERTEX
  8
0
 10
2.73617
 20
0.594129
 30
0.0
 40
0
 41
0
  0
VERTEX
  8
0
 10
2.68772
 20
0.587294
 30
0.0
 40
0
 41
0
  0
VERTEX
  8
0
 10
2.63921
 20
0.580513
 30
0.0
 40
0
 41
0
  0
VERTEX
  8
0
 10
2.49229
 20
0.569824
 30
0.0
 40
0
 41
0
  0
VERTEX
  8
0
 10
2.29986
 20
0.572103
 30
0.0
 40
0
 41
0
  0
VERTEX
  8
0
 10
2.11143
 20
0.593317
 30
0.0
 40
0
 41
0
  0
VERTEX
  8
0
 10
1.92811
 20
0.63265
 30
0.0
 40
0
 41
0
  0
VERTEX
  8
0
 10
1.75103
 20
0.689236
 30
0.0
 40
0
 41
0
  0
VERTEX
  8
0
 10
1.58122
 20
0.762261
 30
0.0
 40
0
 41
0
  0
VERTEX
  8
0
 10
1.41982
 20
0.851019
 30
0.0
 40
0
 41
0
  0
VERTEX
  8
0
 10
1.26785
 20
0.954536
 30
0.0
 40
0
 41
0
  0
VERTEX
  8
0
 10
1.12641
 20
1.07205
 30
0.0
 40
0
 41
0
  0
VERTEX
  8
0
 10
0.996636
 20
1.2028
 30
0.0
 40
0
 41
0
  0
VERTEX
  8
0
 10
0.879611
 20
1.34592
 30
0.0
 40
0
 41
0
  0
VERTEX
  8
0
 10
0.776421
 20
1.50054
 30
0.0
 40
0
 41
0
  0
VERTEX
  8
0
 10
0.688097
 20
1.6659
 30
0.0
 40
0
 41
0
  0
VERTEX
  8
0
 10
0.615776
 20
1.84119
 30
0.0
 40
0
 41
0
  0
VERTEX
  8
0
 10
0.560547
 20
2.02556
 30
0.0
 40
0
 41
0
  0
VERTEX
  8
0
 10
0.530274
 20
2.16971
 30
0.0
 40
0
 41
0
  0
VERTEX
  8
0
 10
0.523492
 20
2.21815
 30
0.0
 40
0
 41
0
  0
VERTEX
  8
0
 10
0.516656
 20
2.26665
 30
0.0
 40
0
 41
0
  0
VERTEX
  8
0
 10
0.505968
 20
2.41357
 30
0.0
 40
0
 41
0
  0
VERTEX
  8
0
 10
0.508247
 20
2.60601
 30
0.0
 40
0
 41
0
  0
VERTEX
  8
0
 10
0.52946
 20
2.79443
 30
0.0
 40
0
 41
0
  0
VERTEX
  8
0
 10
0.568793
 20
2.97775
 30
0.0
 40
0
 41
0
  0
VERTEX
  8
0
 10
0.625379
 20
3.15489
 30
0.0
 40
0
 41
0
  0
VERTEX
  8
0
 10
0.698406
 20
3.32471
 30
0.0
 40
0
 41
0
  0
VERTEX
  8
0
 10
0.787164
 20
3.48611
 30
0.0
 40
0
 41
0
  0
VERTEX
  8
0
 10
0.890679
 20
3.63807
 30
0.0
 40
0
 41
0
  0
VERTEX
  8
0
 10
1.00819
 20
3.77951
 30
0.0
 40
0
 41
0
  0
VERTEX
  8
0
 10
1.13894
 20
3.90924
 30
0.0
 40
0
 41
0
  0
VERTEX
  8
0
 10
1.28206
 20
4.02632
 30
0.0
 40
0
 41
0
  0
VERTEX
  8
0
 10
1.43668
 20
4.1295
 30
0.0
 40
0
 41
0
  0
VERTEX
  8
0
 10
1.60206
 20
4.21783
 30
0.0
 40
0
 41
0
  0
VERTEX
  8
0
 10
1.77735
 20
4.29015
 30
0.0
 40
0
 41
0
  0
VERTEX
  8
0
 10
1.96169
 20
4.34532
 30
0.0
 40
0
 41
0
  0
VERTEX
  8
0
 10
2.10585
 20
4.3756
 30
0.0
 40
0
 41
0
  0
VERTEX
  8
0
 10
2.15435
 20
4.38238
 30
0.0
 40
0
 41
0
  0
VERTEX
  8
0
 10
2.20281
 20
4.38921
 30
0.0
 40
0
 41
0
  0
VERTEX
  8
0
 10
2.34972
 20
4.3999
 30
0.0
 40
0
 41
0
  0
VERTEX
  8
0
 10
2.54215
 20
4.39763
 30
0.0
 40
0
 41
0
  0
VERTEX
  8
0
 10
2.73058
 20
4.37642
 30
0.0
 40
0
 41
0
  0
VERTEX
  8
0
 10
2.9139
 20
4.33708
 30
0.0
 40
0
 41
0
  0
VERTEX
  8
0
 10
3.09099
 20
4.28049
 30
0.0
 40
0
 41
0
  0
VERTEX
  8
0
 10
3.26079
 20
4.20747
 30
0.0
 40
0
 41
0
  0
VERTEX
  8
0
 10
3.42225
 20
4.11876
 30
0.0
 40
0
 41
0
  0
VERTEX
  8
0
 10
3.57422
 20
4.01519
 30
0.0
 40
0
 41
0
  0
VERTEX
  8
0
 10
3.7156
 20
3.89768
 30
0.0
 40
0
 41
0
  0
VERTEX
  8
0
 10
3.84538
 20
3.76693
 30
0.0
 40
0
 41
0
  0
VERTEX
  8
0
 10
3.9624
 20
3.62386
 30
0.0
 40
0
 41
0
  0
VERTEX
  8
0
 10
4.06565
 20
3.46924
 30
0.0
 40
0
 41
0
  0
VERTEX
  8
0
 10
4.15392
 20
3.30382
 30
0.0
 40
0
 41
0
  0
VERTEX
  8
0
 10
4.22624
 20
3.12858
 30
0.0
 40
0
 41
0
  0
VERTEX
  8
0
 10
4.28147
 20
2.94417
 30
0.0
 40
0
 41
0
  0
VERTEX
  8
0
 10
4.31174
 20
2.80003
 30
0.0
 40
0
 41
0
  0
VERTEX
  8
0
 10
4.31858
 20
2.75151
 30
0.0
 40
0
 41
0
  0
SEQEND
 8
0
  0
POLYLINE
  8
0
 62
     250
 66
     1
 10
0
 20
0
 30
0.0
 70
     1
 40
3.86272
 41
3.86272
  0
VERTEX
  8
0
 10
4.31858
 20
2.75151
 30
0.0
 40
0.0536489
 41
0.0536489
  0
VERTEX
  8
0
 10
4.32536
 20
2.70307
 30
0.0
 40
0.0536489
 41
0.0536489
  0
VERTEX
  8
0
 10
4.33604
 20
2.55615
 30
0.0
 40
0.0536489
 41
0.0536489
  0
VERTEX
  8
0
 10
4.33376
 20
2.36372
 30
0.0
 40
0.0536489
 41
0.0536489
  0
VERTEX
  8
0
 10
4.31256
 20
2.17529
 30
0.0
 40
0.0536489
 41
0.0536489
  0
VERTEX
  8
0
 10
4.27322
 20
1.99197
 30
0.0
 40
0.0536489
 41
0.0536489
  0
VERTEX
  8
0
 10
4.21664
 20
1.81489
 30
0.0
 40
0.0536489
 41
0.0536489
  0
VERTEX
  8
0
 10
4.14361
 20
1.64507
 30
0.0
 40
0.0536489
 41
0.0536489
  0
VERTEX
  8
0
 10
4.0549
 20
1.48367
 30
0.0
 40
0.0536489
 41
0.0536489
  0
VERTEX
  8
0
 10
3.95139
 20
1.33171
 30
0.0
 40
0.0536489
 41
0.0536489
  0
VERTEX
  8
0
 10
3.83382
 20
1.19027
 30
0.0
 40
0.0536489
 41
0.0536489
  0
VERTEX
  8
0
 10
3.70307
 20
1.06049
 30
0.0
 40
0.0536489
 41
0.0536489
  0
VERTEX
  8
0
 10
3.56
 20
0.943468
 30
0.0
 40
0.0536489
 41
0.0536489
  0
VERTEX
  8
0
 10
3.40539
 20
0.840278
 30
0.0
 40
0.0536489
 41
0.0536489
  0
VERTEX
  8
0
 10
3.23996
 20
0.751954
 30
0.0
 40
0.0536489
 41
0.0536489
  0
VERTEX
  8
0
 10
3.06472
 20
0.679633
 30
0.0
 40
0.0536489
 41
0.0536489
  0
VERTEX
  8
0
 10
2.88032
 20
0.624403
 30
0.0
 40
0.0536489
 41
0.0536489
  0
VERTEX
  8
0
 10
2.73617
 20
0.594129
 30
0.0
 40
0.0536489
 41
0.0536489
  0
VERTEX
  8
0
 10
2.68772
 20
0.587293
 30
0.0
 40
0.0536489
 41
0.0536489
  0
VERTEX
  8
0
 10
2.63921
 20
0.580513
 30
0.0
 40
0.0536489
 41
0.0536489
  0
VERTEX
  8
0
 10
2.49229
 20
0.569824
 30
0.0
 40
0.0536489
 41
0.0536489
  0
VERTEX
  8
0
 10
2.29986
 20
0.572103
 30
0.0
 40
0.0536489
 41
0.0536489
  0
VERTEX
  8
0
 10
2.11143
 20
0.593317
 30
0.0
 40
0.0536489
 41
0.0536489
  0
VERTEX
  8
0
 10
1.92811
 20
0.63265
 30
0.0
 40
0.0536489
 41
0.0536489
  0
VERTEX
  8
0
 10
1.75103
 20
0.689236
 30
0.0
 40
0.0536489
 41
0.0536489
  0
VERTEX
  8
0
 10
1.58122
 20
0.762261
 30
0.0
 40
0.0536489
 41
0.0536489
  0
VERTEX
  8
0
 10
1.41982
 20
0.851019
 30
0.0
 40
0.0536489
 41
0.0536489
  0
VERTEX
  8
0
 10
1.26785
 20
0.954536
 30
0.0
 40
0.0536489
 41
0.0536489
  0
VERTEX
  8
0
 10
1.12641
 20
1.07205
 30
0.0
 40
0.0536489
 41
0.0536489
  0
VERTEX
  8
0
 10
0.996636
 20
1.2028
 30
0.0
 40
0.0536489
 41
0.0536489
  0
VERTEX
  8
0
 10
0.879611
 20
1.34592
 30
0.0
 40
0.0536489
 41
0.0536489
  0
VERTEX
  8
0
 10
0.776421
 20
1.50054
 30
0.0
 40
0.0536489
 41
0.0536489
  0
VERTEX
  8
0
 10
0.688097
 20
1.6659
 30
0.0
 40
0.0536489
 41
0.0536489
  0
VERTEX
  8
0
 10
0.615776
 20
1.84119
 30
0.0
 40
0.0536489
 41
0.0536489
  0
VERTEX
  8
0
 10
0.560547
 20
2.02556
 30
0.0
 40
0.0536489
 41
0.0536489
  0
VERTEX
  8
0
 10
0.530274
 20
2.16971
 30
0.0
 40
0.0536489
 41
0.0536489
  0
VERTEX
  8
0
 10
0.523492
 20
2.21815
 30
0.0
 40
0.0536489
 41
0.0536489
  0
VERTEX
  8
0
 10
0.516656
 20
2.26665
 30
0.0
 40
0.0536489
 41
0.0536489
  0
VERTEX
  8
0
 10
0.505968
 20
2.41357
 30
0.0
 40
0.0536489
 41
0.0536489
  0
VERTEX
  8
0
 10
0.508247
 20
2.60601
 30
0.0
 40
0.0536489
 41
0.0536489
  0
VERTEX
  8
0
 10
0.52946
 20
2.79443
 30
0.0
 40
0.0536489
 41
0.0536489
  0
VERTEX
  8
0
 10
0.568793
 20
2.97775
 30
0.0
 40
0.0536489
 41
0.0536489
  0
VERTEX
  8
0
 10
0.625379
 20
3.15489
 30
0.0
 40
0.0536489
 41
0.0536489
  0
VERTEX
  8
0
 10
0.698406
 20
3.32471
 30
0.0
 40
0.0536489
 41
0.0536489
  0
VERTEX
  8
0
 10
0.787164
 20
3.48611
 30
0.0
 40
0.0536489
 41
0.0536489
  0
VERTEX
  8
0
 10
0.890679
 20
3.63807
 30
0.0
 40
0.0536489
 41
0.0536489
  0
VERTEX
  8
0
 10
1.00819
 20
3.77951
 30
0.0
 40
0.0536489
 41
0.0536489
  0
VERTEX
  8
0
 10
1.13894
 20
3.90924
 30
0.0
 40
0.0536489
 41
0.0536489
  0
VERTEX
  8
0
 10
1.28206
 20
4.02632
 30
0.0
 40
0.0536489
 41
0.0536489
  0
VERTEX
  8
0
 10
1.43668
 20
4.1295
 30
0.0
 40
0.0536489
 41
0.0536489
  0
VERTEX
  8
0
 10
1.60206
 20
4.21783
 30
0.0
 40
0.0536489
 41
0.0536489
  0
VERTEX
  8
0
 10
1.77735
 20
4.29015
 30
0.0
 40
0.0536489
 41
0.0536489
  0
VERTEX
  8
0
 10
1.96169
 20
4.34532
 30
0.0
 40
0.0536489
 41
0.0536489
  0
VERTEX
  8
0
 10
2.10585
 20
4.3756
 30
0.0
 40
0.0536489
 41
0.0536489
  0
VERTEX
  8
0
 10
2.15435
 20
4.38238
 30
0.0
 40
0.0536489
 41
0.0536489
  0
VERTEX
  8
0
 10
2.20281
 20
4.38921
 30
0.0
 40
0.0536489
 41
0.0536489
  0
VERTEX
  8
0
 10
2.34972
 20
4.3999
 30
0.0
 40
0.0536489
 41
0.0536489
  0
VERTEX
  8
0
 10
2.54215
 20
4.39763
 30
0.0
 40
0.0536489
 41
0.0536489
  0
VERTEX
  8
0
 10
2.73058
 20
4.37642
 30
0.0
 40
0.0536489
 41
0.0536489
  0
VERTEX
  8
0
 10
2.9139
 20
4.33708
 30
0.0
 40
0.0536489
 41
0.0536489
  0
VERTEX
  8
0
 10
3.09099
 20
4.28049
 30
0.0
 40
0.0536489
 41
0.0536489
  0
VERTEX
  8
0
 10
3.26079
 20
4.20747
 30
0.0
 40
0.0536489
 41
0.0536489
  0
VERTEX
  8
0
 10
3.42225
 20
4.11876
 30
0.0
 40
0.0536489
 41
0.0536489
  0
VERTEX
  8
0
 10
3.57422
 20
4.01519
 30
0.0
 40
0.0536489
 41
0.0536489
  0
VERTEX
  8
0
 10
3.7156
 20
3.89768
 30
0.0
 40
0.0536489
 41
0.0536489
  0
VERTEX
  8
0
 10
3.84538
 20
3.76693
 30
0.0
 40
0.0536489
 41
0.0536489
  0
VERTEX
  8
0
 10
3.9624
 20
3.62386
 30
0.0
 40
0.0536489
 41
0.0536489
  0
VERTEX
  8
0
 10
4.06565
 20
3.46924
 30
0.0
 40
0.0536489
 41
0.0536489
  0
VERTEX
  8
0
 10
4.15392
 20
3.30382
 30
0.0
 40
0.0536489
 41
0.0536489
  0
VERTEX
  8
0
 10
4.22624
 20
3.12858
 30
0.0
 40
0.0536489
 41
0.0536489
  0
VERTEX
  8
0
 10
4.28147
 20
2.94417
 30
0.0
 40
0.0536489
 41
0.0536489
  0
VERTEX
  8
0
 10
4.31174
 20
2.80003
 30
0.0
 40
0.0536489
 41
0.0536489
  0
VERTEX
  8
0
 10
4.31858
 20
2.75151
 30
0.0
 40
0.0536489
 41
0.0536489
  0
SEQEND
 8
0
  0
POLYLINE
  8
0
 62
     7
 66
     1
 10
0
 20
0
 30
0.0
 70
     1
 40
0
 41
0
  0
VERTEX
  8
0
 10
2.03597
 20
4.18886
 30
0.0
 40
0
 41
0
  0
VERTEX
  8
0
 10
1.98828
 20
4.52821
 30
0.0
 40
0
 41
0
  0
VERTEX
  8
0
 10
1.96733
 20
4.52919
 30
0.0
 40
0
 41
0
  0
VERTEX
  8
0
 10
1.90479
 20
4.53874
 30
0.0
 40
0
 41
0
  0
VERTEX
  8
0
 10
1.83751
 20
4.56093
 30
0.0
 40
0
 41
0
  0
VERTEX
  8
0
 10
1.79107
 20
4.59353
 30
0.0
 40
0
 41
0
  0
VERTEX
  8
0
 10
1.77181
 20
4.62418
 30
0.0
 40
0
 41
0
  0
VERTEX
  8
0
 10
1.77029
 20
4.63504
 30
0.0
 40
0
 41
0
  0
VERTEX
  8
0
 10
1.76828
 20
4.64925
 30
0.0
 40
0
 41
0
  0
VERTEX
  8
0
 10
1.78765
 20
4.69547
 30
0.0
 40
0
 41
0
  0
VERTEX
  8
0
 10
1.85032
 20
4.75157
 30
0.0
 40
0
 41
0
  0
VERTEX
  8
0
 10
1.94857
 20
4.79725
 30
0.0
 40
0
 41
0
  0
VERTEX
  8
0
 10
2.04124
 20
4.822
 30
0.0
 40
0
 41
0
  0
VERTEX
  8
0
 10
2.07264
 20
4.82639
 30
0.0
 40
0
 41
0
  0
VERTEX
  8
0
 10
2.10406
 20
4.83083
 30
0.0
 40
0
 41
0
  0
VERTEX
  8
0
 10
2.19993
 20
4.83263
 30
0.0
 40
0
 41
0
  0
VERTEX
  8
0
 10
2.30697
 20
4.81575
 30
0.0
 40
0
 41
0
  0
VERTEX
  8
0
 10
2.38271
 20
4.77908
 30
0.0
 40
0
 41
0
  0
VERTEX
  8
0
 10
2.41407
 20
4.74001
 30
0.0
 40
0
 41
0
  0
VERTEX
  8
0
 10
2.41607
 20
4.72581
 30
0.0
 40
0
 41
0
  0
VERTEX
  8
0
 10
2.41758
 20
4.71496
 30
0.0
 40
0
 41
0
  0
VERTEX
  8
0
 10
2.4075
 20
4.68018
 30
0.0
 40
0
 41
0
  0
VERTEX
  8
0
 10
2.37185
 20
4.63601
 30
0.0
 40
0
 41
0
  0
VERTEX
  8
0
 10
2.31326
 20
4.59614
 30
0.0
 40
0
 41
0
  0
VERTEX
  8
0
 10
2.25581
 20
4.56972
 30
0.0
 40
0
 41
0
  0
VERTEX
  8
0
 10
2.23594
 20
4.56299
 30
0.0
 40
0
 41
0
  0
VERTEX
  8
0
 10
2.28369
 20
4.22364
 30
0.0
 40
0
 41
0
  0
VERTEX
  8
0
 10
2.28472
 20
4.21604
 30
0.0
 40
0
 41
0
  0
VERTEX
  8
0
 10
2.27815
 20
4.19174
 30
0.0
 40
0
 41
0
  0
VERTEX
  8
0
 10
2.2551
 20
4.16297
 30
0.0
 40
0
 41
0
  0
VERTEX
  8
0
 10
2.2181
 20
4.14057
 30
0.0
 40
0
 41
0
  0
VERTEX
  8
0
 10
2.18289
 20
4.12924
 30
0.0
 40
0
 41
0
  0
VERTEX
  8
0
 10
2.1709
 20
4.12756
 30
0.0
 40
0
 41
0
  0
VERTEX
  8
0
 10
2.15886
 20
4.12587
 30
0.0
 40
0
 41
0
  0
VERTEX
  8
0
 10
2.1219
 20
4.12706
 30
0.0
 40
0
 41
0
  0
VERTEX
  8
0
 10
2.08014
 20
4.1384
 30
0.0
 40
0
 41
0
  0
VERTEX
  8
0
 10
2.05003
 20
4.15972
 30
0.0
 40
0
 41
0
  0
VERTEX
  8
0
 10
2.037
 20
4.18126
 30
0.0
 40
0
 41
0
  0
VERTEX
  8
0
 10
2.03597
 20
4.18886
 30
0.0
 40
0
 41
0
  0
SEQEND
 8
0
  0
POLYLINE
  8
0
 62
     250
 66
     1
 10
0
 20
0
 30
0.0
 70
     1
 40
3.99991
 41
3.99991
  0
VERTEX
  8
0
 10
2.03597
 20
4.18886
 30
0.0
 40
0.0555543
 41
0.0555543
  0
VERTEX
  8
0
 10
1.98828
 20
4.52821
 30
0.0
 40
0.0555543
 41
0.0555543
  0
VERTEX
  8
0
 10
1.96733
 20
4.52919
 30
0.0
 40
0.0555543
 41
0.0555543
  0
VERTEX
  8
0
 10
1.90479
 20
4.53874
 30
0.0
 40
0.0555543
 41
0.0555543
  0
VERTEX
  8
0
 10
1.83751
 20
4.56093
 30
0.0
 40
0.0555543
 41
0.0555543
  0
VERTEX
  8
0
 10
1.79107
 20
4.59353
 30
0.0
 40
0.0555543
 41
0.0555543
  0
VERTEX
  8
0
 10
1.77181
 20
4.62418
 30
0.0
 40
0.0555543
 41
0.0555543
  0
VERTEX
  8
0
 10
1.77029
 20
4.63504
 30
0.0
 40
0.0555543
 41
0.0555543
  0
VERTEX
  8
0
 10
1.76828
 20
4.64925
 30
0.0
 40
0.0555543
 41
0.0555543
  0
VERTEX
  8
0
 10
1.78765
 20
4.69547
 30
0.0
 40
0.0555543
 41
0.0555543
  0
VERTEX
  8
0
 10
1.85032
 20
4.75157
 30
0.0
 40
0.0555543
 41
0.0555543
  0
VERTEX
  8
0
 10
1.94857
 20
4.79725
 30
0.0
 40
0.0555543
 41
0.0555543
  0
VERTEX
  8
0
 10
2.04124
 20
4.822
 30
0.0
 40
0.0555543
 41
0.0555543
  0
VERTEX
  8
0
 10
2.07264
 20
4.82639
 30
0.0
 40
0.0555543
 41
0.0555543
  0
VERTEX
  8
0
 10
2.10406
 20
4.83083
 30
0.0
 40
0.0555543
 41
0.0555543
  0
VERTEX
  8
0
 10
2.19993
 20
4.83263
 30
0.0
 40
0.0555543
 41
0.0555543
  0
VERTEX
  8
0
 10
2.30697
 20
4.81575
 30
0.0
 40
0.0555543
 41
0.0555543
  0
VERTEX
  8
0
 10
2.38271
 20
4.77908
 30
0.0
 40
0.0555543
 41
0.0555543
  0
VERTEX
  8
0
 10
2.41407
 20
4.74001
 30
0.0
 40
0.0555543
 41
0.0555543
  0
VERTEX
  8
0
 10
2.41607
 20
4.72581
 30
0.0
 40
0.0555543
 41
0.0555543
  0
VERTEX
  8
0
 10
2.41758
 20
4.71496
 30
0.0
 40
0.0555543
 41
0.0555543
  0
VERTEX
  8
0
 10
2.4075
 20
4.68018
 30
0.0
 40
0.0555543
 41
0.0555543
  0
VERTEX
  8
0
 10
2.37185
 20
4.63601
 30
0.0
 40
0.0555543
 41
0.0555543
  0
VERTEX
  8
0
 10
2.31326
 20
4.59614
 30
0.0
 40
0.0555543
 41
0.0555543
  0
VERTEX
  8
0
 10
2.25581
 20
4.56972
 30
0.0
 40
0.0555543
 41
0.0555543
  0
VERTEX
  8
0
 10
2.23594
 20
4.56299
 30
0.0
 40
0.0555543
 41
0.0555543
  0
VERTEX
  8
0
 10
2.28369
 20
4.22364
 30
0.0
 40
0.0555543
 41
0.0555543
  0
VERTEX
  8
0
 10
2.28472
 20
4.21604
 30
0.0
 40
0.0555543
 41
0.0555543
  0
VERTEX
  8
0
 10
2.27815
 20
4.19174
 30
0.0
 40
0.0555543
 41
0.0555543
  0
VERTEX
  8
0
 10
2.2551
 20
4.16297
 30
0.0
 40
0.0555543
 41
0.0555543
  0
VERTEX
  8
0
 10
2.2181
 20
4.14057
 30
0.0
 40
0.0555543
 41
0.0555543
  0
VERTEX
  8
0
 10
2.18289
 20
4.12924
 30
0.0
 40
0.0555543
 41
0.0555543
  0
VERTEX
  8
0
 10
2.1709
 20
4.12756
 30
0.0
 40
0.0555543
 41
0.0555543
  0
VERTEX
  8
0
 10
2.15886
 20
4.12587
 30
0.0
 40
0.0555543
 41
0.0555543
  0
VERTEX
  8
0
 10
2.1219
 20
4.12706
 30
0.0
 40
0.0555543
 41
0.0555543
  0
VERTEX
  8
0
 10
2.08014
 20
4.1384
 30
0.0
 40
0.0555543
 41
0.0555543
  0
VERTEX
  8
0
 10
2.05003
 20
4.15972
 30
0.0
 40
0.0555543
 41
0.0555543
  0
VERTEX
  8
0
 10
2.037
 20
4.18126
 30
0.0
 40
0.0555543
 41
0.0555543
  0
VERTEX
  8
0
 10
2.03597
 20
4.18886
 30
0.0
 40
0.0555543
 41
0.0555543
  0
SEQEND
 8
0
  0
POLYLINE
  8
0
 62
     250
 66
     1
 10
0
 20
0
 30
0.0
 40
3.99991
 41
3.99991
  0
VERTEX
  8
0
 10
1.98828
 20
4.52821
 30
0.0
 40
0.0555543
 41
0.0555543
  0
VERTEX
  8
0
 10
2.00944
 20
4.52713
 30
0.0
 40
0.0555543
 41
0.0555543
  0
VERTEX
  8
0
 10
2.11382
 20
4.53347
 30
0.0
 40
0.0555543
 41
0.0555543
  0
VERTEX
  8
0
 10
2.21593
 20
4.55599
 30
0.0
 40
0.0555543
 41
0.0555543
  0
VERTEX
  8
0
 10
2.236
 20
4.56299
 30
0.0
 40
0.0555543
 41
0.0555543
  0
SEQEND
 8
0
  0
POLYLINE
  8
0
 62
     7
 66
     1
 10
0
 20
0
 30
0.0
 70
     1
 40
0
 41
0
  0
VERTEX
  8
0
 10
2.91482
 20
4.19075
 30
0.0
 40
0
 41
0
  0
VERTEX
  8
0
 10
3.04318
 20
4.50851
 30
0.0
 40
0
 41
0
  0
VERTEX
  8
0
 10
3.0255
 20
4.51986
 30
0.0
 40
0
 41
0
  0
VERTEX
  8
0
 10
2.97613
 20
4.55935
 30
0.0
 40
0
 41
0
  0
VERTEX
  8
0
 10
2.92899
 20
4.61225
 30
0.0
 40
0
 41
0
  0
VERTEX
  8
0
 10
2.90506
 20
4.66368
 30
0.0
 40
0
 41
0
  0
VERTEX
  8
0
 10
2.90375
 20
4.69987
 30
0.0
 40
0
 41
0
  0
VERTEX
  8
0
 10
2.90788
 20
4.71007
 30
0.0
 40
0
 41
0
  0
VERTEX
  8
0
 10
2.91325
 20
4.72336
 30
0.0
 40
0
 41
0
  0
VERTEX
  8
0
 10
2.95307
 20
4.75369
 30
0.0
 40
0
 41
0
  0
VERTEX
  8
0
 10
3.03543
 20
4.77094
 30
0.0
 40
0
 41
0
  0
VERTEX
  8
0
 10
3.14333
 20
4.76139
 30
0.0
 40
0
 41
0
  0
VERTEX
  8
0
 10
3.23594
 20
4.73649
 30
0.0
 40
0
 41
0
  0
VERTEX
  8
0
 10
3.2654
 20
4.72456
 30
0.0
 40
0
 41
0
  0
VERTEX
  8
0
 10
3.29482
 20
4.71272
 30
0.0
 40
0
 41
0
  0
VERTEX
  8
0
 10
3.37869
 20
4.66629
 30
0.0
 40
0
 41
0
  0
VERTEX
  8
0
 10
3.46294
 20
4.59819
 30
0.0
 40
0
 41
0
  0
VERTEX
  8
0
 10
3.51019
 20
4.5286
 30
0.0
 40
0
 41
0
  0
VERTEX
  8
0
 10
3.51785
 20
4.47906
 30
0.0
 40
0
 41
0
  0
VERTEX
  8
0
 10
3.51247
 20
4.46576
 30
0.0
 40
0
 41
0
  0
VERTEX
  8
0
 10
3.50836
 20
4.45557
 30
0.0
 40
0
 41
0
  0
VERTEX
  8
0
 10
3.48221
 20
4.4305
 30
0.0
 40
0
 41
0
  0
VERTEX
  8
0
 10
3.42931
 20
4.4101
 30
0.0
 40
0
 41
0
  0
VERTEX
  8
0
 10
3.35861
 20
4.40483
 30
0.0
 40
0
 41
0
  0
VERTEX
  8
0
 10
3.29563
 20
4.41069
 30
0.0
 40
0
 41
0
  0
VERTEX
  8
0
 10
3.27513
 20
4.41482
 30
0.0
 40
0
 41
0
  0
VERTEX
  8
0
 10
3.14675
 20
4.09706
 30
0.0
 40
0
 41
0
  0
VERTEX
  8
0
 10
3.14382
 20
4.08996
 30
0.0
 40
0
 41
0
  0
VERTEX
  8
0
 10
3.12603
 20
4.07215
 30
0.0
 40
0
 41
0
  0
VERTEX
  8
0
 10
3.09164
 20
4.05881
 30
0.0
 40
0
 41
0
  0
VERTEX
  8
0
 10
3.04833
 20
4.05789
 30
0.0
 40
0
 41
0
  0
VERTEX
  8
0
 10
3.01226
 20
4.06575
 30
0.0
 40
0
 41
0
  0
VERTEX
  8
0
 10
3.00103
 20
4.07026
 30
0.0
 40
0
 41
0
  0
VERTEX
  8
0
 10
2.98975
 20
4.07482
 30
0.0
 40
0
 41
0
  0
VERTEX
  8
0
 10
2.95833
 20
4.09429
 30
0.0
 40
0
 41
0
  0
VERTEX
  8
0
 10
2.92785
 20
4.125
 30
0.0
 40
0
 41
0
  0
VERTEX
  8
0
 10
2.91237
 20
4.15847
 30
0.0
 40
0
 41
0
  0
VERTEX
  8
0
 10
2.91194
 20
4.18365
 30
0.0
 40
0
 41
0
  0
VERTEX
  8
0
 10
2.91482
 20
4.19075
 30
0.0
 40
0
 41
0
  0
SEQEND
 8
0
  0
POLYLINE
  8
0
 62
     250
 66
     1
 10
0
 20
0
 30
0.0
 70
     1
 40
3.99991
 41
3.99991
  0
VERTEX
  8
0
 10
2.91482
 20
4.19075
 30
0.0
 40
0.0555543
 41
0.0555543
  0
VERTEX
  8
0
 10
3.04318
 20
4.50851
 30
0.0
 40
0.0555543
 41
0.0555543
  0
VERTEX
  8
0
 10
3.0255
 20
4.51986
 30
0.0
 40
0.0555543
 41
0.0555543
  0
VERTEX
  8
0
 10
2.97613
 20
4.55935
 30
0.0
 40
0.0555543
 41
0.0555543
  0
VERTEX
  8
0
 10
2.92899
 20
4.61225
 30
0.0
 40
0.0555543
 41
0.0555543
  0
VERTEX
  8
0
 10
2.90506
 20
4.66368
 30
0.0
 40
0.0555543
 41
0.0555543
  0
VERTEX
  8
0
 10
2.90375
 20
4.69987
 30
0.0
 40
0.0555543
 41
0.0555543
  0
VERTEX
  8
0
 10
2.90788
 20
4.71007
 30
0.0
 40
0.0555543
 41
0.0555543
  0
VERTEX
  8
0
 10
2.91325
 20
4.72336
 30
0.0
 40
0.0555543
 41
0.0555543
  0
VERTEX
  8
0
 10
2.95307
 20
4.75369
 30
0.0
 40
0.0555543
 41
0.0555543
  0
VERTEX
  8
0
 10
3.03543
 20
4.77094
 30
0.0
 40
0.0555543
 41
0.0555543
  0
VERTEX
  8
0
 10
3.14333
 20
4.76139
 30
0.0
 40
0.0555543
 41
0.0555543
  0
VERTEX
  8
0
 10
3.23594
 20
4.73649
 30
0.0
 40
0.0555543
 41
0.0555543
  0
VERTEX
  8
0
 10
3.2654
 20
4.72456
 30
0.0
 40
0.0555543
 41
0.0555543
  0
VERTEX
  8
0
 10
3.29482
 20
4.71272
 30
0.0
 40
0.0555543
 41
0.0555543
  0
VERTEX
  8
0
 10
3.37869
 20
4.66629
 30
0.0
 40
0.0555543
 41
0.0555543
  0
VERTEX
  8
0
 10
3.46294
 20
4.59819
 30
0.0
 40
0.0555543
 41
0.0555543
  0
VERTEX
  8
0
 10
3.51019
 20
4.5286
 30
0.0
 40
0.0555543
 41
0.0555543
  0
VERTEX
  8
0
 10
3.51785
 20
4.47906
 30
0.0
 40
0.0555543
 41
0.0555543
  0
VERTEX
  8
0
 10
3.51247
 20
4.46576
 30
0.0
 40
0.0555543
 41
0.0555543
  0
VERTEX
  8
0
 10
3.50836
 20
4.45557
 30
0.0
 40
0.0555543
 41
0.0555543
  0
VERTEX
  8
0
 10
3.48221
 20
4.4305
 30
0.0
 40
0.0555543
 41
0.0555543
  0
VERTEX
  8
0
 10
3.42931
 20
4.4101
 30
0.0
 40
0.0555543
 41
0.0555543
  0
VERTEX
  8
0
 10
3.35861
 20
4.40483
 30
0.0
 40
0.0555543
 41
0.0555543
  0
VERTEX
  8
0
 10
3.29563
 20
4.41069
 30
0.0
 40
0.0555543
 41
0.0555543
  0
VERTEX
  8
0
 10
3.27513
 20
4.41482
 30
0.0
 40
0.0555543
 41
0.0555543
  0
VERTEX
  8
0
 10
3.14675
 20
4.09706
 30
0.0
 40
0.0555543
 41
0.0555543
  0
VERTEX
  8
0
 10
3.14382
 20
4.08996
 30
0.0
 40
0.0555543
 41
0.0555543
  0
VERTEX
  8
0
 10
3.12603
 20
4.07215
 30
0.0
 40
0.0555543
 41
0.0555543
  0
VERTEX
  8
0
 10
3.09164
 20
4.05881
 30
0.0
 40
0.0555543
 41
0.0555543
  0
VERTEX
  8
0
 10
3.04833
 20
4.05789
 30
0.0
 40
0.0555543
 41
0.0555543
  0
VERTEX
  8
0
 10
3.01226
 20
4.06575
 30
0.0
 40
0.0555543
 41
0.0555543
  0
VERTEX
  8
0
 10
3.00103
 20
4.07026
 30
0.0
 40
0.0555543
 41
0.0555543
  0
VERTEX
  8
0
 10
2.98975
 20
4.07482
 30
0.0
 40
0.0555543
 41
0.0555543
  0
VERTEX
  8
0
 10
2.95833
 20
4.09429
 30
0.0
 40
0.0555543
 41
0.0555543
  0
VERTEX
  8
0
 10
2.92785
 20
4.125
 30
0.0
 40
0.0555543
 41
0.0555543
  0
VERTEX
  8
0
 10
2.91237
 20
4.15847
 30
0.0
 40
0.0555543
 41
0.0555543
  0
VERTEX
  8
0
 10
2.91194
 20
4.18365
 30
0.0
 40
0.0555543
 41
0.0555543
  0
VERTEX
  8
0
 10
2.91482
 20
4.19075
 30
0.0
 40
0.0555543
 41
0.0555543
  0
SEQEND
 8
0
  0
POLYLINE
  8
0
 62
     250
 66
     1
 10
0
 20
0
 30
0.0
 40
3.99991
 41
3.99991
  0
VERTEX
  8
0
 10
3.04318
 20
4.50851
 30
0.0
 40
0.0555543
 41
0.0555543
  0
VERTEX
  8
0
 10
3.06099
 20
4.49701
 30
0.0
 40
0.0555543
 41
0.0555543
  0
VERTEX
  8
0
 10
3.15451
 20
4.45031
 30
0.0
 40
0.0555543
 41
0.0555543
  0
VERTEX
  8
0
 10
3.25424
 20
4.41878
 30
0.0
 40
0.0555543
 41
0.0555543
  0
VERTEX
  8
0
 10
3.27513
 20
4.41482
 30
0.0
 40
0.0555543
 41
0.0555543
  0
SEQEND
 8
0
  0
POLYLINE
  8
0
 62
     7
 66
     1
 10
0
 20
0
 30
0.0
 70
     1
 40
0
 41
0
  0
VERTEX
  8
0
 10
3.70822
 20
3.71224
 30
0.0
 40
0
 41
0
  0
VERTEX
  8
0
 10
3.97825
 20
3.92324
 30
0.0
 40
0
 41
0
  0
VERTEX
  8
0
 10
3.96858
 20
3.94185
 30
0.0
 40
0
 41
0
  0
VERTEX
  8
0
 10
3.94558
 20
4.00076
 30
0.0
 40
0
 41
0
  0
VERTEX
  8
0
 10
3.93115
 20
4.07015
 30
0.0
 40
0
 41
0
  0
VERTEX
  8
0
 10
3.93619
 20
4.12668
 30
0.0
 40
0
 41
0
  0
VERTEX
  8
0
 10
3.95313
 20
4.15869
 30
0.0
 40
0
 41
0
  0
VERTEX
  8
0
 10
3.96181
 20
4.16542
 30
0.0
 40
0
 41
0
  0
VERTEX
  8
0
 10
3.9731
 20
4.17426
 30
0.0
 40
0
 41
0
  0
VERTEX
  8
0
 10
4.02274
 20
4.18056
 30
0.0
 40
0
 41
0
  0
VERTEX
  8
0
 10
4.10271
 20
4.15435
 30
0.0
 40
0
 41
0
  0
VERTEX
  8
0
 10
4.19135
 20
4.09212
 30
0.0
 40
0
 41
0
  0
VERTEX
  8
0
 10
4.25911
 20
4.02425
 30
0.0
 40
0
 41
0
  0
VERTEX
  8
0
 10
4.27865
 20
3.99924
 30
0.0
 40
0
 41
0
  0
VERTEX
  8
0
 10
4.29818
 20
3.97428
 30
0.0
 40
0
 41
0
  0
VERTEX
  8
0
 10
4.34765
 20
3.89208
 30
0.0
 40
0
 41
0
  0
VERTEX
  8
0
 10
4.38656
 20
3.79096
 30
0.0
 40
0
 41
0
  0
VERTEX
  8
0
 10
4.39268
 20
3.70708
 30
0.0
 40
0
 41
0
  0
VERTEX
  8
0
 10
4.37457
 20
3.66037
 30
0.0
 40
0
 41
0
  0
VERTEX
  8
0
 10
4.36328
 20
3.65153
 30
0.0
 40
0
 41
0
  0
VERTEX
  8
0
 10
4.3546
 20
3.64481
 30
0.0
 40
0
 41
0
  0
VERTEX
  8
0
 10
4.31939
 20
3.63612
 30
0.0
 40
0
 41
0
  0
VERTEX
  8
0
 10
4.26335
 20
3.64492
 30
0.0
 40
0
 41
0
  0
VERTEX
  8
0
 10
4.19949
 20
3.67572
 30
0.0
 40
0
 41
0
  0
VERTEX
  8
0
 10
4.14789
 20
3.71229
 30
0.0
 40
0
 41
0
  0
VERTEX
  8
0
 10
4.13222
 20
3.72613
 30
0.0
 40
0
 41
0
  0
VERTEX
  8
0
 10
3.86219
 20
3.51514
 30
0.0
 40
0
 41
0
  0
VERTEX
  8
0
 10
3.85612
 20
3.51042
 30
0.0
 40
0
 41
0
  0
VERTEX
  8
0
 10
3.83176
 20
3.50396
 30
0.0
 40
0
 41
0
  0
VERTEX
  8
0
 10
3.79531
 20
3.50956
 30
0.0
 40
0
 41
0
  0
VERTEX
  8
0
 10
3.75738
 20
3.53039
 30
0.0
 40
0
 41
0
  0
VERTEX
  8
0
 10
3.73004
 20
3.55524
 30
0.0
 40
0
 41
0
  0
VERTEX
  8
0
 10
3.7226
 20
3.56478
 30
0.0
 40
0
 41
0
  0
VERTEX
  8
0
 10
3.71511
 20
3.57438
 30
0.0
 40
0
 41
0
  0
VERTEX
  8
0
 10
3.6976
 20
3.60693
 30
0.0
 40
0
 41
0
  0
VERTEX
  8
0
 10
3.68658
 20
3.64876
 30
0.0
 40
0
 41
0
  0
VERTEX
  8
0
 10
3.68994
 20
3.68549
 30
0.0
 40
0
 41
0
  0
VERTEX
  8
0
 10
3.70215
 20
3.70751
 30
0.0
 40
0
 41
0
  0
VERTEX
  8
0
 10
3.70822
 20
3.71224
 30
0.0
 40
0
 41
0
  0
SEQEND
 8
0
  0
POLYLINE
  8
0
 62
     250
 66
     1
 10
0
 20
0
 30
0.0
 70
     1
 40
3.99991
 41
3.99991
  0
VERTEX
  8
0
 10
3.70822
 20
3.71224
 30
0.0
 40
0.0555543
 41
0.0555543
  0
VERTEX
  8
0
 10
3.97825
 20
3.92324
 30
0.0
 40
0.0555543
 41
0.0555543
  0
VERTEX
  8
0
 10
3.96858
 20
3.94185
 30
0.0
 40
0.0555543
 41
0.0555543
  0
VERTEX
  8
0
 10
3.94558
 20
4.00076
 30
0.0
 40
0.0555543
 41
0.0555543
  0
VERTEX
  8
0
 10
3.93115
 20
4.07015
 30
0.0
 40
0.0555543
 41
0.0555543
  0
VERTEX
  8
0
 10
3.93619
 20
4.12668
 30
0.0
 40
0.0555543
 41
0.0555543
  0
VERTEX
  8
0
 10
3.95313
 20
4.15869
 30
0.0
 40
0.0555543
 41
0.0555543
  0
VERTEX
  8
0
 10
3.96181
 20
4.16542
 30
0.0
 40
0.0555543
 41
0.0555543
  0
VERTEX
  8
0
 10
3.9731
 20
4.17426
 30
0.0
 40
0.0555543
 41
0.0555543
  0
VERTEX
  8
0
 10
4.02274
 20
4.18056
 30
0.0
 40
0.0555543
 41
0.0555543
  0
VERTEX
  8
0
 10
4.10271
 20
4.15435
 30
0.0
 40
0.0555543
 41
0.0555543
  0
VERTEX
  8
0
 10
4.19135
 20
4.09212
 30
0.0
 40
0.0555543
 41
0.0555543
  0
VERTEX
  8
0
 10
4.25911
 20
4.02425
 30
0.0
 40
0.0555543
 41
0.0555543
  0
VERTEX
  8
0
 10
4.27865
 20
3.99924
 30
0.0
 40
0.0555543
 41
0.0555543
  0
VERTEX
  8
0
 10
4.29818
 20
3.97428
 30
0.0
 40
0.0555543
 41
0.0555543
  0
VERTEX
  8
0
 10
4.34765
 20
3.89208
 30
0.0
 40
0.0555543
 41
0.0555543
  0
VERTEX
  8
0
 10
4.38656
 20
3.79096
 30
0.0
 40
0.0555543
 41
0.0555543
  0
VERTEX
  8
0
 10
4.39268
 20
3.70708
 30
0.0
 40
0.0555543
 41
0.0555543
  0
VERTEX
  8
0
 10
4.37457
 20
3.66037
 30
0.0
 40
0.0555543
 41
0.0555543
  0
VERTEX
  8
0
 10
4.36328
 20
3.65153
 30
0.0
 40
0.0555543
 41
0.0555543
  0
VERTEX
  8
0
 10
4.3546
 20
3.64481
 30
0.0
 40
0.0555543
 41
0.0555543
  0
VERTEX
  8
0
 10
4.31939
 20
3.63612
 30
0.0
 40
0.0555543
 41
0.0555543
  0
VERTEX
  8
0
 10
4.26335
 20
3.64492
 30
0.0
 40
0.0555543
 41
0.0555543
  0
VERTEX
  8
0
 10
4.19949
 20
3.67572
 30
0.0
 40
0.0555543
 41
0.0555543
  0
VERTEX
  8
0
 10
4.14789
 20
3.71229
 30
0.0
 40
0.0555543
 41
0.0555543
  0
VERTEX
  8
0
 10
4.13222
 20
3.72613
 30
0.0
 40
0.0555543
 41
0.0555543
  0
VERTEX
  8
0
 10
3.86219
 20
3.51514
 30
0.0
 40
0.0555543
 41
0.0555543
  0
VERTEX
  8
0
 10
3.85612
 20
3.51042
 30
0.0
 40
0.0555543
 41
0.0555543
  0
VERTEX
  8
0
 10
3.83176
 20
3.50396
 30
0.0
 40
0.0555543
 41
0.0555543
  0
VERTEX
  8
0
 10
3.79531
 20
3.50956
 30
0.0
 40
0.0555543
 41
0.0555543
  0
VERTEX
  8
0
 10
3.75738
 20
3.53039
 30
0.0
 40
0.0555543
 41
0.0555543
  0
VERTEX
  8
0
 10
3.73004
 20
3.55524
 30
0.0
 40
0.0555543
 41
0.0555543
  0
VERTEX
  8
0
 10
3.7226
 20
3.56478
 30
0.0
 40
0.0555543
 41
0.0555543
  0
VERTEX
  8
0
 10
3.71511
 20
3.57438
 30
0.0
 40
0.0555543
 41
0.0555543
  0
VERTEX
  8
0
 10
3.6976
 20
3.60693
 30
0.0
 40
0.0555543
 41
0.0555543
  0
VERTEX
  8
0
 10
3.68658
 20
3.64876
 30
0.0
 40
0.0555543
 41
0.0555543
  0
VERTEX
  8
0
 10
3.68994
 20
3.68549
 30
0.0
 40
0.0555543
 41
0.0555543
  0
VERTEX
  8
0
 10
3.70215
 20
3.70751
 30
0.0
 40
0.0555543
 41
0.0555543
  0
VERTEX
  8
0
 10
3.70822
 20
3.71224
 30
0.0
 40
0.0555543
 41
0.0555543
  0
SEQEND
 8
0
  0
POLYLINE
  8
0
 62
     250
 66
     1
 10
0
 20
0
 30
0.0
 40
3.99991
 41
3.99991
  0
VERTEX
  8
0
 10
3.97825
 20
3.92324
 30
0.0
 40
0.0555543
 41
0.0555543
  0
VERTEX
  8
0
 10
3.9879
 20
3.90435
 30
0.0
 40
0.0555543
 41
0.0555543
  0
VERTEX
  8
0
 10
4.04551
 20
3.81711
 30
0.0
 40
0.0555543
 41
0.0555543
  0
VERTEX
  8
0
 10
4.1161
 20
3.74001
 30
0.0
 40
0.0555543
 41
0.0555543
  0
VERTEX
  8
0
 10
4.13222
 20
3.72613
 30
0.0
 40
0.0555543
 41
0.0555543
  0
SEQEND
 8
0
  0
POLYLINE
  8
0
 62
     7
 66
     1
 10
0
 20
0
 30
0.0
 70
     1
 40
0
 41
0
  0
VERTEX
  8
0
 10
4.25222
 20
2.93528
 30
0.0
 40
0
 41
0
  0
VERTEX
  8
0
 10
4.59158
 20
2.98296
 30
0.0
 40
0
 41
0
  0
VERTEX
  8
0
 10
4.5925
 20
3.0039
 30
0.0
 40
0
 41
0
  0
VERTEX
  8
0
 10
4.60206
 20
3.06646
 30
0.0
 40
0
 41
0
  0
VERTEX
  8
0
 10
4.62429
 20
3.13374
 30
0.0
 40
0
 41
0
  0
VERTEX
  8
0
 10
4.6569
 20
3.18018
 30
0.0
 40
0
 41
0
  0
VERTEX
  8
0
 10
4.68756
 20
3.19943
 30
0.0
 40
0
 41
0
  0
VERTEX
  8
0
 10
4.69846
 20
3.20096
 30
0.0
 40
0
 41
0
  0
VERTEX
  8
0
 10
4.71262
 20
3.20296
 30
0.0
 40
0
 41
0
  0
VERTEX
  8
0
 10
4.75885
 20
3.1836
 30
0.0
 40
0
 41
0
  0
VERTEX
  8
0
 10
4.81494
 20
3.12093
 30
0.0
 40
0
 41
0
  0
VERTEX
  8
0
 10
4.86062
 20
3.02268
 30
0.0
 40
0
 41
0
  0
VERTEX
  8
0
 10
4.88536
 20
2.93001
 30
0.0
 40
0
 41
0
  0
VERTEX
  8
0
 10
4.88981
 20
2.8986
 30
0.0
 40
0
 41
0
  0
VERTEX
  8
0
 10
4.89421
 20
2.86719
 30
0.0
 40
0
 41
0
  0
VERTEX
  8
0
 10
4.89594
 20
2.77132
 30
0.0
 40
0
 41
0
  0
VERTEX
  8
0
 10
4.87907
 20
2.66428
 30
0.0
 40
0
 41
0
  0
VERTEX
  8
0
 10
4.84244
 20
2.58854
 30
0.0
 40
0
 41
0
  0
VERTEX
  8
0
 10
4.80339
 20
2.55718
 30
0.0
 40
0
 41
0
  0
VERTEX
  8
0
 10
4.78922
 20
2.55518
 30
0.0
 40
0
 41
0
  0
VERTEX
  8
0
 10
4.77826
 20
2.55365
 30
0.0
 40
0
 41
0
  0
VERTEX
  8
0
 10
4.74349
 20
2.56375
 30
0.0
 40
0
 41
0
  0
VERTEX
  8
0
 10
4.69938
 20
2.59939
 30
0.0
 40
0
 41
0
  0
VERTEX
  8
0
 10
4.65944
 20
2.65799
 30
0.0
 40
0
 41
0
  0
VERTEX
  8
0
 10
4.63308
 20
2.7155
 30
0.0
 40
0
 41
0
  0
VERTEX
  8
0
 10
4.62642
 20
2.73529
 30
0.0
 40
0
 41
0
  0
VERTEX
  8
0
 10
4.28706
 20
2.68761
 30
0.0
 40
0
 41
0
  0
VERTEX
  8
0
 10
4.2794
 20
2.68658
 30
0.0
 40
0
 41
0
  0
VERTEX
  8
0
 10
4.2551
 20
2.69308
 30
0.0
 40
0
 41
0
  0
VERTEX
  8
0
 10
4.22635
 20
2.71615
 30
0.0
 40
0
 41
0
  0
VERTEX
  8
0
 10
4.20389
 20
2.75315
 30
0.0
 40
0
 41
0
  0
VERTEX
  8
0
 10
4.19265
 20
2.78836
 30
0.0
 40
0
 41
0
  0
VERTEX
  8
0
 10
4.19097
 20
2.80035
 30
0.0
 40
0
 41
0
  0
VERTEX
  8
0
 10
4.18929
 20
2.81239
 30
0.0
 40
0
 41
0
  0
VERTEX
  8
0
 10
4.19038
 20
2.84933
 30
0.0
 40
0
 41
0
  0
VERTEX
  8
0
 10
4.20176
 20
2.89111
 30
0.0
 40
0
 41
0
  0
VERTEX
  8
0
 10
4.22304
 20
2.92122
 30
0.0
 40
0
 41
0
  0
VERTEX
  8
0
 10
4.24457
 20
2.93425
 30
0.0
 40
0
 41
0
  0
VERTEX
  8
0
 10
4.25222
 20
2.93528
 30
0.0
 40
0
 41
0
  0
SEQEND
 8
0
  0
POLYLINE
  8
0
 62
     250
 66
     1
 10
0
 20
0
 30
0.0
 70
     1
 40
3.99991
 41
3.99991
  0
VERTEX
  8
0
 10
4.25222
 20
2.93528
 30
0.0
 40
0.0555543
 41
0.0555543
  0
VERTEX
  8
0
 10
4.59158
 20
2.98296
 30
0.0
 40
0.0555543
 41
0.0555543
  0
VERTEX
  8
0
 10
4.5925
 20
3.0039
 30
0.0
 40
0.0555543
 41
0.0555543
  0
VERTEX
  8
0
 10
4.60206
 20
3.06646
 30
0.0
 40
0.0555543
 41
0.0555543
  0
VERTEX
  8
0
 10
4.62429
 20
3.13374
 30
0.0
 40
0.0555543
 41
0.0555543
  0
VERTEX
  8
0
 10
4.6569
 20
3.18018
 30
0.0
 40
0.0555543
 41
0.0555543
  0
VERTEX
  8
0
 10
4.68756
 20
3.19943
 30
0.0
 40
0.0555543
 41
0.0555543
  0
VERTEX
  8
0
 10
4.69846
 20
3.20096
 30
0.0
 40
0.0555543
 41
0.0555543
  0
VERTEX
  8
0
 10
4.71262
 20
3.20296
 30
0.0
 40
0.0555543
 41
0.0555543
  0
VERTEX
  8
0
 10
4.75885
 20
3.1836
 30
0.0
 40
0.0555543
 41
0.0555543
  0
VERTEX
  8
0
 10
4.81494
 20
3.12093
 30
0.0
 40
0.0555543
 41
0.0555543
  0
VERTEX
  8
0
 10
4.86062
 20
3.02268
 30
0.0
 40
0.0555543
 41
0.0555543
  0
VERTEX
  8
0
 10
4.88536
 20
2.93001
 30
0.0
 40
0.0555543
 41
0.0555543
  0
VERTEX
  8
0
 10
4.88981
 20
2.8986
 30
0.0
 40
0.0555543
 41
0.0555543
  0
VERTEX
  8
0
 10
4.89421
 20
2.86719
 30
0.0
 40
0.0555543
 41
0.0555543
  0
VERTEX
  8
0
 10
4.89594
 20
2.77132
 30
0.0
 40
0.0555543
 41
0.0555543
  0
VERTEX
  8
0
 10
4.87907
 20
2.66428
 30
0.0
 40
0.0555543
 41
0.0555543
  0
VERTEX
  8
0
 10
4.84244
 20
2.58854
 30
0.0
 40
0.0555543
 41
0.0555543
  0
VERTEX
  8
0
 10
4.80339
 20
2.55718
 30
0.0
 40
0.0555543
 41
0.0555543
  0
VERTEX
  8
0
 10
4.78922
 20
2.55518
 30
0.0
 40
0.0555543
 41
0.0555543
  0
VERTEX
  8
0
 10
4.77826
 20
2.55365
 30
0.0
 40
0.0555543
 41
0.0555543
  0
VERTEX
  8
0
 10
4.74349
 20
2.56375
 30
0.0
 40
0.0555543
 41
0.0555543
  0
VERTEX
  8
0
 10
4.69938
 20
2.59939
 30
0.0
 40
0.0555543
 41
0.0555543
  0
VERTEX
  8
0
 10
4.65944
 20
2.65799
 30
0.0
 40
0.0555543
 41
0.0555543
  0
VERTEX
  8
0
 10
4.63308
 20
2.7155
 30
0.0
 40
0.0555543
 41
0.0555543
  0
VERTEX
  8
0
 10
4.62642
 20
2.73529
 30
0.0
 40
0.0555543
 41
0.0555543
  0
VERTEX
  8
0
 10
4.28706
 20
2.68761
 30
0.0
 40
0.0555543
 41
0.0555543
  0
VERTEX
  8
0
 10
4.2794
 20
2.68658
 30
0.0
 40
0.0555543
 41
0.0555543
  0
VERTEX
  8
0
 10
4.2551
 20
2.69308
 30
0.0
 40
0.0555543
 41
0.0555543
  0
VERTEX
  8
0
 10
4.22635
 20
2.71615
 30
0.0
 40
0.0555543
 41
0.0555543
  0
VERTEX
  8
0
 10
4.20389
 20
2.75315
 30
0.0
 40
0.0555543
 41
0.0555543
  0
VERTEX
  8
0
 10
4.19265
 20
2.78836
 30
0.0
 40
0.0555543
 41
0.0555543
  0
VERTEX
  8
0
 10
4.19097
 20
2.80035
 30
0.0
 40
0.0555543
 41
0.0555543
  0
VERTEX
  8
0
 10
4.18929
 20
2.81239
 30
0.0
 40
0.0555543
 41
0.0555543
  0
VERTEX
  8
0
 10
4.19038
 20
2.84933
 30
0.0
 40
0.0555543
 41
0.0555543
  0
VERTEX
  8
0
 10
4.20176
 20
2.89111
 30
0.0
 40
0.0555543
 41
0.0555543
  0
VERTEX
  8
0
 10
4.22304
 20
2.92122
 30
0.0
 40
0.0555543
 41
0.0555543
  0
VERTEX
  8
0
 10
4.24457
 20
2.93425
 30
0.0
 40
0.0555543
 41
0.0555543
  0
VERTEX
  8
0
 10
4.25222
 20
2.93528
 30
0.0
 40
0.0555543
 41
0.0555543
  0
SEQEND
 8
0
  0
POLYLINE
  8
0
 62
     250
 66
     1
 10
0
 20
0
 30
0.0
 40
3.99991
 41
3.99991
  0
VERTEX
  8
0
 10
4.59158
 20
2.98296
 30
0.0
 40
0.0555543
 41
0.0555543
  0
VERTEX
  8
0
 10
4.5905
 20
2.96181
 30
0.0
 40
0.0555543
 41
0.0555543
  0
VERTEX
  8
0
 10
4.59679
 20
2.85742
 30
0.0
 40
0.0555543
 41
0.0555543
  0
VERTEX
  8
0
 10
4.61936
 20
2.75537
 30
0.0
 40
0.0555543
 41
0.0555543
  0
VERTEX
  8
0
 10
4.62642
 20
2.73529
 30
0.0
 40
0.0555543
 41
0.0555543
  0
SEQEND
 8
0
  0
POLYLINE
  8
0
 62
     7
 66
     1
 10
0
 20
0
 30
0.0
 70
     1
 40
0
 41
0
  0
VERTEX
  8
0
 10
4.12538
 20
1.95714
 30
0.0
 40
0
 41
0
  0
VERTEX
  8
0
 10
4.44308
 20
1.82878
 30
0.0
 40
0
 41
0
  0
VERTEX
  8
0
 10
4.45437
 20
1.84646
 30
0.0
 40
0
 41
0
  0
VERTEX
  8
0
 10
4.49387
 20
1.89583
 30
0.0
 40
0
 41
0
  0
VERTEX
  8
0
 10
4.54676
 20
1.94303
 30
0.0
 40
0
 41
0
  0
VERTEX
  8
0
 10
4.59819
 20
1.96696
 30
0.0
 40
0
 41
0
  0
VERTEX
  8
0
 10
4.63439
 20
1.96826
 30
0.0
 40
0
 41
0
  0
VERTEX
  8
0
 10
4.64464
 20
1.96414
 30
0.0
 40
0
 41
0
  0
VERTEX
  8
0
 10
4.65788
 20
1.95882
 30
0.0
 40
0
 41
0
  0
VERTEX
  8
0
 10
4.68821
 20
1.91889
 30
0.0
 40
0
 41
0
  0
VERTEX
  8
0
 10
4.70546
 20
1.83658
 30
0.0
 40
0
 41
0
  0
VERTEX
  8
0
 10
4.6959
 20
1.72862
 30
0.0
 40
0
 41
0
  0
VERTEX
  8
0
 10
4.67101
 20
1.63601
 30
0.0
 40
0
 41
0
  0
VERTEX
  8
0
 10
4.65913
 20
1.60661
 30
0.0
 40
0
 41
0
  0
VERTEX
  8
0
 10
4.64725
 20
1.57721
 30
0.0
 40
0
 41
0
  0
VERTEX
  8
0
 10
4.60081
 20
1.49328
 30
0.0
 40
0
 41
0
  0
VERTEX
  8
0
 10
4.53271
 20
1.40901
 30
0.0
 40
0
 41
0
  0
VERTEX
  8
0
 10
4.46311
 20
1.36176
 30
0.0
 40
0
 41
0
  0
VERTEX
  8
0
 10
4.41363
 20
1.35417
 30
0.0
 40
0
 41
0
  0
VERTEX
  8
0
 10
4.40033
 20
1.35948
 30
0.0
 40
0
 41
0
  0
VERTEX
  8
0
 10
4.39008
 20
1.36361
 30
0.0
 40
0
 41
0
  0
VERTEX
  8
0
 10
4.36501
 20
1.38976
 30
0.0
 40
0
 41
0
  0
VERTEX
  8
0
 10
4.34462
 20
1.44271
 30
0.0
 40
0
 41
0
  0
VERTEX
  8
0
 10
4.33936
 20
1.51335
 30
0.0
 40
0
 41
0
  0
VERTEX
  8
0
 10
4.34526
 20
1.57633
 30
0.0
 40
0
 41
0
  0
VERTEX
  8
0
 10
4.34939
 20
1.59685
 30
0.0
 40
0
 41
0
  0
VERTEX
  8
0
 10
4.03168
 20
1.72526
 30
0.0
 40
0
 41
0
  0
VERTEX
  8
0
 10
4.02453
 20
1.72814
 30
0.0
 40
0
 41
0
  0
VERTEX
  8
0
 10
4.00672
 20
1.74599
 30
0.0
 40
0
 41
0
  0
VERTEX
  8
0
 10
3.99338
 20
1.78033
 30
0.0
 40
0
 41
0
  0
VERTEX
  8
0
 10
3.9924
 20
1.82362
 30
0.0
 40
0
 41
0
  0
VERTEX
  8
0
 10
4.00028
 20
1.85975
 30
0.0
 40
0
 41
0
  0
VERTEX
  8
0
 10
4.00483
 20
1.87099
 30
0.0
 40
0
 41
0
  0
VERTEX
  8
0
 10
4.00933
 20
1.88226
 30
0.0
 40
0
 41
0
  0
VERTEX
  8
0
 10
4.02881
 20
1.91368
 30
0.0
 40
0
 41
0
  0
VERTEX
  8
0
 10
4.05957
 20
1.94413
 30
0.0
 40
0
 41
0
  0
VERTEX
  8
0
 10
4.09304
 20
1.95958
 30
0.0
 40
0
 41
0
  0
VERTEX
  8
0
 10
4.11822
 20
1.96007
 30
0.0
 40
0
 41
0
  0
VERTEX
  8
0
 10
4.12538
 20
1.95714
 30
0.0
 40
0
 41
0
  0
SEQEND
 8
0
  0
POLYLINE
  8
0
 62
     250
 66
     1
 10
0
 20
0
 30
0.0
 70
     1
 40
3.99991
 41
3.99991
  0
VERTEX
  8
0
 10
4.12538
 20
1.95714
 30
0.0
 40
0.0555543
 41
0.0555543
  0
VERTEX
  8
0
 10
4.44308
 20
1.82878
 30
0.0
 40
0.0555543
 41
0.0555543
  0
VERTEX
  8
0
 10
4.45437
 20
1.84646
 30
0.0
 40
0.0555543
 41
0.0555543
  0
VERTEX
  8
0
 10
4.49387
 20
1.89583
 30
0.0
 40
0.0555543
 41
0.0555543
  0
VERTEX
  8
0
 10
4.54676
 20
1.94303
 30
0.0
 40
0.0555543
 41
0.0555543
  0
VERTEX
  8
0
 10
4.59819
 20
1.96696
 30
0.0
 40
0.0555543
 41
0.0555543
  0
VERTEX
  8
0
 10
4.63439
 20
1.96826
 30
0.0
 40
0.0555543
 41
0.0555543
  0
VERTEX
  8
0
 10
4.64464
 20
1.96414
 30
0.0
 40
0.0555543
 41
0.0555543
  0
VERTEX
  8
0
 10
4.65788
 20
1.95882
 30
0.0
 40
0.0555543
 41
0.0555543
  0
VERTEX
  8
0
 10
4.68821
 20
1.91889
 30
0.0
 40
0.0555543
 41
0.0555543
  0
VERTEX
  8
0
 10
4.70546
 20
1.83658
 30
0.0
 40
0.0555543
 41
0.0555543
  0
VERTEX
  8
0
 10
4.6959
 20
1.72862
 30
0.0
 40
0.0555543
 41
0.0555543
  0
VERTEX
  8
0
 10
4.67101
 20
1.63601
 30
0.0
 40
0.0555543
 41
0.0555543
  0
VERTEX
  8
0
 10
4.65913
 20
1.60661
 30
0.0
 40
0.0555543
 41
0.0555543
  0
VERTEX
  8
0
 10
4.64725
 20
1.57721
 30
0.0
 40
0.0555543
 41
0.0555543
  0
VERTEX
  8
0
 10
4.60081
 20
1.49328
 30
0.0
 40
0.0555543
 41
0.0555543
  0
VERTEX
  8
0
 10
4.53271
 20
1.40901
 30
0.0
 40
0.0555543
 41
0.0555543
  0
VERTEX
  8
0
 10
4.46311
 20
1.36176
 30
0.0
 40
0.0555543
 41
0.0555543
  0
VERTEX
  8
0
 10
4.41363
 20
1.35417
 30
0.0
 40
0.0555543
 41
0.0555543
  0
VERTEX
  8
0
 10
4.40033
 20
1.35948
 30
0.0
 40
0.0555543
 41
0.0555543
  0
VERTEX
  8
0
 10
4.39008
 20
1.36361
 30
0.0
 40
0.0555543
 41
0.0555543
  0
VERTEX
  8
0
 10
4.36501
 20
1.38976
 30
0.0
 40
0.0555543
 41
0.0555543
  0
VERTEX
  8
0
 10
4.34462
 20
1.44271
 30
0.0
 40
0.0555543
 41
0.0555543
  0
VERTEX
  8
0
 10
4.33936
 20
1.51335
 30
0.0
 40
0.0555543
 41
0.0555543
  0
VERTEX
  8
0
 10
4.34526
 20
1.57633
 30
0.0
 40
0.0555543
 41
0.0555543
  0
VERTEX
  8
0
 10
4.34939
 20
1.59685
 30
0.0
 40
0.0555543
 41
0.0555543
  0
VERTEX
  8
0
 10
4.03168
 20
1.72526
 30
0.0
 40
0.0555543
 41
0.0555543
  0
VERTEX
  8
0
 10
4.02453
 20
1.72814
 30
0.0
 40
0.0555543
 41
0.0555543
  0
VERTEX
  8
0
 10
4.00672
 20
1.74599
 30
0.0
 40
0.0555543
 41
0.0555543
  0
VERTEX
  8
0
 10
3.99338
 20
1.78033
 30
0.0
 40
0.0555543
 41
0.0555543
  0
VERTEX
  8
0
 10
3.9924
 20
1.82362
 30
0.0
 40
0.0555543
 41
0.0555543
  0
VERTEX
  8
0
 10
4.00028
 20
1.85975
 30
0.0
 40
0.0555543
 41
0.0555543
  0
VERTEX
  8
0
 10
4.00483
 20
1.87099
 30
0.0
 40
0.0555543
 41
0.0555543
  0
VERTEX
  8
0
 10
4.00933
 20
1.88226
 30
0.0
 40
0.0555543
 41
0.0555543
  0
VERTEX
  8
0
 10
4.02881
 20
1.91368
 30
0.0
 40
0.0555543
 41
0.0555543
  0
VERTEX
  8
0
 10
4.05957
 20
1.94413
 30
0.0
 40
0.0555543
 41
0.0555543
  0
VERTEX
  8
0
 10
4.09304
 20
1.95958
 30
0.0
 40
0.0555543
 41
0.0555543
  0
VERTEX
  8
0
 10
4.11822
 20
1.96007
 30
0.0
 40
0.0555543
 41
0.0555543
  0
VERTEX
  8
0
 10
4.12538
 20
1.95714
 30
0.0
 40
0.0555543
 41
0.0555543
  0
SEQEND
 8
0
  0
POLYLINE
  8
0
 62
     250
 66
     1
 10
0
 20
0
 30
0.0
 40
3.99991
 41
3.99991
  0
VERTEX
  8
0
 10
4.44308
 20
1.82878
 30
0.0
 40
0.0555543
 41
0.0555543
  0
VERTEX
  8
0
 10
4.43153
 20
1.81099
 30
0.0
 40
0.0555543
 41
0.0555543
  0
VERTEX
  8
0
 10
4.38482
 20
1.71744
 30
0.0
 40
0.0555543
 41
0.0555543
  0
VERTEX
  8
0
 10
4.35331
 20
1.61778
 30
0.0
 40
0.0555543
 41
0.0555543
  0
VERTEX
  8
0
 10
4.34939
 20
1.5969
 30
0.0
 40
0.0555543
 41
0.0555543
  0
SEQEND
 8
0
  0
POLYLINE
  8
0
 62
     7
 66
     1
 10
0
 20
0
 30
0.0
 70
     1
 40
0
 41
0
  0
VERTEX
  8
0
 10
3.65771
 20
1.10514
 30
0.0
 40
0
 41
0
  0
VERTEX
  8
0
 10
3.86865
 20
0.835124
 30
0.0
 40
0
 41
0
  0
VERTEX
  8
0
 10
3.88726
 20
0.844781
 30
0.0
 40
0
 41
0
  0
VERTEX
  8
0
 10
3.94618
 20
0.867785
 30
0.0
 40
0
 41
0
  0
VERTEX
  8
0
 10
4.01557
 20
0.882161
 30
0.0
 40
0
 41
0
  0
VERTEX
  8
0
 10
4.07206
 20
0.877171
 30
0.0
 40
0
 41
0
  0
VERTEX
  8
0
 10
4.10411
 20
0.860243
 30
0.0
 40
0
 41
0
  0
VERTEX
  8
0
 10
4.11089
 20
0.851563
 30
0.0
 40
0
 41
0
  0
VERTEX
  8
0
 10
4.11968
 20
0.840278
 30
0.0
 40
0
 41
0
  0
VERTEX
  8
0
 10
4.12597
 20
0.790582
 30
0.0
 40
0
 41
0
  0
VERTEX
  8
0
 10
4.09978
 20
0.710613
 30
0.0
 40
0
 41
0
  0
VERTEX
  8
0
 10
4.03754
 20
0.621962
 30
0.0
 40
0
 41
0
  0
VERTEX
  8
0
 10
3.96967
 20
0.554199
 30
0.0
 40
0
 41
0
  0
VERTEX
  8
0
 10
3.94472
 20
0.534668
 30
0.0
 40
0
 41
0
  0
VERTEX
  8
0
 10
3.91971
 20
0.515136
 30
0.0
 40
0
 41
0
  0
VERTEX
  8
0
 10
3.83751
 20
0.465712
 30
0.0
 40
0
 41
0
  0
VERTEX
  8
0
 10
3.73643
 20
0.426758
 30
0.0
 40
0
 41
0
  0
VERTEX
  8
0
 10
3.6525
 20
0.420682
 30
0.0
 40
0
 41
0
  0
VERTEX
  8
0
 10
3.60579
 20
0.438803
 30
0.0
 40
0
 41
0
  0
VERTEX
  8
0
 10
3.597
 20
0.450087
 30
0.0
 40
0
 41
0
  0
VERTEX
  8
0
 10
3.59022
 20
0.458768
 30
0.0
 40
0
 41
0
  0
VERTEX
  8
0
 10
3.58154
 20
0.493924
 30
0.0
 40
0
 41
0
  0
VERTEX
  8
0
 10
3.59033
 20
0.549968
 30
0.0
 40
0
 41
0
  0
VERTEX
  8
0
 10
3.6211
 20
0.613824
 30
0.0
 40
0
 41
0
  0
VERTEX
  8
0
 10
3.65771
 20
0.665419
 30
0.0
 40
0
 41
0
  0
VERTEX
  8
0
 10
3.67156
 20
0.681099
 30
0.0
 40
0
 41
0
  0
VERTEX
  8
0
 10
3.46061
 20
0.951172
 30
0.0
 40
0
 41
0
  0
VERTEX
  8
0
 10
3.45583
 20
0.957249
 30
0.0
 40
0
 41
0
  0
VERTEX
  8
0
 10
3.44937
 20
0.981554
 30
0.0
 40
0
 41
0
  0
VERTEX
  8
0
 10
3.45497
 20
1.01801
 30
0.0
 40
0
 41
0
  0
VERTEX
  8
0
 10
3.47575
 20
1.05593
 30
0.0
 40
0
 41
0
  0
VERTEX
  8
0
 10
3.5006
 20
1.08333
 30
0.0
 40
0
 41
0
  0
VERTEX
  8
0
 10
3.51019
 20
1.09077
 30
0.0
 40
0
 41
0
  0
VERTEX
  8
0
 10
3.51975
 20
1.09825
 30
0.0
 40
0
 41
0
  0
VERTEX
  8
0
 10
3.55231
 20
1.11572
 30
0.0
 40
0
 41
0
  0
VERTEX
  8
0
 10
3.59418
 20
1.12679
 30
0.0
 40
0
 41
0
  0
VERTEX
  8
0
 10
3.63092
 20
1.12343
 30
0.0
 40
0
 41
0
  0
VERTEX
  8
0
 10
3.65294
 20
1.11122
 30
0.0
 40
0
 41
0
  0
VERTEX
  8
0
 10
3.65771
 20
1.10514
 30
0.0
 40
0
 41
0
  0
SEQEND
 8
0
  0
POLYLINE
  8
0
 62
     250
 66
     1
 10
0
 20
0
 30
0.0
 70
     1
 40
3.99991
 41
3.99991
  0
VERTEX
  8
0
 10
3.65771
 20
1.10514
 30
0.0
 40
0.0555543
 41
0.0555543
  0
VERTEX
  8
0
 10
3.86865
 20
0.835124
 30
0.0
 40
0.0555543
 41
0.0555543
  0
VERTEX
  8
0
 10
3.88726
 20
0.844781
 30
0.0
 40
0.0555543
 41
0.0555543
  0
VERTEX
  8
0
 10
3.94618
 20
0.867785
 30
0.0
 40
0.0555543
 41
0.0555543
  0
VERTEX
  8
0
 10
4.01557
 20
0.882161
 30
0.0
 40
0.0555543
 41
0.0555543
  0
VERTEX
  8
0
 10
4.07206
 20
0.877171
 30
0.0
 40
0.0555543
 41
0.0555543
  0
VERTEX
  8
0
 10
4.10411
 20
0.860243
 30
0.0
 40
0.0555543
 41
0.0555543
  0
VERTEX
  8
0
 10
4.11089
 20
0.851563
 30
0.0
 40
0.0555543
 41
0.0555543
  0
VERTEX
  8
0
 10
4.11968
 20
0.840278
 30
0.0
 40
0.0555543
 41
0.0555543
  0
VERTEX
  8
0
 10
4.12597
 20
0.790582
 30
0.0
 40
0.0555543
 41
0.0555543
  0
VERTEX
  8
0
 10
4.09978
 20
0.710613
 30
0.0
 40
0.0555543
 41
0.0555543
  0
VERTEX
  8
0
 10
4.03754
 20
0.621962
 30
0.0
 40
0.0555543
 41
0.0555543
  0
VERTEX
  8
0
 10
3.96967
 20
0.554199
 30
0.0
 40
0.0555543
 41
0.0555543
  0
VERTEX
  8
0
 10
3.94472
 20
0.534668
 30
0.0
 40
0.0555543
 41
0.0555543
  0
VERTEX
  8
0
 10
3.91971
 20
0.515136
 30
0.0
 40
0.0555543
 41
0.0555543
  0
VERTEX
  8
0
 10
3.83751
 20
0.465712
 30
0.0
 40
0.0555543
 41
0.0555543
  0
VERTEX
  8
0
 10
3.73643
 20
0.426758
 30
0.0
 40
0.0555543
 41
0.0555543
  0
VERTEX
  8
0
 10
3.6525
 20
0.420682
 30
0.0
 40
0.0555543
 41
0.0555543
  0
VERTEX
  8
0
 10
3.60579
 20
0.438803
 30
0.0
 40
0.0555543
 41
0.0555543
  0
VERTEX
  8
0
 10
3.597
 20
0.450087
 30
0.0
 40
0.0555543
 41
0.0555543
  0
VERTEX
  8
0
 10
3.59022
 20
0.458768
 30
0.0
 40
0.0555543
 41
0.0555543
  0
VERTEX
  8
0
 10
3.58154
 20
0.493924
 30
0.0
 40
0.0555543
 41
0.0555543
  0
VERTEX
  8
0
 10
3.59033
 20
0.549968
 30
0.0
 40
0.0555543
 41
0.0555543
  0
VERTEX
  8
0
 10
3.6211
 20
0.613824
 30
0.0
 40
0.0555543
 41
0.0555543
  0
VERTEX
  8
0
 10
3.65771
 20
0.665419
 30
0.0
 40
0.0555543
 41
0.0555543
  0
VERTEX
  8
0
 10
3.67156
 20
0.681099
 30
0.0
 40
0.0555543
 41
0.0555543
  0
VERTEX
  8
0
 10
3.46061
 20
0.951172
 30
0.0
 40
0.0555543
 41
0.0555543
  0
VERTEX
  8
0
 10
3.45583
 20
0.957249
 30
0.0
 40
0.0555543
 41
0.0555543
  0
VERTEX
  8
0
 10
3.44937
 20
0.981554
 30
0.0
 40
0.0555543
 41
0.0555543
  0
VERTEX
  8
0
 10
3.45497
 20
1.01801
 30
0.0
 40
0.0555543
 41
0.0555543
  0
VERTEX
  8
0
 10
3.47575
 20
1.05593
 30
0.0
 40
0.0555543
 41
0.0555543
  0
VERTEX
  8
0
 10
3.5006
 20
1.08333
 30
0.0
 40
0.0555543
 41
0.0555543
  0
VERTEX
  8
0
 10
3.51019
 20
1.09077
 30
0.0
 40
0.0555543
 41
0.0555543
  0
VERTEX
  8
0
 10
3.51975
 20
1.09825
 30
0.0
 40
0.0555543
 41
0.0555543
  0
VERTEX
  8
0
 10
3.55231
 20
1.11572
 30
0.0
 40
0.0555543
 41
0.0555543
  0
VERTEX
  8
0
 10
3.59418
 20
1.12679
 30
0.0
 40
0.0555543
 41
0.0555543
  0
VERTEX
  8
0
 10
3.63092
 20
1.12343
 30
0.0
 40
0.0555543
 41
0.0555543
  0
VERTEX
  8
0
 10
3.65294
 20
1.11122
 30
0.0
 40
0.0555543
 41
0.0555543
  0
VERTEX
  8
0
 10
3.65771
 20
1.10514
 30
0.0
 40
0.0555543
 41
0.0555543
  0
SEQEND
 8
0
  0
POLYLINE
  8
0
 62
     250
 66
     1
 10
0
 20
0
 30
0.0
 40
3.99991
 41
3.99991
  0
VERTEX
  8
0
 10
3.86865
 20
0.835124
 30
0.0
 40
0.0555543
 41
0.0555543
  0
VERTEX
  8
0
 10
3.84972
 20
0.825467
 30
0.0
 40
0.0555543
 41
0.0555543
  0
VERTEX
  8
0
 10
3.76253
 20
0.767796
 30
0.0
 40
0.0555543
 41
0.0555543
  0
VERTEX
  8
0
 10
3.68539
 20
0.697211
 30
0.0
 40
0.0555543
 41
0.0555543
  0
VERTEX
  8
0
 10
3.67156
 20
0.681099
 30
0.0
 40
0.0555543
 41
0.0555543
  0
SEQEND
 8
0
  0
POLYLINE
  8
0
 62
     7
 66
     1
 10
0
 20
0
 30
0.0
 70
     1
 40
0
 41
0
  0
VERTEX
  8
0
 10
2.71289
 20
0.683485
 30
0.0
 40
0
 41
0
  0
VERTEX
  8
0
 10
2.76058
 20
0.344129
 30
0.0
 40
0
 41
0
  0
VERTEX
  8
0
 10
2.78147
 20
0.343207
 30
0.0
 40
0
 41
0
  0
VERTEX
  8
0
 10
2.84403
 20
0.333658
 30
0.0
 40
0
 41
0
  0
VERTEX
  8
0
 10
2.91129
 20
0.311415
 30
0.0
 40
0
 41
0
  0
VERTEX
  8
0
 10
2.95774
 20
0.278808
 30
0.0
 40
0
 41
0
  0
VERTEX
  8
0
 10
2.977
 20
0.248156
 30
0.0
 40
0
 41
0
  0
VERTEX
  8
0
 10
2.97857
 20
0.23725
 30
0.0
 40
0
 41
0
  0
VERTEX
  8
0
 10
2.98053
 20
0.22309
 30
0.0
 40
0
 41
0
  0
VERTEX
  8
0
 10
2.96115
 20
0.176867
 30
0.0
 40
0
 41
0
  0
VERTEX
  8
0
 10
2.89849
 20
0.120768
 30
0.0
 40
0
 41
0
  0
VERTEX
  8
0
 10
2.80024
 20
0.0750868
 30
0.0
 40
0
 41
0
  0
VERTEX
  8
0
 10
2.70757
 20
0.0503472
 30
0.0
 40
0
 41
0
  0
VERTEX
  8
0
 10
2.67622
 20
0.0458985
 30
0.0
 40
0
 41
0
  0
VERTEX
  8
0
 10
2.64475
 20
0.0415039
 30
0.0
 40
0
 41
0
  0
VERTEX
  8
0
 10
2.54889
 20
0.0397136
 30
0.0
 40
0
 41
0
  0
VERTEX
  8
0
 10
2.44185
 20
0.0565864
 30
0.0
 40
0
 41
0
  0
VERTEX
  8
0
 10
2.36615
 20
0.0932617
 30
0.0
 40
0
 41
0
  0
VERTEX
  8
0
 10
2.33475
 20
0.132324
 30
0.0
 40
0
 41
0
  0
VERTEX
  8
0
 10
2.33279
 20
0.146485
 30
0.0
 40
0
 41
0
  0
VERTEX
  8
0
 10
2.33128
 20
0.157389
 30
0.0
 40
0
 41
0
  0
VERTEX
  8
0
 10
2.34131
 20
0.192165
 30
0.0
 40
0
 41
0
  0
VERTEX
  8
0
 10
2.37696
 20
0.236274
 30
0.0
 40
0
 41
0
  0
VERTEX
  8
0
 10
2.43554
 20
0.276204
 30
0.0
 40
0
 41
0
  0
VERTEX
  8
0
 10
2.49306
 20
0.302626
 30
0.0
 40
0
 41
0
  0
VERTEX
  8
0
 10
2.51292
 20
0.309299
 30
0.0
 40
0
 41
0
  0
VERTEX
  8
0
 10
2.46522
 20
0.648654
 30
0.0
 40
0
 41
0
  0
VERTEX
  8
0
 10
2.46414
 20
0.656304
 30
0.0
 40
0
 41
0
  0
VERTEX
  8
0
 10
2.47065
 20
0.68061
 30
0.0
 40
0
 41
0
  0
VERTEX
  8
0
 10
2.49376
 20
0.709364
 30
0.0
 40
0
 41
0
  0
VERTEX
  8
0
 10
2.53071
 20
0.731825
 30
0.0
 40
0
 41
0
  0
VERTEX
  8
0
 10
2.56592
 20
0.743056
 30
0.0
 40
0
 41
0
  0
VERTEX
  8
0
 10
2.57796
 20
0.744738
 30
0.0
 40
0
 41
0
  0
VERTEX
  8
0
 10
2.58996
 20
0.746419
 30
0.0
 40
0
 41
0
  0
VERTEX
  8
0
 10
2.6269
 20
0.745335
 30
0.0
 40
0
 41
0
  0
VERTEX
  8
0
 10
2.66868
 20
0.733942
 30
0.0
 40
0
 41
0
  0
VERTEX
  8
0
 10
2.69879
 20
0.712674
 30
0.0
 40
0
 41
0
  0
VERTEX
  8
0
 10
2.71181
 20
0.691081
 30
0.0
 40
0
 41
0
  0
VERTEX
  8
0
 10
2.71289
 20
0.683431
 30
0.0
 40
0
 41
0
  0
VERTEX
  8
0
 10
2.71289
 20
0.683485
 30
0.0
 40
0
 41
0
  0
SEQEND
 8
0
  0
POLYLINE
  8
0
 62
     250
 66
     1
 10
0
 20
0
 30
0.0
 70
     1
 40
3.99991
 41
3.99991
  0
VERTEX
  8
0
 10
2.71289
 20
0.683485
 30
0.0
 40
0.0555543
 41
0.0555543
  0
VERTEX
  8
0
 10
2.76058
 20
0.344129
 30
0.0
 40
0.0555543
 41
0.0555543
  0
VERTEX
  8
0
 10
2.78147
 20
0.343207
 30
0.0
 40
0.0555543
 41
0.0555543
  0
VERTEX
  8
0
 10
2.84403
 20
0.333658
 30
0.0
 40
0.0555543
 41
0.0555543
  0
VERTEX
  8
0
 10
2.91129
 20
0.311415
 30
0.0
 40
0.0555543
 41
0.0555543
  0
VERTEX
  8
0
 10
2.95774
 20
0.278808
 30
0.0
 40
0.0555543
 41
0.0555543
  0
VERTEX
  8
0
 10
2.977
 20
0.248156
 30
0.0
 40
0.0555543
 41
0.0555543
  0
VERTEX
  8
0
 10
2.97857
 20
0.23725
 30
0.0
 40
0.0555543
 41
0.0555543
  0
VERTEX
  8
0
 10
2.98053
 20
0.22309
 30
0.0
 40
0.0555543
 41
0.0555543
  0
VERTEX
  8
0
 10
2.96115
 20
0.176867
 30
0.0
 40
0.0555543
 41
0.0555543
  0
VERTEX
  8
0
 10
2.89849
 20
0.120768
 30
0.0
 40
0.0555543
 41
0.0555543
  0
VERTEX
  8
0
 10
2.80024
 20
0.0750868
 30
0.0
 40
0.0555543
 41
0.0555543
  0
VERTEX
  8
0
 10
2.70757
 20
0.0503472
 30
0.0
 40
0.0555543
 41
0.0555543
  0
VERTEX
  8
0
 10
2.67622
 20
0.0458985
 30
0.0
 40
0.0555543
 41
0.0555543
  0
VERTEX
  8
0
 10
2.64475
 20
0.0415039
 30
0.0
 40
0.0555543
 41
0.0555543
  0
VERTEX
  8
0
 10
2.54889
 20
0.0397136
 30
0.0
 40
0.0555543
 41
0.0555543
  0
VERTEX
  8
0
 10
2.44185
 20
0.0565864
 30
0.0
 40
0.0555543
 41
0.0555543
  0
VERTEX
  8
0
 10
2.36615
 20
0.0932617
 30
0.0
 40
0.0555543
 41
0.0555543
  0
VERTEX
  8
0
 10
2.33475
 20
0.132324
 30
0.0
 40
0.0555543
 41
0.0555543
  0
VERTEX
  8
0
 10
2.33279
 20
0.146485
 30
0.0
 40
0.0555543
 41
0.0555543
  0
VERTEX
  8
0
 10
2.33128
 20
0.157389
 30
0.0
 40
0.0555543
 41
0.0555543
  0
VERTEX
  8
0
 10
2.34131
 20
0.192165
 30
0.0
 40
0.0555543
 41
0.0555543
  0
VERTEX
  8
0
 10
2.37696
 20
0.236274
 30
0.0
 40
0.0555543
 41
0.0555543
  0
VERTEX
  8
0
 10
2.43554
 20
0.276204
 30
0.0
 40
0.0555543
 41
0.0555543
  0
VERTEX
  8
0
 10
2.49306
 20
0.302626
 30
0.0
 40
0.0555543
 41
0.0555543
  0
VERTEX
  8
0
 10
2.51292
 20
0.309299
 30
0.0
 40
0.0555543
 41
0.0555543
  0
VERTEX
  8
0
 10
2.46522
 20
0.648654
 30
0.0
 40
0.0555543
 41
0.0555543
  0
VERTEX
  8
0
 10
2.46414
 20
0.656304
 30
0.0
 40
0.0555543
 41
0.0555543
  0
VERTEX
  8
0
 10
2.47065
 20
0.68061
 30
0.0
 40
0.0555543
 41
0.0555543
  0
VERTEX
  8
0
 10
2.49376
 20
0.709364
 30
0.0
 40
0.0555543
 41
0.0555543
  0
VERTEX
  8
0
 10
2.53071
 20
0.731825
 30
0.0
 40
0.0555543
 41
0.0555543
  0
VERTEX
  8
0
 10
2.56592
 20
0.743056
 30
0.0
 40
0.0555543
 41
0.0555543
  0
VERTEX
  8
0
 10
2.57796
 20
0.744738
 30
0.0
 40
0.0555543
 41
0.0555543
  0
VERTEX
  8
0
 10
2.58996
 20
0.746419
 30
0.0
 40
0.0555543
 41
0.0555543
  0
VERTEX
  8
0
 10
2.6269
 20
0.745335
 30
0.0
 40
0.0555543
 41
0.0555543
  0
VERTEX
  8
0
 10
2.66868
 20
0.733942
 30
0.0
 40
0.0555543
 41
0.0555543
  0
VERTEX
  8
0
 10
2.69879
 20
0.712674
 30
0.0
 40
0.0555543
 41
0.0555543
  0
VERTEX
  8
0
 10
2.71181
 20
0.691081
 30
0.0
 40
0.0555543
 41
0.0555543
  0
VERTEX
  8
0
 10
2.71289
 20
0.683431
 30
0.0
 40
0.0555543
 41
0.0555543
  0
VERTEX
  8
0
 10
2.71289
 20
0.683485
 30
0.0
 40
0.0555543
 41
0.0555543
  0
SEQEND
 8
0
  0
POLYLINE
  8
0
 62
     250
 66
     1
 10
0
 20
0
 30
0.0
 40
3.99991
 41
3.99991
  0
VERTEX
  8
0
 10
2.76058
 20
0.344129
 30
0.0
 40
0.0555543
 41
0.0555543
  0
VERTEX
  8
0
 10
2.73936
 20
0.345215
 30
0.0
 40
0.0555543
 41
0.0555543
  0
VERTEX
  8
0
 10
2.63504
 20
0.338867
 30
0.0
 40
0.0555543
 41
0.0555543
  0
VERTEX
  8
0
 10
2.53293
 20
0.316351
 30
0.0
 40
0.0555543
 41
0.0555543
  0
VERTEX
  8
0
 10
2.51292
 20
0.309299
 30
0.0
 40
0.0555543
 41
0.0555543
  0
SEQEND
 8
0
  0
POLYLINE
  8
0
 62
     7
 66
     1
 10
0
 20
0
 30
0.0
 70
     1
 40
0
 41
0
  0
VERTEX
  8
0
 10
1.87646
 20
0.803168
 30
0.0
 40
0
 41
0
  0
VERTEX
  8
0
 10
1.7481
 20
0.48546
 30
0.0
 40
0
 41
0
  0
VERTEX
  8
0
 10
1.76574
 20
0.474175
 30
0.0
 40
0
 41
0
  0
VERTEX
  8
0
 10
1.81511
 20
0.434679
 30
0.0
 40
0
 41
0
  0
VERTEX
  8
0
 10
1.86231
 20
0.381782
 30
0.0
 40
0
 41
0
  0
VERTEX
  8
0
 10
1.88624
 20
0.33035
 30
0.0
 40
0
 41
0
  0
VERTEX
  8
0
 10
1.88758
 20
0.294163
 30
0.0
 40
0
 41
0
  0
VERTEX
  8
0
 10
1.88346
 20
0.283908
 30
0.0
 40
0
 41
0
  0
VERTEX
  8
0
 10
1.8781
 20
0.270671
 30
0.0
 40
0
 41
0
  0
VERTEX
  8
0
 10
1.83822
 20
0.240343
 30
0.0
 40
0
 41
0
  0
VERTEX
  8
0
 10
1.75586
 20
0.22309
 30
0.0
 40
0
 41
0
  0
VERTEX
  8
0
 10
1.64794
 20
0.232639
 30
0.0
 40
0
 41
0
  0
VERTEX
  8
0
 10
1.55533
 20
0.257542
 30
0.0
 40
0
 41
0
  0
VERTEX
  8
0
 10
1.52593
 20
0.269422
 30
0.0
 40
0
 41
0
  0
VERTEX
  8
0
 10
1.49647
 20
0.281304
 30
0.0
 40
0
 41
0
  0
VERTEX
  8
0
 10
1.4126
 20
0.327746
 30
0.0
 40
0
 41
0
  0
VERTEX
  8
0
 10
1.32834
 20
0.395833
 30
0.0
 40
0
 41
0
  0
VERTEX
  8
0
 10
1.28109
 20
0.46544
 30
0.0
 40
0
 41
0
  0
VERTEX
  8
0
 10
1.27349
 20
0.514919
 30
0.0
 40
0
 41
0
  0
VERTEX
  8
0
 10
1.27886
 20
0.528212
 30
0.0
 40
0
 41
0
  0
VERTEX
  8
0
 10
1.28293
 20
0.538411
 30
0.0
 40
0
 41
0
  0
VERTEX
  8
0
 10
1.30903
 20
0.563531
 30
0.0
 40
0
 41
0
  0
VERTEX
  8
0
 10
1.36198
 20
0.583931
 30
0.0
 40
0
 41
0
  0
VERTEX
  8
0
 10
1.43267
 20
0.589193
 30
0.0
 40
0
 41
0
  0
VERTEX
  8
0
 10
1.49567
 20
0.583279
 30
0.0
 40
0
 41
0
  0
VERTEX
  8
0
 10
1.51622
 20
0.579156
 30
0.0
 40
0
 41
0
  0
VERTEX
  8
0
 10
1.64458
 20
0.896864
 30
0.0
 40
0
 41
0
  0
VERTEX
  8
0
 10
1.64746
 20
0.904025
 30
0.0
 40
0
 41
0
  0
VERTEX
  8
0
 10
1.66525
 20
0.921821
 30
0.0
 40
0
 41
0
  0
VERTEX
  8
0
 10
1.69965
 20
0.935167
 30
0.0
 40
0
 41
0
  0
VERTEX
  8
0
 10
1.74289
 20
0.936143
 30
0.0
 40
0
 41
0
  0
VERTEX
  8
0
 10
1.77903
 20
0.928276
 30
0.0
 40
0
 41
0
  0
VERTEX
  8
0
 10
1.79031
 20
0.923719
 30
0.0
 40
0
 41
0
  0
VERTEX
  8
0
 10
1.80154
 20
0.919217
 30
0.0
 40
0
 41
0
  0
VERTEX
  8
0
 10
1.83296
 20
0.89974
 30
0.0
 40
0
 41
0
  0
VERTEX
  8
0
 10
1.86339
 20
0.868978
 30
0.0
 40
0
 41
0
  0
VERTEX
  8
0
 10
1.87885
 20
0.835504
 30
0.0
 40
0
 41
0
  0
VERTEX
  8
0
 10
1.87935
 20
0.810331
 30
0.0
 40
0
 41
0
  0
VERTEX
  8
0
 10
1.87646
 20
0.803168
 30
0.0
 40
0
 41
0
  0
SEQEND
 8
0
  0
POLYLINE
  8
0
 62
     250
 66
     1
 10
0
 20
0
 30
0.0
 70
     1
 40
3.99991
 41
3.99991
  0
VERTEX
  8
0
 10
1.87646
 20
0.803168
 30
0.0
 40
0.0555543
 41
0.0555543
  0
VERTEX
  8
0
 10
1.7481
 20
0.48546
 30
0.0
 40
0.0555543
 41
0.0555543
  0
VERTEX
  8
0
 10
1.76574
 20
0.474175
 30
0.0
 40
0.0555543
 41
0.0555543
  0
VERTEX
  8
0
 10
1.81511
 20
0.434679
 30
0.0
 40
0.0555543
 41
0.0555543
  0
VERTEX
  8
0
 10
1.86231
 20
0.381782
 30
0.0
 40
0.0555543
 41
0.0555543
  0
VERTEX
  8
0
 10
1.88624
 20
0.33035
 30
0.0
 40
0.0555543
 41
0.0555543
  0
VERTEX
  8
0
 10
1.88758
 20
0.294163
 30
0.0
 40
0.0555543
 41
0.0555543
  0
VERTEX
  8
0
 10
1.88346
 20
0.283908
 30
0.0
 40
0.0555543
 41
0.0555543
  0
VERTEX
  8
0
 10
1.8781
 20
0.270671
 30
0.0
 40
0.0555543
 41
0.0555543
  0
VERTEX
  8
0
 10
1.83822
 20
0.240343
 30
0.0
 40
0.0555543
 41
0.0555543
  0
VERTEX
  8
0
 10
1.75586
 20
0.22309
 30
0.0
 40
0.0555543
 41
0.0555543
  0
VERTEX
  8
0
 10
1.64794
 20
0.232639
 30
0.0
 40
0.0555543
 41
0.0555543
  0
VERTEX
  8
0
 10
1.55533
 20
0.257542
 30
0.0
 40
0.0555543
 41
0.0555543
  0
VERTEX
  8
0
 10
1.52593
 20
0.269422
 30
0.0
 40
0.0555543
 41
0.0555543
  0
VERTEX
  8
0
 10
1.49647
 20
0.281304
 30
0.0
 40
0.0555543
 41
0.0555543
  0
VERTEX
  8
0
 10
1.4126
 20
0.327746
 30
0.0
 40
0.0555543
 41
0.0555543
  0
VERTEX
  8
0
 10
1.32834
 20
0.395833
 30
0.0
 40
0.0555543
 41
0.0555543
  0
VERTEX
  8
0
 10
1.28109
 20
0.46544
 30
0.0
 40
0.0555543
 41
0.0555543
  0
VERTEX
  8
0
 10
1.27349
 20
0.514919
 30
0.0
 40
0.0555543
 41
0.0555543
  0
VERTEX
  8
0
 10
1.27886
 20
0.528212
 30
0.0
 40
0.0555543
 41
0.0555543
  0
VERTEX
  8
0
 10
1.28293
 20
0.538411
 30
0.0
 40
0.0555543
 41
0.0555543
  0
VERTEX
  8
0
 10
1.30903
 20
0.563531
 30
0.0
 40
0.0555543
 41
0.0555543
  0
VERTEX
  8
0
 10
1.36198
 20
0.583931
 30
0.0
 40
0.0555543
 41
0.0555543
  0
VERTEX
  8
0
 10
1.43267
 20
0.589193
 30
0.0
 40
0.0555543
 41
0.0555543
  0
VERTEX
  8
0
 10
1.49567
 20
0.583279
 30
0.0
 40
0.0555543
 41
0.0555543
  0
VERTEX
  8
0
 10
1.51622
 20
0.579156
 30
0.0
 40
0.0555543
 41
0.0555543
  0
VERTEX
  8
0
 10
1.64458
 20
0.896864
 30
0.0
 40
0.0555543
 41
0.0555543
  0
VERTEX
  8
0
 10
1.64746
 20
0.904025
 30
0.0
 40
0.0555543
 41
0.0555543
  0
VERTEX
  8
0
 10
1.66525
 20
0.921821
 30
0.0
 40
0.0555543
 41
0.0555543
  0
VERTEX
  8
0
 10
1.69965
 20
0.935167
 30
0.0
 40
0.0555543
 41
0.0555543
  0
VERTEX
  8
0
 10
1.74289
 20
0.936143
 30
0.0
 40
0.0555543
 41
0.0555543
  0
VERTEX
  8
0
 10
1.77903
 20
0.928276
 30
0.0
 40
0.0555543
 41
0.0555543
  0
VERTEX
  8
0
 10
1.79031
 20
0.923719
 30
0.0
 40
0.0555543
 41
0.0555543
  0
VERTEX
  8
0
 10
1.80154
 20
0.919217
 30
0.0
 40
0.0555543
 41
0.0555543
  0
VERTEX
  8
0
 10
1.83296
 20
0.89974
 30
0.0
 40
0.0555543
 41
0.0555543
  0
VERTEX
  8
0
 10
1.86339
 20
0.868978
 30
0.0
 40
0.0555543
 41
0.0555543
  0
VERTEX
  8
0
 10
1.87885
 20
0.835504
 30
0.0
 40
0.0555543
 41
0.0555543
  0
VERTEX
  8
0
 10
1.87935
 20
0.810331
 30
0.0
 40
0.0555543
 41
0.0555543
  0
VERTEX
  8
0
 10
1.87646
 20
0.803168
 30
0.0
 40
0.0555543
 41
0.0555543
  0
SEQEND
 8
0
  0
POLYLINE
  8
0
 62
     250
 66
     1
 10
0
 20
0
 30
0.0
 40
3.99991
 41
3.99991
  0
VERTEX
  8
0
 10
1.7481
 20
0.48546
 30
0.0
 40
0.0555543
 41
0.0555543
  0
VERTEX
  8
0
 10
1.73025
 20
0.497017
 30
0.0
 40
0.0555543
 41
0.0555543
  0
VERTEX
  8
0
 10
1.63672
 20
0.543728
 30
0.0
 40
0.0555543
 41
0.0555543
  0
VERTEX
  8
0
 10
1.53711
 20
0.57525
 30
0.0
 40
0.0555543
 41
0.0555543
  0
VERTEX
  8
0
 10
1.51622
 20
0.579156
 30
0.0
 40
0.0555543
 41
0.0555543
  0
SEQEND
 8
0
  0
POLYLINE
  8
0
 62
     7
 66
     1
 10
0
 20
0
 30
0.0
 70
     1
 40
0
 41
0
  0
VERTEX
  8
0
 10
1.03879
 20
1.3737
 30
0.0
 40
0
 41
0
  0
VERTEX
  8
0
 10
0.768772
 20
1.16271
 30
0.0
 40
0
 41
0
  0
VERTEX
  8
0
 10
0.778375
 20
1.14415
 30
0.0
 40
0
 41
0
  0
VERTEX
  8
0
 10
0.801378
 20
1.08523
 30
0.0
 40
0
 41
0
  0
VERTEX
  8
0
 10
0.81581
 20
1.01584
 30
0.0
 40
0
 41
0
  0
VERTEX
  8
0
 10
0.810764
 20
0.95931
 30
0.0
 40
0
 41
0
  0
VERTEX
  8
0
 10
0.793838
 20
0.9273
 30
0.0
 40
0
 41
0
  0
VERTEX
  8
0
 10
0.785211
 20
0.920518
 30
0.0
 40
0
 41
0
  0
VERTEX
  8
0
 10
0.773872
 20
0.911729
 30
0.0
 40
0
 41
0
  0
VERTEX
  8
0
 10
0.724175
 20
0.905382
 30
0.0
 40
0
 41
0
  0
VERTEX
  8
0
 10
0.64426
 20
0.931586
 30
0.0
 40
0
 41
0
  0
VERTEX
  8
0
 10
0.555556
 20
0.993815
 30
0.0
 40
0
 41
0
  0
VERTEX
  8
0
 10
0.487793
 20
1.06174
 30
0.0
 40
0
 41
0
  0
VERTEX
  8
0
 10
0.468317
 20
1.0867
 30
0.0
 40
0
 41
0
  0
VERTEX
  8
0
 10
0.448785
 20
1.11171
 30
0.0
 40
0
 41
0
  0
VERTEX
  8
0
 10
0.399306
 20
1.19385
 30
0.0
 40
0
 41
0
  0
VERTEX
  8
0
 10
0.360406
 20
1.29498
 30
0.0
 40
0
 41
0
  0
VERTEX
  8
0
 10
0.354275
 20
1.37891
 30
0.0
 40
0
 41
0
  0
VERTEX
  8
0
 10
0.372396
 20
1.42557
 30
0.0
 40
0
 41
0
  0
VERTEX
  8
0
 10
0.383735
 20
1.43435
 30
0.0
 40
0
 41
0
  0
VERTEX
  8
0
 10
0.392361
 20
1.44114
 30
0.0
 40
0
 41
0
  0
VERTEX
  8
0
 10
0.427518
 20
1.44982
 30
0.0
 40
0
 41
0
  0
VERTEX
  8
0
 10
0.483561
 20
1.44103
 30
0.0
 40
0
 41
0
  0
VERTEX
  8
0
 10
0.547418
 20
1.41026
 30
0.0
 40
0
 41
0
  0
VERTEX
  8
0
 10
0.599012
 20
1.3737
 30
0.0
 40
0
 41
0
  0
VERTEX
  8
0
 10
0.614746
 20
1.35981
 30
0.0
 40
0
 41
0
  0
VERTEX
  8
0
 10
0.884765
 20
1.57081
 30
0.0
 40
0
 41
0
  0
VERTEX
  8
0
 10
0.890842
 20
1.57557
 30
0.0
 40
0
 41
0
  0
VERTEX
  8
0
 10
0.915147
 20
1.58203
 30
0.0
 40
0
 41
0
  0
VERTEX
  8
0
 10
0.951606
 20
1.57644
 30
0.0
 40
0
 41
0
  0
VERTEX
  8
0
 10
0.989529
 20
1.55561
 30
0.0
 40
0
 41
0
  0
VERTEX
  8
0
 10
1.01693
 20
1.53076
 30
0.0
 40
0
 41
0
  0
VERTEX
  8
0
 10
1.02441
 20
1.52115
 30
0.0
 40
0
 41
0
  0
VERTEX
  8
0
 10
1.03185
 20
1.51161
 30
0.0
 40
0
 41
0
  0
VERTEX
  8
0
 10
1.04932
 20
1.47906
 30
0.0
 40
0
 41
0
  0
VERTEX
  8
0
 10
1.06038
 20
1.43722
 30
0.0
 40
0
 41
0
  0
VERTEX
  8
0
 10
1.05702
 20
1.4005
 30
0.0
 40
0
 41
0
  0
VERTEX
  8
0
 10
1.04487
 20
1.37847
 30
0.0
 40
0
 41
0
  0
VERTEX
  8
0
 10
1.03879
 20
1.3737
 30
0.0
 40
0
 41
0
  0
SEQEND
 8
0
  0
POLYLINE
  8
0
 62
     250
 66
     1
 10
0
 20
0
 30
0.0
 70
     1
 40
3.99991
 41
3.99991
  0
VERTEX
  8
0
 10
1.03879
 20
1.3737
 30
0.0
 40
0.0555543
 41
0.0555543
  0
VERTEX
  8
0
 10
0.768772
 20
1.16271
 30
0.0
 40
0.0555543
 41
0.0555543
  0
VERTEX
  8
0
 10
0.778375
 20
1.14415
 30
0.0
 40
0.0555543
 41
0.0555543
  0
VERTEX
  8
0
 10
0.801378
 20
1.08523
 30
0.0
 40
0.0555543
 41
0.0555543
  0
VERTEX
  8
0
 10
0.81581
 20
1.01584
 30
0.0
 40
0.0555543
 41
0.0555543
  0
VERTEX
  8
0
 10
0.810764
 20
0.95931
 30
0.0
 40
0.0555543
 41
0.0555543
  0
VERTEX
  8
0
 10
0.793838
 20
0.9273
 30
0.0
 40
0.0555543
 41
0.0555543
  0
VERTEX
  8
0
 10
0.785211
 20
0.920518
 30
0.0
 40
0.0555543
 41
0.0555543
  0
VERTEX
  8
0
 10
0.773872
 20
0.911729
 30
0.0
 40
0.0555543
 41
0.0555543
  0
VERTEX
  8
0
 10
0.724175
 20
0.905382
 30
0.0
 40
0.0555543
 41
0.0555543
  0
VERTEX
  8
0
 10
0.64426
 20
0.931586
 30
0.0
 40
0.0555543
 41
0.0555543
  0
VERTEX
  8
0
 10
0.555556
 20
0.993815
 30
0.0
 40
0.0555543
 41
0.0555543
  0
VERTEX
  8
0
 10
0.487793
 20
1.06174
 30
0.0
 40
0.0555543
 41
0.0555543
  0
VERTEX
  8
0
 10
0.468317
 20
1.0867
 30
0.0
 40
0.0555543
 41
0.0555543
  0
VERTEX
  8
0
 10
0.448785
 20
1.11171
 30
0.0
 40
0.0555543
 41
0.0555543
  0
VERTEX
  8
0
 10
0.399306
 20
1.19385
 30
0.0
 40
0.0555543
 41
0.0555543
  0
VERTEX
  8
0
 10
0.360406
 20
1.29498
 30
0.0
 40
0.0555543
 41
0.0555543
  0
VERTEX
  8
0
 10
0.354275
 20
1.37891
 30
0.0
 40
0.0555543
 41
0.0555543
  0
VERTEX
  8
0
 10
0.372396
 20
1.42557
 30
0.0
 40
0.0555543
 41
0.0555543
  0
VERTEX
  8
0
 10
0.383735
 20
1.43435
 30
0.0
 40
0.0555543
 41
0.0555543
  0
VERTEX
  8
0
 10
0.392361
 20
1.44114
 30
0.0
 40
0.0555543
 41
0.0555543
  0
VERTEX
  8
0
 10
0.427518
 20
1.44982
 30
0.0
 40
0.0555543
 41
0.0555543
  0
VERTEX
  8
0
 10
0.483561
 20
1.44103
 30
0.0
 40
0.0555543
 41
0.0555543
  0
VERTEX
  8
0
 10
0.547418
 20
1.41026
 30
0.0
 40
0.0555543
 41
0.0555543
  0
VERTEX
  8
0
 10
0.599012
 20
1.3737
 30
0.0
 40
0.0555543
 41
0.0555543
  0
VERTEX
  8
0
 10
0.614746
 20
1.35981
 30
0.0
 40
0.0555543
 41
0.0555543
  0
VERTEX
  8
0
 10
0.884765
 20
1.57081
 30
0.0
 40
0.0555543
 41
0.0555543
  0
VERTEX
  8
0
 10
0.890842
 20
1.57557
 30
0.0
 40
0.0555543
 41
0.0555543
  0
VERTEX
  8
0
 10
0.915147
 20
1.58203
 30
0.0
 40
0.0555543
 41
0.0555543
  0
VERTEX
  8
0
 10
0.951606
 20
1.57644
 30
0.0
 40
0.0555543
 41
0.0555543
  0
VERTEX
  8
0
 10
0.989529
 20
1.55561
 30
0.0
 40
0.0555543
 41
0.0555543
  0
VERTEX
  8
0
 10
1.01693
 20
1.53076
 30
0.0
 40
0.0555543
 41
0.0555543
  0
VERTEX
  8
0
 10
1.02441
 20
1.52115
 30
0.0
 40
0.0555543
 41
0.0555543
  0
VERTEX
  8
0
 10
1.03185
 20
1.51161
 30
0.0
 40
0.0555543
 41
0.0555543
  0
VERTEX
  8
0
 10
1.04932
 20
1.47906
 30
0.0
 40
0.0555543
 41
0.0555543
  0
VERTEX
  8
0
 10
1.06038
 20
1.43722
 30
0.0
 40
0.0555543
 41
0.0555543
  0
VERTEX
  8
0
 10
1.05702
 20
1.4005
 30
0.0
 40
0.0555543
 41
0.0555543
  0
VERTEX
  8
0
 10
1.04487
 20
1.37847
 30
0.0
 40
0.0555543
 41
0.0555543
  0
VERTEX
  8
0
 10
1.03879
 20
1.3737
 30
0.0
 40
0.0555543
 41
0.0555543
  0
SEQEND
 8
0
  0
POLYLINE
  8
0
 62
     250
 66
     1
 10
0
 20
0
 30
0.0
 40
3.99991
 41
3.99991
  0
VERTEX
  8
0
 10
0.768772
 20
1.16271
 30
0.0
 40
0.0555543
 41
0.0555543
  0
VERTEX
  8
0
 10
0.75906
 20
1.18164
 30
0.0
 40
0.0555543
 41
0.0555543
  0
VERTEX
  8
0
 10
0.701389
 20
1.26883
 30
0.0
 40
0.0555543
 41
0.0555543
  0
VERTEX
  8
0
 10
0.63086
 20
1.34598
 30
0.0
 40
0.0555543
 41
0.0555543
  0
VERTEX
  8
0
 10
0.614746
 20
1.35981
 30
0.0
 40
0.0555543
 41
0.0555543
  0
SEQEND
 8
0
  0
POLYLINE
  8
0
 62
     7
 66
     1
 10
0
 20
0
 30
0.0
 70
     1
 40
0
 41
0
  0
VERTEX
  8
0
 10
0.672254
 20
2.17551
 30
0.0
 40
0
 41
0
  0
VERTEX
  8
0
 10
0.3329
 20
2.12782
 30
0.0
 40
0
 41
0
  0
VERTEX
  8
0
 10
0.331922
 20
2.10693
 30
0.0
 40
0
 41
0
  0
VERTEX
  8
0
 10
0.322374
 20
2.04438
 30
0.0
 40
0
 41
0
  0
VERTEX
  8
0
 10
0.300185
 20
1.97706
 30
0.0
 40
0
 41
0
  0
VERTEX
  8
0
 10
0.267578
 20
1.93067
 30
0.0
 40
0
 41
0
  0
VERTEX
  8
0
 10
0.236925
 20
1.91135
 30
0.0
 40
0
 41
0
  0
VERTEX
  8
0
 10
0.226019
 20
1.90983
 30
0.0
 40
0
 41
0
  0
VERTEX
  8
0
 10
0.211806
 20
1.90788
 30
0.0
 40
0
 41
0
  0
VERTEX
  8
0
 10
0.165636
 20
1.92725
 30
0.0
 40
0
 41
0
  0
VERTEX
  8
0
 10
0.109538
 20
1.9899
 30
0.0
 40
0
 41
0
  0
VERTEX
  8
0
 10
0.0638564
 20
2.08817
 30
0.0
 40
0
 41
0
  0
VERTEX
  8
0
 10
0.0391168
 20
2.18083
 30
0.0
 40
0
 41
0
  0
VERTEX
  8
0
 10
0.0347222
 20
2.21218
 30
0.0
 40
0
 41
0
  0
VERTEX
  8
0
 10
0.0302735
 20
2.24365
 30
0.0
 40
0
 41
0
  0
VERTEX
  8
0
 10
0.0284831
 20
2.33951
 30
0.0
 40
0
 41
0
  0
VERTEX
  8
0
 10
0.045356
 20
2.44656
 30
0.0
 40
0
 41
0
  0
VERTEX
  8
0
 10
0.0820313
 20
2.52225
 30
0.0
 40
0
 41
0
  0
VERTEX
  8
0
 10
0.121094
 20
2.5536
 30
0.0
 40
0
 41
0
  0
VERTEX
  8
0
 10
0.135308
 20
2.55556
 30
0.0
 40
0
 41
0
  0
VERTEX
  8
0
 10
0.146158
 20
2.55713
 30
0.0
 40
0
 41
0
  0
VERTEX
  8
0
 10
0.180935
 20
2.54704
 30
0.0
 40
0
 41
0
  0
VERTEX
  8
0
 10
0.225043
 20
2.51144
 30
0.0
 40
0
 41
0
  0
VERTEX
  8
0
 10
0.264974
 20
2.45285
 30
0.0
 40
0
 41
0
  0
VERTEX
  8
0
 10
0.291342
 20
2.3954
 30
0.0
 40
0
 41
0
  0
VERTEX
  8
0
 10
0.298068
 20
2.37549
 30
0.0
 40
0
 41
0
  0
VERTEX
  8
0
 10
0.637424
 20
2.42318
 30
0.0
 40
0
 41
0
  0
VERTEX
  8
0
 10
0.645019
 20
2.42426
 30
0.0
 40
0
 41
0
  0
VERTEX
  8
0
 10
0.669325
 20
2.41775
 30
0.0
 40
0
 41
0
  0
VERTEX
  8
0
 10
0.698079
 20
2.39464
 30
0.0
 40
0
 41
0
  0
VERTEX
  8
0
 10
0.72054
 20
2.35764
 30
0.0
 40
0
 41
0
  0
VERTEX
  8
0
 10
0.731825
 20
2.32243
 30
0.0
 40
0
 41
0
  0
VERTEX
  8
0
 10
0.733507
 20
2.31039
 30
0.0
 40
0
 41
0
  0
VERTEX
  8
0
 10
0.735189
 20
2.29839
 30
0.0
 40
0
 41
0
  0
VERTEX
  8
0
 10
0.73405
 20
2.26144
 30
0.0
 40
0
 41
0
  0
VERTEX
  8
0
 10
0.722711
 20
2.21972
 30
0.0
 40
0
 41
0
  0
VERTEX
  8
0
 10
0.701389
 20
2.18961
 30
0.0
 40
0
 41
0
  0
VERTEX
  8
0
 10
0.67985
 20
2.1766
 30
0.0
 40
0
 41
0
  0
VERTEX
  8
0
 10
0.672254
 20
2.17551
 30
0.0
 40
0
 41
0
  0
SEQEND
 8
0
  0
POLYLINE
  8
0
 62
     250
 66
     1
 10
0
 20
0
 30
0.0
 70
     1
 40
3.99991
 41
3.99991
  0
VERTEX
  8
0
 10
0.672254
 20
2.17551
 30
0.0
 40
0.0555543
 41
0.0555543
  0
VERTEX
  8
0
 10
0.3329
 20
2.12782
 30
0.0
 40
0.0555543
 41
0.0555543
  0
VERTEX
  8
0
 10
0.331922
 20
2.10693
 30
0.0
 40
0.0555543
 41
0.0555543
  0
VERTEX
  8
0
 10
0.322374
 20
2.04438
 30
0.0
 40
0.0555543
 41
0.0555543
  0
VERTEX
  8
0
 10
0.300185
 20
1.97706
 30
0.0
 40
0.0555543
 41
0.0555543
  0
VERTEX
  8
0
 10
0.267578
 20
1.93067
 30
0.0
 40
0.0555543
 41
0.0555543
  0
VERTEX
  8
0
 10
0.236925
 20
1.91135
 30
0.0
 40
0.0555543
 41
0.0555543
  0
VERTEX
  8
0
 10
0.226019
 20
1.90983
 30
0.0
 40
0.0555543
 41
0.0555543
  0
VERTEX
  8
0
 10
0.211806
 20
1.90788
 30
0.0
 40
0.0555543
 41
0.0555543
  0
VERTEX
  8
0
 10
0.165636
 20
1.92725
 30
0.0
 40
0.0555543
 41
0.0555543
  0
VERTEX
  8
0
 10
0.109538
 20
1.9899
 30
0.0
 40
0.0555543
 41
0.0555543
  0
VERTEX
  8
0
 10
0.0638564
 20
2.08817
 30
0.0
 40
0.0555543
 41
0.0555543
  0
VERTEX
  8
0
 10
0.0391168
 20
2.18083
 30
0.0
 40
0.0555543
 41
0.0555543
  0
VERTEX
  8
0
 10
0.0347222
 20
2.21218
 30
0.0
 40
0.0555543
 41
0.0555543
  0
VERTEX
  8
0
 10
0.0302735
 20
2.24365
 30
0.0
 40
0.0555543
 41
0.0555543
  0
VERTEX
  8
0
 10
0.0284831
 20
2.33951
 30
0.0
 40
0.0555543
 41
0.0555543
  0
VERTEX
  8
0
 10
0.045356
 20
2.44656
 30
0.0
 40
0.0555543
 41
0.0555543
  0
VERTEX
  8
0
 10
0.0820313
 20
2.52225
 30
0.0
 40
0.0555543
 41
0.0555543
  0
VERTEX
  8
0
 10
0.121094
 20
2.5536
 30
0.0
 40
0.0555543
 41
0.0555543
  0
VERTEX
  8
0
 10
0.135308
 20
2.55556
 30
0.0
 40
0.0555543
 41
0.0555543
  0
VERTEX
  8
0
 10
0.146158
 20
2.55713
 30
0.0
 40
0.0555543
 41
0.0555543
  0
VERTEX
  8
0
 10
0.180935
 20
2.54704
 30
0.0
 40
0.0555543
 41
0.0555543
  0
VERTEX
  8
0
 10
0.225043
 20
2.51144
 30
0.0
 40
0.0555543
 41
0.0555543
  0
VERTEX
  8
0
 10
0.264974
 20
2.45285
 30
0.0
 40
0.0555543
 41
0.0555543
  0
VERTEX
  8
0
 10
0.291342
 20
2.3954
 30
0.0
 40
0.0555543
 41
0.0555543
  0
VERTEX
  8
0
 10
0.298068
 20
2.37549
 30
0.0
 40
0.0555543
 41
0.0555543
  0
VERTEX
  8
0
 10
0.637424
 20
2.42318
 30
0.0
 40
0.0555543
 41
0.0555543
  0
VERTEX
  8
0
 10
0.645019
 20
2.42426
 30
0.0
 40
0.0555543
 41
0.0555543
  0
VERTEX
  8
0
 10
0.669325
 20
2.41775
 30
0.0
 40
0.0555543
 41
0.0555543
  0
VERTEX
  8
0
 10
0.698079
 20
2.39464
 30
0.0
 40
0.0555543
 41
0.0555543
  0
VERTEX
  8
0
 10
0.72054
 20
2.35764
 30
0.0
 40
0.0555543
 41
0.0555543
  0
VERTEX
  8
0
 10
0.731825
 20
2.32243
 30
0.0
 40
0.0555543
 41
0.0555543
  0
VERTEX
  8
0
 10
0.733507
 20
2.31039
 30
0.0
 40
0.0555543
 41
0.0555543
  0
VERTEX
  8
0
 10
0.735189
 20
2.29839
 30
0.0
 40
0.0555543
 41
0.0555543
  0
VERTEX
  8
0
 10
0.73405
 20
2.26144
 30
0.0
 40
0.0555543
 41
0.0555543
  0
VERTEX
  8
0
 10
0.722711
 20
2.21972
 30
0.0
 40
0.0555543
 41
0.0555543
  0
VERTEX
  8
0
 10
0.701389
 20
2.18961
 30
0.0
 40
0.0555543
 41
0.0555543
  0
VERTEX
  8
0
 10
0.67985
 20
2.1766
 30
0.0
 40
0.0555543
 41
0.0555543
  0
VERTEX
  8
0
 10
0.672254
 20
2.17551
 30
0.0
 40
0.0555543
 41
0.0555543
  0
SEQEND
 8
0
  0
POLYLINE
  8
0
 62
     250
 66
     1
 10
0
 20
0
 30
0.0
 40
3.99991
 41
3.99991
  0
VERTEX
  8
0
 10
0.3329
 20
2.12782
 30
0.0
 40
0.0555543
 41
0.0555543
  0
VERTEX
  8
0
 10
0.333985
 20
2.14903
 30
0.0
 40
0.0555543
 41
0.0555543
  0
VERTEX
  8
0
 10
0.327636
 20
2.25336
 30
0.0
 40
0.0555543
 41
0.0555543
  0
VERTEX
  8
0
 10
0.305067
 20
2.35547
 30
0.0
 40
0.0555543
 41
0.0555543
  0
VERTEX
  8
0
 10
0.298068
 20
2.37549
 30
0.0
 40
0.0555543
 41
0.0555543
  0
SEQEND
 8
0
  0
POLYLINE
  8
0
 62
     7
 66
     1
 10
0
 20
0
 30
0.0
 70
     1
 40
0
 41
0
  0
VERTEX
  8
0
 10
0.651747
 20
2.95856
 30
0.0
 40
0
 41
0
  0
VERTEX
  8
0
 10
0.333985
 20
3.08692
 30
0.0
 40
0
 41
0
  0
VERTEX
  8
0
 10
0.322646
 20
3.06928
 30
0.0
 40
0
 41
0
  0
VERTEX
  8
0
 10
0.283149
 20
3.01992
 30
0.0
 40
0
 41
0
  0
VERTEX
  8
0
 10
0.230306
 20
2.97271
 30
0.0
 40
0
 41
0
  0
VERTEX
  8
0
 10
0.178874
 20
2.94879
 30
0.0
 40
0
 41
0
  0
VERTEX
  8
0
 10
0.142686
 20
2.94743
 30
0.0
 40
0
 41
0
  0
VERTEX
  8
0
 10
0.132487
 20
2.95156
 30
0.0
 40
0
 41
0
  0
VERTEX
  8
0
 10
0.119141
 20
2.95692
 30
0.0
 40
0
 41
0
  0
VERTEX
  8
0
 10
0.0888672
 20
2.99685
 30
0.0
 40
0
 41
0
  0
VERTEX
  8
0
 10
0.0716146
 20
3.07915
 30
0.0
 40
0
 41
0
  0
VERTEX
  8
0
 10
0.0811089
 20
3.18713
 30
0.0
 40
0
 41
0
  0
VERTEX
  8
0
 10
0.106066
 20
3.27968
 30
0.0
 40
0
 41
0
  0
VERTEX
  8
0
 10
0.117947
 20
3.30908
 30
0.0
 40
0
 41
0
  0
VERTEX
  8
0
 10
0.129829
 20
3.33854
 30
0.0
 40
0
 41
0
  0
VERTEX
  8
0
 10
0.176215
 20
3.42247
 30
0.0
 40
0
 41
0
  0
VERTEX
  8
0
 10
0.244303
 20
3.50672
 30
0.0
 40
0
 41
0
  0
VERTEX
  8
0
 10
0.313911
 20
3.55399
 30
0.0
 40
0
 41
0
  0
VERTEX
  8
0
 10
0.36339
 20
3.56158
 30
0.0
 40
0
 41
0
  0
VERTEX
  8
0
 10
0.376736
 20
3.55621
 30
0.0
 40
0
 41
0
  0
VERTEX
  8
0
 10
0.386936
 20
3.55208
 30
0.0
 40
0
 41
0
  0
VERTEX
  8
0
 10
0.412001
 20
3.52599
 30
0.0
 40
0
 41
0
  0
VERTEX
  8
0
 10
0.4324
 20
3.47304
 30
0.0
 40
0
 41
0
  0
VERTEX
  8
0
 10
0.437662
 20
3.40235
 30
0.0
 40
0
 41
0
  0
VERTEX
  8
0
 10
0.431803
 20
3.33936
 30
0.0
 40
0
 41
0
  0
VERTEX
  8
0
 10
0.427681
 20
3.31879
 30
0.0
 40
0
 41
0
  0
VERTEX
  8
0
 10
0.745443
 20
3.19043
 30
0.0
 40
0
 41
0
  0
VERTEX
  8
0
 10
0.75255
 20
3.18756
 30
0.0
 40
0
 41
0
  0
VERTEX
  8
0
 10
0.770344
 20
3.16976
 30
0.0
 40
0
 41
0
  0
VERTEX
  8
0
 10
0.783692
 20
3.13542
 30
0.0
 40
0
 41
0
  0
VERTEX
  8
0
 10
0.784614
 20
3.09212
 30
0.0
 40
0
 41
0
  0
VERTEX
  8
0
 10
0.776747
 20
3.05599
 30
0.0
 40
0
 41
0
  0
VERTEX
  8
0
 10
0.772244
 20
3.04471
 30
0.0
 40
0
 41
0
  0
VERTEX
  8
0
 10
0.767686
 20
3.03347
 30
0.0
 40
0
 41
0
  0
VERTEX
  8
0
 10
0.748264
 20
3.00206
 30
0.0
 40
0
 41
0
  0
VERTEX
  8
0
 10
0.717503
 20
2.97163
 30
0.0
 40
0
 41
0
  0
VERTEX
  8
0
 10
0.684028
 20
2.95617
 30
0.0
 40
0
 41
0
  0
VERTEX
  8
0
 10
0.658854
 20
2.95568
 30
0.0
 40
0
 41
0
  0
VERTEX
  8
0
 10
0.651747
 20
2.95856
 30
0.0
 40
0
 41
0
  0
SEQEND
 8
0
  0
POLYLINE
  8
0
 62
     250
 66
     1
 10
0
 20
0
 30
0.0
 70
     1
 40
3.99991
 41
3.99991
  0
VERTEX
  8
0
 10
0.651747
 20
2.95856
 30
0.0
 40
0.0555543
 41
0.0555543
  0
VERTEX
  8
0
 10
0.333985
 20
3.08692
 30
0.0
 40
0.0555543
 41
0.0555543
  0
VERTEX
  8
0
 10
0.322646
 20
3.06928
 30
0.0
 40
0.0555543
 41
0.0555543
  0
VERTEX
  8
0
 10
0.283149
 20
3.01992
 30
0.0
 40
0.0555543
 41
0.0555543
  0
VERTEX
  8
0
 10
0.230306
 20
2.97271
 30
0.0
 40
0.0555543
 41
0.0555543
  0
VERTEX
  8
0
 10
0.178874
 20
2.94879
 30
0.0
 40
0.0555543
 41
0.0555543
  0
VERTEX
  8
0
 10
0.142686
 20
2.94743
 30
0.0
 40
0.0555543
 41
0.0555543
  0
VERTEX
  8
0
 10
0.132487
 20
2.95156
 30
0.0
 40
0.0555543
 41
0.0555543
  0
VERTEX
  8
0
 10
0.119141
 20
2.95692
 30
0.0
 40
0.0555543
 41
0.0555543
  0
VERTEX
  8
0
 10
0.0888672
 20
2.99685
 30
0.0
 40
0.0555543
 41
0.0555543
  0
VERTEX
  8
0
 10
0.0716146
 20
3.07915
 30
0.0
 40
0.0555543
 41
0.0555543
  0
VERTEX
  8
0
 10
0.0811089
 20
3.18713
 30
0.0
 40
0.0555543
 41
0.0555543
  0
VERTEX
  8
0
 10
0.106066
 20
3.27968
 30
0.0
 40
0.0555543
 41
0.0555543
  0
VERTEX
  8
0
 10
0.117947
 20
3.30908
 30
0.0
 40
0.0555543
 41
0.0555543
  0
VERTEX
  8
0
 10
0.129829
 20
3.33854
 30
0.0
 40
0.0555543
 41
0.0555543
  0
VERTEX
  8
0
 10
0.176215
 20
3.42247
 30
0.0
 40
0.0555543
 41
0.0555543
  0
VERTEX
  8
0
 10
0.244303
 20
3.50672
 30
0.0
 40
0.0555543
 41
0.0555543
  0
VERTEX
  8
0
 10
0.313911
 20
3.55399
 30
0.0
 40
0.0555543
 41
0.0555543
  0
VERTEX
  8
0
 10
0.36339
 20
3.56158
 30
0.0
 40
0.0555543
 41
0.0555543
  0
VERTEX
  8
0
 10
0.376736
 20
3.55621
 30
0.0
 40
0.0555543
 41
0.0555543
  0
VERTEX
  8
0
 10
0.386936
 20
3.55208
 30
0.0
 40
0.0555543
 41
0.0555543
  0
VERTEX
  8
0
 10
0.412001
 20
3.52599
 30
0.0
 40
0.0555543
 41
0.0555543
  0
VERTEX
  8
0
 10
0.4324
 20
3.47304
 30
0.0
 40
0.0555543
 41
0.0555543
  0
VERTEX
  8
0
 10
0.437662
 20
3.40235
 30
0.0
 40
0.0555543
 41
0.0555543
  0
VERTEX
  8
0
 10
0.431803
 20
3.33936
 30
0.0
 40
0.0555543
 41
0.0555543
  0
VERTEX
  8
0
 10
0.427681
 20
3.31879
 30
0.0
 40
0.0555543
 41
0.0555543
  0
VERTEX
  8
0
 10
0.745443
 20
3.19043
 30
0.0
 40
0.0555543
 41
0.0555543
  0
VERTEX
  8
0
 10
0.75255
 20
3.18756
 30
0.0
 40
0.0555543
 41
0.0555543
  0
VERTEX
  8
0
 10
0.770344
 20
3.16976
 30
0.0
 40
0.0555543
 41
0.0555543
  0
VERTEX
  8
0
 10
0.783692
 20
3.13542
 30
0.0
 40
0.0555543
 41
0.0555543
  0
VERTEX
  8
0
 10
0.784614
 20
3.09212
 30
0.0
 40
0.0555543
 41
0.0555543
  0
VERTEX
  8
0
 10
0.776747
 20
3.05599
 30
0.0
 40
0.0555543
 41
0.0555543
  0
VERTEX
  8
0
 10
0.772244
 20
3.04471
 30
0.0
 40
0.0555543
 41
0.0555543
  0
VERTEX
  8
0
 10
0.767686
 20
3.03347
 30
0.0
 40
0.0555543
 41
0.0555543
  0
VERTEX
  8
0
 10
0.748264
 20
3.00206
 30
0.0
 40
0.0555543
 41
0.0555543
  0
VERTEX
  8
0
 10
0.717503
 20
2.97163
 30
0.0
 40
0.0555543
 41
0.0555543
  0
VERTEX
  8
0
 10
0.684028
 20
2.95617
 30
0.0
 40
0.0555543
 41
0.0555543
  0
VERTEX
  8
0
 10
0.658854
 20
2.95568
 30
0.0
 40
0.0555543
 41
0.0555543
  0
VERTEX
  8
0
 10
0.651747
 20
2.95856
 30
0.0
 40
0.0555543
 41
0.0555543
  0
SEQEND
 8
0
  0
POLYLINE
  8
0
 62
     250
 66
     1
 10
0
 20
0
 30
0.0
 40
3.99991
 41
3.99991
  0
VERTEX
  8
0
 10
0.333985
 20
3.08692
 30
0.0
 40
0.0555543
 41
0.0555543
  0
VERTEX
  8
0
 10
0.345486
 20
3.10476
 30
0.0
 40
0.0555543
 41
0.0555543
  0
VERTEX
  8
0
 10
0.392199
 20
3.19829
 30
0.0
 40
0.0555543
 41
0.0555543
  0
VERTEX
  8
0
 10
0.423719
 20
3.2979
 30
0.0
 40
0.0555543
 41
0.0555543
  0
VERTEX
  8
0
 10
0.427681
 20
3.31879
 30
0.0
 40
0.0555543
 41
0.0555543
  0
SEQEND
 8
0
  0
POLYLINE
  8
0
 62
     7
 66
     1
 10
0
 20
0
 30
0.0
 70
     1
 40
0
 41
0
  0
VERTEX
  8
0
 10
1.27138
 20
3.81976
 30
0.0
 40
0
 41
0
  0
VERTEX
  8
0
 10
1.06044
 20
4.08979
 30
0.0
 40
0
 41
0
  0
VERTEX
  8
0
 10
1.04177
 20
4.08018
 30
0.0
 40
0
 41
0
  0
VERTEX
  8
0
 10
0.982856
 20
4.05718
 30
0.0
 40
0
 41
0
  0
VERTEX
  8
0
 10
0.913465
 20
4.04275
 30
0.0
 40
0
 41
0
  0
VERTEX
  8
0
 10
0.856987
 20
4.04779
 30
0.0
 40
0
 41
0
  0
VERTEX
  8
0
 10
0.824924
 20
4.06472
 30
0.0
 40
0
 41
0
  0
VERTEX
  8
0
 10
0.818197
 20
4.07335
 30
0.0
 40
0
 41
0
  0
VERTEX
  8
0
 10
0.809353
 20
4.08469
 30
0.0
 40
0
 41
0
  0
VERTEX
  8
0
 10
0.80306
 20
4.13433
 30
0.0
 40
0
 41
0
  0
VERTEX
  8
0
 10
0.829264
 20
4.21431
 30
0.0
 40
0
 41
0
  0
VERTEX
  8
0
 10
0.891493
 20
4.303
 30
0.0
 40
0
 41
0
  0
VERTEX
  8
0
 10
0.959418
 20
4.37071
 30
0.0
 40
0
 41
0
  0
VERTEX
  8
0
 10
0.984429
 20
4.39025
 30
0.0
 40
0
 41
0
  0
VERTEX
  8
0
 10
1.00939
 20
4.40978
 30
0.0
 40
0
 41
0
  0
VERTEX
  8
0
 10
1.09152
 20
4.45925
 30
0.0
 40
0
 41
0
  0
VERTEX
  8
0
 10
1.19265
 20
4.49815
 30
0.0
 40
0
 41
0
  0
VERTEX
  8
0
 10
1.27653
 20
4.50429
 30
0.0
 40
0
 41
0
  0
VERTEX
  8
0
 10
1.32324
 20
4.48617
 30
0.0
 40
0
 41
0
  0
VERTEX
  8
0
 10
1.33209
 20
4.47483
 30
0.0
 40
0
 41
0
  0
VERTEX
  8
0
 10
1.33881
 20
4.46619
 30
0.0
 40
0
 41
0
  0
VERTEX
  8
0
 10
1.34749
 20
4.43099
 30
0.0
 40
0
 41
0
  0
VERTEX
  8
0
 10
1.3387
 20
4.375
 30
0.0
 40
0
 41
0
  0
VERTEX
  8
0
 10
1.30794
 20
4.31114
 30
0.0
 40
0
 41
0
  0
VERTEX
  8
0
 10
1.27138
 20
4.2595
 30
0.0
 40
0
 41
0
  0
VERTEX
  8
0
 10
1.25754
 20
4.24376
 30
0.0
 40
0
 41
0
  0
VERTEX
  8
0
 10
1.46847
 20
3.97374
 30
0.0
 40
0
 41
0
  0
VERTEX
  8
0
 10
1.47319
 20
3.96772
 30
0.0
 40
0
 41
0
  0
VERTEX
  8
0
 10
1.47965
 20
3.94336
 30
0.0
 40
0
 41
0
  0
VERTEX
  8
0
 10
1.47407
 20
3.9069
 30
0.0
 40
0
 41
0
  0
VERTEX
  8
0
 10
1.45329
 20
3.86897
 30
0.0
 40
0
 41
0
  0
VERTEX
  8
0
 10
1.42844
 20
3.84164
 30
0.0
 40
0
 41
0
  0
VERTEX
  8
0
 10
1.41889
 20
3.83415
 30
0.0
 40
0
 41
0
  0
VERTEX
  8
0
 10
1.40929
 20
3.82671
 30
0.0
 40
0
 41
0
  0
VERTEX
  8
0
 10
1.37674
 20
3.80919
 30
0.0
 40
0
 41
0
  0
VERTEX
  8
0
 10
1.33485
 20
3.79818
 30
0.0
 40
0
 41
0
  0
VERTEX
  8
0
 10
1.29812
 20
3.80154
 30
0.0
 40
0
 41
0
  0
VERTEX
  8
0
 10
1.2761
 20
3.81375
 30
0.0
 40
0
 41
0
  0
VERTEX
  8
0
 10
1.27138
 20
3.81976
 30
0.0
 40
0
 41
0
  0
SEQEND
 8
0
  0
POLYLINE
  8
0
 62
     250
 66
     1
 10
0
 20
0
 30
0.0
 70
     1
 40
3.99991
 41
3.99991
  0
VERTEX
  8
0
 10
1.27138
 20
3.81976
 30
0.0
 40
0.0555543
 41
0.0555543
  0
VERTEX
  8
0
 10
1.06044
 20
4.08979
 30
0.0
 40
0.0555543
 41
0.0555543
  0
VERTEX
  8
0
 10
1.04177
 20
4.08018
 30
0.0
 40
0.0555543
 41
0.0555543
  0
VERTEX
  8
0
 10
0.982856
 20
4.05718
 30
0.0
 40
0.0555543
 41
0.0555543
  0
VERTEX
  8
0
 10
0.913465
 20
4.04275
 30
0.0
 40
0.0555543
 41
0.0555543
  0
VERTEX
  8
0
 10
0.856987
 20
4.04779
 30
0.0
 40
0.0555543
 41
0.0555543
  0
VERTEX
  8
0
 10
0.824924
 20
4.06472
 30
0.0
 40
0.0555543
 41
0.0555543
  0
VERTEX
  8
0
 10
0.818197
 20
4.07335
 30
0.0
 40
0.0555543
 41
0.0555543
  0
VERTEX
  8
0
 10
0.809353
 20
4.08469
 30
0.0
 40
0.0555543
 41
0.0555543
  0
VERTEX
  8
0
 10
0.80306
 20
4.13433
 30
0.0
 40
0.0555543
 41
0.0555543
  0
VERTEX
  8
0
 10
0.829264
 20
4.21431
 30
0.0
 40
0.0555543
 41
0.0555543
  0
VERTEX
  8
0
 10
0.891493
 20
4.303
 30
0.0
 40
0.0555543
 41
0.0555543
  0
VERTEX
  8
0
 10
0.959418
 20
4.37071
 30
0.0
 40
0.0555543
 41
0.0555543
  0
VERTEX
  8
0
 10
0.984429
 20
4.39025
 30
0.0
 40
0.0555543
 41
0.0555543
  0
VERTEX
  8
0
 10
1.00939
 20
4.40978
 30
0.0
 40
0.0555543
 41
0.0555543
  0
VERTEX
  8
0
 10
1.09152
 20
4.45925
 30
0.0
 40
0.0555543
 41
0.0555543
  0
VERTEX
  8
0
 10
1.19265
 20
4.49815
 30
0.0
 40
0.0555543
 41
0.0555543
  0
VERTEX
  8
0
 10
1.27653
 20
4.50429
 30
0.0
 40
0.0555543
 41
0.0555543
  0
VERTEX
  8
0
 10
1.32324
 20
4.48617
 30
0.0
 40
0.0555543
 41
0.0555543
  0
VERTEX
  8
0
 10
1.33209
 20
4.47483
 30
0.0
 40
0.0555543
 41
0.0555543
  0
VERTEX
  8
0
 10
1.33881
 20
4.46619
 30
0.0
 40
0.0555543
 41
0.0555543
  0
VERTEX
  8
0
 10
1.34749
 20
4.43099
 30
0.0
 40
0.0555543
 41
0.0555543
  0
VERTEX
  8
0
 10
1.3387
 20
4.375
 30
0.0
 40
0.0555543
 41
0.0555543
  0
VERTEX
  8
0
 10
1.30794
 20
4.31114
 30
0.0
 40
0.0555543
 41
0.0555543
  0
VERTEX
  8
0
 10
1.27138
 20
4.2595
 30
0.0
 40
0.0555543
 41
0.0555543
  0
VERTEX
  8
0
 10
1.25754
 20
4.24376
 30
0.0
 40
0.0555543
 41
0.0555543
  0
VERTEX
  8
0
 10
1.46847
 20
3.97374
 30
0.0
 40
0.0555543
 41
0.0555543
  0
VERTEX
  8
0
 10
1.47319
 20
3.96772
 30
0.0
 40
0.0555543
 41
0.0555543
  0
VERTEX
  8
0
 10
1.47965
 20
3.94336
 30
0.0
 40
0.0555543
 41
0.0555543
  0
VERTEX
  8
0
 10
1.47407
 20
3.9069
 30
0.0
 40
0.0555543
 41
0.0555543
  0
VERTEX
  8
0
 10
1.45329
 20
3.86897
 30
0.0
 40
0.0555543
 41
0.0555543
  0
VERTEX
  8
0
 10
1.42844
 20
3.84164
 30
0.0
 40
0.0555543
 41
0.0555543
  0
VERTEX
  8
0
 10
1.41889
 20
3.83415
 30
0.0
 40
0.0555543
 41
0.0555543
  0
VERTEX
  8
0
 10
1.40929
 20
3.82671
 30
0.0
 40
0.0555543
 41
0.0555543
  0
VERTEX
  8
0
 10
1.37674
 20
3.80919
 30
0.0
 40
0.0555543
 41
0.0555543
  0
VERTEX
  8
0
 10
1.33485
 20
3.79818
 30
0.0
 40
0.0555543
 41
0.0555543
  0
VERTEX
  8
0
 10
1.29812
 20
3.80154
 30
0.0
 40
0.0555543
 41
0.0555543
  0
VERTEX
  8
0
 10
1.2761
 20
3.81375
 30
0.0
 40
0.0555543
 41
0.0555543
  0
VERTEX
  8
0
 10
1.27138
 20
3.81976
 30
0.0
 40
0.0555543
 41
0.0555543
  0
SEQEND
 8
0
  0
POLYLINE
  8
0
 62
     250
 66
     1
 10
0
 20
0
 30
0.0
 40
3.99991
 41
3.99991
  0
VERTEX
  8
0
 10
1.06044
 20
4.08979
 30
0.0
 40
0.0555543
 41
0.0555543
  0
VERTEX
  8
0
 10
1.07932
 20
4.09944
 30
0.0
 40
0.0555543
 41
0.0555543
  0
VERTEX
  8
0
 10
1.1665
 20
4.15712
 30
0.0
 40
0.0555543
 41
0.0555543
  0
VERTEX
  8
0
 10
1.24365
 20
4.22765
 30
0.0
 40
0.0555543
 41
0.0555543
  0
VERTEX
  8
0
 10
1.25754
 20
4.24376
 30
0.0
 40
0.0555543
 41
0.0555543
  0
SEQEND
 8
0
  0
POLYLINE
  8
0
 62
     250
 66
     1
 10
0
 20
0
 30
0.0
 70
     1
 40
3.99991
 41
3.99991
  0
VERTEX
  8
0
 10
1.91797
 20
3.39453
 30
0.0
 40
0.0555543
 41
0.0555543
  0
VERTEX
  8
0
 10
1.85135
 20
3.55154
 30
0.0
 40
0.0555543
 41
0.0555543
  0
VERTEX
  8
0
 10
1.83257
 20
3.54949
 30
0.0
 40
0.0555543
 41
0.0555543
  0
VERTEX
  8
0
 10
1.77522
 20
3.55203
 30
0.0
 40
0.0555543
 41
0.0555543
  0
VERTEX
  8
0
 10
1.70811
 20
3.57021
 30
0.0
 40
0.0555543
 41
0.0555543
  0
VERTEX
  8
0
 10
1.65457
 20
3.60504
 30
0.0
 40
0.0555543
 41
0.0555543
  0
VERTEX
  8
0
 10
1.62517
 20
3.64171
 30
0.0
 40
0.0555543
 41
0.0555543
  0
VERTEX
  8
0
 10
1.61931
 20
3.65554
 30
0.0
 40
0.0555543
 41
0.0555543
  0
VERTEX
  8
0
 10
1.6116
 20
3.67367
 30
0.0
 40
0.0555543
 41
0.0555543
  0
VERTEX
  8
0
 10
1.60889
 20
3.73649
 30
0.0
 40
0.0555543
 41
0.0555543
  0
VERTEX
  8
0
 10
1.63917
 20
3.81901
 30
0.0
 40
0.0555543
 41
0.0555543
  0
VERTEX
  8
0
 10
1.70437
 20
3.89367
 30
0.0
 40
0.0555543
 41
0.0555543
  0
VERTEX
  8
0
 10
1.7736
 20
3.94026
 30
0.0
 40
0.0555543
 41
0.0555543
  0
VERTEX
  8
0
 10
1.79872
 20
3.9509
 30
0.0
 40
0.0555543
 41
0.0555543
  0
VERTEX
  8
0
 10
1.82383
 20
3.96158
 30
0.0
 40
0.0555543
 41
0.0555543
  0
VERTEX
  8
0
 10
1.90543
 20
3.979
 30
0.0
 40
0.0555543
 41
0.0555543
  0
VERTEX
  8
0
 10
2.00439
 20
3.97407
 30
0.0
 40
0.0555543
 41
0.0555543
  0
VERTEX
  8
0
 10
2.08485
 20
3.93847
 30
0.0
 40
0.0555543
 41
0.0555543
  0
VERTEX
  8
0
 10
2.12815
 20
3.89285
 30
0.0
 40
0.0555543
 41
0.0555543
  0
VERTEX
  8
0
 10
2.13585
 20
3.87478
 30
0.0
 40
0.0555543
 41
0.0555543
  0
VERTEX
  8
0
 10
2.14171
 20
3.86094
 30
0.0
 40
0.0555543
 41
0.0555543
  0
VERTEX
  8
0
 10
2.14762
 20
3.81435
 30
0.0
 40
0.0555543
 41
0.0555543
  0
VERTEX
  8
0
 10
2.13553
 20
3.75163
 30
0.0
 40
0.0555543
 41
0.0555543
  0
VERTEX
  8
0
 10
2.102
 20
3.69069
 30
0.0
 40
0.0555543
 41
0.0555543
  0
VERTEX
  8
0
 10
2.06401
 20
3.64774
 30
0.0
 40
0.0555543
 41
0.0555543
  0
VERTEX
  8
0
 10
2.04949
 20
3.63564
 30
0.0
 40
0.0555543
 41
0.0555543
  0
VERTEX
  8
0
 10
2.1161
 20
3.47863
 30
0.0
 40
0.0555543
 41
0.0555543
  0
VERTEX
  8
0
 10
2.11951
 20
3.47054
 30
0.0
 40
0.0555543
 41
0.0555543
  0
VERTEX
  8
0
 10
2.12201
 20
3.44287
 30
0.0
 40
0.0555543
 41
0.0555543
  0
VERTEX
  8
0
 10
2.11203
 20
3.40728
 30
0.0
 40
0.0555543
 41
0.0555543
  0
VERTEX
  8
0
 10
2.08817
 20
3.37597
 30
0.0
 40
0.0555543
 41
0.0555543
  0
VERTEX
  8
0
 10
2.06213
 20
3.3571
 30
0.0
 40
0.0555543
 41
0.0555543
  0
VERTEX
  8
0
 10
2.05251
 20
3.35303
 30
0.0
 40
0.0555543
 41
0.0555543
  0
VERTEX
  8
0
 10
2.04286
 20
3.34896
 30
0.0
 40
0.0555543
 41
0.0555543
  0
VERTEX
  8
0
 10
2.01124
 20
3.34332
 30
0.0
 40
0.0555543
 41
0.0555543
  0
VERTEX
  8
0
 10
1.97211
 20
3.34793
 30
0.0
 40
0.0555543
 41
0.0555543
  0
VERTEX
  8
0
 10
1.93956
 20
3.36546
 30
0.0
 40
0.0555543
 41
0.0555543
  0
VERTEX
  8
0
 10
1.92139
 20
3.38644
 30
0.0
 40
0.0555543
 41
0.0555543
  0
VERTEX
  8
0
 10
1.91797
 20
3.39453
 30
0.0
 40
0.0555543
 41
0.0555543
  0
SEQEND
 8
0
  0
POLYLINE
  8
0
 62
     250
 66
     1
 10
0
 20
0
 30
0.0
 40
3.99991
 41
3.99991
  0
VERTEX
  8
0
 10
1.85135
 20
3.55154
 30
0.0
 40
0.0555543
 41
0.0555543
  0
VERTEX
  8
0
 10
1.87017
 20
3.55306
 30
0.0
 40
0.0555543
 41
0.0555543
  0
VERTEX
  8
0
 10
1.95751
 20
3.57682
 30
0.0
 40
0.0555543
 41
0.0555543
  0
VERTEX
  8
0
 10
2.03537
 20
3.62294
 30
0.0
 40
0.0555543
 41
0.0555543
  0
VERTEX
  8
0
 10
2.04949
 20
3.63564
 30
0.0
 40
0.0555543
 41
0.0555543
  0
SEQEND
 8
0
  0
POLYLINE
  8
0
 62
     250
 66
     1
 10
0
 20
0
 30
0.0
 70
     1
 40
3.99991
 41
3.99991
  0
VERTEX
  8
0
 10
1.54856
 20
3.15483
 30
0.0
 40
0.0555543
 41
0.0555543
  0
VERTEX
  8
0
 10
1.41233
 20
3.25749
 30
0.0
 40
0.0555543
 41
0.0555543
  0
VERTEX
  8
0
 10
1.39708
 20
3.24631
 30
0.0
 40
0.0555543
 41
0.0555543
  0
VERTEX
  8
0
 10
1.34619
 20
3.21983
 30
0.0
 40
0.0555543
 41
0.0555543
  0
VERTEX
  8
0
 10
1.27902
 20
3.20199
 30
0.0
 40
0.0555543
 41
0.0555543
  0
VERTEX
  8
0
 10
1.21522
 20
3.2054
 30
0.0
 40
0.0555543
 41
0.0555543
  0
VERTEX
  8
0
 10
1.17139
 20
3.22244
 30
0.0
 40
0.0555543
 41
0.0555543
  0
VERTEX
  8
0
 10
1.1594
 20
3.2315
 30
0.0
 40
0.0555543
 41
0.0555543
  0
VERTEX
  8
0
 10
1.14372
 20
3.24333
 30
0.0
 40
0.0555543
 41
0.0555543
  0
VERTEX
  8
0
 10
1.10992
 20
3.29639
 30
0.0
 40
0.0555543
 41
0.0555543
  0
VERTEX
  8
0
 10
1.09489
 20
3.38303
 30
0.0
 40
0.0555543
 41
0.0555543
  0
VERTEX
  8
0
 10
1.11399
 20
3.48031
 30
0.0
 40
0.0555543
 41
0.0555543
  0
VERTEX
  8
0
 10
1.15066
 20
3.55528
 30
0.0
 40
0.0555543
 41
0.0555543
  0
VERTEX
  8
0
 10
1.1671
 20
3.57704
 30
0.0
 40
0.0555543
 41
0.0555543
  0
VERTEX
  8
0
 10
1.18348
 20
3.59885
 30
0.0
 40
0.0555543
 41
0.0555543
  0
VERTEX
  8
0
 10
1.24544
 20
3.65474
 30
0.0
 40
0.0555543
 41
0.0555543
  0
VERTEX
  8
0
 10
1.33366
 20
3.69993
 30
0.0
 40
0.0555543
 41
0.0555543
  0
VERTEX
  8
0
 10
1.42106
 20
3.70931
 30
0.0
 40
0.0555543
 41
0.0555543
  0
VERTEX
  8
0
 10
1.48139
 20
3.69146
 30
0.0
 40
0.0555543
 41
0.0555543
  0
VERTEX
  8
0
 10
1.49707
 20
3.67964
 30
0.0
 40
0.0555543
 41
0.0555543
  0
VERTEX
  8
0
 10
1.50906
 20
3.67057
 30
0.0
 40
0.0555543
 41
0.0555543
  0
VERTEX
  8
0
 10
1.53754
 20
3.63319
 30
0.0
 40
0.0555543
 41
0.0555543
  0
VERTEX
  8
0
 10
1.55843
 20
3.57281
 30
0.0
 40
0.0555543
 41
0.0555543
  0
VERTEX
  8
0
 10
1.55985
 20
3.50331
 30
0.0
 40
0.0555543
 41
0.0555543
  0
VERTEX
  8
0
 10
1.54844
 20
3.4471
 30
0.0
 40
0.0555543
 41
0.0555543
  0
VERTEX
  8
0
 10
1.54189
 20
3.42936
 30
0.0
 40
0.0555543
 41
0.0555543
  0
VERTEX
  8
0
 10
1.67811
 20
3.32671
 30
0.0
 40
0.0555543
 41
0.0555543
  0
VERTEX
  8
0
 10
1.68511
 20
3.32146
 30
0.0
 40
0.0555543
 41
0.0555543
  0
VERTEX
  8
0
 10
1.70111
 20
3.29872
 30
0.0
 40
0.0555543
 41
0.0555543
  0
VERTEX
  8
0
 10
1.71029
 20
3.26292
 30
0.0
 40
0.0555543
 41
0.0555543
  0
VERTEX
  8
0
 10
1.70524
 20
3.22385
 30
0.0
 40
0.0555543
 41
0.0555543
  0
VERTEX
  8
0
 10
1.69206
 20
3.1945
 30
0.0
 40
0.0555543
 41
0.0555543
  0
VERTEX
  8
0
 10
1.68582
 20
3.18614
 30
0.0
 40
0.0555543
 41
0.0555543
  0
VERTEX
  8
0
 10
1.67953
 20
3.17785
 30
0.0
 40
0.0555543
 41
0.0555543
  0
VERTEX
  8
0
 10
1.65494
 20
3.15713
 30
0.0
 40
0.0555543
 41
0.0555543
  0
VERTEX
  8
0
 10
1.61876
 20
3.1415
 30
0.0
 40
0.0555543
 41
0.0555543
  0
VERTEX
  8
0
 10
1.58182
 20
3.1404
 30
0.0
 40
0.0555543
 41
0.0555543
  0
VERTEX
  8
0
 10
1.55556
 20
3.14958
 30
0.0
 40
0.0555543
 41
0.0555543
  0
VERTEX
  8
0
 10
1.54856
 20
3.15483
 30
0.0
 40
0.0555543
 41
0.0555543
  0
SEQEND
 8
0
  0
POLYLINE
  8
0
 62
     250
 66
     1
 10
0
 20
0
 30
0.0
 40
3.99991
 41
3.99991
  0
VERTEX
  8
0
 10
1.41233
 20
3.25749
 30
0.0
 40
0.0555543
 41
0.0555543
  0
VERTEX
  8
0
 10
1.4279
 20
3.26824
 30
0.0
 40
0.0555543
 41
0.0555543
  0
VERTEX
  8
0
 10
1.49164
 20
3.33247
 30
0.0
 40
0.0555543
 41
0.0555543
  0
VERTEX
  8
0
 10
1.53603
 20
3.41135
 30
0.0
 40
0.0555543
 41
0.0555543
  0
VERTEX
  8
0
 10
1.54189
 20
3.42936
 30
0.0
 40
0.0555543
 41
0.0555543
  0
SEQEND
 8
0
  0
POLYLINE
  8
0
 62
     250
 66
     1
 10
0
 20
0
 30
0.0
 70
     1
 40
3.99991
 41
3.99991
  0
VERTEX
  8
0
 10
1.39524
 20
2.61089
 30
0.0
 40
0.0555543
 41
0.0555543
  0
VERTEX
  8
0
 10
1.22597
 20
2.63167
 30
0.0
 40
0.0555543
 41
0.0555543
  0
VERTEX
  8
0
 10
1.21837
 20
2.61442
 30
0.0
 40
0.0555543
 41
0.0555543
  0
VERTEX
  8
0
 10
1.1875
 20
2.56603
 30
0.0
 40
0.0555543
 41
0.0555543
  0
VERTEX
  8
0
 10
1.13818
 20
2.51699
 30
0.0
 40
0.0555543
 41
0.0555543
  0
VERTEX
  8
0
 10
1.08122
 20
2.48807
 30
0.0
 40
0.0555543
 41
0.0555543
  0
VERTEX
  8
0
 10
1.03478
 20
2.48096
 30
0.0
 40
0.0555543
 41
0.0555543
  0
VERTEX
  8
0
 10
1.01986
 20
2.48275
 30
0.0
 40
0.0555543
 41
0.0555543
  0
VERTEX
  8
0
 10
1.00032
 20
2.48514
 30
0.0
 40
0.0555543
 41
0.0555543
  0
VERTEX
  8
0
 10
0.944553
 20
2.51421
 30
0.0
 40
0.0555543
 41
0.0555543
  0
VERTEX
  8
0
 10
0.888237
 20
2.58171
 30
0.0
 40
0.0555543
 41
0.0555543
  0
VERTEX
  8
0
 10
0.856174
 20
2.67551
 30
0.0
 40
0.0555543
 41
0.0555543
  0
VERTEX
  8
0
 10
0.850424
 20
2.75874
 30
0.0
 40
0.0555543
 41
0.0555543
  0
VERTEX
  8
0
 10
0.853787
 20
2.78581
 30
0.0
 40
0.0555543
 41
0.0555543
  0
VERTEX
  8
0
 10
0.857096
 20
2.81293
 30
0.0
 40
0.0555543
 41
0.0555543
  0
VERTEX
  8
0
 10
0.882813
 20
2.89231
 30
0.0
 40
0.0555543
 41
0.0555543
  0
VERTEX
  8
0
 10
0.936578
 20
2.97553
 30
0.0
 40
0.0555543
 41
0.0555543
  0
VERTEX
  8
0
 10
1.0076
 20
3.0274
 30
0.0
 40
0.0555543
 41
0.0555543
  0
VERTEX
  8
0
 10
1.06874
 20
3.0421
 30
0.0
 40
0.0555543
 41
0.0555543
  0
VERTEX
  8
0
 10
1.08827
 20
3.03971
 30
0.0
 40
0.0555543
 41
0.0555543
  0
VERTEX
  8
0
 10
1.10319
 20
3.03792
 30
0.0
 40
0.0555543
 41
0.0555543
  0
VERTEX
  8
0
 10
1.14654
 20
3.01975
 30
0.0
 40
0.0555543
 41
0.0555543
  0
VERTEX
  8
0
 10
1.19482
 20
2.97786
 30
0.0
 40
0.0555543
 41
0.0555543
  0
VERTEX
  8
0
 10
1.23079
 20
2.91835
 30
0.0
 40
0.0555543
 41
0.0555543
  0
VERTEX
  8
0
 10
1.24897
 20
2.86399
 30
0.0
 40
0.0555543
 41
0.0555543
  0
VERTEX
  8
0
 10
1.25217
 20
2.84532
 30
0.0
 40
0.0555543
 41
0.0555543
  0
VERTEX
  8
0
 10
1.4215
 20
2.82454
 30
0.0
 40
0.0555543
 41
0.0555543
  0
VERTEX
  8
0
 10
1.43024
 20
2.82351
 30
0.0
 40
0.0555543
 41
0.0555543
  0
VERTEX
  8
0
 10
1.4554
 20
2.81185
 30
0.0
 40
0.0555543
 41
0.0555543
  0
VERTEX
  8
0
 10
1.48122
 20
2.78537
 30
0.0
 40
0.0555543
 41
0.0555543
  0
VERTEX
  8
0
 10
1.49642
 20
2.74903
 30
0.0
 40
0.0555543
 41
0.0555543
  0
VERTEX
  8
0
 10
1.49972
 20
2.71701
 30
0.0
 40
0.0555543
 41
0.0555543
  0
VERTEX
  8
0
 10
1.49849
 20
2.70665
 30
0.0
 40
0.0555543
 41
0.0555543
  0
VERTEX
  8
0
 10
1.49718
 20
2.69629
 30
0.0
 40
0.0555543
 41
0.0555543
  0
VERTEX
  8
0
 10
1.48628
 20
2.66607
 30
0.0
 40
0.0555543
 41
0.0555543
  0
VERTEX
  8
0
 10
1.46272
 20
2.6345
 30
0.0
 40
0.0555543
 41
0.0555543
  0
VERTEX
  8
0
 10
1.43126
 20
2.61507
 30
0.0
 40
0.0555543
 41
0.0555543
  0
VERTEX
  8
0
 10
1.40397
 20
2.60986
 30
0.0
 40
0.0555543
 41
0.0555543
  0
VERTEX
  8
0
 10
1.39524
 20
2.61089
 30
0.0
 40
0.0555543
 41
0.0555543
  0
SEQEND
 8
0
  0
POLYLINE
  8
0
 62
     250
 66
     1
 10
0
 20
0
 30
0.0
 40
3.99991
 41
3.99991
  0
VERTEX
  8
0
 10
1.22597
 20
2.63167
 30
0.0
 40
0.0555543
 41
0.0555543
  0
VERTEX
  8
0
 10
1.23405
 20
2.64876
 30
0.0
 40
0.0555543
 41
0.0555543
  0
VERTEX
  8
0
 10
1.25716
 20
2.73633
 30
0.0
 40
0.0555543
 41
0.0555543
  0
VERTEX
  8
0
 10
1.25608
 20
2.82676
 30
0.0
 40
0.0555543
 41
0.0555543
  0
VERTEX
  8
0
 10
1.25217
 20
2.84532
 30
0.0
 40
0.0555543
 41
0.0555543
  0
SEQEND
 8
0
  0
POLYLINE
  8
0
 62
     250
 66
     1
 10
0
 20
0
 30
0.0
 70
     1
 40
3.99991
 41
3.99991
  0
VERTEX
  8
0
 10
1.41097
 20
2.02393
 30
0.0
 40
0.0555543
 41
0.0555543
  0
VERTEX
  8
0
 10
1.25396
 20
1.95731
 30
0.0
 40
0.0555543
 41
0.0555543
  0
VERTEX
  8
0
 10
1.25602
 20
1.93858
 30
0.0
 40
0.0555543
 41
0.0555543
  0
VERTEX
  8
0
 10
1.25353
 20
1.88124
 30
0.0
 40
0.0555543
 41
0.0555543
  0
VERTEX
  8
0
 10
1.23535
 20
1.81413
 30
0.0
 40
0.0555543
 41
0.0555543
  0
VERTEX
  8
0
 10
1.20052
 20
1.76058
 30
0.0
 40
0.0555543
 41
0.0555543
  0
VERTEX
  8
0
 10
1.16385
 20
1.73118
 30
0.0
 40
0.0555543
 41
0.0555543
  0
VERTEX
  8
0
 10
1.15001
 20
1.72526
 30
0.0
 40
0.0555543
 41
0.0555543
  0
VERTEX
  8
0
 10
1.13189
 20
1.71761
 30
0.0
 40
0.0555543
 41
0.0555543
  0
VERTEX
  8
0
 10
1.06907
 20
1.7149
 30
0.0
 40
0.0555543
 41
0.0555543
  0
VERTEX
  8
0
 10
0.98649
 20
1.74517
 30
0.0
 40
0.0555543
 41
0.0555543
  0
VERTEX
  8
0
 10
0.911837
 20
1.81039
 30
0.0
 40
0.0555543
 41
0.0555543
  0
VERTEX
  8
0
 10
0.865235
 20
1.87956
 30
0.0
 40
0.0555543
 41
0.0555543
  0
VERTEX
  8
0
 10
0.854601
 20
1.90468
 30
0.0
 40
0.0555543
 41
0.0555543
  0
VERTEX
  8
0
 10
0.843913
 20
1.92985
 30
0.0
 40
0.0555543
 41
0.0555543
  0
VERTEX
  8
0
 10
0.826551
 20
2.01144
 30
0.0
 40
0.0555543
 41
0.0555543
  0
VERTEX
  8
0
 10
0.831489
 20
2.1104
 30
0.0
 40
0.0555543
 41
0.0555543
  0
VERTEX
  8
0
 10
0.867025
 20
2.19081
 30
0.0
 40
0.0555543
 41
0.0555543
  0
VERTEX
  8
0
 10
0.912651
 20
2.23415
 30
0.0
 40
0.0555543
 41
0.0555543
  0
VERTEX
  8
0
 10
0.930718
 20
2.24181
 30
0.0
 40
0.0555543
 41
0.0555543
  0
VERTEX
  8
0
 10
0.944553
 20
2.24772
 30
0.0
 40
0.0555543
 41
0.0555543
  0
VERTEX
  8
0
 10
0.991211
 20
2.25364
 30
0.0
 40
0.0555543
 41
0.0555543
  0
VERTEX
  8
0
 10
1.05393
 20
2.24154
 30
0.0
 40
0.0555543
 41
0.0555543
  0
VERTEX
  8
0
 10
1.11485
 20
2.20801
 30
0.0
 40
0.0555543
 41
0.0555543
  0
VERTEX
  8
0
 10
1.15782
 20
2.16997
 30
0.0
 40
0.0555543
 41
0.0555543
  0
VERTEX
  8
0
 10
1.16987
 20
2.15543
 30
0.0
 40
0.0555543
 41
0.0555543
  0
VERTEX
  8
0
 10
1.32688
 20
2.22206
 30
0.0
 40
0.0555543
 41
0.0555543
  0
VERTEX
  8
0
 10
1.33496
 20
2.22553
 30
0.0
 40
0.0555543
 41
0.0555543
  0
VERTEX
  8
0
 10
1.36263
 20
2.22803
 30
0.0
 40
0.0555543
 41
0.0555543
  0
VERTEX
  8
0
 10
1.39828
 20
2.21804
 30
0.0
 40
0.0555543
 41
0.0555543
  0
VERTEX
  8
0
 10
1.42958
 20
2.19417
 30
0.0
 40
0.0555543
 41
0.0555543
  0
VERTEX
  8
0
 10
1.4484
 20
2.16812
 30
0.0
 40
0.0555543
 41
0.0555543
  0
VERTEX
  8
0
 10
1.45253
 20
2.15847
 30
0.0
 40
0.0555543
 41
0.0555543
  0
VERTEX
  8
0
 10
1.4566
 20
2.14887
 30
0.0
 40
0.0555543
 41
0.0555543
  0
VERTEX
  8
0
 10
1.46224
 20
2.11724
 30
0.0
 40
0.0555543
 41
0.0555543
  0
VERTEX
  8
0
 10
1.45762
 20
2.07813
 30
0.0
 40
0.0555543
 41
0.0555543
  0
VERTEX
  8
0
 10
1.44011
 20
2.04557
 30
0.0
 40
0.0555543
 41
0.0555543
  0
VERTEX
  8
0
 10
1.41906
 20
2.0274
 30
0.0
 40
0.0555543
 41
0.0555543
  0
VERTEX
  8
0
 10
1.41097
 20
2.02393
 30
0.0
 40
0.0555543
 41
0.0555543
  0
SEQEND
 8
0
  0
POLYLINE
  8
0
 62
     250
 66
     1
 10
0
 20
0
 30
0.0
 40
3.99991
 41
3.99991
  0
VERTEX
  8
0
 10
1.25396
 20
1.95731
 30
0.0
 40
0.0555543
 41
0.0555543
  0
VERTEX
  8
0
 10
1.25244
 20
1.97618
 30
0.0
 40
0.0555543
 41
0.0555543
  0
VERTEX
  8
0
 10
1.22873
 20
2.06353
 30
0.0
 40
0.0555543
 41
0.0555543
  0
VERTEX
  8
0
 10
1.18256
 20
2.14133
 30
0.0
 40
0.0555543
 41
0.0555543
  0
VERTEX
  8
0
 10
1.16987
 20
2.15543
 30
0.0
 40
0.0555543
 41
0.0555543
  0
SEQEND
 8
0
  0
POLYLINE
  8
0
 62
     250
 66
     1
 10
0
 20
0
 30
0.0
 70
     1
 40
3.99991
 41
3.99991
  0
VERTEX
  8
0
 10
1.79878
 20
1.65913
 30
0.0
 40
0.0555543
 41
0.0555543
  0
VERTEX
  8
0
 10
1.69613
 20
1.52289
 30
0.0
 40
0.0555543
 41
0.0555543
  0
VERTEX
  8
0
 10
1.70731
 20
1.50771
 30
0.0
 40
0.0555543
 41
0.0555543
  0
VERTEX
  8
0
 10
1.73378
 20
1.45682
 30
0.0
 40
0.0555543
 41
0.0555543
  0
VERTEX
  8
0
 10
1.75162
 20
1.3896
 30
0.0
 40
0.0555543
 41
0.0555543
  0
VERTEX
  8
0
 10
1.74821
 20
1.32579
 30
0.0
 40
0.0555543
 41
0.0555543
  0
VERTEX
  8
0
 10
1.73118
 20
1.28201
 30
0.0
 40
0.0555543
 41
0.0555543
  0
VERTEX
  8
0
 10
1.72211
 20
1.26997
 30
0.0
 40
0.0555543
 41
0.0555543
  0
VERTEX
  8
0
 10
1.71029
 20
1.25429
 30
0.0
 40
0.0555543
 41
0.0555543
  0
VERTEX
  8
0
 10
1.65722
 20
1.22054
 30
0.0
 40
0.0555543
 41
0.0555543
  0
VERTEX
  8
0
 10
1.57058
 20
1.20546
 30
0.0
 40
0.0555543
 41
0.0555543
  0
VERTEX
  8
0
 10
1.47336
 20
1.22461
 30
0.0
 40
0.0555543
 41
0.0555543
  0
VERTEX
  8
0
 10
1.39839
 20
1.26128
 30
0.0
 40
0.0555543
 41
0.0555543
  0
VERTEX
  8
0
 10
1.37663
 20
1.27767
 30
0.0
 40
0.0555543
 41
0.0555543
  0
VERTEX
  8
0
 10
1.35482
 20
1.29411
 30
0.0
 40
0.0555543
 41
0.0555543
  0
VERTEX
  8
0
 10
1.29894
 20
1.35607
 30
0.0
 40
0.0555543
 41
0.0555543
  0
VERTEX
  8
0
 10
1.25374
 20
1.44428
 30
0.0
 40
0.0555543
 41
0.0555543
  0
VERTEX
  8
0
 10
1.2443
 20
1.53168
 30
0.0
 40
0.0555543
 41
0.0555543
  0
VERTEX
  8
0
 10
1.26215
 20
1.59201
 30
0.0
 40
0.0555543
 41
0.0555543
  0
VERTEX
  8
0
 10
1.27398
 20
1.60764
 30
0.0
 40
0.0555543
 41
0.0555543
  0
VERTEX
  8
0
 10
1.28304
 20
1.61968
 30
0.0
 40
0.0555543
 41
0.0555543
  0
VERTEX
  8
0
 10
1.32042
 20
1.64817
 30
0.0
 40
0.0555543
 41
0.0555543
  0
VERTEX
  8
0
 10
1.38081
 20
1.66906
 30
0.0
 40
0.0555543
 41
0.0555543
  0
VERTEX
  8
0
 10
1.45031
 20
1.67042
 30
0.0
 40
0.0555543
 41
0.0555543
  0
VERTEX
  8
0
 10
1.50651
 20
1.65901
 30
0.0
 40
0.0555543
 41
0.0555543
  0
VERTEX
  8
0
 10
1.52425
 20
1.6524
 30
0.0
 40
0.0555543
 41
0.0555543
  0
VERTEX
  8
0
 10
1.6269
 20
1.78863
 30
0.0
 40
0.0555543
 41
0.0555543
  0
VERTEX
  8
0
 10
1.63217
 20
1.79568
 30
0.0
 40
0.0555543
 41
0.0555543
  0
VERTEX
  8
0
 10
1.65489
 20
1.81168
 30
0.0
 40
0.0555543
 41
0.0555543
  0
VERTEX
  8
0
 10
1.69069
 20
1.82086
 30
0.0
 40
0.0555543
 41
0.0555543
  0
VERTEX
  8
0
 10
1.72982
 20
1.81581
 30
0.0
 40
0.0555543
 41
0.0555543
  0
VERTEX
  8
0
 10
1.75917
 20
1.80268
 30
0.0
 40
0.0555543
 41
0.0555543
  0
VERTEX
  8
0
 10
1.76753
 20
1.79639
 30
0.0
 40
0.0555543
 41
0.0555543
  0
VERTEX
  8
0
 10
1.77582
 20
1.79015
 30
0.0
 40
0.0555543
 41
0.0555543
  0
VERTEX
  8
0
 10
1.79656
 20
1.76551
 30
0.0
 40
0.0555543
 41
0.0555543
  0
VERTEX
  8
0
 10
1.81213
 20
1.72939
 30
0.0
 40
0.0555543
 41
0.0555543
  0
VERTEX
  8
0
 10
1.81321
 20
1.69239
 30
0.0
 40
0.0555543
 41
0.0555543
  0
VERTEX
  8
0
 10
1.80404
 20
1.66618
 30
0.0
 40
0.0555543
 41
0.0555543
  0
VERTEX
  8
0
 10
1.79878
 20
1.65913
 30
0.0
 40
0.0555543
 41
0.0555543
  0
SEQEND
 8
0
  0
POLYLINE
  8
0
 62
     250
 66
     1
 10
0
 20
0
 30
0.0
 40
3.99991
 41
3.99991
  0
VERTEX
  8
0
 10
1.69613
 20
1.52289
 30
0.0
 40
0.0555543
 41
0.0555543
  0
VERTEX
  8
0
 10
1.68539
 20
1.53851
 30
0.0
 40
0.0555543
 41
0.0555543
  0
VERTEX
  8
0
 10
1.62115
 20
1.60226
 30
0.0
 40
0.0555543
 41
0.0555543
  0
VERTEX
  8
0
 10
1.54226
 20
1.64654
 30
0.0
 40
0.0555543
 41
0.0555543
  0
VERTEX
  8
0
 10
1.52425
 20
1.6524
 30
0.0
 40
0.0555543
 41
0.0555543
  0
SEQEND
 8
0
  0
POLYLINE
  8
0
 62
     250
 66
     1
 10
0
 20
0
 30
0.0
 70
     1
 40
3.99991
 41
3.99991
  0
VERTEX
  8
0
 10
2.34581
 20
1.43088
 30
0.0
 40
0.0555543
 41
0.0555543
  0
VERTEX
  8
0
 10
2.32503
 20
1.26156
 30
0.0
 40
0.0555543
 41
0.0555543
  0
VERTEX
  8
0
 10
2.34229
 20
1.25402
 30
0.0
 40
0.0555543
 41
0.0555543
  0
VERTEX
  8
0
 10
2.39068
 20
1.2232
 30
0.0
 40
0.0555543
 41
0.0555543
  0
VERTEX
  8
0
 10
2.43972
 20
1.17388
 30
0.0
 40
0.0555543
 41
0.0555543
  0
VERTEX
  8
0
 10
2.46864
 20
1.11692
 30
0.0
 40
0.0555543
 41
0.0555543
  0
VERTEX
  8
0
 10
2.47575
 20
1.07048
 30
0.0
 40
0.0555543
 41
0.0555543
  0
VERTEX
  8
0
 10
2.47396
 20
1.0555
 30
0.0
 40
0.0555543
 41
0.0555543
  0
VERTEX
  8
0
 10
2.47157
 20
1.03603
 30
0.0
 40
0.0555543
 41
0.0555543
  0
VERTEX
  8
0
 10
2.44249
 20
0.980251
 30
0.0
 40
0.0555543
 41
0.0555543
  0
VERTEX
  8
0
 10
2.375
 20
0.923936
 30
0.0
 40
0.0555543
 41
0.0555543
  0
VERTEX
  8
0
 10
2.28119
 20
0.891872
 30
0.0
 40
0.0555543
 41
0.0555543
  0
VERTEX
  8
0
 10
2.19797
 20
0.886122
 30
0.0
 40
0.0555543
 41
0.0555543
  0
VERTEX
  8
0
 10
2.1709
 20
0.889432
 30
0.0
 40
0.0555543
 41
0.0555543
  0
VERTEX
  8
0
 10
2.14378
 20
0.892796
 30
0.0
 40
0.0555543
 41
0.0555543
  0
VERTEX
  8
0
 10
2.0644
 20
0.918511
 30
0.0
 40
0.0555543
 41
0.0555543
  0
VERTEX
  8
0
 10
1.98118
 20
0.972276
 30
0.0
 40
0.0555543
 41
0.0555543
  0
VERTEX
  8
0
 10
1.92931
 20
1.04324
 30
0.0
 40
0.0555543
 41
0.0555543
  0
VERTEX
  8
0
 10
1.91465
 20
1.10438
 30
0.0
 40
0.0555543
 41
0.0555543
  0
VERTEX
  8
0
 10
1.91704
 20
1.12386
 30
0.0
 40
0.0555543
 41
0.0555543
  0
VERTEX
  8
0
 10
1.91883
 20
1.13883
 30
0.0
 40
0.0555543
 41
0.0555543
  0
VERTEX
  8
0
 10
1.93701
 20
1.18218
 30
0.0
 40
0.0555543
 41
0.0555543
  0
VERTEX
  8
0
 10
1.97885
 20
1.23047
 30
0.0
 40
0.0555543
 41
0.0555543
  0
VERTEX
  8
0
 10
2.03836
 20
1.26644
 30
0.0
 40
0.0555543
 41
0.0555543
  0
VERTEX
  8
0
 10
2.09272
 20
1.28467
 30
0.0
 40
0.0555543
 41
0.0555543
  0
VERTEX
  8
0
 10
2.11139
 20
1.28782
 30
0.0
 40
0.0555543
 41
0.0555543
  0
VERTEX
  8
0
 10
2.13217
 20
1.45708
 30
0.0
 40
0.0555543
 41
0.0555543
  0
VERTEX
  8
0
 10
2.13319
 20
1.46588
 30
0.0
 40
0.0555543
 41
0.0555543
  0
VERTEX
  8
0
 10
2.14486
 20
1.4911
 30
0.0
 40
0.0555543
 41
0.0555543
  0
VERTEX
  8
0
 10
2.17133
 20
1.51693
 30
0.0
 40
0.0555543
 41
0.0555543
  0
VERTEX
  8
0
 10
2.20768
 20
1.53213
 30
0.0
 40
0.0555543
 41
0.0555543
  0
VERTEX
  8
0
 10
2.23964
 20
1.53543
 30
0.0
 40
0.0555543
 41
0.0555543
  0
VERTEX
  8
0
 10
2.25006
 20
1.53413
 30
0.0
 40
0.0555543
 41
0.0555543
  0
VERTEX
  8
0
 10
2.26042
 20
1.53287
 30
0.0
 40
0.0555543
 41
0.0555543
  0
VERTEX
  8
0
 10
2.29064
 20
1.52192
 30
0.0
 40
0.0555543
 41
0.0555543
  0
VERTEX
  8
0
 10
2.32221
 20
1.49838
 30
0.0
 40
0.0555543
 41
0.0555543
  0
VERTEX
  8
0
 10
2.34164
 20
1.4669
 30
0.0
 40
0.0555543
 41
0.0555543
  0
VERTEX
  8
0
 10
2.34685
 20
1.43961
 30
0.0
 40
0.0555543
 41
0.0555543
  0
VERTEX
  8
0
 10
2.34581
 20
1.43088
 30
0.0
 40
0.0555543
 41
0.0555543
  0
SEQEND
 8
0
  0
POLYLINE
  8
0
 62
     250
 66
     1
 10
0
 20
0
 30
0.0
 40
3.99991
 41
3.99991
  0
VERTEX
  8
0
 10
2.32503
 20
1.26156
 30
0.0
 40
0.0555543
 41
0.0555543
  0
VERTEX
  8
0
 10
2.30794
 20
1.26969
 30
0.0
 40
0.0555543
 41
0.0555543
  0
VERTEX
  8
0
 10
2.22038
 20
1.29286
 30
0.0
 40
0.0555543
 41
0.0555543
  0
VERTEX
  8
0
 10
2.12993
 20
1.29177
 30
0.0
 40
0.0555543
 41
0.0555543
  0
VERTEX
  8
0
 10
2.11139
 20
1.28782
 30
0.0
 40
0.0555543
 41
0.0555543
  0
SEQEND
 8
0
  0
POLYLINE
  8
0
 62
     250
 66
     1
 10
0
 20
0
 30
0.0
 70
     1
 40
3.99991
 41
3.99991
  0
VERTEX
  8
0
 10
2.98107
 20
1.5165
 30
0.0
 40
0.0555543
 41
0.0555543
  0
VERTEX
  8
0
 10
3.04769
 20
1.35948
 30
0.0
 40
0.0555543
 41
0.0555543
  0
VERTEX
  8
0
 10
3.06646
 20
1.3616
 30
0.0
 40
0.0555543
 41
0.0555543
  0
VERTEX
  8
0
 10
3.12375
 20
1.3591
 30
0.0
 40
0.0555543
 41
0.0555543
  0
VERTEX
  8
0
 10
3.19086
 20
1.34093
 30
0.0
 40
0.0555543
 41
0.0555543
  0
VERTEX
  8
0
 10
3.24442
 20
1.30604
 30
0.0
 40
0.0555543
 41
0.0555543
  0
VERTEX
  8
0
 10
3.27382
 20
1.26937
 30
0.0
 40
0.0555543
 41
0.0555543
  0
VERTEX
  8
0
 10
3.27974
 20
1.25548
 30
0.0
 40
0.0555543
 41
0.0555543
  0
VERTEX
  8
0
 10
3.28737
 20
1.23747
 30
0.0
 40
0.0555543
 41
0.0555543
  0
VERTEX
  8
0
 10
3.2901
 20
1.17459
 30
0.0
 40
0.0555543
 41
0.0555543
  0
VERTEX
  8
0
 10
3.25982
 20
1.09207
 30
0.0
 40
0.0555543
 41
0.0555543
  0
VERTEX
  8
0
 10
3.19461
 20
1.01742
 30
0.0
 40
0.0555543
 41
0.0555543
  0
VERTEX
  8
0
 10
3.12543
 20
0.970811
 30
0.0
 40
0.0555543
 41
0.0555543
  0
VERTEX
  8
0
 10
3.10032
 20
0.960124
 30
0.0
 40
0.0555543
 41
0.0555543
  0
VERTEX
  8
0
 10
3.07514
 20
0.94949
 30
0.0
 40
0.0555543
 41
0.0555543
  0
VERTEX
  8
0
 10
2.99354
 20
0.932075
 30
0.0
 40
0.0555543
 41
0.0555543
  0
VERTEX
  8
0
 10
2.89458
 20
0.937011
 30
0.0
 40
0.0555543
 41
0.0555543
  0
VERTEX
  8
0
 10
2.81418
 20
0.972601
 30
0.0
 40
0.0555543
 41
0.0555543
  0
VERTEX
  8
0
 10
2.77083
 20
1.01823
 30
0.0
 40
0.0555543
 41
0.0555543
  0
VERTEX
  8
0
 10
2.76318
 20
1.03624
 30
0.0
 40
0.0555543
 41
0.0555543
  0
VERTEX
  8
0
 10
2.75726
 20
1.05013
 30
0.0
 40
0.0555543
 41
0.0555543
  0
VERTEX
  8
0
 10
2.75136
 20
1.09679
 30
0.0
 40
0.0555543
 41
0.0555543
  0
VERTEX
  8
0
 10
2.76346
 20
1.15951
 30
0.0
 40
0.0555543
 41
0.0555543
  0
VERTEX
  8
0
 10
2.79699
 20
1.22043
 30
0.0
 40
0.0555543
 41
0.0555543
  0
VERTEX
  8
0
 10
2.83501
 20
1.26335
 30
0.0
 40
0.0555543
 41
0.0555543
  0
VERTEX
  8
0
 10
2.84956
 20
1.27539
 30
0.0
 40
0.0555543
 41
0.0555543
  0
VERTEX
  8
0
 10
2.78293
 20
1.4324
 30
0.0
 40
0.0555543
 41
0.0555543
  0
VERTEX
  8
0
 10
2.77946
 20
1.44054
 30
0.0
 40
0.0555543
 41
0.0555543
  0
VERTEX
  8
0
 10
2.77696
 20
1.46821
 30
0.0
 40
0.0555543
 41
0.0555543
  0
VERTEX
  8
0
 10
2.78694
 20
1.50379
 30
0.0
 40
0.0555543
 41
0.0555543
  0
VERTEX
  8
0
 10
2.81082
 20
1.53515
 30
0.0
 40
0.0555543
 41
0.0555543
  0
VERTEX
  8
0
 10
2.83686
 20
1.55399
 30
0.0
 40
0.0555543
 41
0.0555543
  0
VERTEX
  8
0
 10
2.84651
 20
1.55806
 30
0.0
 40
0.0555543
 41
0.0555543
  0
VERTEX
  8
0
 10
2.85613
 20
1.56213
 30
0.0
 40
0.0555543
 41
0.0555543
  0
VERTEX
  8
0
 10
2.88775
 20
1.56782
 30
0.0
 40
0.0555543
 41
0.0555543
  0
VERTEX
  8
0
 10
2.92686
 20
1.56321
 30
0.0
 40
0.0555543
 41
0.0555543
  0
VERTEX
  8
0
 10
2.95942
 20
1.54563
 30
0.0
 40
0.0555543
 41
0.0555543
  0
VERTEX
  8
0
 10
2.9776
 20
1.52463
 30
0.0
 40
0.0555543
 41
0.0555543
  0
VERTEX
  8
0
 10
2.98107
 20
1.5165
 30
0.0
 40
0.0555543
 41
0.0555543
  0
SEQEND
 8
0
  0
POLYLINE
  8
0
 62
     250
 66
     1
 10
0
 20
0
 30
0.0
 40
3.99991
 41
3.99991
  0
VERTEX
  8
0
 10
3.04769
 20
1.35948
 30
0.0
 40
0.0555543
 41
0.0555543
  0
VERTEX
  8
0
 10
3.02881
 20
1.35802
 30
0.0
 40
0.0555543
 41
0.0555543
  0
VERTEX
  8
0
 10
2.94146
 20
1.33426
 30
0.0
 40
0.0555543
 41
0.0555543
  0
VERTEX
  8
0
 10
2.86367
 20
1.28809
 30
0.0
 40
0.0555543
 41
0.0555543
  0
VERTEX
  8
0
 10
2.84956
 20
1.27539
 30
0.0
 40
0.0555543
 41
0.0555543
  0
SEQEND
 8
0
  0
POLYLINE
  8
0
 62
     250
 66
     1
 10
0
 20
0
 30
0.0
 70
     1
 40
3.99991
 41
3.99991
  0
VERTEX
  8
0
 10
3.28256
 20
2.03088
 30
0.0
 40
0.0555543
 41
0.0555543
  0
VERTEX
  8
0
 10
3.41878
 20
1.92822
 30
0.0
 40
0.0555543
 41
0.0555543
  0
VERTEX
  8
0
 10
3.43397
 20
1.93946
 30
0.0
 40
0.0555543
 41
0.0555543
  0
VERTEX
  8
0
 10
3.48486
 20
1.96593
 30
0.0
 40
0.0555543
 41
0.0555543
  0
VERTEX
  8
0
 10
3.55208
 20
1.98372
 30
0.0
 40
0.0555543
 41
0.0555543
  0
VERTEX
  8
0
 10
3.61583
 20
1.98031
 30
0.0
 40
0.0555543
 41
0.0555543
  0
VERTEX
  8
0
 10
3.65967
 20
1.96326
 30
0.0
 40
0.0555543
 41
0.0555543
  0
VERTEX
  8
0
 10
3.67171
 20
1.95415
 30
0.0
 40
0.0555543
 41
0.0555543
  0
VERTEX
  8
0
 10
3.68733
 20
1.94239
 30
0.0
 40
0.0555543
 41
0.0555543
  0
VERTEX
  8
0
 10
3.72114
 20
1.88932
 30
0.0
 40
0.0555543
 41
0.0555543
  0
VERTEX
  8
0
 10
3.73617
 20
1.80268
 30
0.0
 40
0.0555543
 41
0.0555543
  0
VERTEX
  8
0
 10
3.71707
 20
1.70546
 30
0.0
 40
0.0555543
 41
0.0555543
  0
VERTEX
  8
0
 10
3.68039
 20
1.63049
 30
0.0
 40
0.0555543
 41
0.0555543
  0
VERTEX
  8
0
 10
3.66401
 20
1.60867
 30
0.0
 40
0.0555543
 41
0.0555543
  0
VERTEX
  8
0
 10
3.64757
 20
1.58692
 30
0.0
 40
0.0555543
 41
0.0555543
  0
VERTEX
  8
0
 10
3.58561
 20
1.53103
 30
0.0
 40
0.0555543
 41
0.0555543
  0
VERTEX
  8
0
 10
3.4974
 20
1.48583
 30
0.0
 40
0.0555543
 41
0.0555543
  0
VERTEX
  8
0
 10
3.41
 20
1.4764
 30
0.0
 40
0.0555543
 41
0.0555543
  0
VERTEX
  8
0
 10
3.34967
 20
1.49425
 30
0.0
 40
0.0555543
 41
0.0555543
  0
VERTEX
  8
0
 10
3.33404
 20
1.50603
 30
0.0
 40
0.0555543
 41
0.0555543
  0
VERTEX
  8
0
 10
3.322
 20
1.51514
 30
0.0
 40
0.0555543
 41
0.0555543
  0
VERTEX
  8
0
 10
3.29351
 20
1.55251
 30
0.0
 40
0.0555543
 41
0.0555543
  0
VERTEX
  8
0
 10
3.27262
 20
1.6129
 30
0.0
 40
0.0555543
 41
0.0555543
  0
VERTEX
  8
0
 10
3.27121
 20
1.6824
 30
0.0
 40
0.0555543
 41
0.0555543
  0
VERTEX
  8
0
 10
3.28267
 20
1.73861
 30
0.0
 40
0.0555543
 41
0.0555543
  0
VERTEX
  8
0
 10
3.28922
 20
1.75629
 30
0.0
 40
0.0555543
 41
0.0555543
  0
VERTEX
  8
0
 10
3.15306
 20
1.85894
 30
0.0
 40
0.0555543
 41
0.0555543
  0
VERTEX
  8
0
 10
3.146
 20
1.86426
 30
0.0
 40
0.0555543
 41
0.0555543
  0
VERTEX
  8
0
 10
3.12993
 20
1.88699
 30
0.0
 40
0.0555543
 41
0.0555543
  0
VERTEX
  8
0
 10
3.12082
 20
1.92285
 30
0.0
 40
0.0555543
 41
0.0555543
  0
VERTEX
  8
0
 10
3.12582
 20
1.96192
 30
0.0
 40
0.0555543
 41
0.0555543
  0
VERTEX
  8
0
 10
3.139
 20
1.99126
 30
0.0
 40
0.0555543
 41
0.0555543
  0
VERTEX
  8
0
 10
3.14529
 20
1.99957
 30
0.0
 40
0.0555543
 41
0.0555543
  0
VERTEX
  8
0
 10
3.15153
 20
2.00792
 30
0.0
 40
0.0555543
 41
0.0555543
  0
VERTEX
  8
0
 10
3.17611
 20
2.02865
 30
0.0
 40
0.0555543
 41
0.0555543
  0
VERTEX
  8
0
 10
3.21229
 20
2.04422
 30
0.0
 40
0.0555543
 41
0.0555543
  0
VERTEX
  8
0
 10
3.24924
 20
2.04536
 30
0.0
 40
0.0555543
 41
0.0555543
  0
VERTEX
  8
0
 10
3.2755
 20
2.03618
 30
0.0
 40
0.0555543
 41
0.0555543
  0
VERTEX
  8
0
 10
3.28256
 20
2.03088
 30
0.0
 40
0.0555543
 41
0.0555543
  0
SEQEND
 8
0
  0
POLYLINE
  8
0
 62
     250
 66
     1
 10
0
 20
0
 30
0.0
 40
3.99991
 41
3.99991
  0
VERTEX
  8
0
 10
3.41878
 20
1.92822
 30
0.0
 40
0.0555543
 41
0.0555543
  0
VERTEX
  8
0
 10
3.40315
 20
1.91754
 30
0.0
 40
0.0555543
 41
0.0555543
  0
VERTEX
  8
0
 10
3.33942
 20
1.85325
 30
0.0
 40
0.0555543
 41
0.0555543
  0
VERTEX
  8
0
 10
3.29508
 20
1.77436
 30
0.0
 40
0.0555543
 41
0.0555543
  0
VERTEX
  8
0
 10
3.28922
 20
1.75629
 30
0.0
 40
0.0555543
 41
0.0555543
  0
SEQEND
 8
0
  0
POLYLINE
  8
0
 62
     250
 66
     1
 10
0
 20
0
 30
0.0
 70
     1
 40
3.99991
 41
3.99991
  0
VERTEX
  8
0
 10
3.44271
 20
2.46793
 30
0.0
 40
0.0555543
 41
0.0555543
  0
VERTEX
  8
0
 10
3.61199
 20
2.4471
 30
0.0
 40
0.0555543
 41
0.0555543
  0
VERTEX
  8
0
 10
3.61951
 20
2.46442
 30
0.0
 40
0.0555543
 41
0.0555543
  0
VERTEX
  8
0
 10
3.65039
 20
2.51281
 30
0.0
 40
0.0555543
 41
0.0555543
  0
VERTEX
  8
0
 10
3.69971
 20
2.5619
 30
0.0
 40
0.0555543
 41
0.0555543
  0
VERTEX
  8
0
 10
3.75667
 20
2.59082
 30
0.0
 40
0.0555543
 41
0.0555543
  0
VERTEX
  8
0
 10
3.80311
 20
2.59793
 30
0.0
 40
0.0555543
 41
0.0555543
  0
VERTEX
  8
0
 10
3.81808
 20
2.59608
 30
0.0
 40
0.0555543
 41
0.0555543
  0
VERTEX
  8
0
 10
3.83757
 20
2.59369
 30
0.0
 40
0.0555543
 41
0.0555543
  0
VERTEX
  8
0
 10
3.89333
 20
2.56467
 30
0.0
 40
0.0555543
 41
0.0555543
  0
VERTEX
  8
0
 10
3.94965
 20
2.49718
 30
0.0
 40
0.0555543
 41
0.0555543
  0
VERTEX
  8
0
 10
3.98172
 20
2.40338
 30
0.0
 40
0.0555543
 41
0.0555543
  0
VERTEX
  8
0
 10
3.98747
 20
2.32015
 30
0.0
 40
0.0555543
 41
0.0555543
  0
VERTEX
  8
0
 10
3.98415
 20
2.29303
 30
0.0
 40
0.0555543
 41
0.0555543
  0
VERTEX
  8
0
 10
3.98079
 20
2.26594
 30
0.0
 40
0.0555543
 41
0.0555543
  0
VERTEX
  8
0
 10
3.95508
 20
2.18658
 30
0.0
 40
0.0555543
 41
0.0555543
  0
VERTEX
  8
0
 10
3.90132
 20
2.10335
 30
0.0
 40
0.0555543
 41
0.0555543
  0
VERTEX
  8
0
 10
3.83029
 20
2.05149
 30
0.0
 40
0.0555543
 41
0.0555543
  0
VERTEX
  8
0
 10
3.76915
 20
2.03674
 30
0.0
 40
0.0555543
 41
0.0555543
  0
VERTEX
  8
0
 10
3.74968
 20
2.03911
 30
0.0
 40
0.0555543
 41
0.0555543
  0
VERTEX
  8
0
 10
3.73469
 20
2.04096
 30
0.0
 40
0.0555543
 41
0.0555543
  0
VERTEX
  8
0
 10
3.69135
 20
2.05914
 30
0.0
 40
0.0555543
 41
0.0555543
  0
VERTEX
  8
0
 10
3.64307
 20
2.10101
 30
0.0
 40
0.0555543
 41
0.0555543
  0
VERTEX
  8
0
 10
3.6071
 20
2.16054
 30
0.0
 40
0.0555543
 41
0.0555543
  0
VERTEX
  8
0
 10
3.58892
 20
2.2149
 30
0.0
 40
0.0555543
 41
0.0555543
  0
VERTEX
  8
0
 10
3.58578
 20
2.23351
 30
0.0
 40
0.0555543
 41
0.0555543
  0
VERTEX
  8
0
 10
3.41644
 20
2.25429
 30
0.0
 40
0.0555543
 41
0.0555543
  0
VERTEX
  8
0
 10
3.40767
 20
2.25537
 30
0.0
 40
0.0555543
 41
0.0555543
  0
VERTEX
  8
0
 10
3.38249
 20
2.26704
 30
0.0
 40
0.0555543
 41
0.0555543
  0
VERTEX
  8
0
 10
3.35667
 20
2.29351
 30
0.0
 40
0.0555543
 41
0.0555543
  0
VERTEX
  8
0
 10
3.34147
 20
2.32986
 30
0.0
 40
0.0555543
 41
0.0555543
  0
VERTEX
  8
0
 10
3.33817
 20
2.36187
 30
0.0
 40
0.0555543
 41
0.0555543
  0
VERTEX
  8
0
 10
3.33946
 20
2.37218
 30
0.0
 40
0.0555543
 41
0.0555543
  0
VERTEX
  8
0
 10
3.34071
 20
2.38254
 30
0.0
 40
0.0555543
 41
0.0555543
  0
VERTEX
  8
0
 10
3.35161
 20
2.41282
 30
0.0
 40
0.0555543
 41
0.0555543
  0
VERTEX
  8
0
 10
3.37517
 20
2.44439
 30
0.0
 40
0.0555543
 41
0.0555543
  0
VERTEX
  8
0
 10
3.40662
 20
2.46382
 30
0.0
 40
0.0555543
 41
0.0555543
  0
VERTEX
  8
0
 10
3.43392
 20
2.46903
 30
0.0
 40
0.0555543
 41
0.0555543
  0
VERTEX
  8
0
 10
3.44271
 20
2.46793
 30
0.0
 40
0.0555543
 41
0.0555543
  0
SEQEND
 8
0
  0
POLYLINE
  8
0
 62
     250
 66
     1
 10
0
 20
0
 30
0.0
 40
3.99991
 41
3.99991
  0
VERTEX
  8
0
 10
3.61199
 20
2.4471
 30
0.0
 40
0.0555543
 41
0.0555543
  0
VERTEX
  8
0
 10
3.60385
 20
2.43007
 30
0.0
 40
0.0555543
 41
0.0555543
  0
VERTEX
  8
0
 10
3.58074
 20
2.34256
 30
0.0
 40
0.0555543
 41
0.0555543
  0
VERTEX
  8
0
 10
3.58182
 20
2.25206
 30
0.0
 40
0.0555543
 41
0.0555543
  0
VERTEX
  8
0
 10
3.58578
 20
2.23351
 30
0.0
 40
0.0555543
 41
0.0555543
  0
SEQEND
 8
0
  0
POLYLINE
  8
0
 62
     250
 66
     1
 10
0
 20
0
 30
0.0
 70
     1
 40
3.99991
 41
3.99991
  0
VERTEX
  8
0
 10
3.38118
 20
3.07156
 30
0.0
 40
0.0555543
 41
0.0555543
  0
VERTEX
  8
0
 10
3.53819
 20
3.13824
 30
0.0
 40
0.0555543
 41
0.0555543
  0
VERTEX
  8
0
 10
3.53608
 20
3.15701
 30
0.0
 40
0.0555543
 41
0.0555543
  0
VERTEX
  8
0
 10
3.53863
 20
3.21436
 30
0.0
 40
0.0555543
 41
0.0555543
  0
VERTEX
  8
0
 10
3.55681
 20
3.28147
 30
0.0
 40
0.0555543
 41
0.0555543
  0
VERTEX
  8
0
 10
3.59164
 20
3.33501
 30
0.0
 40
0.0555543
 41
0.0555543
  0
VERTEX
  8
0
 10
3.62831
 20
3.36442
 30
0.0
 40
0.0555543
 41
0.0555543
  0
VERTEX
  8
0
 10
3.64219
 20
3.37028
 30
0.0
 40
0.0555543
 41
0.0555543
  0
VERTEX
  8
0
 10
3.66026
 20
3.37799
 30
0.0
 40
0.0555543
 41
0.0555543
  0
VERTEX
  8
0
 10
3.7231
 20
3.38069
 30
0.0
 40
0.0555543
 41
0.0555543
  0
VERTEX
  8
0
 10
3.80561
 20
3.35042
 30
0.0
 40
0.0555543
 41
0.0555543
  0
VERTEX
  8
0
 10
3.88026
 20
3.28521
 30
0.0
 40
0.0555543
 41
0.0555543
  0
VERTEX
  8
0
 10
3.92686
 20
3.21604
 30
0.0
 40
0.0555543
 41
0.0555543
  0
VERTEX
  8
0
 10
3.93756
 20
3.19086
 30
0.0
 40
0.0555543
 41
0.0555543
  0
VERTEX
  8
0
 10
3.94819
 20
3.16575
 30
0.0
 40
0.0555543
 41
0.0555543
  0
VERTEX
  8
0
 10
3.9656
 20
3.08415
 30
0.0
 40
0.0555543
 41
0.0555543
  0
VERTEX
  8
0
 10
3.96067
 20
2.98519
 30
0.0
 40
0.0555543
 41
0.0555543
  0
VERTEX
  8
0
 10
3.92507
 20
2.90474
 30
0.0
 40
0.0555543
 41
0.0555543
  0
VERTEX
  8
0
 10
3.87944
 20
2.86143
 30
0.0
 40
0.0555543
 41
0.0555543
  0
VERTEX
  8
0
 10
3.86143
 20
2.85374
 30
0.0
 40
0.0555543
 41
0.0555543
  0
VERTEX
  8
0
 10
3.84754
 20
2.84787
 30
0.0
 40
0.0555543
 41
0.0555543
  0
VERTEX
  8
0
 10
3.80094
 20
2.84196
 30
0.0
 40
0.0555543
 41
0.0555543
  0
VERTEX
  8
0
 10
3.73822
 20
2.85406
 30
0.0
 40
0.0555543
 41
0.0555543
  0
VERTEX
  8
0
 10
3.67731
 20
2.88758
 30
0.0
 40
0.0555543
 41
0.0555543
  0
VERTEX
  8
0
 10
3.63433
 20
2.92563
 30
0.0
 40
0.0555543
 41
0.0555543
  0
VERTEX
  8
0
 10
3.62235
 20
2.94011
 30
0.0
 40
0.0555543
 41
0.0555543
  0
VERTEX
  8
0
 10
3.46533
 20
2.87349
 30
0.0
 40
0.0555543
 41
0.0555543
  0
VERTEX
  8
0
 10
3.45719
 20
2.87007
 30
0.0
 40
0.0555543
 41
0.0555543
  0
VERTEX
  8
0
 10
3.42953
 20
2.86751
 30
0.0
 40
0.0555543
 41
0.0555543
  0
VERTEX
  8
0
 10
3.39387
 20
2.87756
 30
0.0
 40
0.0555543
 41
0.0555543
  0
VERTEX
  8
0
 10
3.36257
 20
2.90142
 30
0.0
 40
0.0555543
 41
0.0555543
  0
VERTEX
  8
0
 10
3.34375
 20
2.92746
 30
0.0
 40
0.0555543
 41
0.0555543
  0
VERTEX
  8
0
 10
3.33968
 20
2.93707
 30
0.0
 40
0.0555543
 41
0.0555543
  0
VERTEX
  8
0
 10
3.33556
 20
2.94672
 30
0.0
 40
0.0555543
 41
0.0555543
  0
VERTEX
  8
0
 10
3.32992
 20
2.97835
 30
0.0
 40
0.0555543
 41
0.0555543
  0
VERTEX
  8
0
 10
3.33453
 20
3.01747
 30
0.0
 40
0.0555543
 41
0.0555543
  0
VERTEX
  8
0
 10
3.35206
 20
3.05003
 30
0.0
 40
0.0555543
 41
0.0555543
  0
VERTEX
  8
0
 10
3.37304
 20
3.06814
 30
0.0
 40
0.0555543
 41
0.0555543
  0
VERTEX
  8
0
 10
3.38118
 20
3.07156
 30
0.0
 40
0.0555543
 41
0.0555543
  0
SEQEND
 8
0
  0
POLYLINE
  8
0
 62
     250
 66
     1
 10
0
 20
0
 30
0.0
 40
3.99991
 41
3.99991
  0
VERTEX
  8
0
 10
3.53819
 20
3.13824
 30
0.0
 40
0.0555543
 41
0.0555543
  0
VERTEX
  8
0
 10
3.53965
 20
3.11942
 30
0.0
 40
0.0555543
 41
0.0555543
  0
VERTEX
  8
0
 10
3.56342
 20
3.03207
 30
0.0
 40
0.0555543
 41
0.0555543
  0
VERTEX
  8
0
 10
3.6096
 20
2.95421
 30
0.0
 40
0.0555543
 41
0.0555543
  0
VERTEX
  8
0
 10
3.62229
 20
2.94011
 30
0.0
 40
0.0555543
 41
0.0555543
  0
SEQEND
 8
0
  0
POLYLINE
  8
0
 62
     250
 66
     1
 10
0
 20
0
 30
0.0
 70
     1
 40
3.99991
 41
3.99991
  0
VERTEX
  8
0
 10
2.89828
 20
3.37532
 30
0.0
 40
0.0555543
 41
0.0555543
  0
VERTEX
  8
0
 10
3.00092
 20
3.5115
 30
0.0
 40
0.0555543
 41
0.0555543
  0
VERTEX
  8
0
 10
2.98969
 20
3.52675
 30
0.0
 40
0.0555543
 41
0.0555543
  0
VERTEX
  8
0
 10
2.96322
 20
3.57764
 30
0.0
 40
0.0555543
 41
0.0555543
  0
VERTEX
  8
0
 10
2.94542
 20
3.64486
 30
0.0
 40
0.0555543
 41
0.0555543
  0
VERTEX
  8
0
 10
2.94883
 20
3.70865
 30
0.0
 40
0.0555543
 41
0.0555543
  0
VERTEX
  8
0
 10
2.96588
 20
3.75244
 30
0.0
 40
0.0555543
 41
0.0555543
  0
VERTEX
  8
0
 10
2.97499
 20
3.76449
 30
0.0
 40
0.0555543
 41
0.0555543
  0
VERTEX
  8
0
 10
2.98676
 20
3.78017
 30
0.0
 40
0.0555543
 41
0.0555543
  0
VERTEX
  8
0
 10
3.03982
 20
3.81396
 30
0.0
 40
0.0555543
 41
0.0555543
  0
VERTEX
  8
0
 10
3.12646
 20
3.829
 30
0.0
 40
0.0555543
 41
0.0555543
  0
VERTEX
  8
0
 10
3.22368
 20
3.8099
 30
0.0
 40
0.0555543
 41
0.0555543
  0
VERTEX
  8
0
 10
3.29867
 20
3.77322
 30
0.0
 40
0.0555543
 41
0.0555543
  0
VERTEX
  8
0
 10
3.32047
 20
3.75678
 30
0.0
 40
0.0555543
 41
0.0555543
  0
VERTEX
  8
0
 10
3.34224
 20
3.7404
 30
0.0
 40
0.0555543
 41
0.0555543
  0
VERTEX
  8
0
 10
3.39811
 20
3.67844
 30
0.0
 40
0.0555543
 41
0.0555543
  0
VERTEX
  8
0
 10
3.44331
 20
3.59022
 30
0.0
 40
0.0555543
 41
0.0555543
  0
VERTEX
  8
0
 10
3.45275
 20
3.50282
 30
0.0
 40
0.0555543
 41
0.0555543
  0
VERTEX
  8
0
 10
3.4349
 20
3.44243
 30
0.0
 40
0.0555543
 41
0.0555543
  0
VERTEX
  8
0
 10
3.42312
 20
3.42676
 30
0.0
 40
0.0555543
 41
0.0555543
  0
VERTEX
  8
0
 10
3.41407
 20
3.41476
 30
0.0
 40
0.0555543
 41
0.0555543
  0
VERTEX
  8
0
 10
3.37663
 20
3.38629
 30
0.0
 40
0.0555543
 41
0.0555543
  0
VERTEX
  8
0
 10
3.31625
 20
3.3654
 30
0.0
 40
0.0555543
 41
0.0555543
  0
VERTEX
  8
0
 10
3.24675
 20
3.36404
 30
0.0
 40
0.0555543
 41
0.0555543
  0
VERTEX
  8
0
 10
3.19054
 20
3.37543
 30
0.0
 40
0.0555543
 41
0.0555543
  0
VERTEX
  8
0
 10
3.17285
 20
3.382
 30
0.0
 40
0.0555543
 41
0.0555543
  0
VERTEX
  8
0
 10
3.07021
 20
3.24576
 30
0.0
 40
0.0555543
 41
0.0555543
  0
VERTEX
  8
0
 10
3.06489
 20
3.23876
 30
0.0
 40
0.0555543
 41
0.0555543
  0
VERTEX
  8
0
 10
3.04215
 20
3.22276
 30
0.0
 40
0.0555543
 41
0.0555543
  0
VERTEX
  8
0
 10
3.00635
 20
3.2136
 30
0.0
 40
0.0555543
 41
0.0555543
  0
VERTEX
  8
0
 10
2.96724
 20
3.21864
 30
0.0
 40
0.0555543
 41
0.0555543
  0
VERTEX
  8
0
 10
2.93787
 20
3.23178
 30
0.0
 40
0.0555543
 41
0.0555543
  0
VERTEX
  8
0
 10
2.92958
 20
3.23801
 30
0.0
 40
0.0555543
 41
0.0555543
  0
VERTEX
  8
0
 10
2.92122
 20
3.24431
 30
0.0
 40
0.0555543
 41
0.0555543
  0
VERTEX
  8
0
 10
2.9005
 20
3.26893
 30
0.0
 40
0.0555543
 41
0.0555543
  0
VERTEX
  8
0
 10
2.88493
 20
3.30512
 30
0.0
 40
0.0555543
 41
0.0555543
  0
VERTEX
  8
0
 10
2.88379
 20
3.34207
 30
0.0
 40
0.0555543
 41
0.0555543
  0
VERTEX
  8
0
 10
2.89296
 20
3.36833
 30
0.0
 40
0.0555543
 41
0.0555543
  0
VERTEX
  8
0
 10
2.89828
 20
3.37532
 30
0.0
 40
0.0555543
 41
0.0555543
  0
SEQEND
 8
0
  0
POLYLINE
  8
0
 62
     250
 66
     1
 10
0
 20
0
 30
0.0
 40
3.99991
 41
3.99991
  0
VERTEX
  8
0
 10
3.00092
 20
3.5115
 30
0.0
 40
0.0555543
 41
0.0555543
  0
VERTEX
  8
0
 10
3.01161
 20
3.49593
 30
0.0
 40
0.0555543
 41
0.0555543
  0
VERTEX
  8
0
 10
3.0759
 20
3.43218
 30
0.0
 40
0.0555543
 41
0.0555543
  0
VERTEX
  8
0
 10
3.15479
 20
3.38786
 30
0.0
 40
0.0555543
 41
0.0555543
  0
VERTEX
  8
0
 10
3.17285
 20
3.382
 30
0.0
 40
0.0555543
 41
0.0555543
  0
SEQEND
 8
0
  0
POLYLINE
  8
0
 62
     250
 66
     1
 10
0
 20
0
 30
0.0
 70
     1
 40
3.99991
 41
3.99991
  0
VERTEX
  8
0
 10
2.4254
 20
3.6161
 30
0.0
 40
0.0555543
 41
0.0555543
  0
VERTEX
  8
0
 10
2.44618
 20
3.78537
 30
0.0
 40
0.0555543
 41
0.0555543
  0
VERTEX
  8
0
 10
2.42887
 20
3.79297
 30
0.0
 40
0.0555543
 41
0.0555543
  0
VERTEX
  8
0
 10
2.38049
 20
3.82383
 30
0.0
 40
0.0555543
 41
0.0555543
  0
VERTEX
  8
0
 10
2.33143
 20
3.87315
 30
0.0
 40
0.0555543
 41
0.0555543
  0
VERTEX
  8
0
 10
2.30251
 20
3.93012
 30
0.0
 40
0.0555543
 41
0.0555543
  0
VERTEX
  8
0
 10
2.29542
 20
3.97657
 30
0.0
 40
0.0555543
 41
0.0555543
  0
VERTEX
  8
0
 10
2.29725
 20
3.99149
 30
0.0
 40
0.0555543
 41
0.0555543
  0
VERTEX
  8
0
 10
2.29964
 20
4.01101
 30
0.0
 40
0.0555543
 41
0.0555543
  0
VERTEX
  8
0
 10
2.32867
 20
4.06679
 30
0.0
 40
0.0555543
 41
0.0555543
  0
VERTEX
  8
0
 10
2.39615
 20
4.1231
 30
0.0
 40
0.0555543
 41
0.0555543
  0
VERTEX
  8
0
 10
2.48996
 20
4.15517
 30
0.0
 40
0.0555543
 41
0.0555543
  0
VERTEX
  8
0
 10
2.57319
 20
4.16092
 30
0.0
 40
0.0555543
 41
0.0555543
  0
VERTEX
  8
0
 10
2.60032
 20
4.15756
 30
0.0
 40
0.0555543
 41
0.0555543
  0
VERTEX
  8
0
 10
2.62739
 20
4.15424
 30
0.0
 40
0.0555543
 41
0.0555543
  0
VERTEX
  8
0
 10
2.70676
 20
4.12853
 30
0.0
 40
0.0555543
 41
0.0555543
  0
VERTEX
  8
0
 10
2.78999
 20
4.07476
 30
0.0
 40
0.0555543
 41
0.0555543
  0
VERTEX
  8
0
 10
2.84185
 20
4.00375
 30
0.0
 40
0.0555543
 41
0.0555543
  0
VERTEX
  8
0
 10
2.85656
 20
3.9426
 30
0.0
 40
0.0555543
 41
0.0555543
  0
VERTEX
  8
0
 10
2.85417
 20
3.92307
 30
0.0
 40
0.0555543
 41
0.0555543
  0
VERTEX
  8
0
 10
2.85232
 20
3.90815
 30
0.0
 40
0.0555543
 41
0.0555543
  0
VERTEX
  8
0
 10
2.83415
 20
3.86481
 30
0.0
 40
0.0555543
 41
0.0555543
  0
VERTEX
  8
0
 10
2.79232
 20
3.81651
 30
0.0
 40
0.0555543
 41
0.0555543
  0
VERTEX
  8
0
 10
2.73281
 20
3.78054
 30
0.0
 40
0.0555543
 41
0.0555543
  0
VERTEX
  8
0
 10
2.67844
 20
3.76232
 30
0.0
 40
0.0555543
 41
0.0555543
  0
VERTEX
  8
0
 10
2.65983
 20
3.75917
 30
0.0
 40
0.0555543
 41
0.0555543
  0
VERTEX
  8
0
 10
2.63906
 20
3.58985
 30
0.0
 40
0.0555543
 41
0.0555543
  0
VERTEX
  8
0
 10
2.63797
 20
3.58111
 30
0.0
 40
0.0555543
 41
0.0555543
  0
VERTEX
  8
0
 10
2.62631
 20
3.55593
 30
0.0
 40
0.0555543
 41
0.0555543
  0
VERTEX
  8
0
 10
2.59983
 20
3.53011
 30
0.0
 40
0.0555543
 41
0.0555543
  0
VERTEX
  8
0
 10
2.56347
 20
3.51492
 30
0.0
 40
0.0555543
 41
0.0555543
  0
VERTEX
  8
0
 10
2.53147
 20
3.51161
 30
0.0
 40
0.0555543
 41
0.0555543
  0
VERTEX
  8
0
 10
2.52115
 20
3.51286
 30
0.0
 40
0.0555543
 41
0.0555543
  0
VERTEX
  8
0
 10
2.51074
 20
3.51417
 30
0.0
 40
0.0555543
 41
0.0555543
  0
VERTEX
  8
0
 10
2.48053
 20
3.52507
 30
0.0
 40
0.0555543
 41
0.0555543
  0
VERTEX
  8
0
 10
2.44894
 20
3.54861
 30
0.0
 40
0.0555543
 41
0.0555543
  0
VERTEX
  8
0
 10
2.42953
 20
3.58008
 30
0.0
 40
0.0555543
 41
0.0555543
  0
VERTEX
  8
0
 10
2.42432
 20
3.60736
 30
0.0
 40
0.0555543
 41
0.0555543
  0
VERTEX
  8
0
 10
2.4254
 20
3.6161
 30
0.0
 40
0.0555543
 41
0.0555543
  0
SEQEND
 8
0
  0
POLYLINE
  8
0
 62
     250
 66
     1
 10
0
 20
0
 30
0.0
 40
3.99991
 41
3.99991
  0
VERTEX
  8
0
 10
2.44618
 20
3.78537
 30
0.0
 40
0.0555543
 41
0.0555543
  0
VERTEX
  8
0
 10
2.46322
 20
3.77729
 30
0.0
 40
0.0555543
 41
0.0555543
  0
VERTEX
  8
0
 10
2.55078
 20
3.75418
 30
0.0
 40
0.0555543
 41
0.0555543
  0
VERTEX
  8
0
 10
2.64128
 20
3.75526
 30
0.0
 40
0.0555543
 41
0.0555543
  0
VERTEX
  8
0
 10
2.65983
 20
3.75917
 30
0.0
 40
0.0555543
 41
0.0555543
  0
SEQEND
 8
0
  0
POLYLINE
  8
0
 62
     250
 66
     1
 10
0
 20
0
 30
0.0
 70
     1
 40
3.99991
 41
3.99991
  0
VERTEX
  8
0
 10
2.29893
 20
2.71442
 30
0.0
 40
0.0555543
 41
0.0555543
  0
VERTEX
  8
0
 10
2.29779
 20
2.72265
 30
0.0
 40
0.0555543
 41
0.0555543
  0
VERTEX
  8
0
 10
2.28162
 20
2.72694
 30
0.0
 40
0.0555543
 41
0.0555543
  0
VERTEX
  8
0
 10
2.23579
 20
2.74946
 30
0.0
 40
0.0555543
 41
0.0555543
  0
VERTEX
  8
0
 10
2.18414
 20
2.79275
 30
0.0
 40
0.0555543
 41
0.0555543
  0
VERTEX
  8
0
 10
2.14643
 20
2.84993
 30
0.0
 40
0.0555543
 41
0.0555543
  0
VERTEX
  8
0
 10
2.12864
 20
2.90072
 30
0.0
 40
0.0555543
 41
0.0555543
  0
VERTEX
  8
0
 10
2.12625
 20
2.91808
 30
0.0
 40
0.0555543
 41
0.0555543
  0
VERTEX
  8
0
 10
2.12304
 20
2.94075
 30
0.0
 40
0.0555543
 41
0.0555543
  0
VERTEX
  8
0
 10
2.13146
 20
3.01133
 30
0.0
 40
0.0555543
 41
0.0555543
  0
VERTEX
  8
0
 10
2.17019
 20
3.09229
 30
0.0
 40
0.0555543
 41
0.0555543
  0
VERTEX
  8
0
 10
2.23606
 20
3.1525
 30
0.0
 40
0.0555543
 41
0.0555543
  0
VERTEX
  8
0
 10
2.3004
 20
3.18024
 30
0.0
 40
0.0555543
 41
0.0555543
  0
VERTEX
  8
0
 10
2.32269
 20
3.18332
 30
0.0
 40
0.0555543
 41
0.0555543
  0
VERTEX
  8
0
 10
2.345
 20
3.18647
 30
0.0
 40
0.0555543
 41
0.0555543
  0
VERTEX
  8
0
 10
2.4145
 20
3.17757
 30
0.0
 40
0.0555543
 41
0.0555543
  0
VERTEX
  8
0
 10
2.49436
 20
3.13786
 30
0.0
 40
0.0555543
 41
0.0555543
  0
VERTEX
  8
0
 10
2.55393
 20
3.07069
 30
0.0
 40
0.0555543
 41
0.0555543
  0
VERTEX
  8
0
 10
2.58149
 20
3.00515
 30
0.0
 40
0.0555543
 41
0.0555543
  0
VERTEX
  8
0
 10
2.58469
 20
2.98247
 30
0.0
 40
0.0555543
 41
0.0555543
  0
VERTEX
  8
0
 10
2.58712
 20
2.96511
 30
0.0
 40
0.0555543
 41
0.0555543
  0
VERTEX
  8
0
 10
2.58404
 20
2.9114
 30
0.0
 40
0.0555543
 41
0.0555543
  0
VERTEX
  8
0
 10
2.56353
 20
2.84608
 30
0.0
 40
0.0555543
 41
0.0555543
  0
VERTEX
  8
0
 10
2.52582
 20
2.79021
 30
0.0
 40
0.0555543
 41
0.0555543
  0
VERTEX
  8
0
 10
2.48796
 20
2.75597
 30
0.0
 40
0.0555543
 41
0.0555543
  0
VERTEX
  8
0
 10
2.47364
 20
2.7474
 30
0.0
 40
0.0555543
 41
0.0555543
  0
VERTEX
  8
0
 10
2.47483
 20
2.73915
 30
0.0
 40
0.0555543
 41
0.0555543
  0
VERTEX
  8
0
 10
2.47581
 20
2.73199
 30
0.0
 40
0.0555543
 41
0.0555543
  0
VERTEX
  8
0
 10
2.4719
 20
2.70942
 30
0.0
 40
0.0555543
 41
0.0555543
  0
VERTEX
  8
0
 10
2.45632
 20
2.68317
 30
0.0
 40
0.0555543
 41
0.0555543
  0
VERTEX
  8
0
 10
2.43061
 20
2.66331
 30
0.0
 40
0.0555543
 41
0.0555543
  0
VERTEX
  8
0
 10
2.40582
 20
2.65381
 30
0.0
 40
0.0555543
 41
0.0555543
  0
VERTEX
  8
0
 10
2.39729
 20
2.65261
 30
0.0
 40
0.0555543
 41
0.0555543
  0
VERTEX
  8
0
 10
2.38872
 20
2.65142
 30
0.0
 40
0.0555543
 41
0.0555543
  0
VERTEX
  8
0
 10
2.36231
 20
2.65369
 30
0.0
 40
0.0555543
 41
0.0555543
  0
VERTEX
  8
0
 10
2.33214
 20
2.66569
 30
0.0
 40
0.0555543
 41
0.0555543
  0
VERTEX
  8
0
 10
2.3099
 20
2.68664
 30
0.0
 40
0.0555543
 41
0.0555543
  0
VERTEX
  8
0
 10
2.29992
 20
2.70725
 30
0.0
 40
0.0555543
 41
0.0555543
  0
VERTEX
  8
0
 10
2.29893
 20
2.71442
 30
0.0
 40
0.0555543
 41
0.0555543
  0
SEQEND
 8
0
  0
POLYLINE
  8
0
 62
     250
 66
     1
 10
0
 20
0
 30
0.0
 40
3.99991
 41
3.99991
  0
VERTEX
  8
0
 10
2.29779
 20
2.72265
 30
0.0
 40
0.0555543
 41
0.0555543
  0
VERTEX
  8
0
 10
2.3131
 20
2.71983
 30
0.0
 40
0.0555543
 41
0.0555543
  0
VERTEX
  8
0
 10
2.38781
 20
2.72011
 30
0.0
 40
0.0555543
 41
0.0555543
  0
VERTEX
  8
0
 10
2.45969
 20
2.74029
 30
0.0
 40
0.0555543
 41
0.0555543
  0
VERTEX
  8
0
 10
2.47364
 20
2.7474
 30
0.0
 40
0.0555543
 41
0.0555543
  0
SEQEND
 8
0
  0
POLYLINE
  8
0
 62
     250
 66
     1
 10
0
 20
0
 30
0.0
 70
     1
 40
3.99991
 41
3.99991
  0
VERTEX
  8
0
 10
2.28326
 20
2.26432
 30
0.0
 40
0.0555543
 41
0.0555543
  0
VERTEX
  8
0
 10
2.27669
 20
2.25922
 30
0.0
 40
0.0555543
 41
0.0555543
  0
VERTEX
  8
0
 10
2.28103
 20
2.24311
 30
0.0
 40
0.0555543
 41
0.0555543
  0
VERTEX
  8
0
 10
2.2845
 20
2.19217
 30
0.0
 40
0.0555543
 41
0.0555543
  0
VERTEX
  8
0
 10
2.27279
 20
2.12576
 30
0.0
 40
0.0555543
 41
0.0555543
  0
VERTEX
  8
0
 10
2.24219
 20
2.06451
 30
0.0
 40
0.0555543
 41
0.0555543
  0
VERTEX
  8
0
 10
2.20708
 20
2.02376
 30
0.0
 40
0.0555543
 41
0.0555543
  0
VERTEX
  8
0
 10
2.19325
 20
2.01292
 30
0.0
 40
0.0555543
 41
0.0555543
  0
VERTEX
  8
0
 10
2.17518
 20
1.99886
 30
0.0
 40
0.0555543
 41
0.0555543
  0
VERTEX
  8
0
 10
2.10986
 20
1.97086
 30
0.0
 40
0.0555543
 41
0.0555543
  0
VERTEX
  8
0
 10
2.0204
 20
1.96392
 30
0.0
 40
0.0555543
 41
0.0555543
  0
VERTEX
  8
0
 10
1.93533
 20
1.99089
 30
0.0
 40
0.0555543
 41
0.0555543
  0
VERTEX
  8
0
 10
1.87912
 20
2.03271
 30
0.0
 40
0.0555543
 41
0.0555543
  0
VERTEX
  8
0
 10
1.86529
 20
2.05046
 30
0.0
 40
0.0555543
 41
0.0555543
  0
VERTEX
  8
0
 10
1.8514
 20
2.06825
 30
0.0
 40
0.0555543
 41
0.0555543
  0
VERTEX
  8
0
 10
1.82437
 20
2.13286
 30
0.0
 40
0.0555543
 41
0.0555543
  0
VERTEX
  8
0
 10
1.81885
 20
2.2219
 30
0.0
 40
0.0555543
 41
0.0555543
  0
VERTEX
  8
0
 10
1.84722
 20
2.30707
 30
0.0
 40
0.0555543
 41
0.0555543
  0
VERTEX
  8
0
 10
1.89014
 20
2.36372
 30
0.0
 40
0.0555543
 41
0.0555543
  0
VERTEX
  8
0
 10
1.90821
 20
2.37776
 30
0.0
 40
0.0555543
 41
0.0555543
  0
VERTEX
  8
0
 10
1.92204
 20
2.38861
 30
0.0
 40
0.0555543
 41
0.0555543
  0
VERTEX
  8
0
 10
1.97011
 20
2.41282
 30
0.0
 40
0.0555543
 41
0.0555543
  0
VERTEX
  8
0
 10
2.03694
 20
2.42768
 30
0.0
 40
0.0555543
 41
0.0555543
  0
VERTEX
  8
0
 10
2.10417
 20
2.42296
 30
0.0
 40
0.0555543
 41
0.0555543
  0
VERTEX
  8
0
 10
2.15278
 20
2.40728
 30
0.0
 40
0.0555543
 41
0.0555543
  0
VERTEX
  8
0
 10
2.16737
 20
2.39914
 30
0.0
 40
0.0555543
 41
0.0555543
  0
VERTEX
  8
0
 10
2.17393
 20
2.40424
 30
0.0
 40
0.0555543
 41
0.0555543
  0
VERTEX
  8
0
 10
2.17964
 20
2.40875
 30
0.0
 40
0.0555543
 41
0.0555543
  0
VERTEX
  8
0
 10
2.20111
 20
2.41667
 30
0.0
 40
0.0555543
 41
0.0555543
  0
VERTEX
  8
0
 10
2.23167
 20
2.41629
 30
0.0
 40
0.0555543
 41
0.0555543
  0
VERTEX
  8
0
 10
2.26172
 20
2.40397
 30
0.0
 40
0.0555543
 41
0.0555543
  0
VERTEX
  8
0
 10
2.28233
 20
2.38726
 30
0.0
 40
0.0555543
 41
0.0555543
  0
VERTEX
  8
0
 10
2.28765
 20
2.38043
 30
0.0
 40
0.0555543
 41
0.0555543
  0
VERTEX
  8
0
 10
2.29292
 20
2.37364
 30
0.0
 40
0.0555543
 41
0.0555543
  0
VERTEX
  8
0
 10
2.30419
 20
2.34967
 30
0.0
 40
0.0555543
 41
0.0555543
  0
VERTEX
  8
0
 10
2.30886
 20
2.31749
 30
0.0
 40
0.0555543
 41
0.0555543
  0
VERTEX
  8
0
 10
2.30181
 20
2.28782
 30
0.0
 40
0.0555543
 41
0.0555543
  0
VERTEX
  8
0
 10
2.28896
 20
2.26882
 30
0.0
 40
0.0555543
 41
0.0555543
  0
VERTEX
  8
0
 10
2.28326
 20
2.26432
 30
0.0
 40
0.0555543
 41
0.0555543
  0
SEQEND
 8
0
  0
POLYLINE
  8
0
 62
     250
 66
     1
 10
0
 20
0
 30
0.0
 40
3.99991
 41
3.99991
  0
VERTEX
  8
0
 10
2.27669
 20
2.25922
 30
0.0
 40
0.0555543
 41
0.0555543
  0
VERTEX
  8
0
 10
2.27149
 20
2.27393
 30
0.0
 40
0.0555543
 41
0.0555543
  0
VERTEX
  8
0
 10
2.23389
 20
2.33849
 30
0.0
 40
0.0555543
 41
0.0555543
  0
VERTEX
  8
0
 10
2.1805
 20
2.39063
 30
0.0
 40
0.0555543
 41
0.0555543
  0
VERTEX
  8
0
 10
2.16737
 20
2.39914
 30
0.0
 40
0.0555543
 41
0.0555543
  0
SEQEND
 8
0
  0
POLYLINE
  8
0
 62
     250
 66
     1
 10
0
 20
0
 30
0.0
 70
     1
 40
3.99991
 41
3.99991
  0
VERTEX
  8
0
 10
2.68093
 20
2.47581
 30
0.0
 40
0.0555543
 41
0.0555543
  0
VERTEX
  8
0
 10
2.68858
 20
2.47265
 30
0.0
 40
0.0555543
 41
0.0555543
  0
VERTEX
  8
0
 10
2.70036
 20
2.48449
 30
0.0
 40
0.0555543
 41
0.0555543
  0
VERTEX
  8
0
 10
2.74274
 20
2.51297
 30
0.0
 40
0.0555543
 41
0.0555543
  0
VERTEX
  8
0
 10
2.8061
 20
2.53608
 30
0.0
 40
0.0555543
 41
0.0555543
  0
VERTEX
  8
0
 10
2.87446
 20
2.54021
 30
0.0
 40
0.0555543
 41
0.0555543
  0
VERTEX
  8
0
 10
2.92731
 20
2.53017
 30
0.0
 40
0.0555543
 41
0.0555543
  0
VERTEX
  8
0
 10
2.94362
 20
2.52354
 30
0.0
 40
0.0555543
 41
0.0555543
  0
VERTEX
  8
0
 10
2.96485
 20
2.51503
 30
0.0
 40
0.0555543
 41
0.0555543
  0
VERTEX
  8
0
 10
3.02171
 20
2.47239
 30
0.0
 40
0.0555543
 41
0.0555543
  0
VERTEX
  8
0
 10
3.07249
 20
2.39839
 30
0.0
 40
0.0555543
 41
0.0555543
  0
VERTEX
  8
0
 10
3.09169
 20
2.31125
 30
0.0
 40
0.0555543
 41
0.0555543
  0
VERTEX
  8
0
 10
3.0835
 20
2.24164
 30
0.0
 40
0.0555543
 41
0.0555543
  0
VERTEX
  8
0
 10
3.07508
 20
2.22076
 30
0.0
 40
0.0555543
 41
0.0555543
  0
VERTEX
  8
0
 10
3.06662
 20
2.19993
 30
0.0
 40
0.0555543
 41
0.0555543
  0
VERTEX
  8
0
 10
3.02414
 20
2.14415
 30
0.0
 40
0.0555543
 41
0.0555543
  0
VERTEX
  8
0
 10
2.94982
 20
2.09483
 30
0.0
 40
0.0555543
 41
0.0555543
  0
VERTEX
  8
0
 10
2.86187
 20
2.07688
 30
0.0
 40
0.0555543
 41
0.0555543
  0
VERTEX
  8
0
 10
2.79139
 20
2.08572
 30
0.0
 40
0.0555543
 41
0.0555543
  0
VERTEX
  8
0
 10
2.77018
 20
2.09429
 30
0.0
 40
0.0555543
 41
0.0555543
  0
VERTEX
  8
0
 10
2.75385
 20
2.10092
 30
0.0
 40
0.0555543
 41
0.0555543
  0
VERTEX
  8
0
 10
2.70888
 20
2.13037
 30
0.0
 40
0.0555543
 41
0.0555543
  0
VERTEX
  8
0
 10
2.6626
 20
2.18083
 30
0.0
 40
0.0555543
 41
0.0555543
  0
VERTEX
  8
0
 10
2.63303
 20
2.24143
 30
0.0
 40
0.0555543
 41
0.0555543
  0
VERTEX
  8
0
 10
2.62229
 20
2.29135
 30
0.0
 40
0.0555543
 41
0.0555543
  0
VERTEX
  8
0
 10
2.62207
 20
2.308
 30
0.0
 40
0.0555543
 41
0.0555543
  0
VERTEX
  8
0
 10
2.61436
 20
2.31114
 30
0.0
 40
0.0555543
 41
0.0555543
  0
VERTEX
  8
0
 10
2.60758
 20
2.31386
 30
0.0
 40
0.0555543
 41
0.0555543
  0
VERTEX
  8
0
 10
2.59
 20
2.32856
 30
0.0
 40
0.0555543
 41
0.0555543
  0
VERTEX
  8
0
 10
2.57508
 20
2.35514
 30
0.0
 40
0.0555543
 41
0.0555543
  0
VERTEX
  8
0
 10
2.57075
 20
2.38738
 30
0.0
 40
0.0555543
 41
0.0555543
  0
VERTEX
  8
0
 10
2.57493
 20
2.41357
 30
0.0
 40
0.0555543
 41
0.0555543
  0
VERTEX
  8
0
 10
2.57818
 20
2.42156
 30
0.0
 40
0.0555543
 41
0.0555543
  0
VERTEX
  8
0
 10
2.58137
 20
2.42958
 30
0.0
 40
0.0555543
 41
0.0555543
  0
VERTEX
  8
0
 10
2.59651
 20
2.45133
 30
0.0
 40
0.0555543
 41
0.0555543
  0
VERTEX
  8
0
 10
2.62207
 20
2.47146
 30
0.0
 40
0.0555543
 41
0.0555543
  0
VERTEX
  8
0
 10
2.65132
 20
2.48019
 30
0.0
 40
0.0555543
 41
0.0555543
  0
VERTEX
  8
0
 10
2.67415
 20
2.47851
 30
0.0
 40
0.0555543
 41
0.0555543
  0
VERTEX
  8
0
 10
2.68093
 20
2.47581
 30
0.0
 40
0.0555543
 41
0.0555543
  0
SEQEND
 8
0
  0
POLYLINE
  8
0
 62
     250
 66
     1
 10
0
 20
0
 30
0.0
 40
3.99991
 41
3.99991
  0
VERTEX
  8
0
 10
2.68858
 20
2.47265
 30
0.0
 40
0.0555543
 41
0.0555543
  0
VERTEX
  8
0
 10
2.67844
 20
2.46083
 30
0.0
 40
0.0555543
 41
0.0555543
  0
VERTEX
  8
0
 10
2.64133
 20
2.396
 30
0.0
 40
0.0555543
 41
0.0555543
  0
VERTEX
  8
0
 10
2.62289
 20
2.32368
 30
0.0
 40
0.0555543
 41
0.0555543
  0
VERTEX
  8
0
 10
2.62207
 20
2.308
 30
0.0
 40
0.0555543
 41
0.0555543
  0
SEQEND
 8
0
  0
ENDSEC
  0
EOF
