  0
SECTION
  2
HEADER
  9
$ACADVER
  1
AC1006
  9
$EXTMIN
 10
0.000000
 20
0.000000
 30
0.000000
  9
$EXTMAX
 10
400.000000
 20
300.000000
 30
0.000000
  0
ENDSEC
  0
SECTION
  2
ENTITIES
  0
POLYLINE
  8
0
 66
1
 70
1
  0
VERTEX
  8
0
 10
59.420274
 20
237.114510
 42
0.130004
  0
VERTEX
  8
0
 10
49.727079
 20
227.010387
 42
0.051042
  0
VERTEX
  8
0
 10
42.076931
 20
209.120479
 42
0.051025
  0
VERTEX
  8
0
 10
38.254817
 20
190.278404
 42
0.146352
  0
VERTEX
  8
0
 10
40.782508
 20
177.307932
 42
0.107450
  0
VERTEX
  8
0
 10
46.250304
 20
170.779162
 42
0.102620
  0
VERTEX
  8
0
 10
54.022541
 20
166.976643
 42
0.094862
  0
VERTEX
  8
0
 10
63.192224
 20
166.413612
 42
0.078051
  0
VERTEX
  8
0
 10
72.621025
 20
169.161893
 42
0.060882
  0
VERTEX
  8
0
 10
78.742209
 20
173.008278
 42
0.027056
  0
VERTEX
  8
0
 10
85.814461
 20
179.423641
 42
0.019010
  0
VERTEX
  8
0
 10
91.892873
 20
186.054610
 42
0.390549
  0
VERTEX
  8
0
 10
91.791507
 20
188.541827
 42
0.377678
  0
VERTEX
  8
0
 10
91.381816
 20
188.567740
 42
0.008089
  0
VERTEX
  8
0
 10
89.681422
 20
187.206019
 42
0.014442
  0
VERTEX
  8
0
 10
87.664477
 20
185.435935
 42
0.008713
  0
VERTEX
  8
0
 10
85.373333
 20
183.229301
 42
-0.061728
  0
VERTEX
  8
0
 10
75.332506
 20
175.424680
 42
-0.090271
  0
VERTEX
  8
0
 10
64.869037
 20
171.517394
 42
-0.112408
  0
VERTEX
  8
0
 10
55.407417
 20
171.958089
 42
-0.145985
  0
VERTEX
  8
0
 10
48.092064
 20
176.547926
 42
-0.085891
  0
VERTEX
  8
0
 10
44.816612
 20
181.900265
 42
-0.077902
  0
VERTEX
  8
0
 10
43.386166
 20
188.228070
 42
-0.057985
  0
VERTEX
  8
0
 10
43.778421
 20
196.225161
 42
-0.024168
  0
VERTEX
  8
0
 10
46.067352
 20
206.799182
 42
-0.036119
  0
VERTEX
  8
0
 10
49.540434
 20
216.817382
 42
-0.047578
  0
VERTEX
  8
0
 10
54.182551
 20
225.294509
 42
-0.056086
  0
VERTEX
  8
0
 10
59.222159
 20
231.179824
 42
-0.189884
  0
VERTEX
  8
0
 10
63.842204
 20
233.000000
 42
-0.078580
  0
VERTEX
  8
0
 10
66.903118
 20
232.515960
 42
-0.142531
  0
VERTEX
  8
0
 10
68.982739
 20
231.102875
 42
-0.112013
  0
VERTEX
  8
0
 10
70.289696
 20
228.515341
 42
-0.038286
  0
VERTEX
  8
0
 10
70.997355
 20
224.344963
 42
0.000000
  0
VERTEX
  8
0
 10
71.533965
 20
218.500000
 42
0.000000
  0
VERTEX
  8
0
 10
73.360774
 20
221.881714
 42
0.085158
  0
VERTEX
  8
0
 10
74.636707
 20
225.663645
 42
0.081388
  0
VERTEX
  8
0
 10
74.608577
 20
229.717052
 42
0.082839
  0
VERTEX
  8
0
 10
73.297249
 20
233.488059
 42
0.093100
  0
VERTEX
  8
0
 10
70.868409
 20
236.457273
 42
0.066478
  0
VERTEX
  8
0
 10
68.150803
 20
238.186718
 42
0.094438
  0
VERTEX
  8
0
 10
65.379852
 20
238.881478
 42
0.091836
  0
VERTEX
  8
0
 10
62.490002
 20
238.515972
 42
0.059727
  0
SEQEND
  0
POLYLINE
  8
0
 66
1
 70
1
  0
VERTEX
  8
0
 10
122.289910
 20
237.490508
 42
0.075006
  0
VERTEX
  8
0
 10
118.525495
 20
233.907275
 42
0.013654
  0
VERTEX
  8
0
 10
112.811536
 20
226.119822
 42
0.015549
  0
VERTEX
  8
0
 10
107.141706
 20
217.363209
 42
0.024670
  0
VERTEX
  8
0
 10
102.905203
 20
209.500000
 42
0.015422
  0
VERTEX
  8
0
 10
99.639654
 20
202.068350
 42
0.019933
  0
VERTEX
  8
0
 10
97.131955
 20
195.053152
 42
0.022113
  0
VERTEX
  8
0
 10
95.502371
 20
188.908421
 42
0.053806
  0
VERTEX
  8
0
 10
95.000000
 20
184.253539
 42
0.101396
  0
VERTEX
  8
0
 10
95.675694
 20
180.955844
 42
0.066263
  0
VERTEX
  8
0
 10
97.666972
 20
177.607634
 42
0.056626
  0
VERTEX
  8
0
 10
100.833834
 20
174.419168
 42
0.040560
  0
VERTEX
  8
0
 10
105.000000
 20
171.601904
 42
0.020280
  0
VERTEX
  8
0
 10
108.285608
 20
169.920671
 42
0.049955
  0
VERTEX
  8
0
 10
110.843981
 20
169.036984
 42
0.044978
  0
VERTEX
  8
0
 10
113.681784
 20
168.628804
 42
0.013917
  0
VERTEX
  8
0
 10
118.000000
 20
168.520266
 42
0.033155
  0
VERTEX
  8
0
 10
124.430269
 20
168.964582
 42
0.042667
  0
VERTEX
  8
0
 10
130.209108
 20
170.260212
 42
0.040667
  0
VERTEX
  8
0
 10
135.895527
 20
172.578564
 42
0.026350
  0
VERTEX
  8
0
 10
142.059599
 20
176.116917
 42
0.040370
  0
VERTEX
  8
0
 10
151.599986
 20
183.437360
 42
0.059574
  0
VERTEX
  8
0
 10
158.525298
 20
191.387639
 42
0.066142
  0
VERTEX
  8
0
 10
162.879166
 20
200.055095
 42
0.067433
  0
VERTEX
  8
0
 10
164.781804
 20
209.501719
 42
0.055943
  0
VERTEX
  8
0
 10
164.442248
 20
216.617805
 42
0.091460
  0
VERTEX
  8
0
 10
162.423739
 20
222.290432
 42
0.090948
  0
VERTEX
  8
0
 10
158.504056
 20
226.890837
 42
0.054780
  0
VERTEX
  8
0
 10
152.468275
 20
230.796117
 42
0.043037
  0
VERTEX
  8
0
 10
148.541566
 20
232.359068
 42
0.020209
  0
VERTEX
  8
0
 10
143.245266
 20
233.724837
 42
0.020152
  0
VERTEX
  8
0
 10
137.697891
 20
234.686580
 42
0.032853
  0
VERTEX
  8
0
 10
132.932972
 20
235.000000
 42
-0.025337
  0
VERTEX
  8
0
 10
131.071010
 20
235.094414
 42
-0.085458
  0
VERTEX
  8
0
 10
129.901143
 20
235.420487
 42
-0.126714
  0
VERTEX
  8
0
 10
129.165478
 20
236.033135
 42
-0.092392
  0
VERTEX
  8
0
 10
128.710251
 20
237.000000
 42
0.157385
  0
VERTEX
  8
0
 10
127.861955
 20
238.329340
 42
0.154806
  0
VERTEX
  8
0
 10
126.390735
 20
238.922816
 42
0.111600
  0
VERTEX
  8
0
 10
124.438705
 20
238.635717
 42
0.060750
  0
SEQEND
  0
POLYLINE
  8
0
 66
1
 70
1
  0
VERTEX
  8
0
 10
127.564761
 20
232.104785
 42
0.373759
  0
VERTEX
  8
0
 10
127.709903
 20
231.215523
 42
0.111384
  0
VERTEX
  8
0
 10
129.038651
 20
230.537570
 42
0.047649
  0
VERTEX
  8
0
 10
131.724855
 20
230.118635
 42
0.014627
  0
VERTEX
  8
0
 10
135.831787
 20
229.994423
 42
-0.090095
  0
VERTEX
  8
0
 10
149.118670
 20
227.567159
 42
-0.158374
  0
VERTEX
  8
0
 10
157.755651
 20
220.660524
 42
-0.163823
  0
VERTEX
  8
0
 10
160.511625
 20
210.189541
 42
-0.097828
  0
VERTEX
  8
0
 10
157.136797
 20
197.626309
 42
-0.106199
  0
VERTEX
  8
0
 10
146.927012
 20
184.714699
 42
-0.086002
  0
VERTEX
  8
0
 10
131.553127
 20
175.942003
 42
-0.096770
  0
VERTEX
  8
0
 10
115.774130
 20
173.492331
 42
-0.188817
  0
VERTEX
  8
0
 10
104.284329
 20
178.515671
 42
-0.027196
  0
VERTEX
  8
0
 10
102.528358
 20
180.473808
 42
-0.073711
  0
VERTEX
  8
0
 10
101.588672
 20
182.079487
 42
-0.071688
  0
VERTEX
  8
0
 10
101.141077
 20
183.914888
 42
-0.024712
  0
VERTEX
  8
0
 10
101.013378
 20
186.650000
 42
-0.039051
  0
VERTEX
  8
0
 10
101.212513
 20
189.108546
 42
-0.014671
  0
VERTEX
  8
0
 10
101.859499
 20
192.505213
 42
-0.014222
  0
VERTEX
  8
0
 10
102.797001
 20
196.238946
 42
-0.015127
  0
VERTEX
  8
0
 10
103.928378
 20
199.836429
 42
-0.037023
  0
VERTEX
  8
0
 10
108.549003
 20
210.497793
 42
-0.026781
  0
VERTEX
  8
0
 10
115.170589
 20
221.631819
 42
-0.020752
  0
VERTEX
  8
0
 10
122.045008
 20
231.029168
 42
-0.228277
  0
VERTEX
  8
0
 10
126.136823
 20
233.000000
 42
-0.044194
  0
VERTEX
  8
0
 10
126.857524
 20
232.936175
 42
-0.096126
  0
VERTEX
  8
0
 10
127.373529
 20
232.737031
 42
-0.174286
  0
VERTEX
  8
0
 10
127.604349
 20
232.443099
 42
-0.222090
  0
SEQEND
  0
POLYLINE
  8
0
 66
1
 70
1
  0
VERTEX
  8
0
 10
223.575844
 20
236.750000
 42
0.062232
  0
VERTEX
  8
0
 10
221.307896
 20
232.108359
 42
0.006937
  0
VERTEX
  8
0
 10
217.637561
 20
220.894576
 42
0.008184
  0
VERTEX
  8
0
 10
213.591226
 20
207.138166
 42
0.005992
  0
VERTEX
  8
0
 10
209.534740
 20
191.748392
 42
-0.001326
  0
VERTEX
  8
0
 10
207.509396
 20
183.762867
 42
-0.002135
  0
VERTEX
  8
0
 10
205.736413
 20
176.970006
 42
-0.000357
  0
VERTEX
  8
0
 10
204.138641
 20
170.970931
 42
-0.131854
  0
VERTEX
  8
0
 10
203.912884
 20
170.579550
 42
-0.525240
  0
VERTEX
  8
0
 10
203.652530
 20
170.627431
 42
-0.000760
  0
VERTEX
  8
0
 10
201.290068
 20
175.915727
 42
-0.004176
  0
VERTEX
  8
0
 10
198.639381
 20
182.010042
 42
-0.002463
  0
VERTEX
  8
0
 10
195.570051
 20
189.331159
 42
0.003976
  0
VERTEX
  8
0
 10
189.249187
 20
204.281011
 42
0.007447
  0
VERTEX
  8
0
 10
183.861872
 20
216.252780
 42
0.005025
  0
VERTEX
  8
0
 10
179.363471
 20
225.617766
 42
0.105444
  0
VERTEX
  8
0
 10
177.453754
 20
228.038380
 42
0.073545
  0
VERTEX
  8
0
 10
176.718310
 20
228.485145
 42
0.100411
  0
VERTEX
  8
0
 10
175.960219
 20
228.637967
 42
0.084199
  0
VERTEX
  8
0
 10
175.104227
 20
228.491706
 42
0.038560
  0
VERTEX
  8
0
 10
174.063922
 20
228.034210
 42
0.114964
  0
VERTEX
  8
0
 10
172.671605
 20
226.812265
 42
0.136863
  0
VERTEX
  8
0
 10
172.075005
 20
225.175413
 42
0.133386
  0
VERTEX
  8
0
 10
172.405867
 20
223.433691
 42
0.106687
  0
VERTEX
  8
0
 10
173.589676
 20
221.925575
 42
-0.100082
  0
VERTEX
  8
0
 10
175.808777
 20
219.173384
 42
-0.006227
  0
VERTEX
  8
0
 10
180.541374
 20
209.778092
 42
-0.008516
  0
VERTEX
  8
0
 10
186.113303
 20
197.854034
 42
-0.005001
  0
VERTEX
  8
0
 10
192.391349
 20
183.413548
 42
0.002507
  0
VERTEX
  8
0
 10
198.060633
 20
170.193364
 42
0.026484
  0
VERTEX
  8
0
 10
200.683291
 20
164.940658
 42
0.082353
  0
VERTEX
  8
0
 10
202.545045
 20
162.640156
 42
0.280124
  0
VERTEX
  8
0
 10
204.364044
 20
162.309455
 42
0.156680
  0
VERTEX
  8
0
 10
205.847367
 20
163.502208
 42
0.059877
  0
VERTEX
  8
0
 10
207.045150
 20
165.900998
 42
0.024632
  0
VERTEX
  8
0
 10
208.406443
 20
170.393114
 42
0.002932
  0
VERTEX
  8
0
 10
210.870402
 20
180.500000
 42
-0.007604
  0
VERTEX
  8
0
 10
215.878288
 20
200.238399
 42
-0.013314
  0
VERTEX
  8
0
 10
220.703986
 20
216.391640
 42
-0.011632
  0
VERTEX
  8
0
 10
225.105817
 20
228.827778
 42
-0.123199
  0
VERTEX
  8
0
 10
228.157739
 20
233.207291
 42
0.037669
  0
VERTEX
  8
0
 10
229.111572
 20
234.174421
 42
0.119677
  0
VERTEX
  8
0
 10
229.515950
 20
234.980547
 42
0.131067
  0
VERTEX
  8
0
 10
229.486857
 20
235.837990
 42
0.049247
  0
VERTEX
  8
0
 10
229.022857
 20
236.957291
 42
0.094011
  0
VERTEX
  8
0
 10
227.837687
 20
238.426285
 42
0.187786
  0
VERTEX
  8
0
 10
226.448444
 20
238.907124
 42
0.167388
  0
VERTEX
  8
0
 10
224.980201
 20
238.338088
 42
0.072768
  0
SEQEND
  0
POLYLINE
  8
0
 66
1
 70
1
  0
VERTEX
  8
0
 10
313.699153
 20
238.104585
 42
0.027768
  0
VERTEX
  8
0
 10
310.757164
 20
237.307589
 42
0.101713
  0
VERTEX
  8
0
 10
309.092749
 20
236.348399
 42
0.176662
  0
VERTEX
  8
0
 10
308.434207
 20
235.130081
 42
0.128764
  0
VERTEX
  8
0
 10
308.605123
 20
233.586649
 42
0.074696
  0
VERTEX
  8
0
 10
309.037438
 20
232.823695
 42
0.136382
  0
VERTEX
  8
0
 10
309.609277
 20
232.402305
 42
0.119762
  0
VERTEX
  8
0
 10
310.372046
 20
232.306004
 42
0.050535
  0
VERTEX
  8
0
 10
311.387906
 20
232.526552
 42
-0.064462
  0
VERTEX
  8
0
 10
316.518463
 20
233.492127
 42
-0.013972
  0
VERTEX
  8
0
 10
325.551145
 20
233.757192
 42
-0.015371
  0
VERTEX
  8
0
 10
335.131681
 20
233.475961
 42
-0.027810
  0
VERTEX
  8
0
 10
342.923172
 20
232.570512
 42
-0.016284
  0
VERTEX
  8
0
 10
351.397420
 20
230.818610
 42
-0.050755
  0
VERTEX
  8
0
 10
356.888882
 20
228.889362
 42
-0.078368
  0
VERTEX
  8
0
 10
360.446540
 20
226.477893
 42
-0.105041
  0
VERTEX
  8
0
 10
362.670774
 20
223.291290
 42
-0.030656
  0
VERTEX
  8
0
 10
363.448473
 20
221.084158
 42
-0.055958
  0
VERTEX
  8
0
 10
363.763063
 20
219.202787
 42
-0.047693
  0
VERTEX
  8
0
 10
363.676102
 20
217.105249
 42
-0.016744
  0
VERTEX
  8
0
 10
363.164814
 20
214.130893
 42
-0.052775
  0
VERTEX
  8
0
 10
361.463575
 20
208.804794
 42
-0.044073
  0
VERTEX
  8
0
 10
358.601390
 20
203.599229
 42
-0.035987
  0
VERTEX
  8
0
 10
354.304934
 20
198.094584
 42
-0.018489
  0
VERTEX
  8
0
 10
348.200629
 20
191.820252
 42
-0.020633
  0
VERTEX
  8
0
 10
342.055674
 20
186.420926
 42
-0.011645
  0
VERTEX
  8
0
 10
334.195073
 20
180.366110
 42
-0.006004
  0
VERTEX
  8
0
 10
326.379876
 20
174.774324
 42
-0.153449
  0
VERTEX
  8
0
 10
323.916223
 20
174.000000
 42
-0.413576
  0
VERTEX
  8
0
 10
323.032508
 20
174.881795
 42
-0.000681
  0
VERTEX
  8
0
 10
323.013050
 20
198.803100
 42
-0.002289
  0
VERTEX
  8
0
 10
323.127823
 20
221.191746
 42
-0.067501
  0
VERTEX
  8
0
 10
323.945224
 20
226.809006
 42
0.019257
  0
VERTEX
  8
0
 10
324.368705
 20
228.533601
 42
0.087734
  0
VERTEX
  8
0
 10
324.396758
 20
229.562415
 42
0.156697
  0
VERTEX
  8
0
 10
324.069330
 20
230.225575
 42
0.109155
  0
VERTEX
  8
0
 10
323.367682
 20
230.689149
 42
0.112834
  0
VERTEX
  8
0
 10
322.661893
 20
230.789826
 42
0.061503
  0
VERTEX
  8
0
 10
321.800945
 20
230.610028
 42
0.056525
  0
VERTEX
  8
0
 10
320.925341
 20
230.196034
 42
0.057900
  0
VERTEX
  8
0
 10
320.172459
 20
229.599238
 42
0.164371
  0
VERTEX
  8
0
 10
319.209713
 20
227.651330
 42
0.020884
  0
VERTEX
  8
0
 10
318.776177
 20
222.923487
 42
0.011131
  0
VERTEX
  8
0
 10
318.548105
 20
214.607978
 42
0.001290
  0
VERTEX
  8
0
 10
318.500000
 20
195.962923
 42
0.001711
  0
VERTEX
  8
0
 10
318.554082
 20
180.158731
 42
0.007673
  0
VERTEX
  8
0
 10
318.759392
 20
170.907898
 42
0.004760
  0
VERTEX
  8
0
 10
319.055994
 20
164.609502
 42
0.397634
  0
VERTEX
  8
0
 10
319.700310
 20
164.000428
 42
0.087713
  0
VERTEX
  8
0
 10
320.218476
 20
164.091842
 42
0.052259
  0
VERTEX
  8
0
 10
320.782938
 20
164.367313
 42
0.050250
  0
VERTEX
  8
0
 10
321.305424
 20
164.771865
 42
0.060670
  0
VERTEX
  8
0
 10
321.700310
 20
165.250000
 42
-0.086500
  0
VERTEX
  8
0
 10
322.371072
 20
165.982093
 42
-0.004601
  0
VERTEX
  8
0
 10
324.901848
 20
167.895312
 42
-0.007112
  0
VERTEX
  8
0
 10
327.979422
 20
170.110561
 42
-0.005111
  0
VERTEX
  8
0
 10
331.476195
 20
172.500000
 42
0.019306
  0
VERTEX
  8
0
 10
335.705039
 20
175.569301
 42
0.008310
  0
VERTEX
  8
0
 10
341.111528
 20
179.968750
 42
0.008208
  0
VERTEX
  8
0
 10
346.719937
 20
184.849084
 42
0.010746
  0
VERTEX
  8
0
 10
351.672461
 20
189.500000
 42
0.015500
  0
VERTEX
  8
0
 10
359.469642
 20
197.633265
 42
0.044555
  0
VERTEX
  8
0
 10
364.161640
 20
203.879440
 42
0.058780
  0
VERTEX
  8
0
 10
366.927670
 20
209.788854
 42
0.047872
  0
VERTEX
  8
0
 10
368.485513
 20
216.605197
 42
0.098927
  0
VERTEX
  8
0
 10
367.972870
 20
224.110811
 42
0.148813
  0
VERTEX
  8
0
 10
364.508115
 20
229.626577
 42
0.099469
  0
VERTEX
  8
0
 10
357.314048
 20
233.709290
 42
0.029340
  0
VERTEX
  8
0
 10
345.000000
 20
236.975068
 42
0.030726
  0
VERTEX
  8
0
 10
338.300834
 20
237.913285
 42
0.010411
  0
VERTEX
  8
0
 10
328.469949
 20
238.473181
 42
0.009223
  0
VERTEX
  8
0
 10
318.815173
 20
238.643367
 42
0.052100
  0
SEQEND
  0
POLYLINE
  8
0
 66
1
 70
1
  0
VERTEX
  8
0
 10
293.500000
 20
225.541085
 42
-0.046602
  0
VERTEX
  8
0
 10
291.726328
 20
224.963954
 42
-0.008382
  0
VERTEX
  8
0
 10
288.321473
 20
224.257140
 42
-0.008979
  0
VERTEX
  8
0
 10
284.291595
 20
223.565537
 42
-0.008013
  0
VERTEX
  8
0
 10
280.083736
 20
222.989795
 42
-0.003721
  0
VERTEX
  8
0
 10
273.624146
 20
222.259914
 42
-0.039551
  0
VERTEX
  8
0
 10
270.980158
 20
222.191121
 42
-0.107212
  0
VERTEX
  8
0
 10
269.451446
 20
222.608706
 42
-0.113397
  0
VERTEX
  8
0
 10
268.268895
 20
223.617137
 42
0.024326
  0
VERTEX
  8
0
 10
267.355700
 20
224.729207
 42
0.241980
  0
VERTEX
  8
0
 10
266.808426
 20
224.935082
 42
0.181037
  0
VERTEX
  8
0
 10
266.224200
 20
224.635944
 42
0.013118
  0
VERTEX
  8
0
 10
265.018021
 20
223.241546
 42
-0.101845
  0
VERTEX
  8
0
 10
263.438218
 20
221.961686
 42
-0.081148
  0
VERTEX
  8
0
 10
261.348871
 20
221.278649
 42
-0.031213
  0
VERTEX
  8
0
 10
257.713407
 20
220.944645
 42
-0.003066
  0
VERTEX
  8
0
 10
248.915072
 20
220.741546
 42
0.005877
  0
VERTEX
  8
0
 10
238.902755
 20
220.454087
 42
0.077791
  0
VERTEX
  8
0
 10
235.287646
 20
219.737338
 42
0.402697
  0
VERTEX
  8
0
 10
234.588273
 20
218.304707
 42
0.119028
  0
VERTEX
  8
0
 10
235.990783
 20
216.009217
 42
0.050251
  0
VERTEX
  8
0
 10
237.261649
 20
214.971003
 42
0.084474
  0
VERTEX
  8
0
 10
238.518694
 20
214.415635
 42
0.068866
  0
VERTEX
  8
0
 10
240.064625
 20
214.244964
 42
0.023989
  0
VERTEX
  8
0
 10
242.303283
 20
214.414369
 42
-0.006853
  0
VERTEX
  8
0
 10
244.502568
 20
214.656805
 42
-0.002020
  0
VERTEX
  8
0
 10
247.880446
 20
214.968601
 42
-0.002027
  0
VERTEX
  8
0
 10
251.682388
 20
215.288530
 42
-0.002179
  0
VERTEX
  8
0
 10
255.396107
 20
215.569592
 42
-0.004338
  0
VERTEX
  8
0
 10
260.456531
 20
215.886296
 42
-0.040330
  0
VERTEX
  8
0
 10
262.643946
 20
215.827684
 42
-0.163519
  0
VERTEX
  8
0
 10
263.535424
 20
215.417135
 42
-0.304265
  0
VERTEX
  8
0
 10
263.705041
 20
214.673733
 42
0.075895
  0
VERTEX
  8
0
 10
263.450507
 20
213.507632
 42
0.001507
  0
VERTEX
  8
0
 10
263.082665
 20
207.424215
 42
0.003556
  0
VERTEX
  8
0
 10
262.724331
 20
200.301653
 42
0.002375
  0
VERTEX
  8
0
 10
262.410853
 20
192.143237
 42
0.000000
  0
VERTEX
  8
0
 10
261.703836
 20
171.142887
 42
0.000000
  0
VERTEX
  8
0
 10
254.368104
 20
170.455472
 42
-0.012749
  0
VERTEX
  8
0
 10
251.228570
 20
170.241851
 42
-0.010396
  0
VERTEX
  8
0
 10
247.860613
 20
170.168926
 42
-0.010539
  0
VERTEX
  8
0
 10
244.756106
 20
170.231703
 42
-0.026895
  0
VERTEX
  8
0
 10
242.516186
 20
170.445302
 42
0.009261
  0
VERTEX
  8
0
 10
239.661741
 20
170.819438
 42
0.125750
  0
VERTEX
  8
0
 10
238.629929
 20
170.675737
 42
0.254056
  0
VERTEX
  8
0
 10
238.138587
 20
170.073875
 42
0.046799
  0
VERTEX
  8
0
 10
238.000000
 20
168.596457
 42
0.147379
  0
VERTEX
  8
0
 10
238.702437
 20
166.265126
 42
0.159315
  0
VERTEX
  8
0
 10
240.558686
 20
164.795962
 42
0.088292
  0
VERTEX
  8
0
 10
243.906962
 20
164.195610
 42
0.024883
  0
VERTEX
  8
0
 10
249.225795
 20
164.453591
 42
-0.005766
  0
VERTEX
  8
0
 10
257.619710
 20
165.183077
 42
-0.005466
  0
VERTEX
  8
0
 10
266.178855
 20
165.733545
 42
-0.005265
  0
VERTEX
  8
0
 10
275.058737
 20
166.113499
 42
-0.004508
  0
VERTEX
  8
0
 10
284.416717
 20
166.330785
 42
0.008201
  0
VERTEX
  8
0
 10
292.498900
 20
166.578185
 42
0.078838
  0
VERTEX
  8
0
 10
295.858284
 20
167.274406
 42
0.335952
  0
VERTEX
  8
0
 10
296.704337
 20
168.621240
 42
0.152515
  0
VERTEX
  8
0
 10
295.865271
 20
170.662338
 42
0.153892
  0
VERTEX
  8
0
 10
294.579896
 20
171.491098
 42
0.052161
  0
VERTEX
  8
0
 10
292.358588
 20
171.856566
 42
0.023956
  0
VERTEX
  8
0
 10
288.531297
 20
171.898430
 42
0.003438
  0
VERTEX
  8
0
 10
280.707928
 20
171.555225
 42
0.000000
  0
VERTEX
  8
0
 10
266.874396
 20
170.853018
 42
0.000000
  0
VERTEX
  8
0
 10
267.485692
 20
190.676509
 42
-0.001846
  0
VERTEX
  8
0
 10
268.094393
 20
208.303333
 42
-0.035632
  0
VERTEX
  8
0
 10
268.691862
 20
213.740609
 42
-0.160475
  0
VERTEX
  8
0
 10
269.967877
 20
216.082375
 42
-0.190196
  0
VERTEX
  8
0
 10
272.295313
 20
217.005895
 42
0.032879
  0
VERTEX
  8
0
 10
278.060219
 20
217.396050
 42
0.010801
  0
VERTEX
  8
0
 10
286.467103
 20
218.708885
 42
0.007509
  0
VERTEX
  8
0
 10
294.753617
 20
220.315692
 42
0.093645
  0
VERTEX
  8
0
 10
297.696204
 20
221.536601
 42
0.032051
  0
VERTEX
  8
0
 10
298.871523
 20
222.419226
 42
0.128290
  0
VERTEX
  8
0
 10
299.380798
 20
223.151919
 42
0.156763
  0
VERTEX
  8
0
 10
299.413886
 20
223.953978
 42
0.055465
  0
VERTEX
  8
0
 10
298.981731
 20
225.034136
 42
0.044842
  0
VERTEX
  8
0
 10
298.110750
 20
226.360581
 42
0.204776
  0
VERTEX
  8
0
 10
297.317343
 20
226.790099
 42
0.115119
  0
VERTEX
  8
0
 10
296.180083
 20
226.633298
 42
0.010370
  0
SEQEND
  0
ENDSEC
  0
EOF
