  0
SECTION
  2
HEADER
  9
$ACADVER
  1
AC1006
  9
$EXTMIN
 10
0.000000
 20
0.000000
 30
0.000000
  9
$EXTMAX
 10
950.000000
 20
500.000000
 30
0.000000
  0
ENDSEC
  0
SECTION
  2
ENTITIES
  0
POLYLINE
  8
0
 66
1
 70
1
  0
VERTEX
  8
0
 10
53.500000
 20
369.000000
 42
0.000000
  0
VERTEX
  8
0
 10
74.482140
 20
348.000000
 42
0.000000
  0
VERTEX
  8
0
 10
116.473996
 20
348.000000
 42
0.000000
  0
VERTEX
  8
0
 10
158.465851
 20
348.000000
 42
0.000000
  0
VERTEX
  8
0
 10
168.664896
 20
358.164335
 42
0.000000
  0
VERTEX
  8
0
 10
178.863940
 20
368.328669
 42
0.000000
  0
VERTEX
  8
0
 10
168.681970
 20
379.127033
 42
0.000000
  0
VERTEX
  8
0
 10
158.500000
 20
389.925398
 42
0.000000
  0
VERTEX
  8
0
 10
95.508930
 20
389.962699
 42
0.000000
  0
VERTEX
  8
0
 10
32.517860
 20
390.000000
 42
0.000000
  0
SEQEND
  0
POLYLINE
  8
0
 66
1
 70
1
  0
VERTEX
  8
0
 10
315.201212
 20
379.168112
 42
0.000000
  0
VERTEX
  8
0
 10
305.128479
 20
368.336224
 42
0.000000
  0
VERTEX
  8
0
 10
315.331314
 20
358.168112
 42
0.000000
  0
VERTEX
  8
0
 10
325.534149
 20
348.000000
 42
0.000000
  0
VERTEX
  8
0
 10
367.526004
 20
348.000000
 42
0.000000
  0
VERTEX
  8
0
 10
409.517860
 20
348.000000
 42
0.000000
  0
VERTEX
  8
0
 10
430.500000
 20
369.000000
 42
0.000000
  0
VERTEX
  8
0
 10
451.482140
 20
390.000000
 42
0.000000
  0
VERTEX
  8
0
 10
388.378043
 20
390.000000
 42
0.000000
  0
VERTEX
  8
0
 10
325.273945
 20
390.000000
 42
0.000000
  0
SEQEND
  0
POLYLINE
  8
0
 66
1
 70
1
  0
VERTEX
  8
0
 10
532.500000
 20
369.000000
 42
0.000000
  0
VERTEX
  8
0
 10
553.482140
 20
348.000000
 42
0.000000
  0
VERTEX
  8
0
 10
595.500000
 20
348.000000
 42
0.000000
  0
VERTEX
  8
0
 10
637.517860
 20
348.000000
 42
0.000000
  0
VERTEX
  8
0
 10
658.500000
 20
369.000000
 42
0.000000
  0
VERTEX
  8
0
 10
679.482140
 20
390.000000
 42
0.000000
  0
VERTEX
  8
0
 10
595.500000
 20
390.000000
 42
0.000000
  0
VERTEX
  8
0
 10
511.517860
 20
390.000000
 42
0.000000
  0
SEQEND
  0
POLYLINE
  8
0
 66
1
 70
1
  0
VERTEX
  8
0
 10
783.500000
 20
369.000000
 42
0.000000
  0
VERTEX
  8
0
 10
804.482140
 20
348.000000
 42
0.000000
  0
VERTEX
  8
0
 10
846.481691
 20
348.000000
 42
0.000000
  0
VERTEX
  8
0
 10
888.481241
 20
348.000000
 42
0.000000
  0
VERTEX
  8
0
 10
907.740620
 20
367.240383
 42
0.004274
  0
VERTEX
  8
0
 10
915.122511
 20
374.742144
 42
0.006652
  0
VERTEX
  8
0
 10
921.342557
 20
381.345791
 42
0.002464
  0
VERTEX
  8
0
 10
926.558963
 20
387.090228
 42
0.185156
  0
VERTEX
  8
0
 10
927.000000
 20
388.240383
 42
0.401732
  0
VERTEX
  8
0
 10
925.891815
 20
389.397044
 42
0.005352
  0
VERTEX
  8
0
 10
915.065487
 20
389.744651
 42
0.004973
  0
VERTEX
  8
0
 10
896.124109
 20
389.961471
 42
0.000375
  0
VERTEX
  8
0
 10
844.758930
 20
390.000000
 42
0.000000
  0
VERTEX
  8
0
 10
762.517860
 20
390.000000
 42
0.000000
  0
SEQEND
  0
POLYLINE
  8
0
 66
1
 70
1
  0
VERTEX
  8
0
 10
23.000000
 20
319.241070
 42
0.000000
  0
VERTEX
  8
0
 10
23.000000
 20
258.000000
 42
0.000000
  0
VERTEX
  8
0
 10
33.732925
 20
258.000000
 42
0.000000
  0
VERTEX
  8
0
 10
44.465851
 20
258.000000
 42
0.000000
  0
VERTEX
  8
0
 10
54.732925
 20
268.232133
 42
0.000000
  0
VERTEX
  8
0
 10
65.000000
 20
278.464266
 42
0.000000
  0
VERTEX
  8
0
 10
65.000000
 20
308.491063
 42
0.000000
  0
VERTEX
  8
0
 10
65.000000
 20
338.517860
 42
0.000000
  0
VERTEX
  8
0
 10
44.000000
 20
359.500000
 42
0.000000
  0
VERTEX
  8
0
 10
23.000000
 20
380.482140
 42
0.000000
  0
SEQEND
  0
POLYLINE
  8
0
 66
1
 70
1
  0
VERTEX
  8
0
 10
753.000000
 20
329.473203
 42
0.000000
  0
VERTEX
  8
0
 10
753.000000
 20
278.464266
 42
0.000000
  0
VERTEX
  8
0
 10
763.500000
 20
268.000000
 42
0.000000
  0
VERTEX
  8
0
 10
774.000000
 20
257.535734
 42
0.000000
  0
VERTEX
  8
0
 10
784.500000
 20
268.000000
 42
0.000000
  0
VERTEX
  8
0
 10
795.000000
 20
278.464266
 42
0.000000
  0
VERTEX
  8
0
 10
795.000000
 20
308.491063
 42
0.000000
  0
VERTEX
  8
0
 10
795.000000
 20
338.517860
 42
0.000000
  0
VERTEX
  8
0
 10
774.000000
 20
359.500000
 42
0.000000
  0
VERTEX
  8
0
 10
753.000000
 20
380.482140
 42
0.000000
  0
SEQEND
  0
POLYLINE
  8
0
 66
1
 70
1
  0
VERTEX
  8
0
 10
666.741070
 20
358.241275
 42
0.000000
  0
VERTEX
  8
0
 10
646.000000
 20
337.482551
 42
0.000000
  0
VERTEX
  8
0
 10
646.000000
 20
308.096306
 42
0.000000
  0
VERTEX
  8
0
 10
646.000000
 20
278.710061
 42
0.000000
  0
VERTEX
  8
0
 10
656.189897
 20
268.355031
 42
0.005311
  0
VERTEX
  8
0
 10
660.179065
 20
264.386428
 42
0.008139
  0
VERTEX
  8
0
 10
663.726985
 20
261.041790
 42
0.003615
  0
VERTEX
  8
0
 10
666.796276
 20
258.281703
 42
0.183306
  0
VERTEX
  8
0
 10
667.538852
 20
258.000000
 42
0.184026
  0
VERTEX
  8
0
 10
668.276352
 20
258.280952
 42
0.003957
  0
VERTEX
  8
0
 10
671.192431
 20
260.921599
 42
0.008560
  0
VERTEX
  8
0
 10
674.566357
 20
264.134157
 42
0.005605
  0
VERTEX
  8
0
 10
678.348955
 20
267.945868
 42
0.000000
  0
VERTEX
  8
0
 10
688.000000
 20
277.891736
 42
0.000000
  0
VERTEX
  8
0
 10
688.000000
 20
328.445868
 42
0.000480
  0
VERTEX
  8
0
 10
687.981394
 20
347.830891
 42
0.000801
  0
VERTEX
  8
0
 10
687.923939
 20
364.149724
 42
0.000026
  0
VERTEX
  8
0
 10
687.847659
 20
378.893966
 42
0.412684
  0
VERTEX
  8
0
 10
687.741070
 20
379.000000
 42
0.197356
  0
VERTEX
  8
0
 10
687.560562
 20
378.925864
 42
0.000053
  0
VERTEX
  8
0
 10
681.465512
 20
372.902125
 42
0.000966
  0
VERTEX
  8
0
 10
674.712393
 20
366.200746
 42
0.000585
  0
SEQEND
  0
POLYLINE
  8
0
 66
1
 70
1
  0
VERTEX
  8
0
 10
911.737497
 20
352.237893
 42
0.000000
  0
VERTEX
  8
0
 10
897.000000
 20
337.475786
 42
0.000000
  0
VERTEX
  8
0
 10
897.000000
 20
308.092924
 42
0.000000
  0
VERTEX
  8
0
 10
897.000000
 20
278.710061
 42
0.000000
  0
VERTEX
  8
0
 10
907.189897
 20
268.355031
 42
0.003572
  0
VERTEX
  8
0
 10
913.901597
 20
261.631320
 42
0.043763
  0
VERTEX
  8
0
 10
916.695151
 20
259.317801
 42
0.100386
  0
VERTEX
  8
0
 10
919.017311
 20
258.324742
 42
0.051046
  0
VERTEX
  8
0
 10
922.189897
 20
258.000000
 42
0.000000
  0
VERTEX
  8
0
 10
927.000000
 20
258.000000
 42
0.000000
  0
VERTEX
  8
0
 10
927.000000
 20
312.500000
 42
0.000451
  0
VERTEX
  8
0
 10
926.981137
 20
333.398070
 42
0.000753
  0
VERTEX
  8
0
 10
926.922890
 20
350.990625
 42
0.000023
  0
VERTEX
  8
0
 10
926.845570
 20
366.892456
 42
0.412777
  0
VERTEX
  8
0
 10
926.737497
 20
367.000000
 42
0.196724
  0
VERTEX
  8
0
 10
926.555306
 20
366.925431
 42
0.000107
  0
VERTEX
  8
0
 10
922.222964
 20
362.663631
 42
0.001373
  0
VERTEX
  8
0
 10
917.407002
 20
357.897950
 42
0.000834
  0
SEQEND
  0
POLYLINE
  8
0
 66
1
 70
1
  0
VERTEX
  8
0
 10
177.737199
 20
348.237937
 42
0.000000
  0
VERTEX
  8
0
 10
167.000000
 20
337.467341
 42
0.000000
  0
VERTEX
  8
0
 10
167.000000
 20
308.088701
 42
0.000000
  0
VERTEX
  8
0
 10
167.000000
 20
278.710061
 42
0.000000
  0
VERTEX
  8
0
 10
177.189897
 20
268.355031
 42
0.000000
  0
VERTEX
  8
0
 10
187.379794
 20
258.000000
 42
0.000000
  0
VERTEX
  8
0
 10
198.189897
 20
258.000000
 42
0.000000
  0
VERTEX
  8
0
 10
209.000000
 20
258.000000
 42
0.000000
  0
VERTEX
  8
0
 10
209.000000
 20
298.155659
 42
0.000000
  0
VERTEX
  8
0
 10
209.000000
 20
338.311318
 42
0.000000
  0
VERTEX
  8
0
 10
199.252867
 20
348.405659
 42
0.001295
  0
VERTEX
  8
0
 10
195.479404
 20
352.293342
 42
0.002039
  0
VERTEX
  8
0
 10
192.217477
 20
355.609478
 42
0.000492
  0
VERTEX
  8
0
 10
189.348219
 20
358.497036
 42
0.082560
  0
VERTEX
  8
0
 10
188.990066
 20
358.754267
 42
0.310591
  0
VERTEX
  8
0
 10
188.624379
 20
358.701170
 42
0.001275
  0
VERTEX
  8
0
 10
185.471824
 20
355.769980
 42
0.005489
  0
VERTEX
  8
0
 10
181.890983
 20
352.349106
 42
0.003354
  0
SEQEND
  0
POLYLINE
  8
0
 66
1
 70
1
  0
VERTEX
  8
0
 10
284.232133
 20
348.732925
 42
0.000000
  0
VERTEX
  8
0
 10
274.000000
 20
338.465851
 42
0.000000
  0
VERTEX
  8
0
 10
274.000000
 20
298.232925
 42
0.000000
  0
VERTEX
  8
0
 10
274.000000
 20
258.000000
 42
0.000000
  0
VERTEX
  8
0
 10
284.732925
 20
258.000000
 42
0.000000
  0
VERTEX
  8
0
 10
295.465851
 20
258.000000
 42
0.000000
  0
VERTEX
  8
0
 10
305.732925
 20
268.232133
 42
0.000000
  0
VERTEX
  8
0
 10
316.000000
 20
278.464266
 42
0.000000
  0
VERTEX
  8
0
 10
316.000000
 20
308.500000
 42
0.000000
  0
VERTEX
  8
0
 10
316.000000
 20
338.535734
 42
0.000000
  0
VERTEX
  8
0
 10
305.732925
 20
348.767867
 42
0.002282
  0
VERTEX
  8
0
 10
301.760826
 20
352.690474
 42
0.003668
  0
VERTEX
  8
0
 10
298.334696
 20
355.994311
 42
0.000765
  0
VERTEX
  8
0
 10
295.304304
 20
358.865124
 42
0.191499
  0
VERTEX
  8
0
 10
294.965058
 20
359.000000
 42
0.192358
  0
VERTEX
  8
0
 10
294.626262
 20
358.864652
 42
0.000768
  0
VERTEX
  8
0
 10
291.605684
 20
355.984047
 42
0.003681
  0
VERTEX
  8
0
 10
288.190839
 20
352.668931
 42
0.002290
  0
SEQEND
  0
POLYLINE
  8
0
 66
1
 70
1
  0
VERTEX
  8
0
 10
546.000000
 20
260.500000
 42
0.000000
  0
VERTEX
  8
0
 10
535.535734
 20
250.000000
 42
0.000000
  0
VERTEX
  8
0
 10
546.000000
 20
239.500000
 42
0.000000
  0
VERTEX
  8
0
 10
556.464266
 20
229.000000
 42
0.000000
  0
VERTEX
  8
0
 10
595.465058
 20
229.000000
 42
0.000000
  0
VERTEX
  8
0
 10
634.465851
 20
229.000000
 42
0.000000
  0
VERTEX
  8
0
 10
644.733694
 20
239.232899
 42
0.000000
  0
VERTEX
  8
0
 10
655.001538
 20
249.465798
 42
0.000000
  0
VERTEX
  8
0
 10
644.267823
 20
260.232899
 42
0.000000
  0
VERTEX
  8
0
 10
633.534108
 20
271.000000
 42
0.000000
  0
VERTEX
  8
0
 10
594.999187
 20
271.000000
 42
0.000000
  0
VERTEX
  8
0
 10
556.464266
 20
271.000000
 42
0.000000
  0
SEQEND
  0
POLYLINE
  8
0
 66
1
 70
1
  0
VERTEX
  8
0
 10
797.000000
 20
260.500000
 42
0.000000
  0
VERTEX
  8
0
 10
786.535734
 20
250.000000
 42
0.000000
  0
VERTEX
  8
0
 10
797.000000
 20
239.500000
 42
0.000000
  0
VERTEX
  8
0
 10
807.464266
 20
229.000000
 42
0.000000
  0
VERTEX
  8
0
 10
846.465058
 20
229.000000
 42
0.000000
  0
VERTEX
  8
0
 10
885.465851
 20
229.000000
 42
0.000000
  0
VERTEX
  8
0
 10
895.733694
 20
239.232899
 42
0.000000
  0
VERTEX
  8
0
 10
906.001538
 20
249.465798
 42
0.000000
  0
VERTEX
  8
0
 10
895.267823
 20
260.232899
 42
0.000000
  0
VERTEX
  8
0
 10
884.534108
 20
271.000000
 42
0.000000
  0
VERTEX
  8
0
 10
845.999187
 20
271.000000
 42
0.000000
  0
VERTEX
  8
0
 10
807.464266
 20
271.000000
 42
0.000000
  0
SEQEND
  0
POLYLINE
  8
0
 66
1
 70
1
  0
VERTEX
  8
0
 10
23.666667
 20
241.333333
 42
0.195966
  0
VERTEX
  8
0
 10
23.393313
 20
240.683842
 42
0.000158
  0
VERTEX
  8
0
 10
23.195833
 20
222.775019
 42
0.001664
  0
VERTEX
  8
0
 10
23.047972
 20
202.748528
 42
0.001014
  0
VERTEX
  8
0
 10
23.000000
 20
179.092263
 42
0.000000
  0
VERTEX
  8
0
 10
23.000000
 20
117.517860
 42
0.000000
  0
VERTEX
  8
0
 10
44.000000
 20
138.500000
 42
0.000000
  0
VERTEX
  8
0
 10
65.000000
 20
159.482140
 42
0.000000
  0
VERTEX
  8
0
 10
65.000000
 20
190.508937
 42
0.000000
  0
VERTEX
  8
0
 10
65.000000
 20
221.535734
 42
0.000000
  0
VERTEX
  8
0
 10
54.732925
 20
231.767867
 42
0.000000
  0
VERTEX
  8
0
 10
44.465851
 20
242.000000
 42
0.000000
  0
VERTEX
  8
0
 10
34.399592
 20
242.000000
 42
0.006181
  0
VERTEX
  8
0
 10
30.493710
 20
241.951715
 42
0.009328
  0
VERTEX
  8
0
 10
27.094464
 20
241.804167
 42
0.004721
  0
VERTEX
  8
0
 10
24.243379
 20
241.600033
 42
0.177964
  0
SEQEND
  0
POLYLINE
  8
0
 66
1
 70
1
  0
VERTEX
  8
0
 10
177.302326
 20
231.697674
 42
0.000000
  0
VERTEX
  8
0
 10
167.000000
 20
221.395349
 42
0.000000
  0
VERTEX
  8
0
 10
167.000000
 20
190.430620
 42
0.000000
  0
VERTEX
  8
0
 10
167.000000
 20
159.465892
 42
0.000000
  0
VERTEX
  8
0
 10
177.788426
 20
148.710918
 42
0.000000
  0
VERTEX
  8
0
 10
188.576852
 20
137.955944
 42
0.000000
  0
VERTEX
  8
0
 10
198.788426
 20
148.333002
 42
0.000000
  0
VERTEX
  8
0
 10
209.000000
 20
158.710061
 42
0.000000
  0
VERTEX
  8
0
 10
209.000000
 20
200.355031
 42
0.000000
  0
VERTEX
  8
0
 10
209.000000
 20
242.000000
 42
0.000000
  0
VERTEX
  8
0
 10
198.302326
 20
242.000000
 42
0.000000
  0
VERTEX
  8
0
 10
187.604651
 20
242.000000
 42
0.000000
  0
SEQEND
  0
POLYLINE
  8
0
 66
1
 70
1
  0
VERTEX
  8
0
 10
274.666667
 20
241.333333
 42
0.194325
  0
VERTEX
  8
0
 10
274.394130
 20
240.691468
 42
0.000360
  0
VERTEX
  8
0
 10
274.195833
 20
228.992345
 42
0.002513
  0
VERTEX
  8
0
 10
274.048006
 20
215.798064
 42
0.001545
  0
VERTEX
  8
0
 10
274.000000
 20
200.257629
 42
0.000000
  0
VERTEX
  8
0
 10
274.000000
 20
159.848591
 42
0.000000
  0
VERTEX
  8
0
 10
284.242808
 20
148.933406
 42
0.000000
  0
VERTEX
  8
0
 10
294.485617
 20
138.018220
 42
0.000000
  0
VERTEX
  8
0
 10
305.242808
 20
148.742056
 42
0.000000
  0
VERTEX
  8
0
 10
316.000000
 20
159.465892
 42
0.000000
  0
VERTEX
  8
0
 10
316.000000
 20
190.500813
 42
0.000000
  0
VERTEX
  8
0
 10
316.000000
 20
221.535734
 42
0.000000
  0
VERTEX
  8
0
 10
305.732925
 20
231.767867
 42
0.000000
  0
VERTEX
  8
0
 10
295.465851
 20
242.000000
 42
0.000000
  0
VERTEX
  8
0
 10
285.399592
 20
242.000000
 42
0.006181
  0
VERTEX
  8
0
 10
281.493710
 20
241.951715
 42
0.009328
  0
VERTEX
  8
0
 10
278.094464
 20
241.804167
 42
0.004721
  0
VERTEX
  8
0
 10
275.243379
 20
241.600033
 42
0.177964
  0
SEQEND
  0
POLYLINE
  8
0
 66
1
 70
1
  0
VERTEX
  8
0
 10
512.232133
 20
231.732925
 42
0.000000
  0
VERTEX
  8
0
 10
502.000000
 20
221.465851
 42
0.000000
  0
VERTEX
  8
0
 10
502.000000
 20
169.491855
 42
0.000000
  0
VERTEX
  8
0
 10
502.000000
 20
117.517860
 42
0.000000
  0
VERTEX
  8
0
 10
523.000000
 20
138.500000
 42
0.000000
  0
VERTEX
  8
0
 10
544.000000
 20
159.482140
 42
0.000000
  0
VERTEX
  8
0
 10
544.000000
 20
190.508937
 42
0.000000
  0
VERTEX
  8
0
 10
544.000000
 20
221.535734
 42
0.000000
  0
VERTEX
  8
0
 10
533.732925
 20
231.767867
 42
0.002282
  0
VERTEX
  8
0
 10
529.760826
 20
235.690474
 42
0.003668
  0
VERTEX
  8
0
 10
526.334696
 20
238.994311
 42
0.000765
  0
VERTEX
  8
0
 10
523.304304
 20
241.865124
 42
0.191499
  0
VERTEX
  8
0
 10
522.965058
 20
242.000000
 42
0.192358
  0
VERTEX
  8
0
 10
522.626262
 20
241.864652
 42
0.000768
  0
VERTEX
  8
0
 10
519.605684
 20
238.984047
 42
0.003681
  0
VERTEX
  8
0
 10
516.190839
 20
235.668931
 42
0.002290
  0
SEQEND
  0
POLYLINE
  8
0
 66
1
 70
1
  0
VERTEX
  8
0
 10
907.302326
 20
231.697674
 42
0.000000
  0
VERTEX
  8
0
 10
897.000000
 20
221.395349
 42
0.000000
  0
VERTEX
  8
0
 10
897.000000
 20
190.435171
 42
0.000000
  0
VERTEX
  8
0
 10
897.000000
 20
159.474993
 42
0.000000
  0
VERTEX
  8
0
 10
912.000000
 20
144.500000
 42
0.000000
  0
VERTEX
  8
0
 10
927.000000
 20
129.525007
 42
0.000000
  0
VERTEX
  8
0
 10
927.000000
 20
185.762503
 42
0.000000
  0
VERTEX
  8
0
 10
927.000000
 20
242.000000
 42
0.000000
  0
VERTEX
  8
0
 10
922.302326
 20
242.000000
 42
0.053953
  0
VERTEX
  8
0
 10
919.207957
 20
241.665127
 42
0.096858
  0
VERTEX
  8
0
 10
916.872112
 20
240.653465
 42
0.042265
  0
VERTEX
  8
0
 10
914.015630
 20
238.313592
 42
0.003653
  0
SEQEND
  0
POLYLINE
  8
0
 66
1
 70
1
  0
VERTEX
  8
0
 10
53.500000
 20
131.000000
 42
0.000000
  0
VERTEX
  8
0
 10
32.517860
 20
110.000000
 42
0.000000
  0
VERTEX
  8
0
 10
95.508930
 20
110.037301
 42
0.000000
  0
VERTEX
  8
0
 10
158.500000
 20
110.074602
 42
0.000000
  0
VERTEX
  8
0
 10
168.681970
 20
120.872967
 42
0.000000
  0
VERTEX
  8
0
 10
178.863940
 20
131.671331
 42
0.000000
  0
VERTEX
  8
0
 10
168.664896
 20
141.835665
 42
0.000000
  0
VERTEX
  8
0
 10
158.465851
 20
152.000000
 42
0.000000
  0
VERTEX
  8
0
 10
116.473996
 20
152.000000
 42
0.000000
  0
VERTEX
  8
0
 10
74.482140
 20
152.000000
 42
0.000000
  0
SEQEND
  0
POLYLINE
  8
0
 66
1
 70
1
  0
VERTEX
  8
0
 10
315.313708
 20
141.825903
 42
0.000000
  0
VERTEX
  8
0
 10
305.139610
 20
131.651805
 42
0.000000
  0
VERTEX
  8
0
 10
315.206777
 20
120.825903
 42
0.000000
  0
VERTEX
  8
0
 10
325.273945
 20
110.000000
 42
0.000000
  0
VERTEX
  8
0
 10
388.378043
 20
110.000000
 42
0.000000
  0
VERTEX
  8
0
 10
451.482140
 20
110.000000
 42
0.000000
  0
VERTEX
  8
0
 10
430.500000
 20
131.000000
 42
0.000000
  0
VERTEX
  8
0
 10
409.517860
 20
152.000000
 42
0.000000
  0
VERTEX
  8
0
 10
367.502832
 20
152.000000
 42
0.000000
  0
VERTEX
  8
0
 10
325.487805
 20
152.000000
 42
0.000000
  0
SEQEND
  0
POLYLINE
  8
0
 66
1
 70
1
  0
VERTEX
  8
0
 10
532.500000
 20
131.000000
 42
0.000000
  0
VERTEX
  8
0
 10
511.517860
 20
110.000000
 42
0.000000
  0
VERTEX
  8
0
 10
595.500000
 20
110.000000
 42
0.000000
  0
VERTEX
  8
0
 10
679.482140
 20
110.000000
 42
0.000000
  0
VERTEX
  8
0
 10
658.500000
 20
131.000000
 42
0.000000
  0
VERTEX
  8
0
 10
637.517860
 20
152.000000
 42
0.000000
  0
VERTEX
  8
0
 10
595.500000
 20
152.000000
 42
0.000000
  0
VERTEX
  8
0
 10
553.482140
 20
152.000000
 42
0.000000
  0
SEQEND
  0
POLYLINE
  8
0
 66
1
 70
1
  0
VERTEX
  8
0
 10
783.500000
 20
131.000000
 42
0.000000
  0
VERTEX
  8
0
 10
762.517860
 20
110.000000
 42
0.000000
  0
VERTEX
  8
0
 10
844.758930
 20
110.000000
 42
0.000381
  0
VERTEX
  8
0
 10
895.859432
 20
110.038894
 42
0.004910
  0
VERTEX
  8
0
 10
914.937966
 20
110.255291
 42
0.005088
  0
VERTEX
  8
0
 10
925.904891
 20
110.599079
 42
0.402106
  0
VERTEX
  8
0
 10
927.000000
 20
111.740620
 42
0.185082
  0
VERTEX
  8
0
 10
926.563404
 20
112.879686
 42
0.002414
  0
VERTEX
  8
0
 10
921.348137
 20
118.627376
 42
0.006578
  0
VERTEX
  8
0
 10
915.134256
 20
125.232928
 42
0.004223
  0
VERTEX
  8
0
 10
907.759617
 20
132.740620
 42
0.000000
  0
VERTEX
  8
0
 10
888.519234
 20
152.000000
 42
0.000000
  0
VERTEX
  8
0
 10
846.500687
 20
152.000000
 42
0.000000
  0
VERTEX
  8
0
 10
804.482140
 20
152.000000
 42
0.000000
  0
SEQEND
  0
ENDSEC
  0
EOF
