solid OpenSCAD_Model
  facet normal -1.22465e-16 -1 2.54072e-33
    outer loop
      vertex -8.4998 -25.9999 3
      vertex -8.4998 -25.9999 0
      vertex -5.4998 -25.9999 0
    endloop
  endfacet
  facet normal -1.22465e-16 -1 2.54072e-33
    outer loop
      vertex -1 -25.9999 2.22045e-16
      vertex -8.4998 -25.9999 3
      vertex -5.4998 -25.9999 1.2212e-15
    endloop
  endfacet
  facet normal -1.22465e-16 -1 2.54072e-33
    outer loop
      vertex -5.4998 -25.9999 1.2212e-15
      vertex -8.4998 -25.9999 3
      vertex -5.4998 -25.9999 0
    endloop
  endfacet
  facet normal -1.22465e-16 -1 2.54072e-33
    outer loop
      vertex -1 -25.9999 3
      vertex -8.4998 -25.9999 3
      vertex -1 -25.9999 2.22045e-16
    endloop
  endfacet
  facet normal 0 0 -1
    outer loop
      vertex -8.4998 -25.9999 0
      vertex -8.4998 -15.4999 0
      vertex -5.4998 -25.9999 0
    endloop
  endfacet
  facet normal 0 0 -1
    outer loop
      vertex -5.4998 -25.9999 0
      vertex -8.4998 -15.4999 0
      vertex -5.4998 -15.4999 0
    endloop
  endfacet
  facet normal -1 1.22465e-16 2.22045e-16
    outer loop
      vertex -8.4998 -25.9999 0
      vertex -8.4998 -25.9999 3
      vertex -8.4998 -15.4999 0
    endloop
  endfacet
  facet normal -1 1.22465e-16 2.22045e-16
    outer loop
      vertex -8.4998 -15.4999 0
      vertex -8.4998 -25.9999 3
      vertex -8.4998 -15.4999 3
    endloop
  endfacet
  facet normal 0 0 1
    outer loop
      vertex -4.4999 -24.9999 3
      vertex -8.4998 -25.9999 3
      vertex -1 -25.9999 3
    endloop
  endfacet
  facet normal 0 0 1
    outer loop
      vertex -2.9999 -17.7499 3
      vertex -1 -17.7499 3
      vertex -2.9999 -16.4999 3
    endloop
  endfacet
  facet normal 0 0 1
    outer loop
      vertex -1 -26 3
      vertex -6.95884e-15 -26 3
      vertex -1 -25.9999 3
    endloop
  endfacet
  facet normal 0 0 1
    outer loop
      vertex -4.4999 -1 3
      vertex -8.4998 1.04093e-15 3
      vertex -8.4998 -10.5 3
    endloop
  endfacet
  facet normal 0 0 1
    outer loop
      vertex -6.95884e-15 -26 3
      vertex -3.77476e-15 4.19082e-31 3
      vertex -1 -10.5 3
    endloop
  endfacet
  facet normal 0 0 1
    outer loop
      vertex -4.4999 -16.4999 3
      vertex -1 -15.4999 3
      vertex -8.4998 -15.4999 3
    endloop
  endfacet
  facet normal 0 0 1
    outer loop
      vertex -6.95884e-15 -26 3
      vertex -1 -10.5 3
      vertex -1 -15.4999 3
    endloop
  endfacet
  facet normal 0 0 1
    outer loop
      vertex -2.9999 -24.9999 3
      vertex -4.4999 -24.9999 3
      vertex -1 -25.9999 3
    endloop
  endfacet
  facet normal 0 0 1
    outer loop
      vertex -8.4998 -15.4999 3
      vertex -8.4998 -25.9999 3
      vertex -4.4999 -24.9999 3
    endloop
  endfacet
  facet normal 0 0 1
    outer loop
      vertex -1 -23.7499 3
      vertex -1 -25.9999 3
      vertex -6.95884e-15 -26 3
    endloop
  endfacet
  facet normal 0 0 1
    outer loop
      vertex -2.9999 -16.4999 3
      vertex -1 -15.4999 3
      vertex -4.4999 -16.4999 3
    endloop
  endfacet
  facet normal 0 0 1
    outer loop
      vertex -1 -17.7499 3
      vertex -1 -15.4999 3
      vertex -2.9999 -16.4999 3
    endloop
  endfacet
  facet normal 0 0 1
    outer loop
      vertex -1 -17.7499 3
      vertex -1 -23.7499 3
      vertex -6.95884e-15 -26 3
    endloop
  endfacet
  facet normal 0 0 1
    outer loop
      vertex -6.95884e-15 -26 3
      vertex -1 -15.4999 3
      vertex -1 -17.7499 3
    endloop
  endfacet
  facet normal 0 0 1
    outer loop
      vertex -1 -23.7499 3
      vertex -2.9999 -23.7499 3
      vertex -1 -25.9999 3
    endloop
  endfacet
  facet normal 0 0 1
    outer loop
      vertex -4.4999 -9.5 3
      vertex -4.4999 -1 3
      vertex -8.4998 -10.5 3
    endloop
  endfacet
  facet normal 0 0 1
    outer loop
      vertex -2.9999 -23.7499 3
      vertex -2.9999 -24.9999 3
      vertex -1 -25.9999 3
    endloop
  endfacet
  facet normal 0 0 1
    outer loop
      vertex -2.9999 -8.25 3
      vertex -2.9999 -9.5 3
      vertex -1 -8.25 3
    endloop
  endfacet
  facet normal 0 0 1
    outer loop
      vertex -3.77476e-15 4.19082e-31 3
      vertex -8.4998 1.04093e-15 3
      vertex -4.4999 -1 3
    endloop
  endfacet
  facet normal 0 0 1
    outer loop
      vertex -2.9999 -2.25 3
      vertex -1 -2.25 3
      vertex -3.77476e-15 4.19082e-31 3
    endloop
  endfacet
  facet normal 0 0 1
    outer loop
      vertex -3.77476e-15 4.19082e-31 3
      vertex -4.4999 -1 3
      vertex -2.9999 -1 3
    endloop
  endfacet
  facet normal 0 0 1
    outer loop
      vertex -3.77476e-15 4.19082e-31 3
      vertex -2.9999 -1 3
      vertex -2.9999 -2.25 3
    endloop
  endfacet
  facet normal 0 0 1
    outer loop
      vertex -1 -8.25 3
      vertex -3.77476e-15 4.19082e-31 3
      vertex -1 -2.25 3
    endloop
  endfacet
  facet normal 0 0 1
    outer loop
      vertex -1 -10.5 3
      vertex -3.77476e-15 4.19082e-31 3
      vertex -1 -8.25 3
    endloop
  endfacet
  facet normal 0 0 1
    outer loop
      vertex -1 -10.5 3
      vertex -2.9999 -9.5 3
      vertex -4.4999 -9.5 3
    endloop
  endfacet
  facet normal 0 0 1
    outer loop
      vertex -1 -10.5 3
      vertex -1 -8.25 3
      vertex -2.9999 -9.5 3
    endloop
  endfacet
  facet normal 0 0 1
    outer loop
      vertex -8.4998 -10.5 3
      vertex -1 -10.5 3
      vertex -4.4999 -9.5 3
    endloop
  endfacet
  facet normal 0 0 1
    outer loop
      vertex -4.4999 -24.9999 3
      vertex -4.4999 -16.4999 3
      vertex -8.4998 -15.4999 3
    endloop
  endfacet
  facet normal -1 1.22465e-16 2.22045e-16
    outer loop
      vertex -1 -25.9999 3
      vertex -1 -25.9999 2.22045e-16
      vertex -1 -26 3
    endloop
  endfacet
  facet normal -1 1.22465e-16 2.22045e-16
    outer loop
      vertex -1 -26 3
      vertex -1 -25.9999 2.22045e-16
      vertex -1 -26 2.22045e-16
    endloop
  endfacet
  facet normal -2.22045e-16 2.71926e-32 -1
    outer loop
      vertex -4.4999 -15.9999 9.99179e-16
      vertex -5.4998 -15.4999 1.2212e-15
      vertex -1 -15.4999 2.22045e-16
    endloop
  endfacet
  facet normal -2.22045e-16 2.71926e-32 -1
    outer loop
      vertex -1 -15.4999 2.22045e-16
      vertex -4.44089e-15 4.93038e-31 0
      vertex -1 -17.7499 2.22045e-16
    endloop
  endfacet
  facet normal -2.22045e-16 2.71926e-32 -1
    outer loop
      vertex -4.4999 -10.0001 9.99179e-16
      vertex -5.4998 -10.5 1.2212e-15
      vertex -5.4998 6.73531e-16 1.2212e-15
    endloop
  endfacet
  facet normal -2.22045e-16 2.71926e-32 -1
    outer loop
      vertex -4.4999 -0.5 9.99179e-16
      vertex -5.4998 6.73531e-16 1.2212e-15
      vertex -4.44089e-15 4.93038e-31 0
    endloop
  endfacet
  facet normal -2.22045e-16 2.71926e-32 -1
    outer loop
      vertex -1 -10.5 2.22045e-16
      vertex -4.44089e-15 4.93038e-31 0
      vertex -1 -15.4999 2.22045e-16
    endloop
  endfacet
  facet normal -2.22045e-16 2.71926e-32 -1
    outer loop
      vertex -1 -25.9999 2.22045e-16
      vertex -4.44089e-15 4.93038e-31 0
      vertex -7.62497e-15 -26 0
    endloop
  endfacet
  facet normal -2.22045e-16 2.71926e-32 -1
    outer loop
      vertex -4.4999 -25.5 9.99179e-16
      vertex -5.4998 -15.4999 1.2212e-15
      vertex -4.4999 -15.9999 9.99179e-16
    endloop
  endfacet
  facet normal -2.22045e-16 2.71926e-32 -1
    outer loop
      vertex -2.9999 -15.9999 6.66112e-16
      vertex -4.4999 -15.9999 9.99179e-16
      vertex -1 -15.4999 2.22045e-16
    endloop
  endfacet
  facet normal -2.22045e-16 2.71926e-32 -1
    outer loop
      vertex -5.4998 -25.9999 1.2212e-15
      vertex -5.4998 -15.4999 1.2212e-15
      vertex -4.4999 -25.5 9.99179e-16
    endloop
  endfacet
  facet normal -2.22045e-16 2.71926e-32 -1
    outer loop
      vertex -5.4998 -25.9999 1.2212e-15
      vertex -4.4999 -25.5 9.99179e-16
      vertex -1 -25.9999 2.22045e-16
    endloop
  endfacet
  facet normal -2.22045e-16 2.71926e-32 -1
    outer loop
      vertex -1 -23.7499 2.22045e-16
      vertex -1 -25.9999 2.22045e-16
      vertex -2.9999 -23.7499 6.66112e-16
    endloop
  endfacet
  facet normal -2.22045e-16 2.71926e-32 -1
    outer loop
      vertex -4.4999 -25.5 9.99179e-16
      vertex -2.9999 -25.5 6.66112e-16
      vertex -1 -25.9999 2.22045e-16
    endloop
  endfacet
  facet normal -2.22045e-16 2.71926e-32 -1
    outer loop
      vertex -2.9999 -25.5 6.66112e-16
      vertex -2.9999 -23.7499 6.66112e-16
      vertex -1 -25.9999 2.22045e-16
    endloop
  endfacet
  facet normal -2.22045e-16 2.71926e-32 -1
    outer loop
      vertex -2.9999 -15.9999 6.66112e-16
      vertex -1 -17.7499 2.22045e-16
      vertex -2.9999 -17.7499 6.66112e-16
    endloop
  endfacet
  facet normal -2.22045e-16 2.71926e-32 -1
    outer loop
      vertex -1 -25.9999 2.22045e-16
      vertex -1 -23.7499 2.22045e-16
      vertex -4.44089e-15 4.93038e-31 0
    endloop
  endfacet
  facet normal -2.22045e-16 2.71926e-32 -1
    outer loop
      vertex -1 -23.7499 2.22045e-16
      vertex -1 -17.7499 2.22045e-16
      vertex -4.44089e-15 4.93038e-31 0
    endloop
  endfacet
  facet normal -2.22045e-16 2.71926e-32 -1
    outer loop
      vertex -4.4999 -10.0001 9.99179e-16
      vertex -5.4998 6.73531e-16 1.2212e-15
      vertex -4.4999 -0.5 9.99179e-16
    endloop
  endfacet
  facet normal -2.22045e-16 2.71926e-32 -1
    outer loop
      vertex -1 -17.7499 2.22045e-16
      vertex -2.9999 -15.9999 6.66112e-16
      vertex -1 -15.4999 2.22045e-16
    endloop
  endfacet
  facet normal -2.22045e-16 2.71926e-32 -1
    outer loop
      vertex -2.9999 -0.5 6.66112e-16
      vertex -4.4999 -0.5 9.99179e-16
      vertex -4.44089e-15 4.93038e-31 0
    endloop
  endfacet
  facet normal -2.22045e-16 2.71926e-32 -1
    outer loop
      vertex -1 -10.5 2.22045e-16
      vertex -5.4998 -10.5 1.2212e-15
      vertex -4.4999 -10.0001 9.99179e-16
    endloop
  endfacet
  facet normal -2.22045e-16 2.71926e-32 -1
    outer loop
      vertex -1 -8.25 2.22045e-16
      vertex -1 -10.5 2.22045e-16
      vertex -2.9999 -8.25 6.66112e-16
    endloop
  endfacet
  facet normal -2.22045e-16 2.71926e-32 -1
    outer loop
      vertex -1 -10.5 2.22045e-16
      vertex -4.4999 -10.0001 9.99179e-16
      vertex -2.9999 -10.0001 6.66112e-16
    endloop
  endfacet
  facet normal -2.22045e-16 2.71926e-32 -1
    outer loop
      vertex -1 -10.5 2.22045e-16
      vertex -2.9999 -10.0001 6.66112e-16
      vertex -2.9999 -8.25 6.66112e-16
    endloop
  endfacet
  facet normal -2.22045e-16 2.71926e-32 -1
    outer loop
      vertex -2.9999 -0.5 6.66112e-16
      vertex -1 -2.25 2.22045e-16
      vertex -2.9999 -2.25 6.66112e-16
    endloop
  endfacet
  facet normal -2.22045e-16 2.71926e-32 -1
    outer loop
      vertex -1 -10.5 2.22045e-16
      vertex -1 -8.25 2.22045e-16
      vertex -4.44089e-15 4.93038e-31 0
    endloop
  endfacet
  facet normal -2.22045e-16 2.71926e-32 -1
    outer loop
      vertex -1 -8.25 2.22045e-16
      vertex -1 -2.25 2.22045e-16
      vertex -4.44089e-15 4.93038e-31 0
    endloop
  endfacet
  facet normal -2.22045e-16 2.71926e-32 -1
    outer loop
      vertex -1 -2.25 2.22045e-16
      vertex -2.9999 -0.5 6.66112e-16
      vertex -4.44089e-15 4.93038e-31 0
    endloop
  endfacet
  facet normal -2.22045e-16 2.71926e-32 -1
    outer loop
      vertex -1 -25.9999 2.22045e-16
      vertex -7.62497e-15 -26 0
      vertex -1 -26 2.22045e-16
    endloop
  endfacet
  facet normal 1 -1.22465e-16 -2.22045e-16
    outer loop
      vertex -5.4998 -25.9999 1.2212e-15
      vertex -5.4998 -25.9999 0
      vertex -5.4998 -15.4999 0
    endloop
  endfacet
  facet normal 1 -1.22465e-16 -2.22045e-16
    outer loop
      vertex -5.4998 -15.4999 1.2212e-15
      vertex -5.4998 -25.9999 1.2212e-15
      vertex -5.4998 -15.4999 0
    endloop
  endfacet
  facet normal 1.22465e-16 1 -2.54072e-33
    outer loop
      vertex -8.4998 -15.4999 0
      vertex -8.4998 -15.4999 3
      vertex -5.4998 -15.4999 0
    endloop
  endfacet
  facet normal 1.22465e-16 1 -2.54072e-33
    outer loop
      vertex -5.4998 -15.4999 1.2212e-15
      vertex -8.4998 -15.4999 3
      vertex -1 -15.4999 3
    endloop
  endfacet
  facet normal 1.22465e-16 1 -2.54072e-33
    outer loop
      vertex -5.4998 -15.4999 0
      vertex -8.4998 -15.4999 3
      vertex -5.4998 -15.4999 1.2212e-15
    endloop
  endfacet
  facet normal 1.22465e-16 1 -2.54072e-33
    outer loop
      vertex -5.4998 -15.4999 1.2212e-15
      vertex -1 -15.4999 3
      vertex -1 -15.4999 2.22045e-16
    endloop
  endfacet
  facet normal -1 1.22465e-16 2.22045e-16
    outer loop
      vertex -1 -10.5 3
      vertex -1 -10.5 2.22045e-16
      vertex -1 -15.4999 3
    endloop
  endfacet
  facet normal -1 1.22465e-16 2.22045e-16
    outer loop
      vertex -1 -15.4999 3
      vertex -1 -10.5 2.22045e-16
      vertex -1 -15.4999 2.22045e-16
    endloop
  endfacet
  facet normal -1.22465e-16 -1 2.54072e-33
    outer loop
      vertex -8.4998 -10.5 3
      vertex -8.4998 -10.5 0
      vertex -5.4998 -10.5 0
    endloop
  endfacet
  facet normal -1.22465e-16 -1 2.54072e-33
    outer loop
      vertex -1 -10.5 2.22045e-16
      vertex -8.4998 -10.5 3
      vertex -5.4998 -10.5 1.2212e-15
    endloop
  endfacet
  facet normal -1.22465e-16 -1 2.54072e-33
    outer loop
      vertex -5.4998 -10.5 1.2212e-15
      vertex -8.4998 -10.5 3
      vertex -5.4998 -10.5 0
    endloop
  endfacet
  facet normal -1.22465e-16 -1 2.54072e-33
    outer loop
      vertex -1 -10.5 3
      vertex -8.4998 -10.5 3
      vertex -1 -10.5 2.22045e-16
    endloop
  endfacet
  facet normal -1 1.22465e-16 2.22045e-16
    outer loop
      vertex -8.4998 -10.5 0
      vertex -8.4998 -10.5 3
      vertex -8.4998 1.04093e-15 0
    endloop
  endfacet
  facet normal -1 1.22465e-16 2.22045e-16
    outer loop
      vertex -8.4998 1.04093e-15 0
      vertex -8.4998 -10.5 3
      vertex -8.4998 1.04093e-15 3
    endloop
  endfacet
  facet normal 1.22465e-16 1 -2.54072e-33
    outer loop
      vertex -8.4998 1.04093e-15 0
      vertex -8.4998 1.04093e-15 3
      vertex -5.4998 6.73531e-16 0
    endloop
  endfacet
  facet normal 1.22465e-16 1 -2.54072e-33
    outer loop
      vertex -5.4998 6.73531e-16 1.2212e-15
      vertex -8.4998 1.04093e-15 3
      vertex -3.77476e-15 4.19082e-31 3
    endloop
  endfacet
  facet normal 1.22465e-16 1 -2.54072e-33
    outer loop
      vertex -5.4998 6.73531e-16 0
      vertex -8.4998 1.04093e-15 3
      vertex -5.4998 6.73531e-16 1.2212e-15
    endloop
  endfacet
  facet normal 1.22465e-16 1 -2.54072e-33
    outer loop
      vertex -5.4998 6.73531e-16 1.2212e-15
      vertex -3.77476e-15 4.19082e-31 3
      vertex -4.44089e-15 4.93038e-31 0
    endloop
  endfacet
  facet normal 1 -1.22465e-16 -2.22045e-16
    outer loop
      vertex -6.95884e-15 -26 3
      vertex -7.62497e-15 -26 0
      vertex -4.44089e-15 4.93038e-31 0
    endloop
  endfacet
  facet normal 1 -1.22465e-16 -2.22045e-16
    outer loop
      vertex -3.77476e-15 4.19082e-31 3
      vertex -6.95884e-15 -26 3
      vertex -4.44089e-15 4.93038e-31 0
    endloop
  endfacet
  facet normal -1.22465e-16 -1 2.54072e-33
    outer loop
      vertex -1 -26 3
      vertex -1 -26 2.22045e-16
      vertex -7.62497e-15 -26 0
    endloop
  endfacet
  facet normal -1.22465e-16 -1 2.54072e-33
    outer loop
      vertex -6.95884e-15 -26 3
      vertex -1 -26 3
      vertex -7.62497e-15 -26 0
    endloop
  endfacet
  facet normal 1 -1.22465e-16 -2.22045e-16
    outer loop
      vertex -4.4999 -24.9999 1.07249
      vertex -4.4999 -25.5 9.99179e-16
      vertex -4.4999 -15.9999 9.99179e-16
    endloop
  endfacet
  facet normal 1 -1.22465e-16 -2.22045e-16
    outer loop
      vertex -4.4999 -16.4999 3
      vertex -4.4999 -24.9999 1.07249
      vertex -4.4999 -16.4999 1.07225
    endloop
  endfacet
  facet normal 1 -1.22465e-16 -2.22045e-16
    outer loop
      vertex -4.4999 -16.4999 1.07225
      vertex -4.4999 -24.9999 1.07249
      vertex -4.4999 -15.9999 9.99179e-16
    endloop
  endfacet
  facet normal 1 -1.22465e-16 -2.22045e-16
    outer loop
      vertex -4.4999 -24.9999 3
      vertex -4.4999 -24.9999 1.07249
      vertex -4.4999 -16.4999 3
    endloop
  endfacet
  facet normal 1.22465e-16 1 -2.54072e-33
    outer loop
      vertex -2.9999 -24.9999 3
      vertex -2.9999 -24.9999 1.07249
      vertex -4.4999 -24.9999 3
    endloop
  endfacet
  facet normal 1.22465e-16 1 -2.54072e-33
    outer loop
      vertex -4.4999 -24.9999 3
      vertex -2.9999 -24.9999 1.07249
      vertex -4.4999 -24.9999 1.07249
    endloop
  endfacet
  facet normal -1 1.22465e-16 2.22045e-16
    outer loop
      vertex -2.9999 -24.9999 3
      vertex -2.9999 -23.7499 3
      vertex -2.9999 -24.9999 1.07249
    endloop
  endfacet
  facet normal -1 1.22465e-16 2.22045e-16
    outer loop
      vertex -2.9999 -24.9999 1.07249
      vertex -2.9999 -23.7499 3
      vertex -2.9999 -23.7499 6.66112e-16
    endloop
  endfacet
  facet normal -1 1.22465e-16 2.22045e-16
    outer loop
      vertex -2.9999 -24.9999 1.07249
      vertex -2.9999 -23.7499 6.66112e-16
      vertex -2.9999 -25.5 6.66112e-16
    endloop
  endfacet
  facet normal 1.22465e-16 1 -2.54072e-33
    outer loop
      vertex -1 -23.7499 3
      vertex -1 -23.7499 2.22045e-16
      vertex -2.9999 -23.7499 3
    endloop
  endfacet
  facet normal 1.22465e-16 1 -2.54072e-33
    outer loop
      vertex -2.9999 -23.7499 3
      vertex -1 -23.7499 2.22045e-16
      vertex -2.9999 -23.7499 6.66112e-16
    endloop
  endfacet
  facet normal -1 1.22465e-16 2.22045e-16
    outer loop
      vertex -1 -17.7499 3
      vertex -1 -17.7499 2.22045e-16
      vertex -1 -23.7499 3
    endloop
  endfacet
  facet normal -1 1.22465e-16 2.22045e-16
    outer loop
      vertex -1 -23.7499 3
      vertex -1 -17.7499 2.22045e-16
      vertex -1 -23.7499 2.22045e-16
    endloop
  endfacet
  facet normal -1.22465e-16 -1 2.54072e-33
    outer loop
      vertex -1 -17.7499 2.22045e-16
      vertex -1 -17.7499 3
      vertex -2.9999 -17.7499 3
    endloop
  endfacet
  facet normal -1.22465e-16 -1 2.54072e-33
    outer loop
      vertex -2.9999 -17.7499 6.66112e-16
      vertex -1 -17.7499 2.22045e-16
      vertex -2.9999 -17.7499 3
    endloop
  endfacet
  facet normal -1 1.22465e-16 2.22045e-16
    outer loop
      vertex -2.9999 -16.4999 3
      vertex -2.9999 -16.4999 1.07225
      vertex -2.9999 -17.7499 3
    endloop
  endfacet
  facet normal -1 1.22465e-16 2.22045e-16
    outer loop
      vertex -2.9999 -17.7499 3
      vertex -2.9999 -16.4999 1.07225
      vertex -2.9999 -15.9999 6.66112e-16
    endloop
  endfacet
  facet normal -1 1.22465e-16 2.22045e-16
    outer loop
      vertex -2.9999 -17.7499 3
      vertex -2.9999 -15.9999 6.66112e-16
      vertex -2.9999 -17.7499 6.66112e-16
    endloop
  endfacet
  facet normal -1.22465e-16 -1 2.54072e-33
    outer loop
      vertex -2.9999 -16.4999 1.07225
      vertex -2.9999 -16.4999 3
      vertex -4.4999 -16.4999 3
    endloop
  endfacet
  facet normal -1.22465e-16 -1 2.54072e-33
    outer loop
      vertex -4.4999 -16.4999 1.07225
      vertex -2.9999 -16.4999 1.07225
      vertex -4.4999 -16.4999 3
    endloop
  endfacet
  facet normal 1.22465e-16 1 -2.54072e-33
    outer loop
      vertex -2.9999 -9.5 3
      vertex -2.9999 -9.5 1.07249
      vertex -4.4999 -9.5 3
    endloop
  endfacet
  facet normal 1.22465e-16 1 -2.54072e-33
    outer loop
      vertex -4.4999 -9.5 3
      vertex -2.9999 -9.5 1.07249
      vertex -4.4999 -9.5 1.07249
    endloop
  endfacet
  facet normal 1 -1.22465e-16 -2.22045e-16
    outer loop
      vertex -4.4999 -9.5 1.07249
      vertex -4.4999 -10.0001 9.99179e-16
      vertex -4.4999 -0.5 9.99179e-16
    endloop
  endfacet
  facet normal 1 -1.22465e-16 -2.22045e-16
    outer loop
      vertex -4.4999 -1 3
      vertex -4.4999 -9.5 1.07249
      vertex -4.4999 -1 1.07225
    endloop
  endfacet
  facet normal 1 -1.22465e-16 -2.22045e-16
    outer loop
      vertex -4.4999 -1 1.07225
      vertex -4.4999 -9.5 1.07249
      vertex -4.4999 -0.5 9.99179e-16
    endloop
  endfacet
  facet normal 1 -1.22465e-16 -2.22045e-16
    outer loop
      vertex -4.4999 -9.5 3
      vertex -4.4999 -9.5 1.07249
      vertex -4.4999 -1 3
    endloop
  endfacet
  facet normal -1 1.22465e-16 2.22045e-16
    outer loop
      vertex -2.9999 -9.5 3
      vertex -2.9999 -8.25 3
      vertex -2.9999 -9.5 1.07249
    endloop
  endfacet
  facet normal -1 1.22465e-16 2.22045e-16
    outer loop
      vertex -2.9999 -9.5 1.07249
      vertex -2.9999 -8.25 3
      vertex -2.9999 -8.25 6.66112e-16
    endloop
  endfacet
  facet normal -1 1.22465e-16 2.22045e-16
    outer loop
      vertex -2.9999 -9.5 1.07249
      vertex -2.9999 -8.25 6.66112e-16
      vertex -2.9999 -10.0001 6.66112e-16
    endloop
  endfacet
  facet normal 1.22465e-16 1 -2.54072e-33
    outer loop
      vertex -1 -8.25 3
      vertex -1 -8.25 2.22045e-16
      vertex -2.9999 -8.25 3
    endloop
  endfacet
  facet normal 1.22465e-16 1 -2.54072e-33
    outer loop
      vertex -2.9999 -8.25 3
      vertex -1 -8.25 2.22045e-16
      vertex -2.9999 -8.25 6.66112e-16
    endloop
  endfacet
  facet normal -1 1.22465e-16 2.22045e-16
    outer loop
      vertex -1 -2.25 3
      vertex -1 -2.25 2.22045e-16
      vertex -1 -8.25 3
    endloop
  endfacet
  facet normal -1 1.22465e-16 2.22045e-16
    outer loop
      vertex -1 -8.25 3
      vertex -1 -2.25 2.22045e-16
      vertex -1 -8.25 2.22045e-16
    endloop
  endfacet
  facet normal -1.22465e-16 -1 2.54072e-33
    outer loop
      vertex -1 -2.25 2.22045e-16
      vertex -1 -2.25 3
      vertex -2.9999 -2.25 3
    endloop
  endfacet
  facet normal -1.22465e-16 -1 2.54072e-33
    outer loop
      vertex -2.9999 -2.25 6.66112e-16
      vertex -1 -2.25 2.22045e-16
      vertex -2.9999 -2.25 3
    endloop
  endfacet
  facet normal -1 1.22465e-16 2.22045e-16
    outer loop
      vertex -2.9999 -1 3
      vertex -2.9999 -1 1.07225
      vertex -2.9999 -2.25 3
    endloop
  endfacet
  facet normal -1 1.22465e-16 2.22045e-16
    outer loop
      vertex -2.9999 -2.25 3
      vertex -2.9999 -1 1.07225
      vertex -2.9999 -0.5 6.66112e-16
    endloop
  endfacet
  facet normal -1 1.22465e-16 2.22045e-16
    outer loop
      vertex -2.9999 -2.25 3
      vertex -2.9999 -0.5 6.66112e-16
      vertex -2.9999 -2.25 6.66112e-16
    endloop
  endfacet
  facet normal -1.22465e-16 -1 2.54072e-33
    outer loop
      vertex -2.9999 -1 1.07225
      vertex -2.9999 -1 3
      vertex -4.4999 -1 3
    endloop
  endfacet
  facet normal -1.22465e-16 -1 2.54072e-33
    outer loop
      vertex -4.4999 -1 1.07225
      vertex -2.9999 -1 1.07225
      vertex -4.4999 -1 3
    endloop
  endfacet
  facet normal 1 -1.22465e-16 -2.22045e-16
    outer loop
      vertex -5.4998 -10.5 1.2212e-15
      vertex -5.4998 -10.5 0
      vertex -5.4998 6.73531e-16 0
    endloop
  endfacet
  facet normal 1 -1.22465e-16 -2.22045e-16
    outer loop
      vertex -5.4998 6.73531e-16 1.2212e-15
      vertex -5.4998 -10.5 1.2212e-15
      vertex -5.4998 6.73531e-16 0
    endloop
  endfacet
  facet normal -2.04831e-16 -0.906308 -0.422618
    outer loop
      vertex -2.9999 -15.9999 6.66112e-16
      vertex -2.9999 -16.4999 1.07225
      vertex -4.4999 -16.4999 1.07225
    endloop
  endfacet
  facet normal -2.04831e-16 -0.906308 -0.422618
    outer loop
      vertex -4.4999 -15.9999 9.99179e-16
      vertex -2.9999 -15.9999 6.66112e-16
      vertex -4.4999 -16.4999 1.07225
    endloop
  endfacet
  facet normal 1.71506e-17 0.906308 -0.422618
    outer loop
      vertex -2.9999 -24.9999 1.07249
      vertex -2.9999 -25.5 6.66112e-16
      vertex -4.4999 -24.9999 1.07249
    endloop
  endfacet
  facet normal 1.71506e-17 0.906308 -0.422618
    outer loop
      vertex -4.4999 -24.9999 1.07249
      vertex -2.9999 -25.5 6.66112e-16
      vertex -4.4999 -25.5 9.99179e-16
    endloop
  endfacet
  facet normal -2.04831e-16 -0.906308 -0.422618
    outer loop
      vertex -2.9999 -0.5 6.66112e-16
      vertex -2.9999 -1 1.07225
      vertex -4.4999 -1 1.07225
    endloop
  endfacet
  facet normal -2.04831e-16 -0.906308 -0.422618
    outer loop
      vertex -4.4999 -0.5 9.99179e-16
      vertex -2.9999 -0.5 6.66112e-16
      vertex -4.4999 -1 1.07225
    endloop
  endfacet
  facet normal 1.71506e-17 0.906308 -0.422618
    outer loop
      vertex -2.9999 -9.5 1.07249
      vertex -2.9999 -10.0001 6.66112e-16
      vertex -4.4999 -9.5 1.07249
    endloop
  endfacet
  facet normal 1.71506e-17 0.906308 -0.422618
    outer loop
      vertex -4.4999 -9.5 1.07249
      vertex -2.9999 -10.0001 6.66112e-16
      vertex -4.4999 -10.0001 9.99179e-16
    endloop
  endfacet
  facet normal 0 0 -1
    outer loop
      vertex -8.4998 -10.5 0
      vertex -8.4998 1.04093e-15 0
      vertex -5.4998 -10.5 0
    endloop
  endfacet
  facet normal 0 0 -1
    outer loop
      vertex -5.4998 -10.5 0
      vertex -8.4998 1.04093e-15 0
      vertex -5.4998 6.73531e-16 0
    endloop
  endfacet
endsolid OpenSCAD_Model
