  0
SECTION
  2
HEADER
  9
$ACADVER
  1
AC1006
  9
$EXTMIN
 10
0.000000
 20
0.000000
 30
0.000000
  9
$EXTMAX
 10
400.000000
 20
300.000000
 30
0.000000
  0
ENDSEC
  0
SECTION
  2
ENTITIES
  0
POLYLINE
  8
0
 66
1
 70
1
  0
VERTEX
  8
0
 10
21.691613
 20
257.250000
 42
0.051808
  0
VERTEX
  8
0
 10
20.774021
 20
255.158617
 42
0.000242
  0
VERTEX
  8
0
 10
13.546998
 20
232.554471
 42
0.000166
  0
VERTEX
  8
0
 10
6.240716
 20
209.638005
 42
0.077229
  0
VERTEX
  8
0
 10
6.000000
 20
208.088842
 42
0.352864
  0
VERTEX
  8
0
 10
6.391486
 20
207.603186
 42
0.023103
  0
VERTEX
  8
0
 10
8.297433
 20
207.280526
 42
0.021924
  0
VERTEX
  8
0
 10
11.065145
 20
207.065148
 42
0.008455
  0
VERTEX
  8
0
 10
14.917321
 20
207.000000
 42
0.000000
  0
VERTEX
  8
0
 10
23.834642
 20
207.000000
 42
0.000000
  0
VERTEX
  8
0
 10
27.500000
 20
218.000000
 42
0.000000
  0
VERTEX
  8
0
 10
31.165358
 20
229.000000
 42
0.000000
  0
VERTEX
  8
0
 10
42.023662
 20
229.000000
 42
0.006460
  0
VERTEX
  8
0
 10
46.216055
 20
229.054171
 42
0.010139
  0
VERTEX
  8
0
 10
49.815937
 20
229.220313
 42
0.004593
  0
VERTEX
  8
0
 10
52.835282
 20
229.448961
 42
0.248633
  0
VERTEX
  8
0
 10
53.302725
 20
229.750000
 42
0.045260
  0
VERTEX
  8
0
 10
53.504429
 20
230.200703
 42
0.007886
  0
VERTEX
  8
0
 10
53.792970
 20
231.087500
 42
0.008508
  0
VERTEX
  8
0
 10
54.098279
 20
232.142162
 42
0.007537
  0
VERTEX
  8
0
 10
54.380794
 20
233.250000
 42
0.000000
  0
VERTEX
  8
0
 10
55.038104
 20
236.000000
 42
0.000000
  0
VERTEX
  8
0
 10
44.087761
 20
236.000000
 42
0.000000
  0
VERTEX
  8
0
 10
33.137419
 20
236.000000
 42
0.000000
  0
VERTEX
  8
0
 10
35.659074
 20
243.500000
 42
0.000000
  0
VERTEX
  8
0
 10
38.180729
 20
251.000000
 42
0.000000
  0
VERTEX
  8
0
 10
49.422583
 20
251.000000
 42
0.000000
  0
VERTEX
  8
0
 10
60.664438
 20
251.000000
 42
0.000000
  0
VERTEX
  8
0
 10
61.738618
 20
254.500000
 42
0.000000
  0
VERTEX
  8
0
 10
62.812799
 20
258.000000
 42
0.000000
  0
VERTEX
  8
0
 10
42.465416
 20
258.000000
 42
0.003450
  0
VERTEX
  8
0
 10
34.634093
 20
257.945958
 42
0.005572
  0
VERTEX
  8
0
 10
27.969816
 20
257.779688
 42
0.001428
  0
VERTEX
  8
0
 10
22.190747
 20
257.554517
 42
0.258544
  0
SEQEND
  0
POLYLINE
  8
0
 66
1
 70
1
  0
VERTEX
  8
0
 10
71.593417
 20
257.151153
 42
0.055835
  0
VERTEX
  8
0
 10
71.270046
 20
256.467856
 42
0.000576
  0
VERTEX
  8
0
 10
69.551745
 20
251.440066
 42
0.001848
  0
VERTEX
  8
0
 10
67.598126
 20
245.631895
 42
0.001198
  0
VERTEX
  8
0
 10
65.379740
 20
238.901153
 42
0.008576
  0
VERTEX
  8
0
 10
61.388258
 20
225.944080
 42
0.039652
  0
VERTEX
  8
0
 10
59.812858
 20
218.267641
 42
0.075958
  0
VERTEX
  8
0
 10
59.955642
 20
213.254382
 42
0.152261
  0
VERTEX
  8
0
 10
61.775054
 20
209.779148
 42
0.091928
  0
VERTEX
  8
0
 10
63.663416
 20
208.479040
 42
0.070022
  0
VERTEX
  8
0
 10
66.081614
 20
207.784204
 42
0.027283
  0
VERTEX
  8
0
 10
70.230036
 20
207.428942
 42
0.002672
  0
VERTEX
  8
0
 10
80.275054
 20
207.172419
 42
0.005581
  0
VERTEX
  8
0
 10
87.288713
 20
207.109114
 42
0.009404
  0
VERTEX
  8
0
 10
93.171273
 20
207.232334
 42
0.009777
  0
VERTEX
  8
0
 10
97.794975
 20
207.506861
 42
0.052755
  0
VERTEX
  8
0
 10
100.266580
 20
207.967528
 42
0.063894
  0
VERTEX
  8
0
 10
103.827696
 20
209.546290
 42
0.041764
  0
VERTEX
  8
0
 10
107.466952
 20
212.190758
 42
0.041270
  0
VERTEX
  8
0
 10
110.674401
 20
215.456228
 42
0.056036
  0
VERTEX
  8
0
 10
112.943937
 20
218.905320
 42
0.033436
  0
VERTEX
  8
0
 10
114.450093
 20
222.436336
 42
0.002329
  0
VERTEX
  8
0
 10
117.965942
 20
232.644937
 42
0.003507
  0
VERTEX
  8
0
 10
121.805081
 20
244.229718
 42
0.003580
  0
VERTEX
  8
0
 10
125.454651
 20
255.788580
 42
0.120806
  0
VERTEX
  8
0
 10
125.530645
 20
257.092260
 42
0.298609
  0
VERTEX
  8
0
 10
124.898948
 20
257.753464
 42
0.061875
  0
VERTEX
  8
0
 10
123.065712
 20
257.945299
 42
0.002898
  0
VERTEX
  8
0
 10
116.829632
 20
257.788580
 42
0.000000
  0
VERTEX
  8
0
 10
107.500000
 20
257.500000
 42
0.000000
  0
VERTEX
  8
0
 10
100.947804
 20
237.619381
 42
-0.005888
  0
VERTEX
  8
0
 10
95.773075
 20
222.518764
 42
-0.070684
  0
VERTEX
  8
0
 10
92.920800
 20
217.080633
 42
-0.174383
  0
VERTEX
  8
0
 10
89.540529
 20
214.761524
 42
-0.077353
  0
VERTEX
  8
0
 10
84.083715
 20
214.205058
 42
-0.010003
  0
VERTEX
  8
0
 10
80.689376
 20
214.452530
 42
-0.093721
  0
VERTEX
  8
0
 10
79.287663
 20
214.855114
 42
-0.185545
  0
VERTEX
  8
0
 10
78.569012
 20
215.646447
 42
-0.063911
  0
VERTEX
  8
0
 10
78.191006
 20
217.173020
 42
-0.087561
  0
VERTEX
  8
0
 10
78.296215
 20
218.936460
 42
-0.005509
  0
VERTEX
  8
0
 10
79.564689
 20
224.003766
 42
-0.007981
  0
VERTEX
  8
0
 10
81.247953
 20
230.032738
 42
-0.005836
  0
VERTEX
  8
0
 10
83.301279
 20
236.673020
 42
0.000087
  0
VERTEX
  8
0
 10
85.428708
 20
243.282705
 42
0.000121
  0
VERTEX
  8
0
 10
87.336352
 20
249.218012
 42
0.000075
  0
VERTEX
  8
0
 10
88.939251
 20
254.211879
 42
0.001484
  0
VERTEX
  8
0
 10
89.427661
 20
255.750000
 42
0.124521
  0
VERTEX
  8
0
 10
89.500305
 20
257.029075
 42
0.286223
  0
VERTEX
  8
0
 10
88.870389
 20
257.707182
 42
0.062989
  0
VERTEX
  8
0
 10
87.052249
 20
257.961306
 42
0.003265
  0
VERTEX
  8
0
 10
81.126405
 20
258.000000
 42
0.008804
  0
VERTEX
  8
0
 10
77.636141
 20
257.938540
 42
0.013399
  0
VERTEX
  8
0
 10
74.610137
 20
257.750651
 42
0.007957
  0
VERTEX
  8
0
 10
72.121948
 20
257.489126
 42
0.227977
  0
SEQEND
  0
POLYLINE
  8
0
 66
1
 70
1
  0
VERTEX
  8
0
 10
151.343746
 20
256.958584
 42
0.065520
  0
VERTEX
  8
0
 10
143.354381
 20
254.256145
 42
0.098017
  0
VERTEX
  8
0
 10
137.516798
 20
249.795922
 42
0.076962
  0
VERTEX
  8
0
 10
132.915288
 20
242.606351
 42
0.027635
  0
VERTEX
  8
0
 10
128.615368
 20
231.198378
 42
0.039938
  0
VERTEX
  8
0
 10
125.753485
 20
218.715311
 42
0.210669
  0
VERTEX
  8
0
 10
127.582013
 20
212.101452
 42
0.185700
  0
VERTEX
  8
0
 10
133.911361
 20
208.489413
 42
0.030337
  0
VERTEX
  8
0
 10
148.231795
 20
207.186846
 42
0.000000
  0
VERTEX
  8
0
 10
161.963590
 20
206.774036
 42
0.000000
  0
VERTEX
  8
0
 10
162.981795
 20
209.452118
 42
0.010503
  0
VERTEX
  8
0
 10
163.371589
 20
210.545982
 42
0.011655
  0
VERTEX
  8
0
 10
163.700902
 20
211.618140
 42
0.011065
  0
VERTEX
  8
0
 10
163.939571
 20
212.542943
 42
0.057672
  0
VERTEX
  8
0
 10
164.000000
 20
213.065100
 42
0.365835
  0
VERTEX
  8
0
 10
163.686845
 20
213.435819
 42
0.012645
  0
VERTEX
  8
0
 10
161.670982
 20
213.725373
 42
0.018278
  0
VERTEX
  8
0
 10
159.111252
 20
213.932705
 42
0.011068
  0
VERTEX
  8
0
 10
156.071429
 20
214.000000
 42
-0.021939
  0
VERTEX
  8
0
 10
150.247200
 20
214.255675
 42
-0.109104
  0
VERTEX
  8
0
 10
147.142225
 20
215.233496
 42
-0.179612
  0
VERTEX
  8
0
 10
145.549014
 20
217.152407
 42
-0.084574
  0
VERTEX
  8
0
 10
145.000000
 20
220.374945
 42
-0.069312
  0
VERTEX
  8
0
 10
145.501694
 20
223.976645
 42
-0.006308
  0
VERTEX
  8
0
 10
148.094679
 20
232.684268
 42
-0.008001
  0
VERTEX
  8
0
 10
150.919076
 20
241.263478
 42
-0.039360
  0
VERTEX
  8
0
 10
152.961732
 20
245.928496
 42
-0.123120
  0
VERTEX
  8
0
 10
154.981778
 20
248.156854
 42
-0.070309
  0
VERTEX
  8
0
 10
158.273603
 20
249.742917
 42
-0.051989
  0
VERTEX
  8
0
 10
162.869598
 20
250.697201
 42
-0.025215
  0
VERTEX
  8
0
 10
168.870056
 20
251.000000
 42
0.000000
  0
VERTEX
  8
0
 10
176.804350
 20
251.000000
 42
0.000000
  0
VERTEX
  8
0
 10
177.902175
 20
254.149223
 42
0.003221
  0
VERTEX
  8
0
 10
178.322798
 20
255.381298
 42
0.004650
  0
VERTEX
  8
0
 10
178.677514
 20
256.476403
 42
0.002488
  0
VERTEX
  8
0
 10
178.963956
 20
257.405788
 42
0.073630
  0
VERTEX
  8
0
 10
179.000000
 20
257.649223
 42
0.420480
  0
VERTEX
  8
0
 10
178.498502
 20
258.140128
 42
0.000905
  0
VERTEX
  8
0
 10
166.689795
 20
257.866617
 42
0.004184
  0
VERTEX
  8
0
 10
155.966638
 20
257.509029
 42
0.038423
  0
SEQEND
  0
POLYLINE
  8
0
 66
1
 70
1
  0
VERTEX
  8
0
 10
187.691613
 20
257.250000
 42
0.051808
  0
VERTEX
  8
0
 10
186.774021
 20
255.158617
 42
0.000242
  0
VERTEX
  8
0
 10
179.546998
 20
232.554471
 42
0.000166
  0
VERTEX
  8
0
 10
172.240716
 20
209.638005
 42
0.077229
  0
VERTEX
  8
0
 10
172.000000
 20
208.088842
 42
0.352981
  0
VERTEX
  8
0
 10
172.391745
 20
207.603072
 42
0.023051
  0
VERTEX
  8
0
 10
174.300933
 20
207.280474
 42
0.021891
  0
VERTEX
  8
0
 10
177.073200
 20
207.065129
 42
0.008437
  0
VERTEX
  8
0
 10
180.932568
 20
207.000000
 42
0.000000
  0
VERTEX
  8
0
 10
189.865135
 20
207.000000
 42
0.000000
  0
VERTEX
  8
0
 10
193.650062
 20
218.500000
 42
-0.005081
  0
VERTEX
  8
0
 10
195.803435
 20
224.825563
 42
-0.033237
  0
VERTEX
  8
0
 10
197.123610
 20
227.907347
 42
-0.076845
  0
VERTEX
  8
0
 10
198.253235
 20
229.474466
 42
-0.200847
  0
VERTEX
  8
0
 10
199.508756
 20
230.000000
 42
-0.197340
  0
VERTEX
  8
0
 10
200.711954
 20
229.505878
 42
-0.107082
  0
VERTEX
  8
0
 10
201.599964
 20
228.144846
 42
-0.038397
  0
VERTEX
  8
0
 10
202.438801
 20
225.313086
 42
-0.004514
  0
VERTEX
  8
0
 10
203.760988
 20
218.863606
 42
0.002610
  0
VERTEX
  8
0
 10
204.624992
 20
214.565981
 42
0.004091
  0
VERTEX
  8
0
 10
205.417433
 20
210.880625
 42
0.001193
  0
VERTEX
  8
0
 10
206.138424
 20
207.691907
 42
0.141086
  0
VERTEX
  8
0
 10
206.340827
 20
207.325839
 42
0.193634
  0
VERTEX
  8
0
 10
206.706650
 20
207.169936
 42
0.002211
  0
VERTEX
  8
0
 10
209.411708
 20
207.126901
 42
0.006380
  0
VERTEX
  8
0
 10
212.565082
 20
207.130920
 42
0.004071
  0
VERTEX
  8
0
 10
216.231258
 20
207.212233
 42
0.000000
  0
VERTEX
  8
0
 10
225.720316
 20
207.500000
 42
0.000000
  0
VERTEX
  8
0
 10
222.387193
 20
219.000000
 42
-0.003244
  0
VERTEX
  8
0
 10
221.108391
 20
223.521649
 42
-0.004500
  0
VERTEX
  8
0
 10
220.025233
 20
227.591185
 42
-0.002833
  0
VERTEX
  8
0
 10
219.165988
 20
231.021072
 42
-0.055778
  0
VERTEX
  8
0
 10
219.027035
 20
232.097652
 42
-0.162075
  0
VERTEX
  8
0
 10
219.348570
 20
233.120990
 42
-0.005256
  0
VERTEX
  8
0
 10
221.945441
 20
236.635919
 42
-0.009604
  0
VERTEX
  8
0
 10
225.170086
 20
240.739577
 42
-0.006470
  0
VERTEX
  8
0
 10
229.000000
 20
245.303561
 42
0.002169
  0
VERTEX
  8
0
 10
232.833536
 20
249.792857
 42
0.003473
  0
VERTEX
  8
0
 10
236.062500
 20
253.661720
 42
0.000741
  0
VERTEX
  8
0
 10
238.865062
 20
257.077800
 42
0.173092
  0
VERTEX
  8
0
 10
239.000000
 20
257.455909
 42
0.393720
  0
VERTEX
  8
0
 10
238.795294
 20
257.675575
 42
0.003217
  0
VERTEX
  8
0
 10
236.228470
 20
257.840173
 42
0.008996
  0
VERTEX
  8
0
 10
233.182748
 20
257.960886
 42
0.005406
  0
VERTEX
  8
0
 10
229.565003
 20
258.000000
 42
0.000000
  0
VERTEX
  8
0
 10
220.130007
 20
258.000000
 42
0.000000
  0
VERTEX
  8
0
 10
211.500000
 20
247.000000
 42
-0.007583
  0
VERTEX
  8
0
 10
207.708922
 20
242.315862
 42
-0.016630
  0
VERTEX
  8
0
 10
204.637721
 20
238.875979
 42
-0.015299
  0
VERTEX
  8
0
 10
202.194329
 20
236.467948
 42
-0.189085
  0
VERTEX
  8
0
 10
201.001166
 20
236.000000
 42
-0.263063
  0
VERTEX
  8
0
 10
200.168069
 20
236.470901
 42
-0.175302
  0
VERTEX
  8
0
 10
199.950570
 20
237.573378
 42
-0.039902
  0
VERTEX
  8
0
 10
200.523531
 20
239.997942
 42
-0.003254
  0
VERTEX
  8
0
 10
202.566169
 20
246.196484
 42
0.002223
  0
VERTEX
  8
0
 10
203.882078
 20
250.162168
 42
0.003341
  0
VERTEX
  8
0
 10
204.991312
 20
253.633783
 42
0.001366
  0
VERTEX
  8
0
 10
205.912935
 20
256.614738
 42
0.074416
  0
VERTEX
  8
0
 10
206.000000
 20
257.196484
 42
0.409172
  0
VERTEX
  8
0
 10
205.307284
 20
257.901249
 42
0.003580
  0
VERTEX
  8
0
 10
197.062006
 20
257.984390
 42
0.004039
  0
VERTEX
  8
0
 10
188.863410
 20
257.942133
 42
0.266178
  0
SEQEND
  0
POLYLINE
  8
0
 66
1
 70
1
  0
VERTEX
  8
0
 10
247.691613
 20
257.250000
 42
0.051808
  0
VERTEX
  8
0
 10
246.774021
 20
255.158617
 42
0.000242
  0
VERTEX
  8
0
 10
239.546998
 20
232.554471
 42
0.000166
  0
VERTEX
  8
0
 10
232.240716
 20
209.638005
 42
0.077229
  0
VERTEX
  8
0
 10
232.000000
 20
208.088842
 42
0.353233
  0
VERTEX
  8
0
 10
232.392301
 20
207.602827
 42
0.022937
  0
VERTEX
  8
0
 10
234.308485
 20
207.280362
 42
0.021820
  0
VERTEX
  8
0
 10
237.090577
 20
207.065089
 42
0.008398
  0
VERTEX
  8
0
 10
240.965459
 20
207.000000
 42
0.000000
  0
VERTEX
  8
0
 10
249.930919
 20
207.000000
 42
0.000000
  0
VERTEX
  8
0
 10
257.965459
 20
231.832191
 42
0.000737
  0
VERTEX
  8
0
 10
261.045612
 20
241.400087
 42
0.001185
  0
VERTEX
  8
0
 10
263.639854
 20
249.566095
 42
0.000184
  0
VERTEX
  8
0
 10
265.920390
 20
256.813347
 42
0.076272
  0
VERTEX
  8
0
 10
266.000000
 20
257.332191
 42
0.412056
  0
VERTEX
  8
0
 10
265.363104
 20
257.973799
 42
0.002965
  0
VERTEX
  8
0
 10
257.043546
 20
257.985786
 42
0.003367
  0
VERTEX
  8
0
 10
248.774322
 20
257.892969
 42
0.264913
  0
SEQEND
  0
POLYLINE
  8
0
 66
1
 70
1
  0
VERTEX
  8
0
 10
278.691613
 20
257.250000
 42
0.051808
  0
VERTEX
  8
0
 10
277.774021
 20
255.158617
 42
0.000242
  0
VERTEX
  8
0
 10
270.546998
 20
232.554471
 42
0.000166
  0
VERTEX
  8
0
 10
263.240716
 20
209.638005
 42
0.077229
  0
VERTEX
  8
0
 10
263.000000
 20
208.088842
 42
0.353272
  0
VERTEX
  8
0
 10
263.392389
 20
207.602789
 42
0.022919
  0
VERTEX
  8
0
 10
265.309686
 20
207.280344
 42
0.021808
  0
VERTEX
  8
0
 10
268.093340
 20
207.065082
 42
0.008392
  0
VERTEX
  8
0
 10
271.970689
 20
207.000000
 42
0.000000
  0
VERTEX
  8
0
 10
280.941378
 20
207.000000
 42
0.000000
  0
VERTEX
  8
0
 10
288.044844
 20
229.000000
 42
0.000000
  0
VERTEX
  8
0
 10
295.148309
 20
251.000000
 42
0.000000
  0
VERTEX
  8
0
 10
300.992367
 20
251.000000
 42
-0.014218
  0
VERTEX
  8
0
 10
305.951799
 20
250.858940
 42
-0.091943
  0
VERTEX
  8
0
 10
308.372203
 20
250.266012
 42
-0.188351
  0
VERTEX
  8
0
 10
309.570875
 20
249.041774
 42
-0.100968
  0
VERTEX
  8
0
 10
310.000000
 20
246.938376
 42
-0.072302
  0
VERTEX
  8
0
 10
309.584577
 20
244.080582
 42
-0.001419
  0
VERTEX
  8
0
 10
305.322331
 20
229.877626
 42
-0.003601
  0
VERTEX
  8
0
 10
301.141016
 20
216.435980
 42
-0.014407
  0
VERTEX
  8
0
 10
298.286390
 20
208.303937
 42
0.392298
  0
VERTEX
  8
0
 10
298.541610
 20
207.667334
 42
0.074346
  0
VERTEX
  8
0
 10
299.852513
 20
207.271300
 42
0.030594
  0
VERTEX
  8
0
 10
302.438296
 20
207.054094
 42
0.005659
  0
VERTEX
  8
0
 10
307.217749
 20
207.000000
 42
0.000000
  0
VERTEX
  8
0
 10
316.649475
 20
207.000000
 42
0.000000
  0
VERTEX
  8
0
 10
322.824737
 20
226.270052
 42
0.008380
  0
VERTEX
  8
0
 10
327.806943
 20
242.763335
 42
0.072131
  0
VERTEX
  8
0
 10
328.821554
 20
250.370909
 42
0.199238
  0
VERTEX
  8
0
 10
327.037088
 20
254.536262
 42
0.137073
  0
VERTEX
  8
0
 10
322.473224
 20
257.031109
 42
0.052519
  0
VERTEX
  8
0
 10
316.613480
 20
257.754802
 42
0.003235
  0
VERTEX
  8
0
 10
299.030209
 20
257.956481
 42
0.000941
  0
VERTEX
  8
0
 10
280.009800
 20
258.015791
 42
0.270055
  0
SEQEND
  0
POLYLINE
  8
0
 66
1
 70
1
  0
VERTEX
  8
0
 10
358.326400
 20
256.955623
 42
0.062038
  0
VERTEX
  8
0
 10
350.469921
 20
254.359659
 42
0.098662
  0
VERTEX
  8
0
 10
344.808662
 20
250.146946
 42
0.076663
  0
VERTEX
  8
0
 10
340.294041
 20
243.276411
 42
0.025595
  0
VERTEX
  8
0
 10
335.852109
 20
232.062412
 42
0.024513
  0
VERTEX
  8
0
 10
333.766579
 20
224.725610
 42
0.049798
  0
VERTEX
  8
0
 10
332.999327
 20
218.784055
 42
0.067930
  0
VERTEX
  8
0
 10
333.484943
 20
214.251898
 42
0.144914
  0
VERTEX
  8
0
 10
335.250000
 20
211.240926
 42
0.076005
  0
VERTEX
  8
0
 10
338.467542
 20
209.034789
 42
0.067201
  0
VERTEX
  8
0
 10
342.334892
 20
207.774117
 42
0.037843
  0
VERTEX
  8
0
 10
348.090675
 20
207.165982
 42
0.007766
  0
VERTEX
  8
0
 10
358.315100
 20
207.021962
 42
0.017173
  0
VERTEX
  8
0
 10
372.794002
 20
207.540371
 42
0.124186
  0
VERTEX
  8
0
 10
379.365902
 20
209.698103
 42
0.144918
  0
VERTEX
  8
0
 10
383.634871
 20
214.578996
 42
0.026212
  0
VERTEX
  8
0
 10
388.134616
 20
225.898246
 42
0.002832
  0
VERTEX
  8
0
 10
389.232534
 20
229.207993
 42
0.004143
  0
VERTEX
  8
0
 10
390.158293
 20
232.134747
 42
0.002052
  0
VERTEX
  8
0
 10
390.912637
 20
234.626535
 42
0.072591
  0
VERTEX
  8
0
 10
391.000000
 20
235.225114
 42
0.387069
  0
VERTEX
  8
0
 10
390.699555
 20
235.555070
 42
0.008102
  0
VERTEX
  8
0
 10
388.301792
 20
235.740922
 42
0.014440
  0
VERTEX
  8
0
 10
385.336571
 20
235.836655
 42
0.008672
  0
VERTEX
  8
0
 10
381.814609
 20
235.787526
 42
0.000000
  0
VERTEX
  8
0
 10
372.629219
 20
235.500000
 42
0.000000
  0
VERTEX
  8
0
 10
369.098666
 20
224.750000
 42
0.000000
  0
VERTEX
  8
0
 10
365.568114
 20
214.000000
 42
0.000000
  0
VERTEX
  8
0
 10
359.984057
 20
214.000000
 42
-0.029904
  0
VERTEX
  8
0
 10
355.809034
 20
214.249921
 42
-0.132050
  0
VERTEX
  8
0
 10
353.543384
 20
215.160529
 42
-0.172742
  0
VERTEX
  8
0
 10
352.373340
 20
216.931105
 42
-0.060534
  0
VERTEX
  8
0
 10
352.000000
 20
220.003516
 42
-0.067389
  0
VERTEX
  8
0
 10
352.520590
 20
223.848548
 42
-0.007204
  0
VERTEX
  8
0
 10
355.046587
 20
232.516771
 42
-0.008817
  0
VERTEX
  8
0
 10
357.846979
 20
241.093503
 42
-0.039562
  0
VERTEX
  8
0
 10
359.961732
 20
245.928496
 42
-0.130696
  0
VERTEX
  8
0
 10
362.258668
 20
248.387592
 42
-0.080573
  0
VERTEX
  8
0
 10
365.929267
 20
249.934146
 42
-0.046893
  0
VERTEX
  8
0
 10
371.665963
 20
250.767423
 42
-0.012632
  0
VERTEX
  8
0
 10
380.870056
 20
251.000000
 42
0.000000
  0
VERTEX
  8
0
 10
393.804350
 20
251.000000
 42
0.000000
  0
VERTEX
  8
0
 10
394.902175
 20
254.149223
 42
0.003221
  0
VERTEX
  8
0
 10
395.322798
 20
255.381298
 42
0.004650
  0
VERTEX
  8
0
 10
395.677514
 20
256.476403
 42
0.002488
  0
VERTEX
  8
0
 10
395.963956
 20
257.405788
 42
0.073630
  0
VERTEX
  8
0
 10
396.000000
 20
257.649223
 42
0.419047
  0
VERTEX
  8
0
 10
395.477770
 20
258.162920
 42
0.000483
  0
VERTEX
  8
0
 10
378.667692
 20
257.869690
 42
0.002403
  0
VERTEX
  8
0
 10
363.297504
 20
257.512799
 42
0.041822
  0
SEQEND
  0
ENDSEC
  0
EOF
