M48
; DRILL file {KiCad (5.1.9)-1} date 07/16/21 12:39:11
; FORMAT={-:-/ absolute / metric / decimal}
; #@! TF.CreationDate,2021-07-16T12:39:11-07:00
; #@! TF.GenerationSoftware,Kicad,Pcbnew,(5.1.9)-1
; #@! TF.FileFunction,Plated,1,2,PTH
FMAT,2
METRIC
T1C0.400
T2C1.000
T3C1.020
%
G90
G05
T1
X91.4Y-183.2
X114.9Y-266.95
X116.0Y-107.15
X116.0Y-109.65
X118.8Y-109.6
X118.8Y-114.7
X118.8Y-190.2
X118.8Y-195.3
X118.89Y-107.305
X121.0Y-119.7
X121.0Y-124.7
X121.0Y-129.8
X121.0Y-134.8
X121.0Y-139.9
X121.0Y-144.9
X121.0Y-149.9
X121.0Y-155.0
X121.0Y-160.0
X121.0Y-165.1
X121.0Y-170.1
X121.0Y-175.1
X121.0Y-180.2
X121.0Y-185.2
X121.0Y-200.3
X121.0Y-205.3
X121.0Y-210.4
X121.0Y-215.4
X121.0Y-220.5
X121.0Y-225.5
X121.0Y-230.5
X121.0Y-235.6
X121.0Y-240.6
X121.0Y-245.7
X121.0Y-250.7
X121.0Y-255.7
X121.0Y-260.8
X121.0Y-265.8
X121.031Y-113.069
X121.031Y-193.669
X123.7Y-109.6
X123.7Y-114.6
X123.7Y-119.7
X123.7Y-190.2
X123.7Y-195.2
X123.7Y-200.3
X123.806Y-107.305
X126.1Y-124.7
X126.1Y-129.8
X126.1Y-134.8
X126.1Y-139.9
X126.1Y-144.9
X126.1Y-149.9
X126.1Y-155.0
X126.1Y-160.0
X126.1Y-165.1
X126.1Y-170.1
X126.1Y-175.1
X126.1Y-180.2
X126.1Y-185.2
X126.1Y-205.3
X126.1Y-210.4
X126.1Y-215.4
X126.1Y-220.5
X126.1Y-225.5
X126.1Y-230.5
X126.1Y-235.6
X126.1Y-240.6
X126.1Y-245.7
X126.1Y-250.7
X126.1Y-255.7
X126.1Y-260.8
X126.1Y-265.8
X126.109Y-118.109
X126.109Y-198.709
X128.8Y-109.6
X128.8Y-114.6
X128.8Y-119.7
X128.8Y-124.7
X128.8Y-190.2
X128.8Y-195.2
X128.8Y-200.3
X128.8Y-205.3
X128.978Y-107.305
X131.1Y-129.8
X131.1Y-134.8
X131.1Y-139.9
X131.1Y-144.9
X131.1Y-149.9
X131.1Y-155.0
X131.1Y-160.0
X131.1Y-165.1
X131.1Y-170.1
X131.1Y-175.1
X131.1Y-180.2
X131.1Y-185.2
X131.1Y-210.4
X131.1Y-215.4
X131.1Y-220.5
X131.1Y-225.5
X131.1Y-230.5
X131.1Y-235.6
X131.1Y-240.6
X131.1Y-245.7
X131.1Y-250.7
X131.1Y-255.7
X131.1Y-260.8
X131.1Y-265.8
X131.148Y-123.148
X131.148Y-203.748
X133.8Y-107.15
X133.8Y-109.6
X133.8Y-114.6
X133.8Y-119.7
X133.8Y-124.7
X133.8Y-190.2
X133.8Y-195.2
X133.8Y-200.3
X133.8Y-205.3
X133.9Y-129.8
X133.9Y-210.4
X136.187Y-128.187
X136.187Y-208.787
X136.2Y-134.8
X136.2Y-139.9
X136.2Y-144.9
X136.2Y-149.9
X136.2Y-155.0
X136.2Y-160.0
X136.2Y-165.1
X136.2Y-170.1
X136.2Y-175.1
X136.2Y-180.2
X136.2Y-185.2
X136.2Y-215.4
X136.2Y-220.5
X136.2Y-225.5
X136.2Y-230.5
X136.2Y-235.6
X136.2Y-240.6
X136.2Y-245.7
X136.2Y-250.7
X136.2Y-255.7
X136.2Y-260.8
X136.2Y-265.8
X138.85Y-107.2
X138.9Y-109.6
X138.9Y-114.6
X138.9Y-119.7
X138.9Y-124.7
X138.9Y-129.8
X138.9Y-134.8
X138.9Y-190.2
X138.9Y-195.2
X138.9Y-200.3
X138.9Y-205.3
X138.9Y-210.4
X138.9Y-215.4
X141.2Y-139.9
X141.2Y-144.9
X141.2Y-149.9
X141.2Y-155.0
X141.2Y-160.0
X141.2Y-165.1
X141.2Y-170.1
X141.2Y-175.1
X141.2Y-180.2
X141.2Y-185.2
X141.2Y-220.5
X141.2Y-225.5
X141.2Y-230.5
X141.2Y-235.6
X141.2Y-240.6
X141.2Y-245.7
X141.2Y-250.7
X141.2Y-255.7
X141.2Y-260.8
X141.2Y-265.8
X141.227Y-133.227
X141.227Y-213.827
X143.85Y-107.25
X143.9Y-109.6
X143.9Y-114.6
X143.9Y-119.7
X143.9Y-124.7
X143.9Y-129.8
X143.9Y-134.8
X143.9Y-139.9
X143.9Y-190.2
X143.9Y-195.2
X143.9Y-200.3
X143.9Y-205.3
X143.9Y-210.4
X143.9Y-215.4
X143.9Y-220.5
X146.2Y-144.9
X146.2Y-149.9
X146.2Y-155.0
X146.2Y-160.0
X146.2Y-165.1
X146.2Y-170.1
X146.2Y-175.1
X146.2Y-180.2
X146.2Y-185.2
X146.2Y-225.5
X146.2Y-230.5
X146.2Y-235.6
X146.2Y-240.6
X146.2Y-245.7
X146.2Y-250.7
X146.2Y-255.7
X146.2Y-260.8
X146.2Y-265.8
X146.234Y-138.266
X146.234Y-218.866
X148.9Y-144.9
X148.9Y-225.5
X148.9Y-107.305
X148.9Y-109.6
X148.9Y-114.6
X148.9Y-119.7
X148.9Y-124.7
X148.9Y-129.8
X148.9Y-134.8
X148.9Y-139.8
X148.9Y-190.2
X148.9Y-195.2
X148.9Y-200.3
X148.9Y-205.3
X148.9Y-210.4
X148.9Y-215.4
X148.9Y-220.4
X151.25Y-99.1
X151.3Y-149.9
X151.3Y-155.0
X151.3Y-160.0
X151.3Y-165.1
X151.3Y-170.1
X151.3Y-175.1
X151.3Y-180.2
X151.3Y-185.2
X151.3Y-230.5
X151.3Y-235.6
X151.3Y-240.6
X151.3Y-245.7
X151.3Y-250.7
X151.3Y-255.7
X151.3Y-260.8
X151.3Y-265.8
X151.306Y-143.306
X151.306Y-223.906
X154.0Y-107.225
X154.0Y-109.6
X154.0Y-114.6
X154.0Y-119.7
X154.0Y-124.7
X154.0Y-129.8
X154.0Y-134.8
X154.0Y-139.8
X154.0Y-144.9
X154.0Y-149.9
X154.0Y-190.2
X154.0Y-195.2
X154.0Y-200.3
X154.0Y-205.3
X154.0Y-210.4
X154.0Y-215.4
X154.0Y-220.4
X154.0Y-225.5
X154.0Y-230.5
X156.255Y-148.345
X156.255Y-228.945
X156.3Y-155.0
X156.3Y-160.0
X156.3Y-165.1
X156.3Y-170.1
X156.3Y-175.1
X156.3Y-180.2
X156.3Y-185.2
X156.3Y-235.6
X156.3Y-240.6
X156.3Y-245.7
X156.3Y-250.7
X156.3Y-255.7
X156.3Y-260.8
X156.3Y-265.8
X156.312Y-98.454
X156.4Y-95.6
X156.45Y-100.95
X157.102Y-99.647
X159.0Y-107.2
X159.0Y-109.6
X159.0Y-114.6
X159.0Y-119.7
X159.0Y-124.7
X159.0Y-129.8
X159.0Y-134.8
X159.0Y-139.8
X159.0Y-144.9
X159.0Y-149.9
X159.0Y-155.0
X159.0Y-190.2
X159.0Y-195.2
X159.0Y-200.3
X159.0Y-205.3
X159.0Y-210.4
X159.0Y-215.4
X159.0Y-220.4
X159.0Y-225.5
X159.0Y-230.5
X159.0Y-235.6
X161.3Y-160.0
X161.3Y-165.1
X161.3Y-170.1
X161.3Y-175.1
X161.3Y-180.2
X161.3Y-185.2
X161.3Y-240.6
X161.3Y-245.7
X161.3Y-250.7
X161.3Y-255.7
X161.3Y-260.8
X161.3Y-265.8
X161.384Y-153.384
X161.384Y-233.984
X163.93Y-107.305
X164.0Y-109.6
X164.0Y-114.6
X164.0Y-119.6
X164.0Y-124.7
X164.0Y-129.7
X164.0Y-134.8
X164.0Y-139.8
X164.0Y-144.8
X164.0Y-149.9
X164.0Y-154.9
X164.0Y-160.0
X164.0Y-190.2
X164.0Y-195.2
X164.0Y-200.2
X164.0Y-205.3
X164.0Y-210.3
X164.0Y-215.4
X164.0Y-220.4
X164.0Y-225.4
X164.0Y-230.5
X164.0Y-235.5
X164.0Y-240.6
X164.8Y-94.7
X166.376Y-158.424
X166.376Y-239.024
X166.4Y-165.1
X166.4Y-170.1
X166.4Y-175.1
X166.4Y-180.2
X166.4Y-185.2
X166.4Y-245.7
X166.4Y-250.7
X166.4Y-255.7
X166.4Y-260.8
X166.4Y-265.8
X167.9Y-266.95
X168.65Y-267.9
X169.1Y-107.2
X169.1Y-109.6
X169.1Y-114.7
X169.1Y-119.7
X169.1Y-124.7
X169.1Y-129.8
X169.1Y-134.8
X169.1Y-139.9
X169.1Y-144.9
X169.1Y-149.9
X169.1Y-155.0
X169.1Y-160.0
X169.1Y-165.1
X169.1Y-190.2
X169.1Y-195.3
X169.1Y-200.3
X169.1Y-205.3
X169.1Y-210.4
X169.1Y-215.4
X169.1Y-220.5
X169.1Y-225.5
X169.1Y-230.5
X169.1Y-235.6
X169.1Y-240.6
X169.1Y-245.7
X169.492Y-268.807
X170.75Y-268.05
X171.4Y-170.1
X171.4Y-175.1
X171.4Y-180.2
X171.4Y-185.2
X171.4Y-250.7
X171.4Y-255.7
X171.4Y-260.8
X171.4Y-265.8
X171.537Y-163.463
X171.537Y-244.063
X171.55Y-276.85
X172.65Y-276.6
X173.35Y-266.95
X174.1Y-107.2
X174.1Y-109.6
X174.1Y-114.6
X174.1Y-119.7
X174.1Y-124.7
X174.1Y-129.7
X174.1Y-134.8
X174.1Y-139.8
X174.1Y-144.9
X174.1Y-149.9
X174.1Y-154.9
X174.1Y-160.0
X174.1Y-165.0
X174.1Y-170.1
X174.1Y-190.2
X174.1Y-195.2
X174.1Y-200.3
X174.1Y-205.3
X174.1Y-210.3
X174.1Y-215.4
X174.1Y-220.4
X174.1Y-225.5
X174.1Y-230.5
X174.1Y-235.5
X174.1Y-240.6
X174.1Y-245.6
X174.1Y-250.7
X176.5Y-175.2
X176.5Y-180.3
X176.5Y-185.3
X176.5Y-255.8
X176.5Y-260.9
X176.5Y-265.9
X176.598Y-168.502
X176.598Y-249.102
X177.4Y-275.25
X179.1Y-107.2
X179.1Y-109.6
X179.1Y-114.7
X179.1Y-119.7
X179.1Y-124.8
X179.1Y-129.8
X179.1Y-134.8
X179.1Y-139.9
X179.1Y-144.9
X179.1Y-150.0
X179.1Y-155.0
X179.1Y-160.0
X179.1Y-165.1
X179.1Y-170.1
X179.1Y-175.2
X179.1Y-190.2
X179.1Y-195.3
X179.1Y-200.3
X179.1Y-205.4
X179.1Y-210.4
X179.1Y-215.4
X179.1Y-220.5
X179.1Y-225.5
X179.1Y-230.6
X179.1Y-235.6
X179.1Y-240.6
X179.1Y-245.7
X179.1Y-250.7
X179.1Y-255.8
X181.6Y-180.2
X181.6Y-185.2
X181.6Y-260.8
X181.6Y-265.8
X181.658Y-173.542
X181.658Y-254.142
X184.15Y-107.2
X184.2Y-109.6
X184.2Y-114.6
X184.2Y-119.7
X184.2Y-124.7
X184.2Y-129.8
X184.2Y-134.8
X184.2Y-139.8
X184.2Y-144.9
X184.2Y-149.9
X184.2Y-155.0
X184.2Y-160.0
X184.2Y-165.0
X184.2Y-170.1
X184.2Y-175.1
X184.2Y-180.2
X184.2Y-190.2
X184.2Y-195.2
X184.2Y-200.3
X184.2Y-205.3
X184.2Y-210.4
X184.2Y-215.4
X184.2Y-220.4
X184.2Y-225.5
X184.2Y-230.5
X184.2Y-235.6
X184.2Y-240.6
X184.2Y-245.6
X184.2Y-250.7
X184.2Y-255.7
X184.2Y-260.8
X186.5Y-185.2
X186.5Y-265.8
X186.519Y-178.581
X186.519Y-259.181
X189.45Y-94.7
X189.5Y-275.25
X191.625Y-271.525
X191.65Y-92.4
X191.65Y-98.15
X192.45Y-98.95
X192.5Y-273.5
X192.95Y-92.45
X195.5Y-267.0
X196.65Y-107.1
X196.65Y-109.6
X199.4Y-109.6
X199.4Y-114.7
X199.4Y-190.2
X199.4Y-195.3
X199.54Y-107.255
X200.3Y-90.65
X201.0Y-88.3
X201.6Y-119.7
X201.6Y-124.7
X201.6Y-129.8
X201.6Y-134.8
X201.6Y-139.9
X201.6Y-144.9
X201.6Y-149.9
X201.6Y-155.0
X201.6Y-160.0
X201.6Y-165.1
X201.6Y-170.1
X201.6Y-175.1
X201.6Y-180.2
X201.6Y-185.2
X201.6Y-200.3
X201.6Y-205.3
X201.6Y-210.4
X201.6Y-215.4
X201.6Y-220.5
X201.6Y-225.5
X201.6Y-230.5
X201.6Y-235.6
X201.6Y-240.6
X201.6Y-245.7
X201.6Y-250.7
X201.6Y-255.7
X201.6Y-260.8
X201.6Y-265.8
X201.631Y-113.069
X201.631Y-193.669
X204.3Y-109.6
X204.3Y-114.6
X204.3Y-119.7
X204.3Y-190.2
X204.3Y-195.2
X204.3Y-200.3
X204.456Y-107.255
X206.7Y-124.7
X206.7Y-129.8
X206.7Y-134.8
X206.7Y-139.9
X206.7Y-144.9
X206.7Y-149.9
X206.7Y-155.0
X206.7Y-160.0
X206.7Y-165.1
X206.7Y-170.1
X206.7Y-175.1
X206.7Y-180.2
X206.7Y-185.2
X206.7Y-205.3
X206.7Y-210.4
X206.7Y-215.4
X206.7Y-220.5
X206.7Y-225.5
X206.7Y-230.5
X206.7Y-235.6
X206.7Y-240.6
X206.7Y-245.7
X206.7Y-250.7
X206.7Y-255.7
X206.7Y-260.8
X206.7Y-265.8
X206.709Y-118.109
X206.709Y-198.709
X209.4Y-109.6
X209.4Y-114.6
X209.4Y-119.7
X209.4Y-124.7
X209.4Y-190.2
X209.4Y-195.2
X209.4Y-200.3
X209.4Y-205.3
X209.628Y-107.255
X211.7Y-129.8
X211.7Y-134.8
X211.7Y-139.9
X211.7Y-144.9
X211.7Y-149.9
X211.7Y-155.0
X211.7Y-160.0
X211.7Y-165.1
X211.7Y-170.1
X211.7Y-175.1
X211.7Y-180.2
X211.7Y-185.2
X211.7Y-210.4
X211.7Y-215.4
X211.7Y-220.5
X211.7Y-225.5
X211.7Y-230.5
X211.7Y-235.6
X211.7Y-240.6
X211.7Y-245.7
X211.7Y-250.7
X211.7Y-255.7
X211.7Y-260.8
X211.7Y-265.8
X211.748Y-123.148
X211.748Y-203.748
X214.4Y-109.6
X214.4Y-114.6
X214.4Y-119.7
X214.4Y-124.7
X214.4Y-190.2
X214.4Y-195.2
X214.4Y-200.3
X214.4Y-205.3
X214.45Y-107.1
X214.5Y-129.8
X214.5Y-210.4
X216.787Y-128.187
X216.787Y-208.787
X216.8Y-134.8
X216.8Y-139.9
X216.8Y-144.9
X216.8Y-149.9
X216.8Y-155.0
X216.8Y-160.0
X216.8Y-165.1
X216.8Y-170.1
X216.8Y-175.1
X216.8Y-180.2
X216.8Y-185.2
X216.8Y-215.4
X216.8Y-220.5
X216.8Y-225.5
X216.8Y-230.5
X216.8Y-235.6
X216.8Y-240.6
X216.8Y-245.7
X216.8Y-250.7
X216.8Y-255.7
X216.8Y-260.8
X216.8Y-265.8
X219.5Y-107.15
X219.5Y-109.6
X219.5Y-114.6
X219.5Y-119.7
X219.5Y-124.7
X219.5Y-129.8
X219.5Y-134.8
X219.5Y-190.2
X219.5Y-195.2
X219.5Y-200.3
X219.5Y-205.3
X219.5Y-210.4
X219.5Y-215.4
X221.8Y-139.9
X221.8Y-144.9
X221.8Y-149.9
X221.8Y-155.0
X221.8Y-160.0
X221.8Y-165.1
X221.8Y-170.1
X221.8Y-175.1
X221.8Y-180.2
X221.8Y-185.2
X221.8Y-220.5
X221.8Y-225.5
X221.8Y-230.5
X221.8Y-235.6
X221.8Y-240.6
X221.8Y-245.7
X221.8Y-250.7
X221.8Y-255.7
X221.8Y-260.8
X221.8Y-265.8
X221.827Y-133.227
X221.827Y-213.827
X224.5Y-107.2
X224.5Y-109.6
X224.5Y-114.6
X224.5Y-119.7
X224.5Y-124.7
X224.5Y-129.8
X224.5Y-134.8
X224.5Y-139.9
X224.5Y-190.2
X224.5Y-195.2
X224.5Y-200.3
X224.5Y-205.3
X224.5Y-210.4
X224.5Y-215.4
X224.5Y-220.5
X226.8Y-98.95
X226.8Y-144.9
X226.8Y-149.9
X226.8Y-155.0
X226.8Y-160.0
X226.8Y-165.1
X226.8Y-170.1
X226.8Y-175.1
X226.8Y-180.2
X226.8Y-185.2
X226.8Y-225.5
X226.8Y-230.5
X226.8Y-235.6
X226.8Y-240.6
X226.8Y-245.7
X226.8Y-250.7
X226.8Y-255.7
X226.8Y-260.8
X226.8Y-265.8
X226.834Y-138.266
X226.834Y-218.866
X227.9Y-98.15
X229.5Y-144.9
X229.5Y-225.5
X229.5Y-109.6
X229.5Y-114.6
X229.5Y-119.7
X229.5Y-124.7
X229.5Y-129.8
X229.5Y-134.8
X229.5Y-139.8
X229.5Y-190.2
X229.5Y-195.2
X229.5Y-200.3
X229.5Y-205.3
X229.5Y-210.4
X229.5Y-215.4
X229.5Y-220.4
X229.55Y-107.255
X229.561Y-100.161
X231.822Y-281.421
X231.9Y-149.9
X231.9Y-155.0
X231.9Y-160.0
X231.9Y-165.1
X231.9Y-170.1
X231.9Y-175.1
X231.9Y-180.2
X231.9Y-185.2
X231.9Y-230.5
X231.9Y-235.6
X231.9Y-240.6
X231.9Y-245.7
X231.9Y-250.7
X231.9Y-255.7
X231.9Y-260.8
X231.9Y-265.8
X231.9Y-279.35
X231.906Y-143.306
X231.906Y-223.906
X234.6Y-109.6
X234.6Y-114.6
X234.6Y-119.7
X234.6Y-124.7
X234.6Y-129.8
X234.6Y-134.8
X234.6Y-139.8
X234.6Y-144.9
X234.6Y-149.9
X234.6Y-190.2
X234.6Y-195.2
X234.6Y-200.3
X234.6Y-205.3
X234.6Y-210.4
X234.6Y-215.4
X234.6Y-220.4
X234.6Y-225.5
X234.6Y-230.5
X234.65Y-107.175
X235.5Y-98.15
X236.45Y-98.95
X236.855Y-148.345
X236.855Y-228.945
X236.9Y-155.0
X236.9Y-160.0
X236.9Y-165.1
X236.9Y-170.1
X236.9Y-175.1
X236.9Y-180.2
X236.9Y-185.2
X236.9Y-235.6
X236.9Y-240.6
X236.9Y-245.7
X236.9Y-250.7
X236.9Y-255.7
X236.9Y-260.8
X236.9Y-265.8
X237.1Y-100.9
X237.25Y-278.25
X237.3Y-280.45
X238.9Y-93.9
X239.6Y-109.6
X239.6Y-114.6
X239.6Y-119.7
X239.6Y-124.7
X239.6Y-129.8
X239.6Y-134.8
X239.6Y-139.8
X239.6Y-144.9
X239.6Y-149.9
X239.6Y-155.0
X239.6Y-190.2
X239.6Y-195.2
X239.6Y-200.3
X239.6Y-205.3
X239.6Y-210.4
X239.6Y-215.4
X239.6Y-220.4
X239.6Y-225.5
X239.6Y-230.5
X239.6Y-235.6
X239.65Y-107.15
X241.9Y-160.0
X241.9Y-165.1
X241.9Y-170.1
X241.9Y-175.1
X241.9Y-180.2
X241.9Y-185.2
X241.9Y-240.6
X241.9Y-245.7
X241.9Y-250.7
X241.9Y-255.7
X241.9Y-260.8
X241.9Y-265.8
X241.984Y-153.384
X241.984Y-233.984
X243.75Y-275.25
X244.58Y-107.255
X244.6Y-109.6
X244.6Y-114.6
X244.6Y-119.6
X244.6Y-124.7
X244.6Y-129.7
X244.6Y-134.8
X244.6Y-139.8
X244.6Y-144.8
X244.6Y-149.9
X244.6Y-154.9
X244.6Y-160.0
X244.6Y-190.2
X244.6Y-195.2
X244.6Y-200.2
X244.6Y-205.3
X244.6Y-210.3
X244.6Y-215.4
X244.6Y-220.4
X244.6Y-225.4
X244.6Y-230.5
X244.6Y-235.5
X244.6Y-240.6
X246.976Y-158.424
X246.976Y-239.024
X247.0Y-165.1
X247.0Y-170.1
X247.0Y-175.1
X247.0Y-180.2
X247.0Y-185.2
X247.0Y-245.7
X247.0Y-250.7
X247.0Y-255.7
X247.0Y-260.8
X247.0Y-265.8
X248.5Y-267.0
X249.25Y-267.95
X249.7Y-109.6
X249.7Y-114.7
X249.7Y-119.7
X249.7Y-124.7
X249.7Y-129.8
X249.7Y-134.8
X249.7Y-139.9
X249.7Y-144.9
X249.7Y-149.9
X249.7Y-155.0
X249.7Y-160.0
X249.7Y-165.1
X249.7Y-190.2
X249.7Y-195.3
X249.7Y-200.3
X249.7Y-205.3
X249.7Y-210.4
X249.7Y-215.4
X249.7Y-220.5
X249.7Y-225.5
X249.7Y-230.5
X249.7Y-235.6
X249.7Y-240.6
X249.7Y-245.7
X249.75Y-107.15
X250.093Y-268.857
X251.35Y-268.1
X252.0Y-170.1
X252.0Y-175.1
X252.0Y-180.2
X252.0Y-185.2
X252.0Y-250.7
X252.0Y-255.7
X252.0Y-260.8
X252.0Y-265.8
X252.137Y-163.463
X252.137Y-244.063
X252.15Y-276.9
X253.25Y-276.65
X253.95Y-267.0
X254.7Y-109.6
X254.7Y-114.6
X254.7Y-119.7
X254.7Y-124.7
X254.7Y-129.7
X254.7Y-134.8
X254.7Y-139.8
X254.7Y-144.9
X254.7Y-149.9
X254.7Y-154.9
X254.7Y-160.0
X254.7Y-165.0
X254.7Y-170.1
X254.7Y-190.2
X254.7Y-195.2
X254.7Y-200.3
X254.7Y-205.3
X254.7Y-210.3
X254.7Y-215.4
X254.7Y-220.4
X254.7Y-225.5
X254.7Y-230.5
X254.7Y-235.5
X254.7Y-240.6
X254.7Y-245.6
X254.7Y-250.7
X254.75Y-107.15
X257.05Y-273.65
X257.1Y-175.2
X257.1Y-180.3
X257.1Y-185.3
X257.1Y-255.8
X257.1Y-260.9
X257.1Y-265.9
X257.198Y-168.502
X257.198Y-249.102
X259.7Y-109.6
X259.7Y-114.7
X259.7Y-119.7
X259.7Y-124.8
X259.7Y-129.8
X259.7Y-134.8
X259.7Y-139.9
X259.7Y-144.9
X259.7Y-150.0
X259.7Y-155.0
X259.7Y-160.0
X259.7Y-165.1
X259.7Y-170.1
X259.7Y-175.2
X259.7Y-190.2
X259.7Y-195.3
X259.7Y-200.3
X259.7Y-205.4
X259.7Y-210.4
X259.7Y-215.4
X259.7Y-220.5
X259.7Y-225.5
X259.7Y-230.6
X259.7Y-235.6
X259.7Y-240.6
X259.7Y-245.7
X259.7Y-250.7
X259.7Y-255.8
X259.75Y-107.15
X262.2Y-180.2
X262.2Y-185.2
X262.2Y-260.8
X262.2Y-265.8
X262.258Y-173.542
X262.258Y-254.142
X264.8Y-107.15
X264.8Y-109.6
X264.8Y-114.6
X264.8Y-119.7
X264.8Y-124.7
X264.8Y-129.8
X264.8Y-134.8
X264.8Y-139.8
X264.8Y-144.9
X264.8Y-149.9
X264.8Y-155.0
X264.8Y-160.0
X264.8Y-165.0
X264.8Y-170.1
X264.8Y-175.1
X264.8Y-180.2
X264.8Y-190.2
X264.8Y-195.2
X264.8Y-200.3
X264.8Y-205.3
X264.8Y-210.4
X264.8Y-215.4
X264.8Y-220.4
X264.8Y-225.5
X264.8Y-230.5
X264.8Y-235.6
X264.8Y-240.6
X264.8Y-245.6
X264.8Y-250.7
X264.8Y-255.7
X264.8Y-260.8
X267.1Y-185.2
X267.1Y-265.8
X267.119Y-178.581
X267.119Y-259.181
X286.3Y-183.1
X298.8Y-170.4
X299.0Y-195.8
X311.6Y-183.1
T2
X186.55Y-86.26
X186.55Y-88.8
X186.55Y-91.34
X189.8Y-42.1
X189.8Y-44.64
X192.34Y-42.1
X192.34Y-44.64
X194.88Y-42.1
X194.88Y-44.64
T3
X220.38Y-278.805
X220.38Y-293.795
T0
M30
