%TF.GenerationSoftware,KiCad,Pcbnew,(5.1.9)-1*%
%TF.CreationDate,2021-07-16T12:39:06-07:00*%
%TF.ProjectId,CoronaBadge1,436f726f-6e61-4426-9164-6765312e6b69,rev?*%
%TF.SameCoordinates,Original*%
%TF.FileFunction,Legend,Bot*%
%TF.FilePolarity,Positive*%
%FSLAX46Y46*%
G04 Gerber Fmt 4.6, Leading zero omitted, Abs format (unit mm)*
G04 Created by KiCad (PCBNEW (5.1.9)-1) date 2021-07-16 12:39:06*
%MOMM*%
%LPD*%
G01*
G04 APERTURE LIST*
%ADD10C,1.016000*%
%ADD11C,0.127000*%
%ADD12C,0.120000*%
%ADD13C,0.150000*%
%ADD14C,1.530000*%
%ADD15R,0.500000X0.900000*%
%ADD16R,1.700000X1.700000*%
%ADD17O,1.700000X1.700000*%
%ADD18R,0.800000X0.800000*%
G04 APERTURE END LIST*
D10*
X268967142Y-179967142D02*
X267515714Y-185047142D01*
X266064285Y-181418571D01*
X264612857Y-185047142D01*
X263161428Y-179967142D01*
X260984285Y-179967142D02*
X259532857Y-185047142D01*
X258081428Y-181418571D01*
X256630000Y-185047142D01*
X255178571Y-179967142D01*
X253001428Y-179967142D02*
X251550000Y-185047142D01*
X250098571Y-181418571D01*
X248647142Y-185047142D01*
X247195714Y-179967142D01*
X244292857Y-184321428D02*
X243930000Y-184684285D01*
X244292857Y-185047142D01*
X244655714Y-184684285D01*
X244292857Y-184321428D01*
X244292857Y-185047142D01*
X238124285Y-181055714D02*
X237035714Y-181418571D01*
X236672857Y-181781428D01*
X236310000Y-182507142D01*
X236310000Y-183595714D01*
X236672857Y-184321428D01*
X237035714Y-184684285D01*
X237761428Y-185047142D01*
X240664285Y-185047142D01*
X240664285Y-177427142D01*
X238124285Y-177427142D01*
X237398571Y-177790000D01*
X237035714Y-178152857D01*
X236672857Y-178878571D01*
X236672857Y-179604285D01*
X237035714Y-180330000D01*
X237398571Y-180692857D01*
X238124285Y-181055714D01*
X240664285Y-181055714D01*
X233044285Y-185047142D02*
X233044285Y-179967142D01*
X233044285Y-177427142D02*
X233407142Y-177790000D01*
X233044285Y-178152857D01*
X232681428Y-177790000D01*
X233044285Y-177427142D01*
X233044285Y-178152857D01*
X226150000Y-179967142D02*
X226150000Y-186135714D01*
X226512857Y-186861428D01*
X226875714Y-187224285D01*
X227601428Y-187587142D01*
X228690000Y-187587142D01*
X229415714Y-187224285D01*
X226150000Y-184684285D02*
X226875714Y-185047142D01*
X228327142Y-185047142D01*
X229052857Y-184684285D01*
X229415714Y-184321428D01*
X229778571Y-183595714D01*
X229778571Y-181418571D01*
X229415714Y-180692857D01*
X229052857Y-180330000D01*
X228327142Y-179967142D01*
X226875714Y-179967142D01*
X226150000Y-180330000D01*
X219981428Y-181055714D02*
X222521428Y-181055714D01*
X222521428Y-185047142D02*
X222521428Y-177427142D01*
X218892857Y-177427142D01*
X212724285Y-179967142D02*
X212724285Y-185047142D01*
X215990000Y-179967142D02*
X215990000Y-183958571D01*
X215627142Y-184684285D01*
X214901428Y-185047142D01*
X213812857Y-185047142D01*
X213087142Y-184684285D01*
X212724285Y-184321428D01*
X205830000Y-184684285D02*
X206555714Y-185047142D01*
X208007142Y-185047142D01*
X208732857Y-184684285D01*
X209095714Y-184321428D01*
X209458571Y-183595714D01*
X209458571Y-181418571D01*
X209095714Y-180692857D01*
X208732857Y-180330000D01*
X208007142Y-179967142D01*
X206555714Y-179967142D01*
X205830000Y-180330000D01*
X202564285Y-185047142D02*
X202564285Y-177427142D01*
X201838571Y-182144285D02*
X199661428Y-185047142D01*
X199661428Y-179967142D02*
X202564285Y-182870000D01*
X196395714Y-185047142D02*
X196395714Y-179967142D01*
X196395714Y-177427142D02*
X196758571Y-177790000D01*
X196395714Y-178152857D01*
X196032857Y-177790000D01*
X196395714Y-177427142D01*
X196395714Y-178152857D01*
X192767142Y-179967142D02*
X192767142Y-185047142D01*
X192767142Y-180692857D02*
X192404285Y-180330000D01*
X191678571Y-179967142D01*
X190590000Y-179967142D01*
X189864285Y-180330000D01*
X189501428Y-181055714D01*
X189501428Y-185047142D01*
X182607142Y-179967142D02*
X182607142Y-186135714D01*
X182970000Y-186861428D01*
X183332857Y-187224285D01*
X184058571Y-187587142D01*
X185147142Y-187587142D01*
X185872857Y-187224285D01*
X182607142Y-184684285D02*
X183332857Y-185047142D01*
X184784285Y-185047142D01*
X185510000Y-184684285D01*
X185872857Y-184321428D01*
X186235714Y-183595714D01*
X186235714Y-181418571D01*
X185872857Y-180692857D01*
X185510000Y-180330000D01*
X184784285Y-179967142D01*
X183332857Y-179967142D01*
X182607142Y-180330000D01*
X176438571Y-181055714D02*
X175350000Y-181418571D01*
X174987142Y-181781428D01*
X174624285Y-182507142D01*
X174624285Y-183595714D01*
X174987142Y-184321428D01*
X175350000Y-184684285D01*
X176075714Y-185047142D01*
X178978571Y-185047142D01*
X178978571Y-177427142D01*
X176438571Y-177427142D01*
X175712857Y-177790000D01*
X175350000Y-178152857D01*
X174987142Y-178878571D01*
X174987142Y-179604285D01*
X175350000Y-180330000D01*
X175712857Y-180692857D01*
X176438571Y-181055714D01*
X178978571Y-181055714D01*
X168092857Y-185047142D02*
X168092857Y-181055714D01*
X168455714Y-180330000D01*
X169181428Y-179967142D01*
X170632857Y-179967142D01*
X171358571Y-180330000D01*
X168092857Y-184684285D02*
X168818571Y-185047142D01*
X170632857Y-185047142D01*
X171358571Y-184684285D01*
X171721428Y-183958571D01*
X171721428Y-183232857D01*
X171358571Y-182507142D01*
X170632857Y-182144285D01*
X168818571Y-182144285D01*
X168092857Y-181781428D01*
X161198571Y-185047142D02*
X161198571Y-177427142D01*
X161198571Y-184684285D02*
X161924285Y-185047142D01*
X163375714Y-185047142D01*
X164101428Y-184684285D01*
X164464285Y-184321428D01*
X164827142Y-183595714D01*
X164827142Y-181418571D01*
X164464285Y-180692857D01*
X164101428Y-180330000D01*
X163375714Y-179967142D01*
X161924285Y-179967142D01*
X161198571Y-180330000D01*
X154304285Y-179967142D02*
X154304285Y-186135714D01*
X154667142Y-186861428D01*
X155030000Y-187224285D01*
X155755714Y-187587142D01*
X156844285Y-187587142D01*
X157570000Y-187224285D01*
X154304285Y-184684285D02*
X155030000Y-185047142D01*
X156481428Y-185047142D01*
X157207142Y-184684285D01*
X157570000Y-184321428D01*
X157932857Y-183595714D01*
X157932857Y-181418571D01*
X157570000Y-180692857D01*
X157207142Y-180330000D01*
X156481428Y-179967142D01*
X155030000Y-179967142D01*
X154304285Y-180330000D01*
X147772857Y-184684285D02*
X148498571Y-185047142D01*
X149950000Y-185047142D01*
X150675714Y-184684285D01*
X151038571Y-183958571D01*
X151038571Y-181055714D01*
X150675714Y-180330000D01*
X149950000Y-179967142D01*
X148498571Y-179967142D01*
X147772857Y-180330000D01*
X147410000Y-181055714D01*
X147410000Y-181781428D01*
X151038571Y-182507142D01*
X144144285Y-184321428D02*
X143781428Y-184684285D01*
X144144285Y-185047142D01*
X144507142Y-184684285D01*
X144144285Y-184321428D01*
X144144285Y-185047142D01*
X137250000Y-184684285D02*
X137975714Y-185047142D01*
X139427142Y-185047142D01*
X140152857Y-184684285D01*
X140515714Y-184321428D01*
X140878571Y-183595714D01*
X140878571Y-181418571D01*
X140515714Y-180692857D01*
X140152857Y-180330000D01*
X139427142Y-179967142D01*
X137975714Y-179967142D01*
X137250000Y-180330000D01*
X132895714Y-185047142D02*
X133621428Y-184684285D01*
X133984285Y-184321428D01*
X134347142Y-183595714D01*
X134347142Y-181418571D01*
X133984285Y-180692857D01*
X133621428Y-180330000D01*
X132895714Y-179967142D01*
X131807142Y-179967142D01*
X131081428Y-180330000D01*
X130718571Y-180692857D01*
X130355714Y-181418571D01*
X130355714Y-183595714D01*
X130718571Y-184321428D01*
X131081428Y-184684285D01*
X131807142Y-185047142D01*
X132895714Y-185047142D01*
X127090000Y-185047142D02*
X127090000Y-179967142D01*
X127090000Y-180692857D02*
X126727142Y-180330000D01*
X126001428Y-179967142D01*
X124912857Y-179967142D01*
X124187142Y-180330000D01*
X123824285Y-181055714D01*
X123824285Y-185047142D01*
X123824285Y-181055714D02*
X123461428Y-180330000D01*
X122735714Y-179967142D01*
X121647142Y-179967142D01*
X120921428Y-180330000D01*
X120558571Y-181055714D01*
X120558571Y-185047142D01*
D11*
X163460000Y-302760000D02*
X222970000Y-302760000D01*
X222970000Y-302760000D02*
X222970000Y-269840000D01*
X222970000Y-269840000D02*
X163460000Y-269840000D01*
X163460000Y-269840000D02*
X163460000Y-302760000D01*
D12*
X178250000Y-85520000D02*
X177250000Y-85520000D01*
X177250000Y-86880000D02*
X178250000Y-86880000D01*
X188470000Y-40770000D02*
X188470000Y-42100000D01*
X189800000Y-40770000D02*
X188470000Y-40770000D01*
X188470000Y-43370000D02*
X188470000Y-45970000D01*
X191070000Y-43370000D02*
X188470000Y-43370000D01*
X191070000Y-40770000D02*
X191070000Y-43370000D01*
X188470000Y-45970000D02*
X196210000Y-45970000D01*
X191070000Y-40770000D02*
X196210000Y-40770000D01*
X196210000Y-40770000D02*
X196210000Y-45970000D01*
X179300000Y-86750000D02*
X181400000Y-86750000D01*
X179300000Y-85750000D02*
X181400000Y-85750000D01*
X179300000Y-86750000D02*
X179300000Y-85750000D01*
D13*
X167760714Y-303863571D02*
X167617857Y-303911190D01*
X167570238Y-303958809D01*
X167522619Y-304054047D01*
X167522619Y-304196904D01*
X167570238Y-304292142D01*
X167617857Y-304339761D01*
X167713095Y-304387380D01*
X168094047Y-304387380D01*
X168094047Y-303387380D01*
X167760714Y-303387380D01*
X167665476Y-303435000D01*
X167617857Y-303482619D01*
X167570238Y-303577857D01*
X167570238Y-303673095D01*
X167617857Y-303768333D01*
X167665476Y-303815952D01*
X167760714Y-303863571D01*
X168094047Y-303863571D01*
X167236904Y-303387380D02*
X166665476Y-303387380D01*
X166951190Y-304387380D02*
X166951190Y-303387380D01*
X165808333Y-304387380D02*
X166379761Y-304387380D01*
X166094047Y-304387380D02*
X166094047Y-303387380D01*
X166189285Y-303530238D01*
X166284523Y-303625476D01*
X166379761Y-303673095D01*
X224323333Y-293400000D02*
X223256666Y-293400000D01*
X224323333Y-278050000D02*
X223256666Y-278050000D01*
X223790000Y-278583333D02*
X223790000Y-277516666D01*
X177916666Y-85202380D02*
X178250000Y-84726190D01*
X178488095Y-85202380D02*
X178488095Y-84202380D01*
X178107142Y-84202380D01*
X178011904Y-84250000D01*
X177964285Y-84297619D01*
X177916666Y-84392857D01*
X177916666Y-84535714D01*
X177964285Y-84630952D01*
X178011904Y-84678571D01*
X178107142Y-84726190D01*
X178488095Y-84726190D01*
X177583333Y-84202380D02*
X176964285Y-84202380D01*
X177297619Y-84583333D01*
X177154761Y-84583333D01*
X177059523Y-84630952D01*
X177011904Y-84678571D01*
X176964285Y-84773809D01*
X176964285Y-85011904D01*
X177011904Y-85107142D01*
X177059523Y-85154761D01*
X177154761Y-85202380D01*
X177440476Y-85202380D01*
X177535714Y-85154761D01*
X177583333Y-85107142D01*
X184923809Y-87352380D02*
X184923809Y-88161904D01*
X184876190Y-88257142D01*
X184828571Y-88304761D01*
X184733333Y-88352380D01*
X184542857Y-88352380D01*
X184447619Y-88304761D01*
X184400000Y-88257142D01*
X184352380Y-88161904D01*
X184352380Y-87352380D01*
X183876190Y-88352380D02*
X183876190Y-87352380D01*
X183495238Y-87352380D01*
X183400000Y-87400000D01*
X183352380Y-87447619D01*
X183304761Y-87542857D01*
X183304761Y-87685714D01*
X183352380Y-87780952D01*
X183400000Y-87828571D01*
X183495238Y-87876190D01*
X183876190Y-87876190D01*
X182876190Y-88352380D02*
X182876190Y-87352380D01*
X182638095Y-87352380D01*
X182495238Y-87400000D01*
X182400000Y-87495238D01*
X182352380Y-87590476D01*
X182304761Y-87780952D01*
X182304761Y-87923809D01*
X182352380Y-88114285D01*
X182400000Y-88209523D01*
X182495238Y-88304761D01*
X182638095Y-88352380D01*
X182876190Y-88352380D01*
X181876190Y-88352380D02*
X181876190Y-87352380D01*
X186922380Y-43036666D02*
X187636666Y-43036666D01*
X187779523Y-42989047D01*
X187874761Y-42893809D01*
X187922380Y-42750952D01*
X187922380Y-42655714D01*
X187922380Y-44036666D02*
X187922380Y-43465238D01*
X187922380Y-43750952D02*
X186922380Y-43750952D01*
X187065238Y-43655714D01*
X187160476Y-43560476D01*
X187208095Y-43465238D01*
X182766666Y-87952380D02*
X182766666Y-86952380D01*
X182528571Y-86952380D01*
X182385714Y-87000000D01*
X182290476Y-87095238D01*
X182242857Y-87190476D01*
X182195238Y-87380952D01*
X182195238Y-87523809D01*
X182242857Y-87714285D01*
X182290476Y-87809523D01*
X182385714Y-87904761D01*
X182528571Y-87952380D01*
X182766666Y-87952380D01*
X181242857Y-87952380D02*
X181814285Y-87952380D01*
X181528571Y-87952380D02*
X181528571Y-86952380D01*
X181623809Y-87095238D01*
X181719047Y-87190476D01*
X181814285Y-87238095D01*
X180623809Y-86952380D02*
X180528571Y-86952380D01*
X180433333Y-87000000D01*
X180385714Y-87047619D01*
X180338095Y-87142857D01*
X180290476Y-87333333D01*
X180290476Y-87571428D01*
X180338095Y-87761904D01*
X180385714Y-87857142D01*
X180433333Y-87904761D01*
X180528571Y-87952380D01*
X180623809Y-87952380D01*
X180719047Y-87904761D01*
X180766666Y-87857142D01*
X180814285Y-87761904D01*
X180861904Y-87571428D01*
X180861904Y-87333333D01*
X180814285Y-87142857D01*
X180766666Y-87047619D01*
X180719047Y-87000000D01*
X180623809Y-86952380D01*
X179909523Y-87047619D02*
X179861904Y-87000000D01*
X179766666Y-86952380D01*
X179528571Y-86952380D01*
X179433333Y-87000000D01*
X179385714Y-87047619D01*
X179338095Y-87142857D01*
X179338095Y-87238095D01*
X179385714Y-87380952D01*
X179957142Y-87952380D01*
X179338095Y-87952380D01*
X178433333Y-86952380D02*
X178909523Y-86952380D01*
X178957142Y-87428571D01*
X178909523Y-87380952D01*
X178814285Y-87333333D01*
X178576190Y-87333333D01*
X178480952Y-87380952D01*
X178433333Y-87428571D01*
X178385714Y-87523809D01*
X178385714Y-87761904D01*
X178433333Y-87857142D01*
X178480952Y-87904761D01*
X178576190Y-87952380D01*
X178814285Y-87952380D01*
X178909523Y-87904761D01*
X178957142Y-87857142D01*
%LPC*%
D14*
X220380000Y-278805000D03*
X220380000Y-293795000D03*
D15*
X178500000Y-86200000D03*
X177000000Y-86200000D03*
D16*
X186550000Y-86260000D03*
D17*
X186550000Y-88800000D03*
X186550000Y-91340000D03*
D16*
X189800000Y-42100000D03*
D17*
X189800000Y-44640000D03*
X192340000Y-42100000D03*
X192340000Y-44640000D03*
X194880000Y-42100000D03*
X194880000Y-44640000D03*
D18*
X181400000Y-86250000D03*
X179800000Y-86250000D03*
M02*
