%TF.GenerationSoftware,KiCad,Pcbnew,(5.1.9)-1*%
%TF.CreationDate,2021-07-16T12:39:06-07:00*%
%TF.ProjectId,CoronaBadge1,436f726f-6e61-4426-9164-6765312e6b69,rev?*%
%TF.SameCoordinates,Original*%
%TF.FileFunction,Paste,Top*%
%TF.FilePolarity,Positive*%
%FSLAX46Y46*%
G04 Gerber Fmt 4.6, Leading zero omitted, Abs format (unit mm)*
G04 Created by KiCad (PCBNEW (5.1.9)-1) date 2021-07-16 12:39:06*
%MOMM*%
%LPD*%
G01*
G04 APERTURE LIST*
%ADD10R,1.900000X1.400000*%
%ADD11R,0.800000X0.800000*%
%ADD12R,0.750000X0.800000*%
%ADD13R,0.400000X1.200000*%
%ADD14R,0.650000X1.060000*%
%ADD15R,1.000000X0.800000*%
%ADD16R,0.700000X1.500000*%
%ADD17R,0.900000X0.500000*%
%ADD18R,2.700000X0.800000*%
%ADD19R,0.800000X0.750000*%
G04 APERTURE END LIST*
D10*
X300650000Y-170400000D03*
X293150000Y-170400000D03*
X89750000Y-183200000D03*
X97250000Y-183200000D03*
X300650000Y-195800000D03*
X293150000Y-195800000D03*
X287950000Y-183100000D03*
X280450000Y-183100000D03*
X313350000Y-183100000D03*
X305850000Y-183100000D03*
D11*
X271080472Y-264250473D03*
X271080472Y-265850473D03*
X266041102Y-264250473D03*
X266041102Y-265850473D03*
X261001732Y-264250473D03*
X261001732Y-265850473D03*
X255962362Y-264250473D03*
X255962362Y-265850473D03*
X250922992Y-264250473D03*
X250922992Y-265850473D03*
X245883622Y-264250473D03*
X245883622Y-265850473D03*
X240844251Y-264250473D03*
X240844251Y-265850473D03*
X235804881Y-264250473D03*
X235804881Y-265850473D03*
X230765511Y-264250473D03*
X230765511Y-265850473D03*
X225726141Y-264250473D03*
X225726141Y-265850473D03*
X220686771Y-264250473D03*
X220686771Y-265850473D03*
X215647401Y-264250473D03*
X215647401Y-265850473D03*
X210608031Y-264250473D03*
X210608031Y-265850473D03*
X205568661Y-264250473D03*
X205568661Y-265850473D03*
X200529291Y-264250473D03*
X200529291Y-265850473D03*
X195489921Y-264250473D03*
X195489921Y-265850473D03*
X190450551Y-264250473D03*
X190450551Y-265850473D03*
X185411181Y-264250473D03*
X185411181Y-265850473D03*
X180371811Y-264250473D03*
X180371811Y-265850473D03*
X175332440Y-264250473D03*
X175332440Y-265850473D03*
X170293070Y-264250473D03*
X170293070Y-265850473D03*
X165253700Y-264250473D03*
X165253700Y-265850473D03*
X160214330Y-264250473D03*
X160214330Y-265850473D03*
X155174960Y-264250473D03*
X155174960Y-265850473D03*
X150135590Y-264250473D03*
X150135590Y-265850473D03*
X145096220Y-264250473D03*
X145096220Y-265850473D03*
X140056850Y-264250473D03*
X140056850Y-265850473D03*
X135017480Y-264250473D03*
X135017480Y-265850473D03*
X129978110Y-264250473D03*
X129978110Y-265850473D03*
X124938740Y-264250473D03*
X124938740Y-265850473D03*
X119899370Y-264250473D03*
X119899370Y-265850473D03*
X114860000Y-264250473D03*
X114860000Y-265850473D03*
X271080472Y-259211103D03*
X271080472Y-260811103D03*
X266041102Y-259211103D03*
X266041102Y-260811103D03*
X261001732Y-259211103D03*
X261001732Y-260811103D03*
X255962362Y-259211103D03*
X255962362Y-260811103D03*
X250922992Y-259211103D03*
X250922992Y-260811103D03*
X245883622Y-259211103D03*
X245883622Y-260811103D03*
X240844251Y-259211103D03*
X240844251Y-260811103D03*
X235804881Y-259211103D03*
X235804881Y-260811103D03*
X230765511Y-259211103D03*
X230765511Y-260811103D03*
X225726141Y-259211103D03*
X225726141Y-260811103D03*
X220686771Y-259211103D03*
X220686771Y-260811103D03*
X215647401Y-259211103D03*
X215647401Y-260811103D03*
X210608031Y-259211103D03*
X210608031Y-260811103D03*
X205568661Y-259211103D03*
X205568661Y-260811103D03*
X200529291Y-259211103D03*
X200529291Y-260811103D03*
X195489921Y-259211103D03*
X195489921Y-260811103D03*
X190450551Y-259211103D03*
X190450551Y-260811103D03*
X185411181Y-259211103D03*
X185411181Y-260811103D03*
X180371811Y-259211103D03*
X180371811Y-260811103D03*
X175332440Y-259211103D03*
X175332440Y-260811103D03*
X170293070Y-259211103D03*
X170293070Y-260811103D03*
X165253700Y-259211103D03*
X165253700Y-260811103D03*
X160214330Y-259211103D03*
X160214330Y-260811103D03*
X155174960Y-259211103D03*
X155174960Y-260811103D03*
X150135590Y-259211103D03*
X150135590Y-260811103D03*
X145096220Y-259211103D03*
X145096220Y-260811103D03*
X140056850Y-259211103D03*
X140056850Y-260811103D03*
X135017480Y-259211103D03*
X135017480Y-260811103D03*
X129978110Y-259211103D03*
X129978110Y-260811103D03*
X124938740Y-259211103D03*
X124938740Y-260811103D03*
X119899370Y-259211103D03*
X119899370Y-260811103D03*
X114860000Y-259211103D03*
X114860000Y-260811103D03*
X271080472Y-254171733D03*
X271080472Y-255771733D03*
X266041102Y-254171733D03*
X266041102Y-255771733D03*
X261001732Y-254171733D03*
X261001732Y-255771733D03*
X255962362Y-254171733D03*
X255962362Y-255771733D03*
X250922992Y-254171733D03*
X250922992Y-255771733D03*
X245883622Y-254171733D03*
X245883622Y-255771733D03*
X240844251Y-254171733D03*
X240844251Y-255771733D03*
X235804881Y-254171733D03*
X235804881Y-255771733D03*
X230765511Y-254171733D03*
X230765511Y-255771733D03*
X225726141Y-254171733D03*
X225726141Y-255771733D03*
X220686771Y-254171733D03*
X220686771Y-255771733D03*
X215647401Y-254171733D03*
X215647401Y-255771733D03*
X210608031Y-254171733D03*
X210608031Y-255771733D03*
X205568661Y-254171733D03*
X205568661Y-255771733D03*
X200529291Y-254171733D03*
X200529291Y-255771733D03*
X195489921Y-254171733D03*
X195489921Y-255771733D03*
X190450551Y-254171733D03*
X190450551Y-255771733D03*
X185411181Y-254171733D03*
X185411181Y-255771733D03*
X180371811Y-254171733D03*
X180371811Y-255771733D03*
X175332440Y-254171733D03*
X175332440Y-255771733D03*
X170293070Y-254171733D03*
X170293070Y-255771733D03*
X165253700Y-254171733D03*
X165253700Y-255771733D03*
X160214330Y-254171733D03*
X160214330Y-255771733D03*
X155174960Y-254171733D03*
X155174960Y-255771733D03*
X150135590Y-254171733D03*
X150135590Y-255771733D03*
X145096220Y-254171733D03*
X145096220Y-255771733D03*
X140056850Y-254171733D03*
X140056850Y-255771733D03*
X135017480Y-254171733D03*
X135017480Y-255771733D03*
X129978110Y-254171733D03*
X129978110Y-255771733D03*
X124938740Y-254171733D03*
X124938740Y-255771733D03*
X119899370Y-254171733D03*
X119899370Y-255771733D03*
X114860000Y-254171733D03*
X114860000Y-255771733D03*
X271080472Y-249132363D03*
X271080472Y-250732363D03*
X266041102Y-249132363D03*
X266041102Y-250732363D03*
X261001732Y-249132363D03*
X261001732Y-250732363D03*
X255962362Y-249132363D03*
X255962362Y-250732363D03*
X250922992Y-249132363D03*
X250922992Y-250732363D03*
X245883622Y-249132363D03*
X245883622Y-250732363D03*
X240844251Y-249132363D03*
X240844251Y-250732363D03*
X235804881Y-249132363D03*
X235804881Y-250732363D03*
X230765511Y-249132363D03*
X230765511Y-250732363D03*
X225726141Y-249132363D03*
X225726141Y-250732363D03*
X220686771Y-249132363D03*
X220686771Y-250732363D03*
X215647401Y-249132363D03*
X215647401Y-250732363D03*
X210608031Y-249132363D03*
X210608031Y-250732363D03*
X205568661Y-249132363D03*
X205568661Y-250732363D03*
X200529291Y-249132363D03*
X200529291Y-250732363D03*
X195489921Y-249132363D03*
X195489921Y-250732363D03*
X190450551Y-249132363D03*
X190450551Y-250732363D03*
X185411181Y-249132363D03*
X185411181Y-250732363D03*
X180371811Y-249132363D03*
X180371811Y-250732363D03*
X175332440Y-249132363D03*
X175332440Y-250732363D03*
X170293070Y-249132363D03*
X170293070Y-250732363D03*
X165253700Y-249132363D03*
X165253700Y-250732363D03*
X160214330Y-249132363D03*
X160214330Y-250732363D03*
X155174960Y-249132363D03*
X155174960Y-250732363D03*
X150135590Y-249132363D03*
X150135590Y-250732363D03*
X145096220Y-249132363D03*
X145096220Y-250732363D03*
X140056850Y-249132363D03*
X140056850Y-250732363D03*
X135017480Y-249132363D03*
X135017480Y-250732363D03*
X129978110Y-249132363D03*
X129978110Y-250732363D03*
X124938740Y-249132363D03*
X124938740Y-250732363D03*
X119899370Y-249132363D03*
X119899370Y-250732363D03*
X114860000Y-249132363D03*
X114860000Y-250732363D03*
X271080472Y-244092993D03*
X271080472Y-245692993D03*
X266041102Y-244092993D03*
X266041102Y-245692993D03*
X261001732Y-244092993D03*
X261001732Y-245692993D03*
X255962362Y-244092993D03*
X255962362Y-245692993D03*
X250922992Y-244092993D03*
X250922992Y-245692993D03*
X245883622Y-244092993D03*
X245883622Y-245692993D03*
X240844251Y-244092993D03*
X240844251Y-245692993D03*
X235804881Y-244092993D03*
X235804881Y-245692993D03*
X230765511Y-244092993D03*
X230765511Y-245692993D03*
X225726141Y-244092993D03*
X225726141Y-245692993D03*
X220686771Y-244092993D03*
X220686771Y-245692993D03*
X215647401Y-244092993D03*
X215647401Y-245692993D03*
X210608031Y-244092993D03*
X210608031Y-245692993D03*
X205568661Y-244092993D03*
X205568661Y-245692993D03*
X200529291Y-244092993D03*
X200529291Y-245692993D03*
X195489921Y-244092993D03*
X195489921Y-245692993D03*
X190450551Y-244092993D03*
X190450551Y-245692993D03*
X185411181Y-244092993D03*
X185411181Y-245692993D03*
X180371811Y-244092993D03*
X180371811Y-245692993D03*
X175332440Y-244092993D03*
X175332440Y-245692993D03*
X170293070Y-244092993D03*
X170293070Y-245692993D03*
X165253700Y-244092993D03*
X165253700Y-245692993D03*
X160214330Y-244092993D03*
X160214330Y-245692993D03*
X155174960Y-244092993D03*
X155174960Y-245692993D03*
X150135590Y-244092993D03*
X150135590Y-245692993D03*
X145096220Y-244092993D03*
X145096220Y-245692993D03*
X140056850Y-244092993D03*
X140056850Y-245692993D03*
X135017480Y-244092993D03*
X135017480Y-245692993D03*
X129978110Y-244092993D03*
X129978110Y-245692993D03*
X124938740Y-244092993D03*
X124938740Y-245692993D03*
X119899370Y-244092993D03*
X119899370Y-245692993D03*
X114860000Y-244092993D03*
X114860000Y-245692993D03*
X271080472Y-239053623D03*
X271080472Y-240653623D03*
X266041102Y-239053623D03*
X266041102Y-240653623D03*
X261001732Y-239053623D03*
X261001732Y-240653623D03*
X255962362Y-239053623D03*
X255962362Y-240653623D03*
X250922992Y-239053623D03*
X250922992Y-240653623D03*
X245883622Y-239053623D03*
X245883622Y-240653623D03*
X240844251Y-239053623D03*
X240844251Y-240653623D03*
X235804881Y-239053623D03*
X235804881Y-240653623D03*
X230765511Y-239053623D03*
X230765511Y-240653623D03*
X225726141Y-239053623D03*
X225726141Y-240653623D03*
X220686771Y-239053623D03*
X220686771Y-240653623D03*
X215647401Y-239053623D03*
X215647401Y-240653623D03*
X210608031Y-239053623D03*
X210608031Y-240653623D03*
X205568661Y-239053623D03*
X205568661Y-240653623D03*
X200529291Y-239053623D03*
X200529291Y-240653623D03*
X195489921Y-239053623D03*
X195489921Y-240653623D03*
X190450551Y-239053623D03*
X190450551Y-240653623D03*
X185411181Y-239053623D03*
X185411181Y-240653623D03*
X180371811Y-239053623D03*
X180371811Y-240653623D03*
X175332440Y-239053623D03*
X175332440Y-240653623D03*
X170293070Y-239053623D03*
X170293070Y-240653623D03*
X165253700Y-239053623D03*
X165253700Y-240653623D03*
X160214330Y-239053623D03*
X160214330Y-240653623D03*
X155174960Y-239053623D03*
X155174960Y-240653623D03*
X150135590Y-239053623D03*
X150135590Y-240653623D03*
X145096220Y-239053623D03*
X145096220Y-240653623D03*
X140056850Y-239053623D03*
X140056850Y-240653623D03*
X135017480Y-239053623D03*
X135017480Y-240653623D03*
X129978110Y-239053623D03*
X129978110Y-240653623D03*
X124938740Y-239053623D03*
X124938740Y-240653623D03*
X119899370Y-239053623D03*
X119899370Y-240653623D03*
X114860000Y-239053623D03*
X114860000Y-240653623D03*
X271080472Y-234014252D03*
X271080472Y-235614252D03*
X266041102Y-234014252D03*
X266041102Y-235614252D03*
X261001732Y-234014252D03*
X261001732Y-235614252D03*
X255962362Y-234014252D03*
X255962362Y-235614252D03*
X250922992Y-234014252D03*
X250922992Y-235614252D03*
X245883622Y-234014252D03*
X245883622Y-235614252D03*
X240844251Y-234014252D03*
X240844251Y-235614252D03*
X235804881Y-234014252D03*
X235804881Y-235614252D03*
X230765511Y-234014252D03*
X230765511Y-235614252D03*
X225726141Y-234014252D03*
X225726141Y-235614252D03*
X220686771Y-234014252D03*
X220686771Y-235614252D03*
X215647401Y-234014252D03*
X215647401Y-235614252D03*
X210608031Y-234014252D03*
X210608031Y-235614252D03*
X205568661Y-234014252D03*
X205568661Y-235614252D03*
X200529291Y-234014252D03*
X200529291Y-235614252D03*
X195489921Y-234014252D03*
X195489921Y-235614252D03*
X190450551Y-234014252D03*
X190450551Y-235614252D03*
X185411181Y-234014252D03*
X185411181Y-235614252D03*
X180371811Y-234014252D03*
X180371811Y-235614252D03*
X175332440Y-234014252D03*
X175332440Y-235614252D03*
X170293070Y-234014252D03*
X170293070Y-235614252D03*
X165253700Y-234014252D03*
X165253700Y-235614252D03*
X160214330Y-234014252D03*
X160214330Y-235614252D03*
X155174960Y-234014252D03*
X155174960Y-235614252D03*
X150135590Y-234014252D03*
X150135590Y-235614252D03*
X145096220Y-234014252D03*
X145096220Y-235614252D03*
X140056850Y-234014252D03*
X140056850Y-235614252D03*
X135017480Y-234014252D03*
X135017480Y-235614252D03*
X129978110Y-234014252D03*
X129978110Y-235614252D03*
X124938740Y-234014252D03*
X124938740Y-235614252D03*
X119899370Y-234014252D03*
X119899370Y-235614252D03*
X114860000Y-234014252D03*
X114860000Y-235614252D03*
X271080472Y-228974882D03*
X271080472Y-230574882D03*
X266041102Y-228974882D03*
X266041102Y-230574882D03*
X261001732Y-228974882D03*
X261001732Y-230574882D03*
X255962362Y-228974882D03*
X255962362Y-230574882D03*
X250922992Y-228974882D03*
X250922992Y-230574882D03*
X245883622Y-228974882D03*
X245883622Y-230574882D03*
X240844251Y-228974882D03*
X240844251Y-230574882D03*
X235804881Y-228974882D03*
X235804881Y-230574882D03*
X230765511Y-228974882D03*
X230765511Y-230574882D03*
X225726141Y-228974882D03*
X225726141Y-230574882D03*
X220686771Y-228974882D03*
X220686771Y-230574882D03*
X215647401Y-228974882D03*
X215647401Y-230574882D03*
X210608031Y-228974882D03*
X210608031Y-230574882D03*
X205568661Y-228974882D03*
X205568661Y-230574882D03*
X200529291Y-228974882D03*
X200529291Y-230574882D03*
X195489921Y-228974882D03*
X195489921Y-230574882D03*
X190450551Y-228974882D03*
X190450551Y-230574882D03*
X185411181Y-228974882D03*
X185411181Y-230574882D03*
X180371811Y-228974882D03*
X180371811Y-230574882D03*
X175332440Y-228974882D03*
X175332440Y-230574882D03*
X170293070Y-228974882D03*
X170293070Y-230574882D03*
X165253700Y-228974882D03*
X165253700Y-230574882D03*
X160214330Y-228974882D03*
X160214330Y-230574882D03*
X155174960Y-228974882D03*
X155174960Y-230574882D03*
X150135590Y-228974882D03*
X150135590Y-230574882D03*
X145096220Y-228974882D03*
X145096220Y-230574882D03*
X140056850Y-228974882D03*
X140056850Y-230574882D03*
X135017480Y-228974882D03*
X135017480Y-230574882D03*
X129978110Y-228974882D03*
X129978110Y-230574882D03*
X124938740Y-228974882D03*
X124938740Y-230574882D03*
X119899370Y-228974882D03*
X119899370Y-230574882D03*
X114860000Y-228974882D03*
X114860000Y-230574882D03*
X271080472Y-223935512D03*
X271080472Y-225535512D03*
X266041102Y-223935512D03*
X266041102Y-225535512D03*
X261001732Y-223935512D03*
X261001732Y-225535512D03*
X255962362Y-223935512D03*
X255962362Y-225535512D03*
X250922992Y-223935512D03*
X250922992Y-225535512D03*
X245883622Y-223935512D03*
X245883622Y-225535512D03*
X240844251Y-223935512D03*
X240844251Y-225535512D03*
X235804881Y-223935512D03*
X235804881Y-225535512D03*
X230765511Y-223935512D03*
X230765511Y-225535512D03*
X225726141Y-223935512D03*
X225726141Y-225535512D03*
X220686771Y-223935512D03*
X220686771Y-225535512D03*
X215647401Y-223935512D03*
X215647401Y-225535512D03*
X210608031Y-223935512D03*
X210608031Y-225535512D03*
X205568661Y-223935512D03*
X205568661Y-225535512D03*
X200529291Y-223935512D03*
X200529291Y-225535512D03*
X195489921Y-223935512D03*
X195489921Y-225535512D03*
X190450551Y-223935512D03*
X190450551Y-225535512D03*
X185411181Y-223935512D03*
X185411181Y-225535512D03*
X180371811Y-223935512D03*
X180371811Y-225535512D03*
X175332440Y-223935512D03*
X175332440Y-225535512D03*
X170293070Y-223935512D03*
X170293070Y-225535512D03*
X165253700Y-223935512D03*
X165253700Y-225535512D03*
X160214330Y-223935512D03*
X160214330Y-225535512D03*
X155174960Y-223935512D03*
X155174960Y-225535512D03*
X150135590Y-223935512D03*
X150135590Y-225535512D03*
X145096220Y-223935512D03*
X145096220Y-225535512D03*
X140056850Y-223935512D03*
X140056850Y-225535512D03*
X135017480Y-223935512D03*
X135017480Y-225535512D03*
X129978110Y-223935512D03*
X129978110Y-225535512D03*
X124938740Y-223935512D03*
X124938740Y-225535512D03*
X119899370Y-223935512D03*
X119899370Y-225535512D03*
X114860000Y-223935512D03*
X114860000Y-225535512D03*
X271080472Y-218896142D03*
X271080472Y-220496142D03*
X266041102Y-218896142D03*
X266041102Y-220496142D03*
X261001732Y-218896142D03*
X261001732Y-220496142D03*
X255962362Y-218896142D03*
X255962362Y-220496142D03*
X250922992Y-218896142D03*
X250922992Y-220496142D03*
X245883622Y-218896142D03*
X245883622Y-220496142D03*
X240844251Y-218896142D03*
X240844251Y-220496142D03*
X235804881Y-218896142D03*
X235804881Y-220496142D03*
X230765511Y-218896142D03*
X230765511Y-220496142D03*
X225726141Y-218896142D03*
X225726141Y-220496142D03*
X220686771Y-218896142D03*
X220686771Y-220496142D03*
X215647401Y-218896142D03*
X215647401Y-220496142D03*
X210608031Y-218896142D03*
X210608031Y-220496142D03*
X205568661Y-218896142D03*
X205568661Y-220496142D03*
X200529291Y-218896142D03*
X200529291Y-220496142D03*
X195489921Y-218896142D03*
X195489921Y-220496142D03*
X190450551Y-218896142D03*
X190450551Y-220496142D03*
X185411181Y-218896142D03*
X185411181Y-220496142D03*
X180371811Y-218896142D03*
X180371811Y-220496142D03*
X175332440Y-218896142D03*
X175332440Y-220496142D03*
X170293070Y-218896142D03*
X170293070Y-220496142D03*
X165253700Y-218896142D03*
X165253700Y-220496142D03*
X160214330Y-218896142D03*
X160214330Y-220496142D03*
X155174960Y-218896142D03*
X155174960Y-220496142D03*
X150135590Y-218896142D03*
X150135590Y-220496142D03*
X145096220Y-218896142D03*
X145096220Y-220496142D03*
X140056850Y-218896142D03*
X140056850Y-220496142D03*
X135017480Y-218896142D03*
X135017480Y-220496142D03*
X129978110Y-218896142D03*
X129978110Y-220496142D03*
X124938740Y-218896142D03*
X124938740Y-220496142D03*
X119899370Y-218896142D03*
X119899370Y-220496142D03*
X114860000Y-218896142D03*
X114860000Y-220496142D03*
X271080472Y-213856772D03*
X271080472Y-215456772D03*
X266041102Y-213856772D03*
X266041102Y-215456772D03*
X261001732Y-213856772D03*
X261001732Y-215456772D03*
X255962362Y-213856772D03*
X255962362Y-215456772D03*
X250922992Y-213856772D03*
X250922992Y-215456772D03*
X245883622Y-213856772D03*
X245883622Y-215456772D03*
X240844251Y-213856772D03*
X240844251Y-215456772D03*
X235804881Y-213856772D03*
X235804881Y-215456772D03*
X230765511Y-213856772D03*
X230765511Y-215456772D03*
X225726141Y-213856772D03*
X225726141Y-215456772D03*
X220686771Y-213856772D03*
X220686771Y-215456772D03*
X215647401Y-213856772D03*
X215647401Y-215456772D03*
X210608031Y-213856772D03*
X210608031Y-215456772D03*
X205568661Y-213856772D03*
X205568661Y-215456772D03*
X200529291Y-213856772D03*
X200529291Y-215456772D03*
X195489921Y-213856772D03*
X195489921Y-215456772D03*
X190450551Y-213856772D03*
X190450551Y-215456772D03*
X185411181Y-213856772D03*
X185411181Y-215456772D03*
X180371811Y-213856772D03*
X180371811Y-215456772D03*
X175332440Y-213856772D03*
X175332440Y-215456772D03*
X170293070Y-213856772D03*
X170293070Y-215456772D03*
X165253700Y-213856772D03*
X165253700Y-215456772D03*
X160214330Y-213856772D03*
X160214330Y-215456772D03*
X155174960Y-213856772D03*
X155174960Y-215456772D03*
X150135590Y-213856772D03*
X150135590Y-215456772D03*
X145096220Y-213856772D03*
X145096220Y-215456772D03*
X140056850Y-213856772D03*
X140056850Y-215456772D03*
X135017480Y-213856772D03*
X135017480Y-215456772D03*
X129978110Y-213856772D03*
X129978110Y-215456772D03*
X124938740Y-213856772D03*
X124938740Y-215456772D03*
X119899370Y-213856772D03*
X119899370Y-215456772D03*
X114860000Y-213856772D03*
X114860000Y-215456772D03*
X271080472Y-208817402D03*
X271080472Y-210417402D03*
X266041102Y-208817402D03*
X266041102Y-210417402D03*
X261001732Y-208817402D03*
X261001732Y-210417402D03*
X255962362Y-208817402D03*
X255962362Y-210417402D03*
X250922992Y-208817402D03*
X250922992Y-210417402D03*
X245883622Y-208817402D03*
X245883622Y-210417402D03*
X240844251Y-208817402D03*
X240844251Y-210417402D03*
X235804881Y-208817402D03*
X235804881Y-210417402D03*
X230765511Y-208817402D03*
X230765511Y-210417402D03*
X225726141Y-208817402D03*
X225726141Y-210417402D03*
X220686771Y-208817402D03*
X220686771Y-210417402D03*
X215647401Y-208817402D03*
X215647401Y-210417402D03*
X210608031Y-208817402D03*
X210608031Y-210417402D03*
X205568661Y-208817402D03*
X205568661Y-210417402D03*
X200529291Y-208817402D03*
X200529291Y-210417402D03*
X195489921Y-208817402D03*
X195489921Y-210417402D03*
X190450551Y-208817402D03*
X190450551Y-210417402D03*
X185411181Y-208817402D03*
X185411181Y-210417402D03*
X180371811Y-208817402D03*
X180371811Y-210417402D03*
X175332440Y-208817402D03*
X175332440Y-210417402D03*
X170293070Y-208817402D03*
X170293070Y-210417402D03*
X165253700Y-208817402D03*
X165253700Y-210417402D03*
X160214330Y-208817402D03*
X160214330Y-210417402D03*
X155174960Y-208817402D03*
X155174960Y-210417402D03*
X150135590Y-208817402D03*
X150135590Y-210417402D03*
X145096220Y-208817402D03*
X145096220Y-210417402D03*
X140056850Y-208817402D03*
X140056850Y-210417402D03*
X135017480Y-208817402D03*
X135017480Y-210417402D03*
X129978110Y-208817402D03*
X129978110Y-210417402D03*
X124938740Y-208817402D03*
X124938740Y-210417402D03*
X119899370Y-208817402D03*
X119899370Y-210417402D03*
X114860000Y-208817402D03*
X114860000Y-210417402D03*
X271080472Y-203778032D03*
X271080472Y-205378032D03*
X266041102Y-203778032D03*
X266041102Y-205378032D03*
X261001732Y-203778032D03*
X261001732Y-205378032D03*
X255962362Y-203778032D03*
X255962362Y-205378032D03*
X250922992Y-203778032D03*
X250922992Y-205378032D03*
X245883622Y-203778032D03*
X245883622Y-205378032D03*
X240844251Y-203778032D03*
X240844251Y-205378032D03*
X235804881Y-203778032D03*
X235804881Y-205378032D03*
X230765511Y-203778032D03*
X230765511Y-205378032D03*
X225726141Y-203778032D03*
X225726141Y-205378032D03*
X220686771Y-203778032D03*
X220686771Y-205378032D03*
X215647401Y-203778032D03*
X215647401Y-205378032D03*
X210608031Y-203778032D03*
X210608031Y-205378032D03*
X205568661Y-203778032D03*
X205568661Y-205378032D03*
X200529291Y-203778032D03*
X200529291Y-205378032D03*
X195489921Y-203778032D03*
X195489921Y-205378032D03*
X190450551Y-203778032D03*
X190450551Y-205378032D03*
X185411181Y-203778032D03*
X185411181Y-205378032D03*
X180371811Y-203778032D03*
X180371811Y-205378032D03*
X175332440Y-203778032D03*
X175332440Y-205378032D03*
X170293070Y-203778032D03*
X170293070Y-205378032D03*
X165253700Y-203778032D03*
X165253700Y-205378032D03*
X160214330Y-203778032D03*
X160214330Y-205378032D03*
X155174960Y-203778032D03*
X155174960Y-205378032D03*
X150135590Y-203778032D03*
X150135590Y-205378032D03*
X145096220Y-203778032D03*
X145096220Y-205378032D03*
X140056850Y-203778032D03*
X140056850Y-205378032D03*
X135017480Y-203778032D03*
X135017480Y-205378032D03*
X129978110Y-203778032D03*
X129978110Y-205378032D03*
X124938740Y-203778032D03*
X124938740Y-205378032D03*
X119899370Y-203778032D03*
X119899370Y-205378032D03*
X114860000Y-203778032D03*
X114860000Y-205378032D03*
X271080472Y-198738662D03*
X271080472Y-200338662D03*
X266041102Y-198738662D03*
X266041102Y-200338662D03*
X261001732Y-198738662D03*
X261001732Y-200338662D03*
X255962362Y-198738662D03*
X255962362Y-200338662D03*
X250922992Y-198738662D03*
X250922992Y-200338662D03*
X245883622Y-198738662D03*
X245883622Y-200338662D03*
X240844251Y-198738662D03*
X240844251Y-200338662D03*
X235804881Y-198738662D03*
X235804881Y-200338662D03*
X230765511Y-198738662D03*
X230765511Y-200338662D03*
X225726141Y-198738662D03*
X225726141Y-200338662D03*
X220686771Y-198738662D03*
X220686771Y-200338662D03*
X215647401Y-198738662D03*
X215647401Y-200338662D03*
X210608031Y-198738662D03*
X210608031Y-200338662D03*
X205568661Y-198738662D03*
X205568661Y-200338662D03*
X200529291Y-198738662D03*
X200529291Y-200338662D03*
X195489921Y-198738662D03*
X195489921Y-200338662D03*
X190450551Y-198738662D03*
X190450551Y-200338662D03*
X185411181Y-198738662D03*
X185411181Y-200338662D03*
X180371811Y-198738662D03*
X180371811Y-200338662D03*
X175332440Y-198738662D03*
X175332440Y-200338662D03*
X170293070Y-198738662D03*
X170293070Y-200338662D03*
X165253700Y-198738662D03*
X165253700Y-200338662D03*
X160214330Y-198738662D03*
X160214330Y-200338662D03*
X155174960Y-198738662D03*
X155174960Y-200338662D03*
X150135590Y-198738662D03*
X150135590Y-200338662D03*
X145096220Y-198738662D03*
X145096220Y-200338662D03*
X140056850Y-198738662D03*
X140056850Y-200338662D03*
X135017480Y-198738662D03*
X135017480Y-200338662D03*
X129978110Y-198738662D03*
X129978110Y-200338662D03*
X124938740Y-198738662D03*
X124938740Y-200338662D03*
X119899370Y-198738662D03*
X119899370Y-200338662D03*
X114860000Y-198738662D03*
X114860000Y-200338662D03*
X271080472Y-193699292D03*
X271080472Y-195299292D03*
X266041102Y-193699292D03*
X266041102Y-195299292D03*
X261001732Y-193699292D03*
X261001732Y-195299292D03*
X255962362Y-193699292D03*
X255962362Y-195299292D03*
X250922992Y-193699292D03*
X250922992Y-195299292D03*
X245883622Y-193699292D03*
X245883622Y-195299292D03*
X240844251Y-193699292D03*
X240844251Y-195299292D03*
X235804881Y-193699292D03*
X235804881Y-195299292D03*
X230765511Y-193699292D03*
X230765511Y-195299292D03*
X225726141Y-193699292D03*
X225726141Y-195299292D03*
X220686771Y-193699292D03*
X220686771Y-195299292D03*
X215647401Y-193699292D03*
X215647401Y-195299292D03*
X210608031Y-193699292D03*
X210608031Y-195299292D03*
X205568661Y-193699292D03*
X205568661Y-195299292D03*
X200529291Y-193699292D03*
X200529291Y-195299292D03*
X195489921Y-193699292D03*
X195489921Y-195299292D03*
X190450551Y-193699292D03*
X190450551Y-195299292D03*
X185411181Y-193699292D03*
X185411181Y-195299292D03*
X180371811Y-193699292D03*
X180371811Y-195299292D03*
X175332440Y-193699292D03*
X175332440Y-195299292D03*
X170293070Y-193699292D03*
X170293070Y-195299292D03*
X165253700Y-193699292D03*
X165253700Y-195299292D03*
X160214330Y-193699292D03*
X160214330Y-195299292D03*
X155174960Y-193699292D03*
X155174960Y-195299292D03*
X150135590Y-193699292D03*
X150135590Y-195299292D03*
X145096220Y-193699292D03*
X145096220Y-195299292D03*
X140056850Y-193699292D03*
X140056850Y-195299292D03*
X135017480Y-193699292D03*
X135017480Y-195299292D03*
X129978110Y-193699292D03*
X129978110Y-195299292D03*
X124938740Y-193699292D03*
X124938740Y-195299292D03*
X119899370Y-193699292D03*
X119899370Y-195299292D03*
X114860000Y-193699292D03*
X114860000Y-195299292D03*
X271080472Y-188659922D03*
X271080472Y-190259922D03*
X266041102Y-188659922D03*
X266041102Y-190259922D03*
X261001732Y-188659922D03*
X261001732Y-190259922D03*
X255962362Y-188659922D03*
X255962362Y-190259922D03*
X250922992Y-188659922D03*
X250922992Y-190259922D03*
X245883622Y-188659922D03*
X245883622Y-190259922D03*
X240844251Y-188659922D03*
X240844251Y-190259922D03*
X235804881Y-188659922D03*
X235804881Y-190259922D03*
X230765511Y-188659922D03*
X230765511Y-190259922D03*
X225726141Y-188659922D03*
X225726141Y-190259922D03*
X220686771Y-188659922D03*
X220686771Y-190259922D03*
X215647401Y-188659922D03*
X215647401Y-190259922D03*
X210608031Y-188659922D03*
X210608031Y-190259922D03*
X205568661Y-188659922D03*
X205568661Y-190259922D03*
X200529291Y-188659922D03*
X200529291Y-190259922D03*
X195489921Y-188659922D03*
X195489921Y-190259922D03*
X190450551Y-188659922D03*
X190450551Y-190259922D03*
X185411181Y-188659922D03*
X185411181Y-190259922D03*
X180371811Y-188659922D03*
X180371811Y-190259922D03*
X175332440Y-188659922D03*
X175332440Y-190259922D03*
X170293070Y-188659922D03*
X170293070Y-190259922D03*
X165253700Y-188659922D03*
X165253700Y-190259922D03*
X160214330Y-188659922D03*
X160214330Y-190259922D03*
X155174960Y-188659922D03*
X155174960Y-190259922D03*
X150135590Y-188659922D03*
X150135590Y-190259922D03*
X145096220Y-188659922D03*
X145096220Y-190259922D03*
X140056850Y-188659922D03*
X140056850Y-190259922D03*
X135017480Y-188659922D03*
X135017480Y-190259922D03*
X129978110Y-188659922D03*
X129978110Y-190259922D03*
X124938740Y-188659922D03*
X124938740Y-190259922D03*
X119899370Y-188659922D03*
X119899370Y-190259922D03*
X114860000Y-188659922D03*
X114860000Y-190259922D03*
X271080472Y-183620552D03*
X271080472Y-185220552D03*
X266041102Y-183620552D03*
X266041102Y-185220552D03*
X261001732Y-183620552D03*
X261001732Y-185220552D03*
X255962362Y-183620552D03*
X255962362Y-185220552D03*
X250922992Y-183620552D03*
X250922992Y-185220552D03*
X245883622Y-183620552D03*
X245883622Y-185220552D03*
X240844251Y-183620552D03*
X240844251Y-185220552D03*
X235804881Y-183620552D03*
X235804881Y-185220552D03*
X230765511Y-183620552D03*
X230765511Y-185220552D03*
X225726141Y-183620552D03*
X225726141Y-185220552D03*
X220686771Y-183620552D03*
X220686771Y-185220552D03*
X215647401Y-183620552D03*
X215647401Y-185220552D03*
X210608031Y-183620552D03*
X210608031Y-185220552D03*
X205568661Y-183620552D03*
X205568661Y-185220552D03*
X200529291Y-183620552D03*
X200529291Y-185220552D03*
X195489921Y-183620552D03*
X195489921Y-185220552D03*
X190450551Y-183620552D03*
X190450551Y-185220552D03*
X185411181Y-183620552D03*
X185411181Y-185220552D03*
X180371811Y-183620552D03*
X180371811Y-185220552D03*
X175332440Y-183620552D03*
X175332440Y-185220552D03*
X170293070Y-183620552D03*
X170293070Y-185220552D03*
X165253700Y-183620552D03*
X165253700Y-185220552D03*
X160214330Y-183620552D03*
X160214330Y-185220552D03*
X155174960Y-183620552D03*
X155174960Y-185220552D03*
X150135590Y-183620552D03*
X150135590Y-185220552D03*
X145096220Y-183620552D03*
X145096220Y-185220552D03*
X140056850Y-183620552D03*
X140056850Y-185220552D03*
X135017480Y-183620552D03*
X135017480Y-185220552D03*
X129978110Y-183620552D03*
X129978110Y-185220552D03*
X124938740Y-183620552D03*
X124938740Y-185220552D03*
X119899370Y-183620552D03*
X119899370Y-185220552D03*
X114860000Y-183620552D03*
X114860000Y-185220552D03*
X271080472Y-178581182D03*
X271080472Y-180181182D03*
X266041102Y-178581182D03*
X266041102Y-180181182D03*
X261001732Y-178581182D03*
X261001732Y-180181182D03*
X255962362Y-178581182D03*
X255962362Y-180181182D03*
X250922992Y-178581182D03*
X250922992Y-180181182D03*
X245883622Y-178581182D03*
X245883622Y-180181182D03*
X240844251Y-178581182D03*
X240844251Y-180181182D03*
X235804881Y-178581182D03*
X235804881Y-180181182D03*
X230765511Y-178581182D03*
X230765511Y-180181182D03*
X225726141Y-178581182D03*
X225726141Y-180181182D03*
X220686771Y-178581182D03*
X220686771Y-180181182D03*
X215647401Y-178581182D03*
X215647401Y-180181182D03*
X210608031Y-178581182D03*
X210608031Y-180181182D03*
X205568661Y-178581182D03*
X205568661Y-180181182D03*
X200529291Y-178581182D03*
X200529291Y-180181182D03*
X195489921Y-178581182D03*
X195489921Y-180181182D03*
X190450551Y-178581182D03*
X190450551Y-180181182D03*
X185411181Y-178581182D03*
X185411181Y-180181182D03*
X180371811Y-178581182D03*
X180371811Y-180181182D03*
X175332440Y-178581182D03*
X175332440Y-180181182D03*
X170293070Y-178581182D03*
X170293070Y-180181182D03*
X165253700Y-178581182D03*
X165253700Y-180181182D03*
X160214330Y-178581182D03*
X160214330Y-180181182D03*
X155174960Y-178581182D03*
X155174960Y-180181182D03*
X150135590Y-178581182D03*
X150135590Y-180181182D03*
X145096220Y-178581182D03*
X145096220Y-180181182D03*
X140056850Y-178581182D03*
X140056850Y-180181182D03*
X135017480Y-178581182D03*
X135017480Y-180181182D03*
X129978110Y-178581182D03*
X129978110Y-180181182D03*
X124938740Y-178581182D03*
X124938740Y-180181182D03*
X119899370Y-178581182D03*
X119899370Y-180181182D03*
X114860000Y-178581182D03*
X114860000Y-180181182D03*
X271080472Y-173541812D03*
X271080472Y-175141812D03*
X266041102Y-173541812D03*
X266041102Y-175141812D03*
X261001732Y-173541812D03*
X261001732Y-175141812D03*
X255962362Y-173541812D03*
X255962362Y-175141812D03*
X250922992Y-173541812D03*
X250922992Y-175141812D03*
X245883622Y-173541812D03*
X245883622Y-175141812D03*
X240844251Y-173541812D03*
X240844251Y-175141812D03*
X235804881Y-173541812D03*
X235804881Y-175141812D03*
X230765511Y-173541812D03*
X230765511Y-175141812D03*
X225726141Y-173541812D03*
X225726141Y-175141812D03*
X220686771Y-173541812D03*
X220686771Y-175141812D03*
X215647401Y-173541812D03*
X215647401Y-175141812D03*
X210608031Y-173541812D03*
X210608031Y-175141812D03*
X205568661Y-173541812D03*
X205568661Y-175141812D03*
X200529291Y-173541812D03*
X200529291Y-175141812D03*
X195489921Y-173541812D03*
X195489921Y-175141812D03*
X190450551Y-173541812D03*
X190450551Y-175141812D03*
X185411181Y-173541812D03*
X185411181Y-175141812D03*
X180371811Y-173541812D03*
X180371811Y-175141812D03*
X175332440Y-173541812D03*
X175332440Y-175141812D03*
X170293070Y-173541812D03*
X170293070Y-175141812D03*
X165253700Y-173541812D03*
X165253700Y-175141812D03*
X160214330Y-173541812D03*
X160214330Y-175141812D03*
X155174960Y-173541812D03*
X155174960Y-175141812D03*
X150135590Y-173541812D03*
X150135590Y-175141812D03*
X145096220Y-173541812D03*
X145096220Y-175141812D03*
X140056850Y-173541812D03*
X140056850Y-175141812D03*
X135017480Y-173541812D03*
X135017480Y-175141812D03*
X129978110Y-173541812D03*
X129978110Y-175141812D03*
X124938740Y-173541812D03*
X124938740Y-175141812D03*
X119899370Y-173541812D03*
X119899370Y-175141812D03*
X114860000Y-173541812D03*
X114860000Y-175141812D03*
X271080472Y-168502441D03*
X271080472Y-170102441D03*
X266041102Y-168502441D03*
X266041102Y-170102441D03*
X261001732Y-168502441D03*
X261001732Y-170102441D03*
X255962362Y-168502441D03*
X255962362Y-170102441D03*
X250922992Y-168502441D03*
X250922992Y-170102441D03*
X245883622Y-168502441D03*
X245883622Y-170102441D03*
X240844251Y-168502441D03*
X240844251Y-170102441D03*
X235804881Y-168502441D03*
X235804881Y-170102441D03*
X230765511Y-168502441D03*
X230765511Y-170102441D03*
X225726141Y-168502441D03*
X225726141Y-170102441D03*
X220686771Y-168502441D03*
X220686771Y-170102441D03*
X215647401Y-168502441D03*
X215647401Y-170102441D03*
X210608031Y-168502441D03*
X210608031Y-170102441D03*
X205568661Y-168502441D03*
X205568661Y-170102441D03*
X200529291Y-168502441D03*
X200529291Y-170102441D03*
X195489921Y-168502441D03*
X195489921Y-170102441D03*
X190450551Y-168502441D03*
X190450551Y-170102441D03*
X185411181Y-168502441D03*
X185411181Y-170102441D03*
X180371811Y-168502441D03*
X180371811Y-170102441D03*
X175332440Y-168502441D03*
X175332440Y-170102441D03*
X170293070Y-168502441D03*
X170293070Y-170102441D03*
X165253700Y-168502441D03*
X165253700Y-170102441D03*
X160214330Y-168502441D03*
X160214330Y-170102441D03*
X155174960Y-168502441D03*
X155174960Y-170102441D03*
X150135590Y-168502441D03*
X150135590Y-170102441D03*
X145096220Y-168502441D03*
X145096220Y-170102441D03*
X140056850Y-168502441D03*
X140056850Y-170102441D03*
X135017480Y-168502441D03*
X135017480Y-170102441D03*
X129978110Y-168502441D03*
X129978110Y-170102441D03*
X124938740Y-168502441D03*
X124938740Y-170102441D03*
X119899370Y-168502441D03*
X119899370Y-170102441D03*
X114860000Y-168502441D03*
X114860000Y-170102441D03*
X271080472Y-163463071D03*
X271080472Y-165063071D03*
X266041102Y-163463071D03*
X266041102Y-165063071D03*
X261001732Y-163463071D03*
X261001732Y-165063071D03*
X255962362Y-163463071D03*
X255962362Y-165063071D03*
X250922992Y-163463071D03*
X250922992Y-165063071D03*
X245883622Y-163463071D03*
X245883622Y-165063071D03*
X240844251Y-163463071D03*
X240844251Y-165063071D03*
X235804881Y-163463071D03*
X235804881Y-165063071D03*
X230765511Y-163463071D03*
X230765511Y-165063071D03*
X225726141Y-163463071D03*
X225726141Y-165063071D03*
X220686771Y-163463071D03*
X220686771Y-165063071D03*
X215647401Y-163463071D03*
X215647401Y-165063071D03*
X210608031Y-163463071D03*
X210608031Y-165063071D03*
X205568661Y-163463071D03*
X205568661Y-165063071D03*
X200529291Y-163463071D03*
X200529291Y-165063071D03*
X195489921Y-163463071D03*
X195489921Y-165063071D03*
X190450551Y-163463071D03*
X190450551Y-165063071D03*
X185411181Y-163463071D03*
X185411181Y-165063071D03*
X180371811Y-163463071D03*
X180371811Y-165063071D03*
X175332440Y-163463071D03*
X175332440Y-165063071D03*
X170293070Y-163463071D03*
X170293070Y-165063071D03*
X165253700Y-163463071D03*
X165253700Y-165063071D03*
X160214330Y-163463071D03*
X160214330Y-165063071D03*
X155174960Y-163463071D03*
X155174960Y-165063071D03*
X150135590Y-163463071D03*
X150135590Y-165063071D03*
X145096220Y-163463071D03*
X145096220Y-165063071D03*
X140056850Y-163463071D03*
X140056850Y-165063071D03*
X135017480Y-163463071D03*
X135017480Y-165063071D03*
X129978110Y-163463071D03*
X129978110Y-165063071D03*
X124938740Y-163463071D03*
X124938740Y-165063071D03*
X119899370Y-163463071D03*
X119899370Y-165063071D03*
X114860000Y-163463071D03*
X114860000Y-165063071D03*
X271080472Y-158423701D03*
X271080472Y-160023701D03*
X266041102Y-158423701D03*
X266041102Y-160023701D03*
X261001732Y-158423701D03*
X261001732Y-160023701D03*
X255962362Y-158423701D03*
X255962362Y-160023701D03*
X250922992Y-158423701D03*
X250922992Y-160023701D03*
X245883622Y-158423701D03*
X245883622Y-160023701D03*
X240844251Y-158423701D03*
X240844251Y-160023701D03*
X235804881Y-158423701D03*
X235804881Y-160023701D03*
X230765511Y-158423701D03*
X230765511Y-160023701D03*
X225726141Y-158423701D03*
X225726141Y-160023701D03*
X220686771Y-158423701D03*
X220686771Y-160023701D03*
X215647401Y-158423701D03*
X215647401Y-160023701D03*
X210608031Y-158423701D03*
X210608031Y-160023701D03*
X205568661Y-158423701D03*
X205568661Y-160023701D03*
X200529291Y-158423701D03*
X200529291Y-160023701D03*
X195489921Y-158423701D03*
X195489921Y-160023701D03*
X190450551Y-158423701D03*
X190450551Y-160023701D03*
X185411181Y-158423701D03*
X185411181Y-160023701D03*
X180371811Y-158423701D03*
X180371811Y-160023701D03*
X175332440Y-158423701D03*
X175332440Y-160023701D03*
X170293070Y-158423701D03*
X170293070Y-160023701D03*
X165253700Y-158423701D03*
X165253700Y-160023701D03*
X160214330Y-158423701D03*
X160214330Y-160023701D03*
X155174960Y-158423701D03*
X155174960Y-160023701D03*
X150135590Y-158423701D03*
X150135590Y-160023701D03*
X145096220Y-158423701D03*
X145096220Y-160023701D03*
X140056850Y-158423701D03*
X140056850Y-160023701D03*
X135017480Y-158423701D03*
X135017480Y-160023701D03*
X129978110Y-158423701D03*
X129978110Y-160023701D03*
X124938740Y-158423701D03*
X124938740Y-160023701D03*
X119899370Y-158423701D03*
X119899370Y-160023701D03*
X114860000Y-158423701D03*
X114860000Y-160023701D03*
X271080472Y-153384331D03*
X271080472Y-154984331D03*
X266041102Y-153384331D03*
X266041102Y-154984331D03*
X261001732Y-153384331D03*
X261001732Y-154984331D03*
X255962362Y-153384331D03*
X255962362Y-154984331D03*
X250922992Y-153384331D03*
X250922992Y-154984331D03*
X245883622Y-153384331D03*
X245883622Y-154984331D03*
X240844251Y-153384331D03*
X240844251Y-154984331D03*
X235804881Y-153384331D03*
X235804881Y-154984331D03*
X230765511Y-153384331D03*
X230765511Y-154984331D03*
X225726141Y-153384331D03*
X225726141Y-154984331D03*
X220686771Y-153384331D03*
X220686771Y-154984331D03*
X215647401Y-153384331D03*
X215647401Y-154984331D03*
X210608031Y-153384331D03*
X210608031Y-154984331D03*
X205568661Y-153384331D03*
X205568661Y-154984331D03*
X200529291Y-153384331D03*
X200529291Y-154984331D03*
X195489921Y-153384331D03*
X195489921Y-154984331D03*
X190450551Y-153384331D03*
X190450551Y-154984331D03*
X185411181Y-153384331D03*
X185411181Y-154984331D03*
X180371811Y-153384331D03*
X180371811Y-154984331D03*
X175332440Y-153384331D03*
X175332440Y-154984331D03*
X170293070Y-153384331D03*
X170293070Y-154984331D03*
X165253700Y-153384331D03*
X165253700Y-154984331D03*
X160214330Y-153384331D03*
X160214330Y-154984331D03*
X155174960Y-153384331D03*
X155174960Y-154984331D03*
X150135590Y-153384331D03*
X150135590Y-154984331D03*
X145096220Y-153384331D03*
X145096220Y-154984331D03*
X140056850Y-153384331D03*
X140056850Y-154984331D03*
X135017480Y-153384331D03*
X135017480Y-154984331D03*
X129978110Y-153384331D03*
X129978110Y-154984331D03*
X124938740Y-153384331D03*
X124938740Y-154984331D03*
X119899370Y-153384331D03*
X119899370Y-154984331D03*
X114860000Y-153384331D03*
X114860000Y-154984331D03*
X271080472Y-148344961D03*
X271080472Y-149944961D03*
X266041102Y-148344961D03*
X266041102Y-149944961D03*
X261001732Y-148344961D03*
X261001732Y-149944961D03*
X255962362Y-148344961D03*
X255962362Y-149944961D03*
X250922992Y-148344961D03*
X250922992Y-149944961D03*
X245883622Y-148344961D03*
X245883622Y-149944961D03*
X240844251Y-148344961D03*
X240844251Y-149944961D03*
X235804881Y-148344961D03*
X235804881Y-149944961D03*
X230765511Y-148344961D03*
X230765511Y-149944961D03*
X225726141Y-148344961D03*
X225726141Y-149944961D03*
X220686771Y-148344961D03*
X220686771Y-149944961D03*
X215647401Y-148344961D03*
X215647401Y-149944961D03*
X210608031Y-148344961D03*
X210608031Y-149944961D03*
X205568661Y-148344961D03*
X205568661Y-149944961D03*
X200529291Y-148344961D03*
X200529291Y-149944961D03*
X195489921Y-148344961D03*
X195489921Y-149944961D03*
X190450551Y-148344961D03*
X190450551Y-149944961D03*
X185411181Y-148344961D03*
X185411181Y-149944961D03*
X180371811Y-148344961D03*
X180371811Y-149944961D03*
X175332440Y-148344961D03*
X175332440Y-149944961D03*
X170293070Y-148344961D03*
X170293070Y-149944961D03*
X165253700Y-148344961D03*
X165253700Y-149944961D03*
X160214330Y-148344961D03*
X160214330Y-149944961D03*
X155174960Y-148344961D03*
X155174960Y-149944961D03*
X150135590Y-148344961D03*
X150135590Y-149944961D03*
X145096220Y-148344961D03*
X145096220Y-149944961D03*
X140056850Y-148344961D03*
X140056850Y-149944961D03*
X135017480Y-148344961D03*
X135017480Y-149944961D03*
X129978110Y-148344961D03*
X129978110Y-149944961D03*
X124938740Y-148344961D03*
X124938740Y-149944961D03*
X119899370Y-148344961D03*
X119899370Y-149944961D03*
X114860000Y-148344961D03*
X114860000Y-149944961D03*
X271080472Y-143305591D03*
X271080472Y-144905591D03*
X266041102Y-143305591D03*
X266041102Y-144905591D03*
X261001732Y-143305591D03*
X261001732Y-144905591D03*
X255962362Y-143305591D03*
X255962362Y-144905591D03*
X250922992Y-143305591D03*
X250922992Y-144905591D03*
X245883622Y-143305591D03*
X245883622Y-144905591D03*
X240844251Y-143305591D03*
X240844251Y-144905591D03*
X235804881Y-143305591D03*
X235804881Y-144905591D03*
X230765511Y-143305591D03*
X230765511Y-144905591D03*
X225726141Y-143305591D03*
X225726141Y-144905591D03*
X220686771Y-143305591D03*
X220686771Y-144905591D03*
X215647401Y-143305591D03*
X215647401Y-144905591D03*
X210608031Y-143305591D03*
X210608031Y-144905591D03*
X205568661Y-143305591D03*
X205568661Y-144905591D03*
X200529291Y-143305591D03*
X200529291Y-144905591D03*
X195489921Y-143305591D03*
X195489921Y-144905591D03*
X190450551Y-143305591D03*
X190450551Y-144905591D03*
X185411181Y-143305591D03*
X185411181Y-144905591D03*
X180371811Y-143305591D03*
X180371811Y-144905591D03*
X175332440Y-143305591D03*
X175332440Y-144905591D03*
X170293070Y-143305591D03*
X170293070Y-144905591D03*
X165253700Y-143305591D03*
X165253700Y-144905591D03*
X160214330Y-143305591D03*
X160214330Y-144905591D03*
X155174960Y-143305591D03*
X155174960Y-144905591D03*
X150135590Y-143305591D03*
X150135590Y-144905591D03*
X145096220Y-143305591D03*
X145096220Y-144905591D03*
X140056850Y-143305591D03*
X140056850Y-144905591D03*
X135017480Y-143305591D03*
X135017480Y-144905591D03*
X129978110Y-143305591D03*
X129978110Y-144905591D03*
X124938740Y-143305591D03*
X124938740Y-144905591D03*
X119899370Y-143305591D03*
X119899370Y-144905591D03*
X114860000Y-143305591D03*
X114860000Y-144905591D03*
X271080472Y-138266221D03*
X271080472Y-139866221D03*
X266041102Y-138266221D03*
X266041102Y-139866221D03*
X261001732Y-138266221D03*
X261001732Y-139866221D03*
X255962362Y-138266221D03*
X255962362Y-139866221D03*
X250922992Y-138266221D03*
X250922992Y-139866221D03*
X245883622Y-138266221D03*
X245883622Y-139866221D03*
X240844251Y-138266221D03*
X240844251Y-139866221D03*
X235804881Y-138266221D03*
X235804881Y-139866221D03*
X230765511Y-138266221D03*
X230765511Y-139866221D03*
X225726141Y-138266221D03*
X225726141Y-139866221D03*
X220686771Y-138266221D03*
X220686771Y-139866221D03*
X215647401Y-138266221D03*
X215647401Y-139866221D03*
X210608031Y-138266221D03*
X210608031Y-139866221D03*
X205568661Y-138266221D03*
X205568661Y-139866221D03*
X200529291Y-138266221D03*
X200529291Y-139866221D03*
X195489921Y-138266221D03*
X195489921Y-139866221D03*
X190450551Y-138266221D03*
X190450551Y-139866221D03*
X185411181Y-138266221D03*
X185411181Y-139866221D03*
X180371811Y-138266221D03*
X180371811Y-139866221D03*
X175332440Y-138266221D03*
X175332440Y-139866221D03*
X170293070Y-138266221D03*
X170293070Y-139866221D03*
X165253700Y-138266221D03*
X165253700Y-139866221D03*
X160214330Y-138266221D03*
X160214330Y-139866221D03*
X155174960Y-138266221D03*
X155174960Y-139866221D03*
X150135590Y-138266221D03*
X150135590Y-139866221D03*
X145096220Y-138266221D03*
X145096220Y-139866221D03*
X140056850Y-138266221D03*
X140056850Y-139866221D03*
X135017480Y-138266221D03*
X135017480Y-139866221D03*
X129978110Y-138266221D03*
X129978110Y-139866221D03*
X124938740Y-138266221D03*
X124938740Y-139866221D03*
X119899370Y-138266221D03*
X119899370Y-139866221D03*
X114860000Y-138266221D03*
X114860000Y-139866221D03*
X271080472Y-133226851D03*
X271080472Y-134826851D03*
X266041102Y-133226851D03*
X266041102Y-134826851D03*
X261001732Y-133226851D03*
X261001732Y-134826851D03*
X255962362Y-133226851D03*
X255962362Y-134826851D03*
X250922992Y-133226851D03*
X250922992Y-134826851D03*
X245883622Y-133226851D03*
X245883622Y-134826851D03*
X240844251Y-133226851D03*
X240844251Y-134826851D03*
X235804881Y-133226851D03*
X235804881Y-134826851D03*
X230765511Y-133226851D03*
X230765511Y-134826851D03*
X225726141Y-133226851D03*
X225726141Y-134826851D03*
X220686771Y-133226851D03*
X220686771Y-134826851D03*
X215647401Y-133226851D03*
X215647401Y-134826851D03*
X210608031Y-133226851D03*
X210608031Y-134826851D03*
X205568661Y-133226851D03*
X205568661Y-134826851D03*
X200529291Y-133226851D03*
X200529291Y-134826851D03*
X195489921Y-133226851D03*
X195489921Y-134826851D03*
X190450551Y-133226851D03*
X190450551Y-134826851D03*
X185411181Y-133226851D03*
X185411181Y-134826851D03*
X180371811Y-133226851D03*
X180371811Y-134826851D03*
X175332440Y-133226851D03*
X175332440Y-134826851D03*
X170293070Y-133226851D03*
X170293070Y-134826851D03*
X165253700Y-133226851D03*
X165253700Y-134826851D03*
X160214330Y-133226851D03*
X160214330Y-134826851D03*
X155174960Y-133226851D03*
X155174960Y-134826851D03*
X150135590Y-133226851D03*
X150135590Y-134826851D03*
X145096220Y-133226851D03*
X145096220Y-134826851D03*
X140056850Y-133226851D03*
X140056850Y-134826851D03*
X135017480Y-133226851D03*
X135017480Y-134826851D03*
X129978110Y-133226851D03*
X129978110Y-134826851D03*
X124938740Y-133226851D03*
X124938740Y-134826851D03*
X119899370Y-133226851D03*
X119899370Y-134826851D03*
X114860000Y-133226851D03*
X114860000Y-134826851D03*
X271080472Y-128187481D03*
X271080472Y-129787481D03*
X266041102Y-128187481D03*
X266041102Y-129787481D03*
X261001732Y-128187481D03*
X261001732Y-129787481D03*
X255962362Y-128187481D03*
X255962362Y-129787481D03*
X250922992Y-128187481D03*
X250922992Y-129787481D03*
X245883622Y-128187481D03*
X245883622Y-129787481D03*
X240844251Y-128187481D03*
X240844251Y-129787481D03*
X235804881Y-128187481D03*
X235804881Y-129787481D03*
X230765511Y-128187481D03*
X230765511Y-129787481D03*
X225726141Y-128187481D03*
X225726141Y-129787481D03*
X220686771Y-128187481D03*
X220686771Y-129787481D03*
X215647401Y-128187481D03*
X215647401Y-129787481D03*
X210608031Y-128187481D03*
X210608031Y-129787481D03*
X205568661Y-128187481D03*
X205568661Y-129787481D03*
X200529291Y-128187481D03*
X200529291Y-129787481D03*
X195489921Y-128187481D03*
X195489921Y-129787481D03*
X190450551Y-128187481D03*
X190450551Y-129787481D03*
X185411181Y-128187481D03*
X185411181Y-129787481D03*
X180371811Y-128187481D03*
X180371811Y-129787481D03*
X175332440Y-128187481D03*
X175332440Y-129787481D03*
X170293070Y-128187481D03*
X170293070Y-129787481D03*
X165253700Y-128187481D03*
X165253700Y-129787481D03*
X160214330Y-128187481D03*
X160214330Y-129787481D03*
X155174960Y-128187481D03*
X155174960Y-129787481D03*
X150135590Y-128187481D03*
X150135590Y-129787481D03*
X145096220Y-128187481D03*
X145096220Y-129787481D03*
X140056850Y-128187481D03*
X140056850Y-129787481D03*
X135017480Y-128187481D03*
X135017480Y-129787481D03*
X129978110Y-128187481D03*
X129978110Y-129787481D03*
X124938740Y-128187481D03*
X124938740Y-129787481D03*
X119899370Y-128187481D03*
X119899370Y-129787481D03*
X114860000Y-128187481D03*
X114860000Y-129787481D03*
X271080472Y-123148111D03*
X271080472Y-124748111D03*
X266041102Y-123148111D03*
X266041102Y-124748111D03*
X261001732Y-123148111D03*
X261001732Y-124748111D03*
X255962362Y-123148111D03*
X255962362Y-124748111D03*
X250922992Y-123148111D03*
X250922992Y-124748111D03*
X245883622Y-123148111D03*
X245883622Y-124748111D03*
X240844251Y-123148111D03*
X240844251Y-124748111D03*
X235804881Y-123148111D03*
X235804881Y-124748111D03*
X230765511Y-123148111D03*
X230765511Y-124748111D03*
X225726141Y-123148111D03*
X225726141Y-124748111D03*
X220686771Y-123148111D03*
X220686771Y-124748111D03*
X215647401Y-123148111D03*
X215647401Y-124748111D03*
X210608031Y-123148111D03*
X210608031Y-124748111D03*
X205568661Y-123148111D03*
X205568661Y-124748111D03*
X200529291Y-123148111D03*
X200529291Y-124748111D03*
X195489921Y-123148111D03*
X195489921Y-124748111D03*
X190450551Y-123148111D03*
X190450551Y-124748111D03*
X185411181Y-123148111D03*
X185411181Y-124748111D03*
X180371811Y-123148111D03*
X180371811Y-124748111D03*
X175332440Y-123148111D03*
X175332440Y-124748111D03*
X170293070Y-123148111D03*
X170293070Y-124748111D03*
X165253700Y-123148111D03*
X165253700Y-124748111D03*
X160214330Y-123148111D03*
X160214330Y-124748111D03*
X155174960Y-123148111D03*
X155174960Y-124748111D03*
X150135590Y-123148111D03*
X150135590Y-124748111D03*
X145096220Y-123148111D03*
X145096220Y-124748111D03*
X140056850Y-123148111D03*
X140056850Y-124748111D03*
X135017480Y-123148111D03*
X135017480Y-124748111D03*
X129978110Y-123148111D03*
X129978110Y-124748111D03*
X124938740Y-123148111D03*
X124938740Y-124748111D03*
X119899370Y-123148111D03*
X119899370Y-124748111D03*
X114860000Y-123148111D03*
X114860000Y-124748111D03*
X271080472Y-118108741D03*
X271080472Y-119708741D03*
X266041102Y-118108741D03*
X266041102Y-119708741D03*
X261001732Y-118108741D03*
X261001732Y-119708741D03*
X255962362Y-118108741D03*
X255962362Y-119708741D03*
X250922992Y-118108741D03*
X250922992Y-119708741D03*
X245883622Y-118108741D03*
X245883622Y-119708741D03*
X240844251Y-118108741D03*
X240844251Y-119708741D03*
X235804881Y-118108741D03*
X235804881Y-119708741D03*
X230765511Y-118108741D03*
X230765511Y-119708741D03*
X225726141Y-118108741D03*
X225726141Y-119708741D03*
X220686771Y-118108741D03*
X220686771Y-119708741D03*
X215647401Y-118108741D03*
X215647401Y-119708741D03*
X210608031Y-118108741D03*
X210608031Y-119708741D03*
X205568661Y-118108741D03*
X205568661Y-119708741D03*
X200529291Y-118108741D03*
X200529291Y-119708741D03*
X195489921Y-118108741D03*
X195489921Y-119708741D03*
X190450551Y-118108741D03*
X190450551Y-119708741D03*
X185411181Y-118108741D03*
X185411181Y-119708741D03*
X180371811Y-118108741D03*
X180371811Y-119708741D03*
X175332440Y-118108741D03*
X175332440Y-119708741D03*
X170293070Y-118108741D03*
X170293070Y-119708741D03*
X165253700Y-118108741D03*
X165253700Y-119708741D03*
X160214330Y-118108741D03*
X160214330Y-119708741D03*
X155174960Y-118108741D03*
X155174960Y-119708741D03*
X150135590Y-118108741D03*
X150135590Y-119708741D03*
X145096220Y-118108741D03*
X145096220Y-119708741D03*
X140056850Y-118108741D03*
X140056850Y-119708741D03*
X135017480Y-118108741D03*
X135017480Y-119708741D03*
X129978110Y-118108741D03*
X129978110Y-119708741D03*
X124938740Y-118108741D03*
X124938740Y-119708741D03*
X119899370Y-118108741D03*
X119899370Y-119708741D03*
X114860000Y-118108741D03*
X114860000Y-119708741D03*
X271080472Y-113069371D03*
X271080472Y-114669371D03*
X266041102Y-113069371D03*
X266041102Y-114669371D03*
X261001732Y-113069371D03*
X261001732Y-114669371D03*
X255962362Y-113069371D03*
X255962362Y-114669371D03*
X250922992Y-113069371D03*
X250922992Y-114669371D03*
X245883622Y-113069371D03*
X245883622Y-114669371D03*
X240844251Y-113069371D03*
X240844251Y-114669371D03*
X235804881Y-113069371D03*
X235804881Y-114669371D03*
X230765511Y-113069371D03*
X230765511Y-114669371D03*
X225726141Y-113069371D03*
X225726141Y-114669371D03*
X220686771Y-113069371D03*
X220686771Y-114669371D03*
X215647401Y-113069371D03*
X215647401Y-114669371D03*
X210608031Y-113069371D03*
X210608031Y-114669371D03*
X205568661Y-113069371D03*
X205568661Y-114669371D03*
X200529291Y-113069371D03*
X200529291Y-114669371D03*
X195489921Y-113069371D03*
X195489921Y-114669371D03*
X190450551Y-113069371D03*
X190450551Y-114669371D03*
X185411181Y-113069371D03*
X185411181Y-114669371D03*
X180371811Y-113069371D03*
X180371811Y-114669371D03*
X175332440Y-113069371D03*
X175332440Y-114669371D03*
X170293070Y-113069371D03*
X170293070Y-114669371D03*
X165253700Y-113069371D03*
X165253700Y-114669371D03*
X160214330Y-113069371D03*
X160214330Y-114669371D03*
X155174960Y-113069371D03*
X155174960Y-114669371D03*
X150135590Y-113069371D03*
X150135590Y-114669371D03*
X145096220Y-113069371D03*
X145096220Y-114669371D03*
X140056850Y-113069371D03*
X140056850Y-114669371D03*
X135017480Y-113069371D03*
X135017480Y-114669371D03*
X129978110Y-113069371D03*
X129978110Y-114669371D03*
X124938740Y-113069371D03*
X124938740Y-114669371D03*
X119899370Y-113069371D03*
X119899370Y-114669371D03*
X114860000Y-113069371D03*
X114860000Y-114669371D03*
X271080472Y-108030000D03*
X271080472Y-109630000D03*
X266041102Y-108030000D03*
X266041102Y-109630000D03*
X261001732Y-108030000D03*
X261001732Y-109630000D03*
X255962362Y-108030000D03*
X255962362Y-109630000D03*
X250922992Y-108030000D03*
X250922992Y-109630000D03*
X245883622Y-108030000D03*
X245883622Y-109630000D03*
X240844251Y-108030000D03*
X240844251Y-109630000D03*
X235804881Y-108030000D03*
X235804881Y-109630000D03*
X230765511Y-108030000D03*
X230765511Y-109630000D03*
X225726141Y-108030000D03*
X225726141Y-109630000D03*
X220686771Y-108030000D03*
X220686771Y-109630000D03*
X215647401Y-108030000D03*
X215647401Y-109630000D03*
X210608031Y-108030000D03*
X210608031Y-109630000D03*
X205568661Y-108030000D03*
X205568661Y-109630000D03*
X200529291Y-108030000D03*
X200529291Y-109630000D03*
X195489921Y-108030000D03*
X195489921Y-109630000D03*
X190450551Y-108030000D03*
X190450551Y-109630000D03*
X185411181Y-108030000D03*
X185411181Y-109630000D03*
X180371811Y-108030000D03*
X180371811Y-109630000D03*
X175332440Y-108030000D03*
X175332440Y-109630000D03*
X170293070Y-108030000D03*
X170293070Y-109630000D03*
X165253700Y-108030000D03*
X165253700Y-109630000D03*
X160214330Y-108030000D03*
X160214330Y-109630000D03*
X155174960Y-108030000D03*
X155174960Y-109630000D03*
X150135590Y-108030000D03*
X150135590Y-109630000D03*
X145096220Y-108030000D03*
X145096220Y-109630000D03*
X140056850Y-108030000D03*
X140056850Y-109630000D03*
X135017480Y-108030000D03*
X135017480Y-109630000D03*
X129978110Y-108030000D03*
X129978110Y-109630000D03*
X124938740Y-108030000D03*
X124938740Y-109630000D03*
X119899370Y-108030000D03*
X119899370Y-109630000D03*
X114860000Y-108030000D03*
X114860000Y-109630000D03*
D12*
X237750000Y-93850000D03*
X237750000Y-95350000D03*
D13*
X257077500Y-270100000D03*
X256442500Y-270100000D03*
X255807500Y-270100000D03*
X255172500Y-270100000D03*
X254537500Y-270100000D03*
X253902500Y-270100000D03*
X253267500Y-270100000D03*
X252632500Y-270100000D03*
X251997500Y-270100000D03*
X251362500Y-270100000D03*
X250727500Y-270100000D03*
X250092500Y-270100000D03*
X249457500Y-270100000D03*
X248822500Y-270100000D03*
X248822500Y-275300000D03*
X249457500Y-275300000D03*
X250092500Y-275300000D03*
X250727500Y-275300000D03*
X251362500Y-275300000D03*
X251997500Y-275300000D03*
X252632500Y-275300000D03*
X253267500Y-275300000D03*
X253902500Y-275300000D03*
X254537500Y-275300000D03*
X255172500Y-275300000D03*
X255807500Y-275300000D03*
X256442500Y-275300000D03*
X257077500Y-275300000D03*
X176477500Y-270050000D03*
X175842500Y-270050000D03*
X175207500Y-270050000D03*
X174572500Y-270050000D03*
X173937500Y-270050000D03*
X173302500Y-270050000D03*
X172667500Y-270050000D03*
X172032500Y-270050000D03*
X171397500Y-270050000D03*
X170762500Y-270050000D03*
X170127500Y-270050000D03*
X169492500Y-270050000D03*
X168857500Y-270050000D03*
X168222500Y-270050000D03*
X168222500Y-275250000D03*
X168857500Y-275250000D03*
X169492500Y-275250000D03*
X170127500Y-275250000D03*
X170762500Y-275250000D03*
X171397500Y-275250000D03*
X172032500Y-275250000D03*
X172667500Y-275250000D03*
X173302500Y-275250000D03*
X173937500Y-275250000D03*
X174572500Y-275250000D03*
X175207500Y-275250000D03*
X175842500Y-275250000D03*
X176477500Y-275250000D03*
X240927500Y-96900000D03*
X240292500Y-96900000D03*
X239657500Y-96900000D03*
X239022500Y-96900000D03*
X238387500Y-96900000D03*
X237752500Y-96900000D03*
X237117500Y-96900000D03*
X236482500Y-96900000D03*
X235847500Y-96900000D03*
X235212500Y-96900000D03*
X234577500Y-96900000D03*
X233942500Y-96900000D03*
X233307500Y-96900000D03*
X232672500Y-96900000D03*
X232672500Y-102100000D03*
X233307500Y-102100000D03*
X233942500Y-102100000D03*
X234577500Y-102100000D03*
X235212500Y-102100000D03*
X235847500Y-102100000D03*
X236482500Y-102100000D03*
X237117500Y-102100000D03*
X237752500Y-102100000D03*
X238387500Y-102100000D03*
X239022500Y-102100000D03*
X239657500Y-102100000D03*
X240292500Y-102100000D03*
X240927500Y-102100000D03*
X160277500Y-97000000D03*
X159642500Y-97000000D03*
X159007500Y-97000000D03*
X158372500Y-97000000D03*
X157737500Y-97000000D03*
X157102500Y-97000000D03*
X156467500Y-97000000D03*
X155832500Y-97000000D03*
X155197500Y-97000000D03*
X154562500Y-97000000D03*
X153927500Y-97000000D03*
X153292500Y-97000000D03*
X152657500Y-97000000D03*
X152022500Y-97000000D03*
X152022500Y-102200000D03*
X152657500Y-102200000D03*
X153292500Y-102200000D03*
X153927500Y-102200000D03*
X154562500Y-102200000D03*
X155197500Y-102200000D03*
X155832500Y-102200000D03*
X156467500Y-102200000D03*
X157102500Y-102200000D03*
X157737500Y-102200000D03*
X158372500Y-102200000D03*
X159007500Y-102200000D03*
X159642500Y-102200000D03*
X160277500Y-102200000D03*
D14*
X230950000Y-280450000D03*
X231900000Y-280450000D03*
X232850000Y-280450000D03*
X232850000Y-278250000D03*
X230950000Y-278250000D03*
G36*
G01*
X199110000Y-89650000D02*
X199410000Y-89650000D01*
G75*
G02*
X199560000Y-89800000I0J-150000D01*
G01*
X199560000Y-91450000D01*
G75*
G02*
X199410000Y-91600000I-150000J0D01*
G01*
X199110000Y-91600000D01*
G75*
G02*
X198960000Y-91450000I0J150000D01*
G01*
X198960000Y-89800000D01*
G75*
G02*
X199110000Y-89650000I150000J0D01*
G01*
G37*
G36*
G01*
X197840000Y-89650000D02*
X198140000Y-89650000D01*
G75*
G02*
X198290000Y-89800000I0J-150000D01*
G01*
X198290000Y-91450000D01*
G75*
G02*
X198140000Y-91600000I-150000J0D01*
G01*
X197840000Y-91600000D01*
G75*
G02*
X197690000Y-91450000I0J150000D01*
G01*
X197690000Y-89800000D01*
G75*
G02*
X197840000Y-89650000I150000J0D01*
G01*
G37*
G36*
G01*
X196570000Y-89650000D02*
X196870000Y-89650000D01*
G75*
G02*
X197020000Y-89800000I0J-150000D01*
G01*
X197020000Y-91450000D01*
G75*
G02*
X196870000Y-91600000I-150000J0D01*
G01*
X196570000Y-91600000D01*
G75*
G02*
X196420000Y-91450000I0J150000D01*
G01*
X196420000Y-89800000D01*
G75*
G02*
X196570000Y-89650000I150000J0D01*
G01*
G37*
G36*
G01*
X195300000Y-89650000D02*
X195600000Y-89650000D01*
G75*
G02*
X195750000Y-89800000I0J-150000D01*
G01*
X195750000Y-91450000D01*
G75*
G02*
X195600000Y-91600000I-150000J0D01*
G01*
X195300000Y-91600000D01*
G75*
G02*
X195150000Y-91450000I0J150000D01*
G01*
X195150000Y-89800000D01*
G75*
G02*
X195300000Y-89650000I150000J0D01*
G01*
G37*
G36*
G01*
X194030000Y-89650000D02*
X194330000Y-89650000D01*
G75*
G02*
X194480000Y-89800000I0J-150000D01*
G01*
X194480000Y-91450000D01*
G75*
G02*
X194330000Y-91600000I-150000J0D01*
G01*
X194030000Y-91600000D01*
G75*
G02*
X193880000Y-91450000I0J150000D01*
G01*
X193880000Y-89800000D01*
G75*
G02*
X194030000Y-89650000I150000J0D01*
G01*
G37*
G36*
G01*
X192760000Y-89650000D02*
X193060000Y-89650000D01*
G75*
G02*
X193210000Y-89800000I0J-150000D01*
G01*
X193210000Y-91450000D01*
G75*
G02*
X193060000Y-91600000I-150000J0D01*
G01*
X192760000Y-91600000D01*
G75*
G02*
X192610000Y-91450000I0J150000D01*
G01*
X192610000Y-89800000D01*
G75*
G02*
X192760000Y-89650000I150000J0D01*
G01*
G37*
G36*
G01*
X191490000Y-89650000D02*
X191790000Y-89650000D01*
G75*
G02*
X191940000Y-89800000I0J-150000D01*
G01*
X191940000Y-91450000D01*
G75*
G02*
X191790000Y-91600000I-150000J0D01*
G01*
X191490000Y-91600000D01*
G75*
G02*
X191340000Y-91450000I0J150000D01*
G01*
X191340000Y-89800000D01*
G75*
G02*
X191490000Y-89650000I150000J0D01*
G01*
G37*
G36*
G01*
X191490000Y-84700000D02*
X191790000Y-84700000D01*
G75*
G02*
X191940000Y-84850000I0J-150000D01*
G01*
X191940000Y-86500000D01*
G75*
G02*
X191790000Y-86650000I-150000J0D01*
G01*
X191490000Y-86650000D01*
G75*
G02*
X191340000Y-86500000I0J150000D01*
G01*
X191340000Y-84850000D01*
G75*
G02*
X191490000Y-84700000I150000J0D01*
G01*
G37*
G36*
G01*
X192760000Y-84700000D02*
X193060000Y-84700000D01*
G75*
G02*
X193210000Y-84850000I0J-150000D01*
G01*
X193210000Y-86500000D01*
G75*
G02*
X193060000Y-86650000I-150000J0D01*
G01*
X192760000Y-86650000D01*
G75*
G02*
X192610000Y-86500000I0J150000D01*
G01*
X192610000Y-84850000D01*
G75*
G02*
X192760000Y-84700000I150000J0D01*
G01*
G37*
G36*
G01*
X194030000Y-84700000D02*
X194330000Y-84700000D01*
G75*
G02*
X194480000Y-84850000I0J-150000D01*
G01*
X194480000Y-86500000D01*
G75*
G02*
X194330000Y-86650000I-150000J0D01*
G01*
X194030000Y-86650000D01*
G75*
G02*
X193880000Y-86500000I0J150000D01*
G01*
X193880000Y-84850000D01*
G75*
G02*
X194030000Y-84700000I150000J0D01*
G01*
G37*
G36*
G01*
X195300000Y-84700000D02*
X195600000Y-84700000D01*
G75*
G02*
X195750000Y-84850000I0J-150000D01*
G01*
X195750000Y-86500000D01*
G75*
G02*
X195600000Y-86650000I-150000J0D01*
G01*
X195300000Y-86650000D01*
G75*
G02*
X195150000Y-86500000I0J150000D01*
G01*
X195150000Y-84850000D01*
G75*
G02*
X195300000Y-84700000I150000J0D01*
G01*
G37*
G36*
G01*
X196570000Y-84700000D02*
X196870000Y-84700000D01*
G75*
G02*
X197020000Y-84850000I0J-150000D01*
G01*
X197020000Y-86500000D01*
G75*
G02*
X196870000Y-86650000I-150000J0D01*
G01*
X196570000Y-86650000D01*
G75*
G02*
X196420000Y-86500000I0J150000D01*
G01*
X196420000Y-84850000D01*
G75*
G02*
X196570000Y-84700000I150000J0D01*
G01*
G37*
G36*
G01*
X197840000Y-84700000D02*
X198140000Y-84700000D01*
G75*
G02*
X198290000Y-84850000I0J-150000D01*
G01*
X198290000Y-86500000D01*
G75*
G02*
X198140000Y-86650000I-150000J0D01*
G01*
X197840000Y-86650000D01*
G75*
G02*
X197690000Y-86500000I0J150000D01*
G01*
X197690000Y-84850000D01*
G75*
G02*
X197840000Y-84700000I150000J0D01*
G01*
G37*
G36*
G01*
X199110000Y-84700000D02*
X199410000Y-84700000D01*
G75*
G02*
X199560000Y-84850000I0J-150000D01*
G01*
X199560000Y-86500000D01*
G75*
G02*
X199410000Y-86650000I-150000J0D01*
G01*
X199110000Y-86650000D01*
G75*
G02*
X198960000Y-86500000I0J150000D01*
G01*
X198960000Y-84850000D01*
G75*
G02*
X199110000Y-84700000I150000J0D01*
G01*
G37*
D15*
X191750000Y-339750000D03*
X191750000Y-341850000D03*
X184450000Y-341850000D03*
X184450000Y-339750000D03*
D16*
X190350000Y-339050000D03*
X188850000Y-339050000D03*
X185850000Y-339050000D03*
D17*
X195950000Y-98100000D03*
X195950000Y-96600000D03*
X197900000Y-98950000D03*
X197900000Y-97450000D03*
D18*
X228200000Y-280450000D03*
X228200000Y-278250000D03*
D19*
X252350000Y-268100000D03*
X253850000Y-268100000D03*
X250950000Y-276900000D03*
X249450000Y-276900000D03*
X171800000Y-268050000D03*
X173300000Y-268050000D03*
X170400000Y-276850000D03*
X168900000Y-276850000D03*
D12*
X230800000Y-99050000D03*
X230800000Y-100550000D03*
D19*
X156400000Y-94550000D03*
X157900000Y-94550000D03*
D12*
X150200000Y-99100000D03*
X150200000Y-100600000D03*
D19*
X234350000Y-280450000D03*
X235850000Y-280450000D03*
X234450000Y-278200000D03*
X235950000Y-278200000D03*
D12*
X201000000Y-87150000D03*
X201000000Y-85650000D03*
M02*
