M48
; DRILL file {KiCad (5.1.9)-1} date 06/16/21 16:09:50
; FORMAT={-:-/ absolute / metric / decimal}
; #@! TF.CreationDate,2021-06-16T16:09:50-07:00
; #@! TF.GenerationSoftware,Kicad,Pcbnew,(5.1.9)-1
; #@! TF.FileFunction,Plated,1,2,PTH
FMAT,2
METRIC
T1C0.400
T2C1.000
%
G90
G05
T1
X14.0Y-144.25
X14.5Y-73.75
X15.8Y-152.75
X16.175Y-52.0
X16.3Y-82.25
X16.571Y-148.158
X17.071Y-77.658
X18.8Y-121.0
X21.987Y-144.25
X22.487Y-73.75
X22.987Y-144.25
X23.487Y-73.75
X23.987Y-144.25
X24.487Y-73.75
X24.5Y-148.25
X24.987Y-144.237
X25.0Y-77.75
X25.487Y-73.737
X25.5Y-149.25
X25.987Y-144.263
X26.0Y-78.75
X26.487Y-73.763
X26.5Y-150.25
X27.0Y-79.75
X27.5Y-151.25
X28.0Y-80.75
X28.5Y-152.25
X29.0Y-81.75
X30.5Y-19.5
X30.5Y-23.5
X30.5Y-27.5
X30.5Y-31.5
X30.5Y-35.5
X30.5Y-39.5
X30.5Y-43.5
X30.5Y-47.5
X33.4Y-43.4
X33.5Y-19.5
X33.5Y-23.5
X33.5Y-27.5
X33.5Y-31.5
X33.5Y-35.5
X33.5Y-39.5
X33.5Y-47.5
X36.5Y-19.5
X36.5Y-23.5
X36.5Y-27.5
X36.5Y-31.5
X36.5Y-35.5
X36.5Y-39.5
X36.5Y-43.5
X36.5Y-47.5
X37.95Y-125.45
X38.0Y-131.25
X38.0Y-135.25
X38.0Y-139.25
X38.0Y-143.25
X38.0Y-147.25
X38.0Y-151.25
X38.0Y-155.0
X38.0Y-159.25
X38.0Y-163.25
X38.0Y-167.25
X38.0Y-171.25
X38.0Y-175.25
X38.0Y-179.25
X38.0Y-183.25
X38.0Y-186.75
X38.45Y-54.95
X38.5Y-60.75
X38.5Y-64.75
X38.5Y-68.75
X38.5Y-72.75
X38.5Y-76.75
X38.5Y-80.75
X38.5Y-84.5
X38.5Y-88.75
X38.5Y-92.75
X38.5Y-96.75
X38.5Y-100.75
X38.5Y-104.75
X38.5Y-108.75
X38.5Y-112.75
X38.5Y-116.25
X39.4Y-35.4
X39.5Y-19.5
X39.5Y-23.5
X39.5Y-27.5
X39.5Y-31.5
X39.5Y-39.5
X39.5Y-43.5
X39.5Y-47.5
X41.7Y-129.45
X41.7Y-135.05
X41.7Y-138.95
X41.7Y-143.05
X41.7Y-146.95
X41.7Y-150.95
X41.7Y-154.95
X41.7Y-158.95
X41.7Y-162.95
X41.7Y-166.95
X41.7Y-170.95
X41.7Y-174.95
X41.7Y-178.95
X41.7Y-182.95
X41.75Y-187.0
X42.2Y-58.95
X42.2Y-64.55
X42.2Y-68.45
X42.2Y-72.55
X42.2Y-76.45
X42.2Y-80.45
X42.2Y-84.45
X42.2Y-88.45
X42.2Y-92.45
X42.2Y-96.45
X42.2Y-100.45
X42.2Y-104.45
X42.2Y-108.45
X42.2Y-112.45
X42.25Y-116.5
X42.5Y-19.5
X42.5Y-23.5
X42.5Y-27.5
X42.5Y-31.5
X42.5Y-35.5
X42.5Y-39.5
X42.5Y-43.5
X42.5Y-47.5
X44.45Y-133.45
X44.5Y-127.0
X44.5Y-131.0
X44.5Y-139.0
X44.5Y-143.0
X44.5Y-147.0
X44.5Y-151.0
X44.5Y-155.0
X44.5Y-159.0
X44.5Y-163.0
X44.5Y-167.0
X44.5Y-171.0
X44.5Y-179.0
X44.5Y-183.0
X44.5Y-186.75
X44.55Y-175.05
X44.95Y-62.95
X45.0Y-56.5
X45.0Y-60.5
X45.0Y-68.5
X45.0Y-72.5
X45.0Y-76.5
X45.0Y-80.5
X45.0Y-84.5
X45.0Y-88.5
X45.0Y-92.5
X45.0Y-96.5
X45.0Y-100.5
X45.0Y-108.5
X45.0Y-112.5
X45.0Y-116.25
X45.05Y-104.55
X45.5Y-19.5
X45.5Y-23.5
X45.5Y-27.5
X45.5Y-31.5
X45.5Y-35.5
X45.5Y-39.5
X45.5Y-43.5
X45.5Y-47.5
X47.5Y-127.0
X47.5Y-131.0
X47.5Y-137.5
X47.5Y-143.0
X47.5Y-147.0
X47.5Y-151.0
X47.5Y-155.0
X47.5Y-159.0
X47.5Y-163.0
X47.5Y-167.0
X47.5Y-171.0
X47.5Y-175.0
X47.5Y-179.0
X47.5Y-183.0
X47.5Y-187.0
X48.0Y-19.5
X48.0Y-23.5
X48.0Y-27.5
X48.0Y-31.5
X48.0Y-35.5
X48.0Y-39.5
X48.0Y-43.5
X48.0Y-47.5
X48.0Y-56.5
X48.0Y-60.5
X48.0Y-67.0
X48.0Y-72.5
X48.0Y-76.5
X48.0Y-80.5
X48.0Y-84.5
X48.0Y-88.5
X48.0Y-92.5
X48.0Y-96.5
X48.0Y-100.5
X48.0Y-104.5
X48.0Y-108.5
X48.0Y-112.5
X48.0Y-116.5
X50.5Y-127.0
X50.5Y-131.0
X50.5Y-135.0
X50.5Y-141.5
X50.5Y-147.0
X50.5Y-151.0
X50.5Y-155.0
X50.5Y-159.0
X50.5Y-167.0
X50.5Y-171.0
X50.5Y-175.0
X50.5Y-179.0
X50.5Y-183.0
X50.5Y-187.0
X50.55Y-163.05
X51.0Y-56.5
X51.0Y-60.5
X51.0Y-64.5
X51.0Y-71.0
X51.0Y-76.5
X51.0Y-80.5
X51.0Y-84.5
X51.0Y-88.5
X51.0Y-96.5
X51.0Y-100.5
X51.0Y-104.5
X51.0Y-108.5
X51.0Y-112.5
X51.0Y-116.5
X51.05Y-92.55
X53.5Y-127.0
X53.5Y-131.0
X53.5Y-135.0
X53.5Y-139.0
X53.5Y-145.5
X53.5Y-151.0
X53.5Y-155.0
X53.5Y-159.0
X53.5Y-163.0
X53.5Y-167.0
X53.5Y-171.0
X53.5Y-175.0
X53.5Y-179.0
X53.5Y-183.0
X53.5Y-187.0
X54.0Y-56.5
X54.0Y-60.5
X54.0Y-64.5
X54.0Y-68.5
X54.0Y-75.0
X54.0Y-80.5
X54.0Y-84.5
X54.0Y-88.5
X54.0Y-92.5
X54.0Y-96.5
X54.0Y-100.5
X54.0Y-104.5
X54.0Y-108.5
X54.0Y-112.5
X54.0Y-116.5
X56.45Y-149.45
X56.5Y-127.0
X56.5Y-131.0
X56.5Y-135.0
X56.5Y-139.0
X56.5Y-143.0
X56.5Y-155.0
X56.5Y-159.0
X56.5Y-163.0
X56.5Y-171.0
X56.5Y-175.0
X56.5Y-179.0
X56.5Y-183.0
X56.5Y-187.0
X56.5Y-167.0
X56.95Y-78.95
X57.0Y-56.5
X57.0Y-60.5
X57.0Y-64.5
X57.0Y-68.5
X57.0Y-72.5
X57.0Y-84.5
X57.0Y-88.5
X57.0Y-92.5
X57.0Y-100.5
X57.0Y-104.5
X57.0Y-108.5
X57.0Y-112.5
X57.0Y-116.5
X57.0Y-96.5
X59.45Y-127.05
X59.45Y-131.05
X59.45Y-135.05
X59.45Y-139.05
X59.45Y-143.2
X59.45Y-147.05
X59.45Y-163.05
X59.45Y-167.05
X59.45Y-171.05
X59.45Y-175.05
X59.45Y-179.05
X59.45Y-183.05
X59.45Y-153.45
X59.5Y-159.0
X59.5Y-187.0
X59.95Y-56.55
X59.95Y-60.55
X59.95Y-64.55
X59.95Y-68.55
X59.95Y-72.7
X59.95Y-76.55
X59.95Y-92.55
X59.95Y-96.55
X59.95Y-100.55
X59.95Y-104.55
X59.95Y-108.55
X59.95Y-112.55
X59.95Y-82.95
X60.0Y-88.5
X60.0Y-116.5
X62.45Y-127.05
X62.45Y-131.05
X62.45Y-135.2
X62.45Y-139.05
X62.45Y-142.95
X62.45Y-147.05
X62.45Y-151.05
X62.45Y-163.05
X62.45Y-166.95
X62.45Y-171.05
X62.45Y-175.05
X62.45Y-179.05
X62.45Y-183.05
X62.5Y-157.5
X62.5Y-187.0
X62.95Y-56.55
X62.95Y-60.55
X62.95Y-64.7
X62.95Y-68.55
X62.95Y-72.45
X62.95Y-76.55
X62.95Y-80.55
X62.95Y-92.55
X62.95Y-96.45
X62.95Y-100.55
X62.95Y-104.55
X62.95Y-108.55
X62.95Y-112.55
X63.0Y-87.0
X63.0Y-116.5
X65.5Y-127.0
X65.5Y-131.0
X65.5Y-135.0
X65.5Y-139.0
X65.5Y-143.0
X65.5Y-147.0
X65.5Y-151.0
X65.5Y-155.0
X65.5Y-161.5
X65.5Y-167.0
X65.5Y-171.0
X65.5Y-175.0
X65.5Y-179.0
X65.5Y-183.0
X65.5Y-187.0
X66.0Y-56.5
X66.0Y-60.5
X66.0Y-64.5
X66.0Y-68.5
X66.0Y-72.5
X66.0Y-76.5
X66.0Y-80.5
X66.0Y-84.5
X66.0Y-91.0
X66.0Y-96.5
X66.0Y-100.5
X66.0Y-104.5
X66.0Y-108.5
X66.0Y-112.5
X66.0Y-116.5
X68.5Y-127.0
X68.5Y-131.0
X68.5Y-135.0
X68.5Y-139.0
X68.5Y-143.0
X68.5Y-147.25
X68.5Y-151.0
X68.5Y-155.0
X68.5Y-159.0
X68.5Y-163.0
X68.5Y-165.5
X68.5Y-171.0
X68.5Y-175.0
X68.5Y-179.0
X68.5Y-183.0
X68.5Y-187.0
X69.0Y-56.5
X69.0Y-60.5
X69.0Y-64.5
X69.0Y-68.5
X69.0Y-72.5
X69.0Y-76.75
X69.0Y-80.5
X69.0Y-84.5
X69.0Y-88.5
X69.0Y-92.5
X69.0Y-95.0
X69.0Y-100.5
X69.0Y-104.5
X69.0Y-108.5
X69.0Y-112.5
X69.0Y-116.5
X71.45Y-139.05
X71.5Y-127.0
X71.5Y-131.0
X71.5Y-135.0
X71.5Y-143.0
X71.5Y-147.0
X71.5Y-151.0
X71.5Y-155.0
X71.5Y-159.0
X71.5Y-163.25
X71.5Y-167.0
X71.5Y-169.5
X71.5Y-175.0
X71.5Y-179.0
X71.5Y-183.0
X71.5Y-187.0
X71.95Y-68.55
X72.0Y-56.5
X72.0Y-60.5
X72.0Y-64.5
X72.0Y-72.5
X72.0Y-76.5
X72.0Y-80.5
X72.0Y-84.5
X72.0Y-88.5
X72.0Y-92.75
X72.0Y-96.5
X72.0Y-99.0
X72.0Y-104.5
X72.0Y-108.5
X72.0Y-112.5
X72.0Y-116.5
X74.5Y-127.0
X74.5Y-131.0
X74.5Y-135.0
X74.5Y-139.0
X74.5Y-143.0
X74.5Y-147.0
X74.5Y-151.0
X74.5Y-155.0
X74.5Y-159.0
X74.5Y-163.0
X74.5Y-167.0
X74.5Y-173.5
X74.5Y-179.0
X74.5Y-183.0
X74.5Y-187.0
X75.0Y-56.5
X75.0Y-60.5
X75.0Y-64.5
X75.0Y-68.5
X75.0Y-72.5
X75.0Y-76.5
X75.0Y-80.5
X75.0Y-84.5
X75.0Y-88.5
X75.0Y-92.5
X75.0Y-96.5
X75.0Y-103.0
X75.0Y-108.5
X75.0Y-112.5
X75.0Y-116.5
X77.45Y-175.05
X77.5Y-127.0
X77.5Y-131.0
X77.5Y-135.0
X77.5Y-139.0
X77.5Y-143.0
X77.5Y-147.0
X77.5Y-151.0
X77.5Y-155.0
X77.5Y-159.0
X77.5Y-163.0
X77.5Y-167.0
X77.5Y-171.0
X77.5Y-177.5
X77.5Y-183.0
X77.5Y-187.0
X77.95Y-104.55
X78.0Y-56.5
X78.0Y-60.5
X78.0Y-64.5
X78.0Y-68.5
X78.0Y-72.5
X78.0Y-76.5
X78.0Y-80.5
X78.0Y-84.5
X78.0Y-88.5
X78.0Y-92.5
X78.0Y-96.5
X78.0Y-100.5
X78.0Y-107.0
X78.0Y-112.5
X78.0Y-116.5
X80.45Y-163.05
X80.5Y-127.0
X80.5Y-131.0
X80.5Y-135.0
X80.5Y-139.0
X80.5Y-143.0
X80.5Y-147.0
X80.5Y-151.0
X80.5Y-155.0
X80.5Y-159.25
X80.5Y-167.0
X80.5Y-171.0
X80.5Y-175.0
X80.5Y-181.5
X80.5Y-187.0
X80.95Y-92.55
X81.0Y-56.5
X81.0Y-60.5
X81.0Y-64.5
X81.0Y-68.5
X81.0Y-72.5
X81.0Y-76.5
X81.0Y-80.5
X81.0Y-84.5
X81.0Y-88.75
X81.0Y-96.5
X81.0Y-100.5
X81.0Y-104.5
X81.0Y-111.0
X81.0Y-116.5
X83.45Y-185.45
X83.5Y-127.0
X83.5Y-131.0
X83.5Y-135.0
X83.5Y-139.0
X83.5Y-143.0
X83.5Y-147.0
X83.5Y-151.0
X83.5Y-155.0
X83.5Y-159.0
X83.5Y-163.0
X83.5Y-167.0
X83.5Y-171.0
X83.5Y-175.0
X83.5Y-179.0
X83.95Y-114.95
X84.0Y-56.5
X84.0Y-60.5
X84.0Y-64.5
X84.0Y-68.5
X84.0Y-72.5
X84.0Y-76.5
X84.0Y-80.5
X84.0Y-84.5
X84.0Y-88.5
X84.0Y-92.5
X84.0Y-96.5
X84.0Y-100.5
X84.0Y-104.5
X84.0Y-108.5
T2
X16.5Y-21.25
X16.5Y-23.79
X16.5Y-26.33
X16.5Y-28.87
X16.5Y-31.41
X16.5Y-33.95
X16.5Y-36.49
X16.5Y-39.03
X28.8Y-14.0
X31.34Y-14.0
X31.5Y-126.25
X31.5Y-128.79
X31.5Y-131.33
X31.5Y-133.87
X31.5Y-136.41
X31.5Y-138.95
X31.5Y-141.49
X31.5Y-144.03
X31.5Y-146.57
X31.5Y-149.11
X31.5Y-151.65
X31.5Y-154.19
X31.5Y-156.73
X31.5Y-159.27
X31.5Y-161.81
X31.5Y-164.35
X31.5Y-166.89
X31.5Y-169.43
X31.5Y-171.97
X31.5Y-174.51
X31.5Y-177.05
X31.5Y-179.59
X31.5Y-182.13
X31.5Y-184.67
X32.0Y-55.75
X32.0Y-58.29
X32.0Y-60.83
X32.0Y-63.37
X32.0Y-65.91
X32.0Y-68.45
X32.0Y-70.99
X32.0Y-73.53
X32.0Y-76.07
X32.0Y-78.61
X32.0Y-81.15
X32.0Y-83.69
X32.0Y-86.23
X32.0Y-88.77
X32.0Y-91.31
X32.0Y-93.85
X32.0Y-96.39
X32.0Y-98.93
X32.0Y-101.47
X32.0Y-104.01
X32.0Y-106.55
X32.0Y-109.09
X32.0Y-111.63
X32.0Y-114.17
X33.88Y-14.0
X36.42Y-14.0
X38.96Y-14.0
X41.5Y-14.0
X44.04Y-14.0
X46.58Y-14.0
T0
M30
