M48
; DRILL file {KiCad (5.1.9)-1} date 06/16/21 16:09:50
; FORMAT={-:-/ absolute / metric / decimal}
; #@! TF.CreationDate,2021-06-16T16:09:50-07:00
; #@! TF.GenerationSoftware,Kicad,Pcbnew,(5.1.9)-1
; #@! TF.FileFunction,NonPlated,1,2,NPTH
FMAT,2
METRIC
T1C1.250
%
G90
G05
T1
X39.575Y-126.27G85X40.425Y-126.27
G05
X39.575Y-130.27G85X40.425Y-130.27
G05
X39.575Y-134.27G85X40.425Y-134.27
G05
X39.575Y-138.27G85X40.425Y-138.27
G05
X39.575Y-142.27G85X40.425Y-142.27
G05
X39.575Y-146.27G85X40.425Y-146.27
G05
X39.575Y-150.27G85X40.425Y-150.27
G05
X39.575Y-154.27G85X40.425Y-154.27
G05
X39.575Y-158.27G85X40.425Y-158.27
G05
X39.575Y-162.27G85X40.425Y-162.27
G05
X39.575Y-166.27G85X40.425Y-166.27
G05
X39.575Y-170.27G85X40.425Y-170.27
G05
X39.575Y-174.27G85X40.425Y-174.27
G05
X39.575Y-178.27G85X40.425Y-178.27
G05
X39.575Y-182.27G85X40.425Y-182.27
G05
X39.575Y-186.27G85X40.425Y-186.27
G05
X42.575Y-126.27G85X43.425Y-126.27
G05
X42.575Y-130.27G85X43.425Y-130.27
G05
X42.575Y-134.27G85X43.425Y-134.27
G05
X42.575Y-138.27G85X43.425Y-138.27
G05
X42.575Y-142.27G85X43.425Y-142.27
G05
X42.575Y-146.27G85X43.425Y-146.27
G05
X42.575Y-150.27G85X43.425Y-150.27
G05
X42.575Y-154.27G85X43.425Y-154.27
G05
X42.575Y-158.27G85X43.425Y-158.27
G05
X42.575Y-162.27G85X43.425Y-162.27
G05
X42.575Y-166.27G85X43.425Y-166.27
G05
X42.575Y-170.27G85X43.425Y-170.27
G05
X42.575Y-174.27G85X43.425Y-174.27
G05
X42.575Y-178.27G85X43.425Y-178.27
G05
X42.575Y-182.27G85X43.425Y-182.27
G05
X42.575Y-186.27G85X43.425Y-186.27
G05
X45.575Y-126.27G85X46.425Y-126.27
G05
X45.575Y-130.27G85X46.425Y-130.27
G05
X45.575Y-134.27G85X46.425Y-134.27
G05
X45.575Y-138.27G85X46.425Y-138.27
G05
X45.575Y-142.27G85X46.425Y-142.27
G05
X45.575Y-146.27G85X46.425Y-146.27
G05
X45.575Y-150.27G85X46.425Y-150.27
G05
X45.575Y-154.27G85X46.425Y-154.27
G05
X45.575Y-158.27G85X46.425Y-158.27
G05
X45.575Y-162.27G85X46.425Y-162.27
G05
X45.575Y-166.27G85X46.425Y-166.27
G05
X45.575Y-170.27G85X46.425Y-170.27
G05
X45.575Y-174.27G85X46.425Y-174.27
G05
X45.575Y-178.27G85X46.425Y-178.27
G05
X45.575Y-182.27G85X46.425Y-182.27
G05
X45.575Y-186.27G85X46.425Y-186.27
G05
X48.575Y-126.27G85X49.425Y-126.27
G05
X48.575Y-130.27G85X49.425Y-130.27
G05
X48.575Y-134.27G85X49.425Y-134.27
G05
X48.575Y-138.27G85X49.425Y-138.27
G05
X48.575Y-142.27G85X49.425Y-142.27
G05
X48.575Y-146.27G85X49.425Y-146.27
G05
X48.575Y-150.27G85X49.425Y-150.27
G05
X48.575Y-154.27G85X49.425Y-154.27
G05
X48.575Y-158.27G85X49.425Y-158.27
G05
X48.575Y-162.27G85X49.425Y-162.27
G05
X48.575Y-166.27G85X49.425Y-166.27
G05
X48.575Y-170.27G85X49.425Y-170.27
G05
X48.575Y-174.27G85X49.425Y-174.27
G05
X48.575Y-178.27G85X49.425Y-178.27
G05
X48.575Y-182.27G85X49.425Y-182.27
G05
X48.575Y-186.27G85X49.425Y-186.27
G05
X51.575Y-126.27G85X52.425Y-126.27
G05
X51.575Y-130.27G85X52.425Y-130.27
G05
X51.575Y-134.27G85X52.425Y-134.27
G05
X51.575Y-138.27G85X52.425Y-138.27
G05
X51.575Y-142.27G85X52.425Y-142.27
G05
X51.575Y-146.27G85X52.425Y-146.27
G05
X51.575Y-150.27G85X52.425Y-150.27
G05
X51.575Y-154.27G85X52.425Y-154.27
G05
X51.575Y-158.27G85X52.425Y-158.27
G05
X51.575Y-162.27G85X52.425Y-162.27
G05
X51.575Y-166.27G85X52.425Y-166.27
G05
X51.575Y-170.27G85X52.425Y-170.27
G05
X51.575Y-174.27G85X52.425Y-174.27
G05
X51.575Y-178.27G85X52.425Y-178.27
G05
X51.575Y-182.27G85X52.425Y-182.27
G05
X51.575Y-186.27G85X52.425Y-186.27
G05
X54.575Y-126.27G85X55.425Y-126.27
G05
X54.575Y-130.27G85X55.425Y-130.27
G05
X54.575Y-134.27G85X55.425Y-134.27
G05
X54.575Y-138.27G85X55.425Y-138.27
G05
X54.575Y-142.27G85X55.425Y-142.27
G05
X54.575Y-146.27G85X55.425Y-146.27
G05
X54.575Y-150.27G85X55.425Y-150.27
G05
X54.575Y-154.27G85X55.425Y-154.27
G05
X54.575Y-158.27G85X55.425Y-158.27
G05
X54.575Y-162.27G85X55.425Y-162.27
G05
X54.575Y-166.27G85X55.425Y-166.27
G05
X54.575Y-170.27G85X55.425Y-170.27
G05
X54.575Y-174.27G85X55.425Y-174.27
G05
X54.575Y-178.27G85X55.425Y-178.27
G05
X54.575Y-182.27G85X55.425Y-182.27
G05
X54.575Y-186.27G85X55.425Y-186.27
G05
X57.575Y-126.27G85X58.425Y-126.27
G05
X57.575Y-130.27G85X58.425Y-130.27
G05
X57.575Y-134.27G85X58.425Y-134.27
G05
X57.575Y-138.27G85X58.425Y-138.27
G05
X57.575Y-142.27G85X58.425Y-142.27
G05
X57.575Y-146.27G85X58.425Y-146.27
G05
X57.575Y-150.27G85X58.425Y-150.27
G05
X57.575Y-154.27G85X58.425Y-154.27
G05
X57.575Y-158.27G85X58.425Y-158.27
G05
X57.575Y-162.27G85X58.425Y-162.27
G05
X57.575Y-166.27G85X58.425Y-166.27
G05
X57.575Y-170.27G85X58.425Y-170.27
G05
X57.575Y-174.27G85X58.425Y-174.27
G05
X57.575Y-178.27G85X58.425Y-178.27
G05
X57.575Y-182.27G85X58.425Y-182.27
G05
X57.575Y-186.27G85X58.425Y-186.27
G05
X60.575Y-126.27G85X61.425Y-126.27
G05
X60.575Y-130.27G85X61.425Y-130.27
G05
X60.575Y-134.27G85X61.425Y-134.27
G05
X60.575Y-138.27G85X61.425Y-138.27
G05
X60.575Y-142.27G85X61.425Y-142.27
G05
X60.575Y-146.27G85X61.425Y-146.27
G05
X60.575Y-150.27G85X61.425Y-150.27
G05
X60.575Y-154.27G85X61.425Y-154.27
G05
X60.575Y-158.27G85X61.425Y-158.27
G05
X60.575Y-162.27G85X61.425Y-162.27
G05
X60.575Y-166.27G85X61.425Y-166.27
G05
X60.575Y-170.27G85X61.425Y-170.27
G05
X60.575Y-174.27G85X61.425Y-174.27
G05
X60.575Y-178.27G85X61.425Y-178.27
G05
X60.575Y-182.27G85X61.425Y-182.27
G05
X60.575Y-186.27G85X61.425Y-186.27
G05
X63.575Y-126.27G85X64.425Y-126.27
G05
X63.575Y-130.27G85X64.425Y-130.27
G05
X63.575Y-134.27G85X64.425Y-134.27
G05
X63.575Y-138.27G85X64.425Y-138.27
G05
X63.575Y-142.27G85X64.425Y-142.27
G05
X63.575Y-146.27G85X64.425Y-146.27
G05
X63.575Y-150.27G85X64.425Y-150.27
G05
X63.575Y-154.27G85X64.425Y-154.27
G05
X63.575Y-158.27G85X64.425Y-158.27
G05
X63.575Y-162.27G85X64.425Y-162.27
G05
X63.575Y-166.27G85X64.425Y-166.27
G05
X63.575Y-170.27G85X64.425Y-170.27
G05
X63.575Y-174.27G85X64.425Y-174.27
G05
X63.575Y-178.27G85X64.425Y-178.27
G05
X63.575Y-182.27G85X64.425Y-182.27
G05
X63.575Y-186.27G85X64.425Y-186.27
G05
X66.575Y-126.27G85X67.425Y-126.27
G05
X66.575Y-130.27G85X67.425Y-130.27
G05
X66.575Y-134.27G85X67.425Y-134.27
G05
X66.575Y-138.27G85X67.425Y-138.27
G05
X66.575Y-142.27G85X67.425Y-142.27
G05
X66.575Y-146.27G85X67.425Y-146.27
G05
X66.575Y-150.27G85X67.425Y-150.27
G05
X66.575Y-154.27G85X67.425Y-154.27
G05
X66.575Y-158.27G85X67.425Y-158.27
G05
X66.575Y-162.27G85X67.425Y-162.27
G05
X66.575Y-166.27G85X67.425Y-166.27
G05
X66.575Y-170.27G85X67.425Y-170.27
G05
X66.575Y-174.27G85X67.425Y-174.27
G05
X66.575Y-178.27G85X67.425Y-178.27
G05
X66.575Y-182.27G85X67.425Y-182.27
G05
X66.575Y-186.27G85X67.425Y-186.27
G05
X69.575Y-126.27G85X70.425Y-126.27
G05
X69.575Y-130.27G85X70.425Y-130.27
G05
X69.575Y-134.27G85X70.425Y-134.27
G05
X69.575Y-138.27G85X70.425Y-138.27
G05
X69.575Y-142.27G85X70.425Y-142.27
G05
X69.575Y-146.27G85X70.425Y-146.27
G05
X69.575Y-150.27G85X70.425Y-150.27
G05
X69.575Y-154.27G85X70.425Y-154.27
G05
X69.575Y-158.27G85X70.425Y-158.27
G05
X69.575Y-162.27G85X70.425Y-162.27
G05
X69.575Y-166.27G85X70.425Y-166.27
G05
X69.575Y-170.27G85X70.425Y-170.27
G05
X69.575Y-174.27G85X70.425Y-174.27
G05
X69.575Y-178.27G85X70.425Y-178.27
G05
X69.575Y-182.27G85X70.425Y-182.27
G05
X69.575Y-186.27G85X70.425Y-186.27
G05
X72.575Y-126.27G85X73.425Y-126.27
G05
X72.575Y-130.27G85X73.425Y-130.27
G05
X72.575Y-134.27G85X73.425Y-134.27
G05
X72.575Y-138.27G85X73.425Y-138.27
G05
X72.575Y-142.27G85X73.425Y-142.27
G05
X72.575Y-146.27G85X73.425Y-146.27
G05
X72.575Y-150.27G85X73.425Y-150.27
G05
X72.575Y-154.27G85X73.425Y-154.27
G05
X72.575Y-158.27G85X73.425Y-158.27
G05
X72.575Y-162.27G85X73.425Y-162.27
G05
X72.575Y-166.27G85X73.425Y-166.27
G05
X72.575Y-170.27G85X73.425Y-170.27
G05
X72.575Y-174.27G85X73.425Y-174.27
G05
X72.575Y-178.27G85X73.425Y-178.27
G05
X72.575Y-182.27G85X73.425Y-182.27
G05
X72.575Y-186.27G85X73.425Y-186.27
G05
X75.575Y-126.27G85X76.425Y-126.27
G05
X75.575Y-130.27G85X76.425Y-130.27
G05
X75.575Y-134.27G85X76.425Y-134.27
G05
X75.575Y-138.27G85X76.425Y-138.27
G05
X75.575Y-142.27G85X76.425Y-142.27
G05
X75.575Y-146.27G85X76.425Y-146.27
G05
X75.575Y-150.27G85X76.425Y-150.27
G05
X75.575Y-154.27G85X76.425Y-154.27
G05
X75.575Y-158.27G85X76.425Y-158.27
G05
X75.575Y-162.27G85X76.425Y-162.27
G05
X75.575Y-166.27G85X76.425Y-166.27
G05
X75.575Y-170.27G85X76.425Y-170.27
G05
X75.575Y-174.27G85X76.425Y-174.27
G05
X75.575Y-178.27G85X76.425Y-178.27
G05
X75.575Y-182.27G85X76.425Y-182.27
G05
X75.575Y-186.27G85X76.425Y-186.27
G05
X78.575Y-126.27G85X79.425Y-126.27
G05
X78.575Y-130.27G85X79.425Y-130.27
G05
X78.575Y-134.27G85X79.425Y-134.27
G05
X78.575Y-138.27G85X79.425Y-138.27
G05
X78.575Y-142.27G85X79.425Y-142.27
G05
X78.575Y-146.27G85X79.425Y-146.27
G05
X78.575Y-150.27G85X79.425Y-150.27
G05
X78.575Y-154.27G85X79.425Y-154.27
G05
X78.575Y-158.27G85X79.425Y-158.27
G05
X78.575Y-162.27G85X79.425Y-162.27
G05
X78.575Y-166.27G85X79.425Y-166.27
G05
X78.575Y-170.27G85X79.425Y-170.27
G05
X78.575Y-174.27G85X79.425Y-174.27
G05
X78.575Y-178.27G85X79.425Y-178.27
G05
X78.575Y-182.27G85X79.425Y-182.27
G05
X78.575Y-186.27G85X79.425Y-186.27
G05
X81.575Y-126.27G85X82.425Y-126.27
G05
X81.575Y-130.27G85X82.425Y-130.27
G05
X81.575Y-134.27G85X82.425Y-134.27
G05
X81.575Y-138.27G85X82.425Y-138.27
G05
X81.575Y-142.27G85X82.425Y-142.27
G05
X81.575Y-146.27G85X82.425Y-146.27
G05
X81.575Y-150.27G85X82.425Y-150.27
G05
X81.575Y-154.27G85X82.425Y-154.27
G05
X81.575Y-158.27G85X82.425Y-158.27
G05
X81.575Y-162.27G85X82.425Y-162.27
G05
X81.575Y-166.27G85X82.425Y-166.27
G05
X81.575Y-170.27G85X82.425Y-170.27
G05
X81.575Y-174.27G85X82.425Y-174.27
G05
X81.575Y-178.27G85X82.425Y-178.27
G05
X81.575Y-182.27G85X82.425Y-182.27
G05
X81.575Y-186.27G85X82.425Y-186.27
G05
X84.575Y-126.27G85X85.425Y-126.27
G05
X84.575Y-130.27G85X85.425Y-130.27
G05
X84.575Y-134.27G85X85.425Y-134.27
G05
X84.575Y-138.27G85X85.425Y-138.27
G05
X84.575Y-142.27G85X85.425Y-142.27
G05
X84.575Y-146.27G85X85.425Y-146.27
G05
X84.575Y-150.27G85X85.425Y-150.27
G05
X84.575Y-154.27G85X85.425Y-154.27
G05
X84.575Y-158.27G85X85.425Y-158.27
G05
X84.575Y-162.27G85X85.425Y-162.27
G05
X84.575Y-166.27G85X85.425Y-166.27
G05
X84.575Y-170.27G85X85.425Y-170.27
G05
X84.575Y-174.27G85X85.425Y-174.27
G05
X84.575Y-178.27G85X85.425Y-178.27
G05
X84.575Y-182.27G85X85.425Y-182.27
G05
X84.575Y-186.27G85X85.425Y-186.27
G05
T0
M30
