%TF.GenerationSoftware,KiCad,Pcbnew,(5.1.9)-1*%
%TF.CreationDate,2021-06-16T16:09:49-07:00*%
%TF.ProjectId,noname,6e6f6e61-6d65-42e6-9b69-6361645f7063,rev?*%
%TF.SameCoordinates,Original*%
%TF.FileFunction,Soldermask,Top*%
%TF.FilePolarity,Negative*%
%FSLAX46Y46*%
G04 Gerber Fmt 4.6, Leading zero omitted, Abs format (unit mm)*
G04 Created by KiCad (PCBNEW (5.1.9)-1) date 2021-06-16 16:09:49*
%MOMM*%
%LPD*%
G01*
G04 APERTURE LIST*
%ADD10R,0.850000X0.400000*%
%ADD11O,2.100000X1.250000*%
%ADD12O,1.700000X1.700000*%
%ADD13R,1.700000X1.700000*%
%ADD14R,1.200000X0.400000*%
%ADD15R,0.800000X0.800000*%
%ADD16R,0.500000X0.900000*%
G04 APERTURE END LIST*
D10*
X85000000Y-185440000D03*
X85000000Y-187100000D03*
D11*
X85000000Y-186270000D03*
D10*
X85000000Y-181440000D03*
X85000000Y-183100000D03*
D11*
X85000000Y-182270000D03*
D10*
X85000000Y-177440000D03*
X85000000Y-179100000D03*
D11*
X85000000Y-178270000D03*
D10*
X85000000Y-173440000D03*
X85000000Y-175100000D03*
D11*
X85000000Y-174270000D03*
D10*
X85000000Y-169440000D03*
X85000000Y-171100000D03*
D11*
X85000000Y-170270000D03*
D10*
X85000000Y-165440000D03*
X85000000Y-167100000D03*
D11*
X85000000Y-166270000D03*
D10*
X85000000Y-161440000D03*
X85000000Y-163100000D03*
D11*
X85000000Y-162270000D03*
D10*
X85000000Y-157440000D03*
X85000000Y-159100000D03*
D11*
X85000000Y-158270000D03*
D10*
X85000000Y-153440000D03*
X85000000Y-155100000D03*
D11*
X85000000Y-154270000D03*
D10*
X85000000Y-149440000D03*
X85000000Y-151100000D03*
D11*
X85000000Y-150270000D03*
D10*
X85000000Y-145440000D03*
X85000000Y-147100000D03*
D11*
X85000000Y-146270000D03*
D10*
X85000000Y-141440000D03*
X85000000Y-143100000D03*
D11*
X85000000Y-142270000D03*
D10*
X85000000Y-137440000D03*
X85000000Y-139100000D03*
D11*
X85000000Y-138270000D03*
D10*
X85000000Y-133440000D03*
X85000000Y-135100000D03*
D11*
X85000000Y-134270000D03*
D10*
X85000000Y-129440000D03*
X85000000Y-131100000D03*
D11*
X85000000Y-130270000D03*
D10*
X85000000Y-125440000D03*
X85000000Y-127100000D03*
D11*
X85000000Y-126270000D03*
D10*
X82000000Y-185440000D03*
X82000000Y-187100000D03*
D11*
X82000000Y-186270000D03*
D10*
X82000000Y-181440000D03*
X82000000Y-183100000D03*
D11*
X82000000Y-182270000D03*
D10*
X82000000Y-177440000D03*
X82000000Y-179100000D03*
D11*
X82000000Y-178270000D03*
D10*
X82000000Y-173440000D03*
X82000000Y-175100000D03*
D11*
X82000000Y-174270000D03*
D10*
X82000000Y-169440000D03*
X82000000Y-171100000D03*
D11*
X82000000Y-170270000D03*
D10*
X82000000Y-165440000D03*
X82000000Y-167100000D03*
D11*
X82000000Y-166270000D03*
D10*
X82000000Y-161440000D03*
X82000000Y-163100000D03*
D11*
X82000000Y-162270000D03*
D10*
X82000000Y-157440000D03*
X82000000Y-159100000D03*
D11*
X82000000Y-158270000D03*
D10*
X82000000Y-153440000D03*
X82000000Y-155100000D03*
D11*
X82000000Y-154270000D03*
D10*
X82000000Y-149440000D03*
X82000000Y-151100000D03*
D11*
X82000000Y-150270000D03*
D10*
X82000000Y-145440000D03*
X82000000Y-147100000D03*
D11*
X82000000Y-146270000D03*
D10*
X82000000Y-141440000D03*
X82000000Y-143100000D03*
D11*
X82000000Y-142270000D03*
D10*
X82000000Y-137440000D03*
X82000000Y-139100000D03*
D11*
X82000000Y-138270000D03*
D10*
X82000000Y-133440000D03*
X82000000Y-135100000D03*
D11*
X82000000Y-134270000D03*
D10*
X82000000Y-129440000D03*
X82000000Y-131100000D03*
D11*
X82000000Y-130270000D03*
D10*
X82000000Y-125440000D03*
X82000000Y-127100000D03*
D11*
X82000000Y-126270000D03*
D10*
X79000000Y-185440000D03*
X79000000Y-187100000D03*
D11*
X79000000Y-186270000D03*
D10*
X79000000Y-181440000D03*
X79000000Y-183100000D03*
D11*
X79000000Y-182270000D03*
D10*
X79000000Y-177440000D03*
X79000000Y-179100000D03*
D11*
X79000000Y-178270000D03*
D10*
X79000000Y-173440000D03*
X79000000Y-175100000D03*
D11*
X79000000Y-174270000D03*
D10*
X79000000Y-169440000D03*
X79000000Y-171100000D03*
D11*
X79000000Y-170270000D03*
D10*
X79000000Y-165440000D03*
X79000000Y-167100000D03*
D11*
X79000000Y-166270000D03*
D10*
X79000000Y-161440000D03*
X79000000Y-163100000D03*
D11*
X79000000Y-162270000D03*
D10*
X79000000Y-157440000D03*
X79000000Y-159100000D03*
D11*
X79000000Y-158270000D03*
D10*
X79000000Y-153440000D03*
X79000000Y-155100000D03*
D11*
X79000000Y-154270000D03*
D10*
X79000000Y-149440000D03*
X79000000Y-151100000D03*
D11*
X79000000Y-150270000D03*
D10*
X79000000Y-145440000D03*
X79000000Y-147100000D03*
D11*
X79000000Y-146270000D03*
D10*
X79000000Y-141440000D03*
X79000000Y-143100000D03*
D11*
X79000000Y-142270000D03*
D10*
X79000000Y-137440000D03*
X79000000Y-139100000D03*
D11*
X79000000Y-138270000D03*
D10*
X79000000Y-133440000D03*
X79000000Y-135100000D03*
D11*
X79000000Y-134270000D03*
D10*
X79000000Y-129440000D03*
X79000000Y-131100000D03*
D11*
X79000000Y-130270000D03*
D10*
X79000000Y-125440000D03*
X79000000Y-127100000D03*
D11*
X79000000Y-126270000D03*
D10*
X76000000Y-185440000D03*
X76000000Y-187100000D03*
D11*
X76000000Y-186270000D03*
D10*
X76000000Y-181440000D03*
X76000000Y-183100000D03*
D11*
X76000000Y-182270000D03*
D10*
X76000000Y-177440000D03*
X76000000Y-179100000D03*
D11*
X76000000Y-178270000D03*
D10*
X76000000Y-173440000D03*
X76000000Y-175100000D03*
D11*
X76000000Y-174270000D03*
D10*
X76000000Y-169440000D03*
X76000000Y-171100000D03*
D11*
X76000000Y-170270000D03*
D10*
X76000000Y-165440000D03*
X76000000Y-167100000D03*
D11*
X76000000Y-166270000D03*
D10*
X76000000Y-161440000D03*
X76000000Y-163100000D03*
D11*
X76000000Y-162270000D03*
D10*
X76000000Y-157440000D03*
X76000000Y-159100000D03*
D11*
X76000000Y-158270000D03*
D10*
X76000000Y-153440000D03*
X76000000Y-155100000D03*
D11*
X76000000Y-154270000D03*
D10*
X76000000Y-149440000D03*
X76000000Y-151100000D03*
D11*
X76000000Y-150270000D03*
D10*
X76000000Y-145440000D03*
X76000000Y-147100000D03*
D11*
X76000000Y-146270000D03*
D10*
X76000000Y-141440000D03*
X76000000Y-143100000D03*
D11*
X76000000Y-142270000D03*
D10*
X76000000Y-137440000D03*
X76000000Y-139100000D03*
D11*
X76000000Y-138270000D03*
D10*
X76000000Y-133440000D03*
X76000000Y-135100000D03*
D11*
X76000000Y-134270000D03*
D10*
X76000000Y-129440000D03*
X76000000Y-131100000D03*
D11*
X76000000Y-130270000D03*
D10*
X76000000Y-125440000D03*
X76000000Y-127100000D03*
D11*
X76000000Y-126270000D03*
D10*
X73000000Y-185440000D03*
X73000000Y-187100000D03*
D11*
X73000000Y-186270000D03*
D10*
X73000000Y-181440000D03*
X73000000Y-183100000D03*
D11*
X73000000Y-182270000D03*
D10*
X73000000Y-177440000D03*
X73000000Y-179100000D03*
D11*
X73000000Y-178270000D03*
D10*
X73000000Y-173440000D03*
X73000000Y-175100000D03*
D11*
X73000000Y-174270000D03*
D10*
X73000000Y-169440000D03*
X73000000Y-171100000D03*
D11*
X73000000Y-170270000D03*
D10*
X73000000Y-165440000D03*
X73000000Y-167100000D03*
D11*
X73000000Y-166270000D03*
D10*
X73000000Y-161440000D03*
X73000000Y-163100000D03*
D11*
X73000000Y-162270000D03*
D10*
X73000000Y-157440000D03*
X73000000Y-159100000D03*
D11*
X73000000Y-158270000D03*
D10*
X73000000Y-153440000D03*
X73000000Y-155100000D03*
D11*
X73000000Y-154270000D03*
D10*
X73000000Y-149440000D03*
X73000000Y-151100000D03*
D11*
X73000000Y-150270000D03*
D10*
X73000000Y-145440000D03*
X73000000Y-147100000D03*
D11*
X73000000Y-146270000D03*
D10*
X73000000Y-141440000D03*
X73000000Y-143100000D03*
D11*
X73000000Y-142270000D03*
D10*
X73000000Y-137440000D03*
X73000000Y-139100000D03*
D11*
X73000000Y-138270000D03*
D10*
X73000000Y-133440000D03*
X73000000Y-135100000D03*
D11*
X73000000Y-134270000D03*
D10*
X73000000Y-129440000D03*
X73000000Y-131100000D03*
D11*
X73000000Y-130270000D03*
D10*
X73000000Y-125440000D03*
X73000000Y-127100000D03*
D11*
X73000000Y-126270000D03*
D10*
X70000000Y-185440000D03*
X70000000Y-187100000D03*
D11*
X70000000Y-186270000D03*
D10*
X70000000Y-181440000D03*
X70000000Y-183100000D03*
D11*
X70000000Y-182270000D03*
D10*
X70000000Y-177440000D03*
X70000000Y-179100000D03*
D11*
X70000000Y-178270000D03*
D10*
X70000000Y-173440000D03*
X70000000Y-175100000D03*
D11*
X70000000Y-174270000D03*
D10*
X70000000Y-169440000D03*
X70000000Y-171100000D03*
D11*
X70000000Y-170270000D03*
D10*
X70000000Y-165440000D03*
X70000000Y-167100000D03*
D11*
X70000000Y-166270000D03*
D10*
X70000000Y-161440000D03*
X70000000Y-163100000D03*
D11*
X70000000Y-162270000D03*
D10*
X70000000Y-157440000D03*
X70000000Y-159100000D03*
D11*
X70000000Y-158270000D03*
D10*
X70000000Y-153440000D03*
X70000000Y-155100000D03*
D11*
X70000000Y-154270000D03*
D10*
X70000000Y-149440000D03*
X70000000Y-151100000D03*
D11*
X70000000Y-150270000D03*
D10*
X70000000Y-145440000D03*
X70000000Y-147100000D03*
D11*
X70000000Y-146270000D03*
D10*
X70000000Y-141440000D03*
X70000000Y-143100000D03*
D11*
X70000000Y-142270000D03*
D10*
X70000000Y-137440000D03*
X70000000Y-139100000D03*
D11*
X70000000Y-138270000D03*
D10*
X70000000Y-133440000D03*
X70000000Y-135100000D03*
D11*
X70000000Y-134270000D03*
D10*
X70000000Y-129440000D03*
X70000000Y-131100000D03*
D11*
X70000000Y-130270000D03*
D10*
X70000000Y-125440000D03*
X70000000Y-127100000D03*
D11*
X70000000Y-126270000D03*
D10*
X67000000Y-185440000D03*
X67000000Y-187100000D03*
D11*
X67000000Y-186270000D03*
D10*
X67000000Y-181440000D03*
X67000000Y-183100000D03*
D11*
X67000000Y-182270000D03*
D10*
X67000000Y-177440000D03*
X67000000Y-179100000D03*
D11*
X67000000Y-178270000D03*
D10*
X67000000Y-173440000D03*
X67000000Y-175100000D03*
D11*
X67000000Y-174270000D03*
D10*
X67000000Y-169440000D03*
X67000000Y-171100000D03*
D11*
X67000000Y-170270000D03*
D10*
X67000000Y-165440000D03*
X67000000Y-167100000D03*
D11*
X67000000Y-166270000D03*
D10*
X67000000Y-161440000D03*
X67000000Y-163100000D03*
D11*
X67000000Y-162270000D03*
D10*
X67000000Y-157440000D03*
X67000000Y-159100000D03*
D11*
X67000000Y-158270000D03*
D10*
X67000000Y-153440000D03*
X67000000Y-155100000D03*
D11*
X67000000Y-154270000D03*
D10*
X67000000Y-149440000D03*
X67000000Y-151100000D03*
D11*
X67000000Y-150270000D03*
D10*
X67000000Y-145440000D03*
X67000000Y-147100000D03*
D11*
X67000000Y-146270000D03*
D10*
X67000000Y-141440000D03*
X67000000Y-143100000D03*
D11*
X67000000Y-142270000D03*
D10*
X67000000Y-137440000D03*
X67000000Y-139100000D03*
D11*
X67000000Y-138270000D03*
D10*
X67000000Y-133440000D03*
X67000000Y-135100000D03*
D11*
X67000000Y-134270000D03*
D10*
X67000000Y-129440000D03*
X67000000Y-131100000D03*
D11*
X67000000Y-130270000D03*
D10*
X67000000Y-125440000D03*
X67000000Y-127100000D03*
D11*
X67000000Y-126270000D03*
D10*
X64000000Y-185440000D03*
X64000000Y-187100000D03*
D11*
X64000000Y-186270000D03*
D10*
X64000000Y-181440000D03*
X64000000Y-183100000D03*
D11*
X64000000Y-182270000D03*
D10*
X64000000Y-177440000D03*
X64000000Y-179100000D03*
D11*
X64000000Y-178270000D03*
D10*
X64000000Y-173440000D03*
X64000000Y-175100000D03*
D11*
X64000000Y-174270000D03*
D10*
X64000000Y-169440000D03*
X64000000Y-171100000D03*
D11*
X64000000Y-170270000D03*
D10*
X64000000Y-165440000D03*
X64000000Y-167100000D03*
D11*
X64000000Y-166270000D03*
D10*
X64000000Y-161440000D03*
X64000000Y-163100000D03*
D11*
X64000000Y-162270000D03*
D10*
X64000000Y-157440000D03*
X64000000Y-159100000D03*
D11*
X64000000Y-158270000D03*
D10*
X64000000Y-153440000D03*
X64000000Y-155100000D03*
D11*
X64000000Y-154270000D03*
D10*
X64000000Y-149440000D03*
X64000000Y-151100000D03*
D11*
X64000000Y-150270000D03*
D10*
X64000000Y-145440000D03*
X64000000Y-147100000D03*
D11*
X64000000Y-146270000D03*
D10*
X64000000Y-141440000D03*
X64000000Y-143100000D03*
D11*
X64000000Y-142270000D03*
D10*
X64000000Y-137440000D03*
X64000000Y-139100000D03*
D11*
X64000000Y-138270000D03*
D10*
X64000000Y-133440000D03*
X64000000Y-135100000D03*
D11*
X64000000Y-134270000D03*
D10*
X64000000Y-129440000D03*
X64000000Y-131100000D03*
D11*
X64000000Y-130270000D03*
D10*
X64000000Y-125440000D03*
X64000000Y-127100000D03*
D11*
X64000000Y-126270000D03*
D10*
X61000000Y-185440000D03*
X61000000Y-187100000D03*
D11*
X61000000Y-186270000D03*
D10*
X61000000Y-181440000D03*
X61000000Y-183100000D03*
D11*
X61000000Y-182270000D03*
D10*
X61000000Y-177440000D03*
X61000000Y-179100000D03*
D11*
X61000000Y-178270000D03*
D10*
X61000000Y-173440000D03*
X61000000Y-175100000D03*
D11*
X61000000Y-174270000D03*
D10*
X61000000Y-169440000D03*
X61000000Y-171100000D03*
D11*
X61000000Y-170270000D03*
D10*
X61000000Y-165440000D03*
X61000000Y-167100000D03*
D11*
X61000000Y-166270000D03*
D10*
X61000000Y-161440000D03*
X61000000Y-163100000D03*
D11*
X61000000Y-162270000D03*
D10*
X61000000Y-157440000D03*
X61000000Y-159100000D03*
D11*
X61000000Y-158270000D03*
D10*
X61000000Y-153440000D03*
X61000000Y-155100000D03*
D11*
X61000000Y-154270000D03*
D10*
X61000000Y-149440000D03*
X61000000Y-151100000D03*
D11*
X61000000Y-150270000D03*
D10*
X61000000Y-145440000D03*
X61000000Y-147100000D03*
D11*
X61000000Y-146270000D03*
D10*
X61000000Y-141440000D03*
X61000000Y-143100000D03*
D11*
X61000000Y-142270000D03*
D10*
X61000000Y-137440000D03*
X61000000Y-139100000D03*
D11*
X61000000Y-138270000D03*
D10*
X61000000Y-133440000D03*
X61000000Y-135100000D03*
D11*
X61000000Y-134270000D03*
D10*
X61000000Y-129440000D03*
X61000000Y-131100000D03*
D11*
X61000000Y-130270000D03*
D10*
X61000000Y-125440000D03*
X61000000Y-127100000D03*
D11*
X61000000Y-126270000D03*
D10*
X58000000Y-185440000D03*
X58000000Y-187100000D03*
D11*
X58000000Y-186270000D03*
D10*
X58000000Y-181440000D03*
X58000000Y-183100000D03*
D11*
X58000000Y-182270000D03*
D10*
X58000000Y-177440000D03*
X58000000Y-179100000D03*
D11*
X58000000Y-178270000D03*
D10*
X58000000Y-173440000D03*
X58000000Y-175100000D03*
D11*
X58000000Y-174270000D03*
D10*
X58000000Y-169440000D03*
X58000000Y-171100000D03*
D11*
X58000000Y-170270000D03*
D10*
X58000000Y-165440000D03*
X58000000Y-167100000D03*
D11*
X58000000Y-166270000D03*
D10*
X58000000Y-161440000D03*
X58000000Y-163100000D03*
D11*
X58000000Y-162270000D03*
D10*
X58000000Y-157440000D03*
X58000000Y-159100000D03*
D11*
X58000000Y-158270000D03*
D10*
X58000000Y-153440000D03*
X58000000Y-155100000D03*
D11*
X58000000Y-154270000D03*
D10*
X58000000Y-149440000D03*
X58000000Y-151100000D03*
D11*
X58000000Y-150270000D03*
D10*
X58000000Y-145440000D03*
X58000000Y-147100000D03*
D11*
X58000000Y-146270000D03*
D10*
X58000000Y-141440000D03*
X58000000Y-143100000D03*
D11*
X58000000Y-142270000D03*
D10*
X58000000Y-137440000D03*
X58000000Y-139100000D03*
D11*
X58000000Y-138270000D03*
D10*
X58000000Y-133440000D03*
X58000000Y-135100000D03*
D11*
X58000000Y-134270000D03*
D10*
X58000000Y-129440000D03*
X58000000Y-131100000D03*
D11*
X58000000Y-130270000D03*
D10*
X58000000Y-125440000D03*
X58000000Y-127100000D03*
D11*
X58000000Y-126270000D03*
D10*
X55000000Y-185440000D03*
X55000000Y-187100000D03*
D11*
X55000000Y-186270000D03*
D10*
X55000000Y-181440000D03*
X55000000Y-183100000D03*
D11*
X55000000Y-182270000D03*
D10*
X55000000Y-177440000D03*
X55000000Y-179100000D03*
D11*
X55000000Y-178270000D03*
D10*
X55000000Y-173440000D03*
X55000000Y-175100000D03*
D11*
X55000000Y-174270000D03*
D10*
X55000000Y-169440000D03*
X55000000Y-171100000D03*
D11*
X55000000Y-170270000D03*
D10*
X55000000Y-165440000D03*
X55000000Y-167100000D03*
D11*
X55000000Y-166270000D03*
D10*
X55000000Y-161440000D03*
X55000000Y-163100000D03*
D11*
X55000000Y-162270000D03*
D10*
X55000000Y-157440000D03*
X55000000Y-159100000D03*
D11*
X55000000Y-158270000D03*
D10*
X55000000Y-153440000D03*
X55000000Y-155100000D03*
D11*
X55000000Y-154270000D03*
D10*
X55000000Y-149440000D03*
X55000000Y-151100000D03*
D11*
X55000000Y-150270000D03*
D10*
X55000000Y-145440000D03*
X55000000Y-147100000D03*
D11*
X55000000Y-146270000D03*
D10*
X55000000Y-141440000D03*
X55000000Y-143100000D03*
D11*
X55000000Y-142270000D03*
D10*
X55000000Y-137440000D03*
X55000000Y-139100000D03*
D11*
X55000000Y-138270000D03*
D10*
X55000000Y-133440000D03*
X55000000Y-135100000D03*
D11*
X55000000Y-134270000D03*
D10*
X55000000Y-129440000D03*
X55000000Y-131100000D03*
D11*
X55000000Y-130270000D03*
D10*
X55000000Y-125440000D03*
X55000000Y-127100000D03*
D11*
X55000000Y-126270000D03*
D10*
X52000000Y-185440000D03*
X52000000Y-187100000D03*
D11*
X52000000Y-186270000D03*
D10*
X52000000Y-181440000D03*
X52000000Y-183100000D03*
D11*
X52000000Y-182270000D03*
D10*
X52000000Y-177440000D03*
X52000000Y-179100000D03*
D11*
X52000000Y-178270000D03*
D10*
X52000000Y-173440000D03*
X52000000Y-175100000D03*
D11*
X52000000Y-174270000D03*
D10*
X52000000Y-169440000D03*
X52000000Y-171100000D03*
D11*
X52000000Y-170270000D03*
D10*
X52000000Y-165440000D03*
X52000000Y-167100000D03*
D11*
X52000000Y-166270000D03*
D10*
X52000000Y-161440000D03*
X52000000Y-163100000D03*
D11*
X52000000Y-162270000D03*
D10*
X52000000Y-157440000D03*
X52000000Y-159100000D03*
D11*
X52000000Y-158270000D03*
D10*
X52000000Y-153440000D03*
X52000000Y-155100000D03*
D11*
X52000000Y-154270000D03*
D10*
X52000000Y-149440000D03*
X52000000Y-151100000D03*
D11*
X52000000Y-150270000D03*
D10*
X52000000Y-145440000D03*
X52000000Y-147100000D03*
D11*
X52000000Y-146270000D03*
D10*
X52000000Y-141440000D03*
X52000000Y-143100000D03*
D11*
X52000000Y-142270000D03*
D10*
X52000000Y-137440000D03*
X52000000Y-139100000D03*
D11*
X52000000Y-138270000D03*
D10*
X52000000Y-133440000D03*
X52000000Y-135100000D03*
D11*
X52000000Y-134270000D03*
D10*
X52000000Y-129440000D03*
X52000000Y-131100000D03*
D11*
X52000000Y-130270000D03*
D10*
X52000000Y-125440000D03*
X52000000Y-127100000D03*
D11*
X52000000Y-126270000D03*
D10*
X49000000Y-185440000D03*
X49000000Y-187100000D03*
D11*
X49000000Y-186270000D03*
D10*
X49000000Y-181440000D03*
X49000000Y-183100000D03*
D11*
X49000000Y-182270000D03*
D10*
X49000000Y-177440000D03*
X49000000Y-179100000D03*
D11*
X49000000Y-178270000D03*
D10*
X49000000Y-173440000D03*
X49000000Y-175100000D03*
D11*
X49000000Y-174270000D03*
D10*
X49000000Y-169440000D03*
X49000000Y-171100000D03*
D11*
X49000000Y-170270000D03*
D10*
X49000000Y-165440000D03*
X49000000Y-167100000D03*
D11*
X49000000Y-166270000D03*
D10*
X49000000Y-161440000D03*
X49000000Y-163100000D03*
D11*
X49000000Y-162270000D03*
D10*
X49000000Y-157440000D03*
X49000000Y-159100000D03*
D11*
X49000000Y-158270000D03*
D10*
X49000000Y-153440000D03*
X49000000Y-155100000D03*
D11*
X49000000Y-154270000D03*
D10*
X49000000Y-149440000D03*
X49000000Y-151100000D03*
D11*
X49000000Y-150270000D03*
D10*
X49000000Y-145440000D03*
X49000000Y-147100000D03*
D11*
X49000000Y-146270000D03*
D10*
X49000000Y-141440000D03*
X49000000Y-143100000D03*
D11*
X49000000Y-142270000D03*
D10*
X49000000Y-137440000D03*
X49000000Y-139100000D03*
D11*
X49000000Y-138270000D03*
D10*
X49000000Y-133440000D03*
X49000000Y-135100000D03*
D11*
X49000000Y-134270000D03*
D10*
X49000000Y-129440000D03*
X49000000Y-131100000D03*
D11*
X49000000Y-130270000D03*
D10*
X49000000Y-125440000D03*
X49000000Y-127100000D03*
D11*
X49000000Y-126270000D03*
D10*
X46000000Y-185440000D03*
X46000000Y-187100000D03*
D11*
X46000000Y-186270000D03*
D10*
X46000000Y-181440000D03*
X46000000Y-183100000D03*
D11*
X46000000Y-182270000D03*
D10*
X46000000Y-177440000D03*
X46000000Y-179100000D03*
D11*
X46000000Y-178270000D03*
D10*
X46000000Y-173440000D03*
X46000000Y-175100000D03*
D11*
X46000000Y-174270000D03*
D10*
X46000000Y-169440000D03*
X46000000Y-171100000D03*
D11*
X46000000Y-170270000D03*
D10*
X46000000Y-165440000D03*
X46000000Y-167100000D03*
D11*
X46000000Y-166270000D03*
D10*
X46000000Y-161440000D03*
X46000000Y-163100000D03*
D11*
X46000000Y-162270000D03*
D10*
X46000000Y-157440000D03*
X46000000Y-159100000D03*
D11*
X46000000Y-158270000D03*
D10*
X46000000Y-153440000D03*
X46000000Y-155100000D03*
D11*
X46000000Y-154270000D03*
D10*
X46000000Y-149440000D03*
X46000000Y-151100000D03*
D11*
X46000000Y-150270000D03*
D10*
X46000000Y-145440000D03*
X46000000Y-147100000D03*
D11*
X46000000Y-146270000D03*
D10*
X46000000Y-141440000D03*
X46000000Y-143100000D03*
D11*
X46000000Y-142270000D03*
D10*
X46000000Y-137440000D03*
X46000000Y-139100000D03*
D11*
X46000000Y-138270000D03*
D10*
X46000000Y-133440000D03*
X46000000Y-135100000D03*
D11*
X46000000Y-134270000D03*
D10*
X46000000Y-129440000D03*
X46000000Y-131100000D03*
D11*
X46000000Y-130270000D03*
D10*
X46000000Y-125440000D03*
X46000000Y-127100000D03*
D11*
X46000000Y-126270000D03*
D10*
X43000000Y-185440000D03*
X43000000Y-187100000D03*
D11*
X43000000Y-186270000D03*
D10*
X43000000Y-181440000D03*
X43000000Y-183100000D03*
D11*
X43000000Y-182270000D03*
D10*
X43000000Y-177440000D03*
X43000000Y-179100000D03*
D11*
X43000000Y-178270000D03*
D10*
X43000000Y-173440000D03*
X43000000Y-175100000D03*
D11*
X43000000Y-174270000D03*
D10*
X43000000Y-169440000D03*
X43000000Y-171100000D03*
D11*
X43000000Y-170270000D03*
D10*
X43000000Y-165440000D03*
X43000000Y-167100000D03*
D11*
X43000000Y-166270000D03*
D10*
X43000000Y-161440000D03*
X43000000Y-163100000D03*
D11*
X43000000Y-162270000D03*
D10*
X43000000Y-157440000D03*
X43000000Y-159100000D03*
D11*
X43000000Y-158270000D03*
D10*
X43000000Y-153440000D03*
X43000000Y-155100000D03*
D11*
X43000000Y-154270000D03*
D10*
X43000000Y-149440000D03*
X43000000Y-151100000D03*
D11*
X43000000Y-150270000D03*
D10*
X43000000Y-145440000D03*
X43000000Y-147100000D03*
D11*
X43000000Y-146270000D03*
D10*
X43000000Y-141440000D03*
X43000000Y-143100000D03*
D11*
X43000000Y-142270000D03*
D10*
X43000000Y-137440000D03*
X43000000Y-139100000D03*
D11*
X43000000Y-138270000D03*
D10*
X43000000Y-133440000D03*
X43000000Y-135100000D03*
D11*
X43000000Y-134270000D03*
D10*
X43000000Y-129440000D03*
X43000000Y-131100000D03*
D11*
X43000000Y-130270000D03*
D10*
X43000000Y-125440000D03*
X43000000Y-127100000D03*
D11*
X43000000Y-126270000D03*
D10*
X40000000Y-185440000D03*
X40000000Y-187100000D03*
D11*
X40000000Y-186270000D03*
D10*
X40000000Y-181440000D03*
X40000000Y-183100000D03*
D11*
X40000000Y-182270000D03*
D10*
X40000000Y-177440000D03*
X40000000Y-179100000D03*
D11*
X40000000Y-178270000D03*
D10*
X40000000Y-173440000D03*
X40000000Y-175100000D03*
D11*
X40000000Y-174270000D03*
D10*
X40000000Y-169440000D03*
X40000000Y-171100000D03*
D11*
X40000000Y-170270000D03*
D10*
X40000000Y-165440000D03*
X40000000Y-167100000D03*
D11*
X40000000Y-166270000D03*
D10*
X40000000Y-161440000D03*
X40000000Y-163100000D03*
D11*
X40000000Y-162270000D03*
D10*
X40000000Y-157440000D03*
X40000000Y-159100000D03*
D11*
X40000000Y-158270000D03*
D10*
X40000000Y-153440000D03*
X40000000Y-155100000D03*
D11*
X40000000Y-154270000D03*
D10*
X40000000Y-149440000D03*
X40000000Y-151100000D03*
D11*
X40000000Y-150270000D03*
D10*
X40000000Y-145440000D03*
X40000000Y-147100000D03*
D11*
X40000000Y-146270000D03*
D10*
X40000000Y-141440000D03*
X40000000Y-143100000D03*
D11*
X40000000Y-142270000D03*
D10*
X40000000Y-137440000D03*
X40000000Y-139100000D03*
D11*
X40000000Y-138270000D03*
D10*
X40000000Y-133440000D03*
X40000000Y-135100000D03*
D11*
X40000000Y-134270000D03*
D10*
X40000000Y-129440000D03*
X40000000Y-131100000D03*
D11*
X40000000Y-130270000D03*
X40000000Y-126270000D03*
D10*
X40000000Y-127100000D03*
X40000000Y-125440000D03*
D12*
X31500000Y-184670000D03*
X31500000Y-182130000D03*
X31500000Y-179590000D03*
X31500000Y-177050000D03*
X31500000Y-174510000D03*
X31500000Y-171970000D03*
X31500000Y-169430000D03*
X31500000Y-166890000D03*
X31500000Y-164350000D03*
X31500000Y-161810000D03*
X31500000Y-159270000D03*
X31500000Y-156730000D03*
X31500000Y-154190000D03*
X31500000Y-151650000D03*
X31500000Y-149110000D03*
X31500000Y-146570000D03*
X31500000Y-144030000D03*
X31500000Y-141490000D03*
X31500000Y-138950000D03*
X31500000Y-136410000D03*
X31500000Y-133870000D03*
X31500000Y-131330000D03*
X31500000Y-128790000D03*
D13*
X31500000Y-126250000D03*
D14*
X15400000Y-151877500D03*
X15400000Y-151242500D03*
X15400000Y-150607500D03*
X15400000Y-149972500D03*
X15400000Y-149337500D03*
X15400000Y-148702500D03*
X15400000Y-148067500D03*
X15400000Y-147432500D03*
X15400000Y-146797500D03*
X15400000Y-146162500D03*
X15400000Y-145527500D03*
X15400000Y-144892500D03*
X15400000Y-144257500D03*
X15400000Y-143622500D03*
X20600000Y-143622500D03*
X20600000Y-144257500D03*
X20600000Y-144892500D03*
X20600000Y-145527500D03*
X20600000Y-146162500D03*
X20600000Y-146797500D03*
X20600000Y-147432500D03*
X20600000Y-148067500D03*
X20600000Y-148702500D03*
X20600000Y-149337500D03*
X20600000Y-149972500D03*
X20600000Y-150607500D03*
X20600000Y-151242500D03*
X20600000Y-151877500D03*
D15*
X29000000Y-19400000D03*
X29000000Y-21000000D03*
X29000000Y-23400000D03*
X29000000Y-25000000D03*
X29000000Y-27400000D03*
X29000000Y-29000000D03*
X29000000Y-31400000D03*
X29000000Y-33000000D03*
X29000000Y-35400000D03*
X29000000Y-37000000D03*
X29000000Y-39400000D03*
X29000000Y-41000000D03*
X29000000Y-43400000D03*
X29000000Y-45000000D03*
X29000000Y-47400000D03*
X29000000Y-49000000D03*
X32000000Y-19400000D03*
X32000000Y-21000000D03*
X32000000Y-23400000D03*
X32000000Y-25000000D03*
X32000000Y-27400000D03*
X32000000Y-29000000D03*
X32000000Y-31400000D03*
X32000000Y-33000000D03*
X32000000Y-35450000D03*
X32000000Y-37050000D03*
X32000000Y-39400000D03*
X32000000Y-41000000D03*
X32000000Y-43400000D03*
X32000000Y-45000000D03*
X32000000Y-47400000D03*
X32000000Y-49000000D03*
X35000000Y-19400000D03*
X35000000Y-21000000D03*
X35000000Y-23400000D03*
X35000000Y-25000000D03*
X35000000Y-27400000D03*
X35000000Y-29000000D03*
X35000000Y-31400000D03*
X35000000Y-33000000D03*
X35000000Y-35400000D03*
X35000000Y-37000000D03*
X35000000Y-39400000D03*
X35000000Y-41000000D03*
X35000000Y-43400000D03*
X35000000Y-45000000D03*
X35000000Y-47400000D03*
X35000000Y-49000000D03*
X38000000Y-19400000D03*
X38000000Y-21000000D03*
X38000000Y-23400000D03*
X38000000Y-25000000D03*
X38000000Y-27400000D03*
X38000000Y-29000000D03*
X38000000Y-31400000D03*
X38000000Y-33000000D03*
X38000000Y-35400000D03*
X38000000Y-37000000D03*
X38000000Y-39400000D03*
X38000000Y-41000000D03*
X38000000Y-43400000D03*
X38000000Y-45000000D03*
X38000000Y-47400000D03*
X38000000Y-49000000D03*
X41000000Y-19400000D03*
X41000000Y-21000000D03*
X41000000Y-23400000D03*
X41000000Y-25000000D03*
X41000000Y-27400000D03*
X41000000Y-29000000D03*
X41000000Y-31400000D03*
X41000000Y-33000000D03*
X41000000Y-35400000D03*
X41000000Y-37000000D03*
X41000000Y-39400000D03*
X41000000Y-41000000D03*
X41000000Y-43400000D03*
X41000000Y-45000000D03*
X41000000Y-47400000D03*
X41000000Y-49000000D03*
X44000000Y-19400000D03*
X44000000Y-21000000D03*
X44000000Y-23400000D03*
X44000000Y-25000000D03*
X44000000Y-27400000D03*
X44000000Y-29000000D03*
X44000000Y-31400000D03*
X44000000Y-33000000D03*
X44000000Y-35400000D03*
X44000000Y-37000000D03*
X44000000Y-39400000D03*
X44000000Y-41000000D03*
X44000000Y-43400000D03*
X44000000Y-45000000D03*
X44000000Y-47400000D03*
X44000000Y-49000000D03*
X46750000Y-19400000D03*
X46750000Y-21000000D03*
X46750000Y-23400000D03*
X46750000Y-25000000D03*
X46750000Y-27400000D03*
X46750000Y-29000000D03*
X46750000Y-31400000D03*
X46750000Y-33000000D03*
X46750000Y-35400000D03*
X46750000Y-37000000D03*
X46750000Y-39400000D03*
X46750000Y-41000000D03*
X46750000Y-43400000D03*
X46750000Y-45000000D03*
X46750000Y-47400000D03*
X46750000Y-49000000D03*
X49500000Y-19400000D03*
X49500000Y-21000000D03*
X49500000Y-23400000D03*
X49500000Y-25000000D03*
X49500000Y-27400000D03*
X49500000Y-29000000D03*
X49500000Y-31400000D03*
X49500000Y-33000000D03*
X49500000Y-35400000D03*
X49500000Y-37000000D03*
X49500000Y-39400000D03*
X49500000Y-41000000D03*
X49500000Y-43400000D03*
X49500000Y-45000000D03*
X49750000Y-47400000D03*
X49750000Y-49000000D03*
X40500000Y-54950000D03*
X40500000Y-56550000D03*
X40500000Y-58950000D03*
X40500000Y-60550000D03*
X40500000Y-62950000D03*
X40500000Y-64550000D03*
X40500000Y-66950000D03*
X40500000Y-68550000D03*
X40500000Y-70950000D03*
X40500000Y-72550000D03*
X40500000Y-74950000D03*
X40500000Y-76550000D03*
X40500000Y-78950000D03*
X40500000Y-80550000D03*
X40500000Y-82950000D03*
X40500000Y-84550000D03*
X40500000Y-86950000D03*
X40500000Y-88550000D03*
X40500000Y-90950000D03*
X40500000Y-92550000D03*
X40500000Y-94950000D03*
X40500000Y-96550000D03*
X40500000Y-98950000D03*
X40500000Y-100550000D03*
X40500000Y-102950000D03*
X40500000Y-104550000D03*
X40500000Y-106950000D03*
X40500000Y-108550000D03*
X40500000Y-110950000D03*
X40500000Y-112550000D03*
X40500000Y-114950000D03*
X40500000Y-116550000D03*
X43500000Y-54950000D03*
X43500000Y-56550000D03*
X43500000Y-58950000D03*
X43500000Y-60550000D03*
X43500000Y-62950000D03*
X43500000Y-64550000D03*
X43500000Y-66950000D03*
X43500000Y-68550000D03*
X43500000Y-70950000D03*
X43500000Y-72550000D03*
X43500000Y-74950000D03*
X43500000Y-76550000D03*
X43500000Y-78950000D03*
X43500000Y-80550000D03*
X43500000Y-82950000D03*
X43500000Y-84550000D03*
X43500000Y-86950000D03*
X43500000Y-88550000D03*
X43500000Y-90950000D03*
X43500000Y-92550000D03*
X43500000Y-94950000D03*
X43500000Y-96550000D03*
X43500000Y-98950000D03*
X43500000Y-100550000D03*
X43500000Y-102950000D03*
X43500000Y-104550000D03*
X43500000Y-106950000D03*
X43500000Y-108550000D03*
X43500000Y-110950000D03*
X43500000Y-112550000D03*
X43500000Y-114950000D03*
X43500000Y-116550000D03*
X46500000Y-54950000D03*
X46500000Y-56550000D03*
X46500000Y-58950000D03*
X46500000Y-60550000D03*
X46500000Y-62950000D03*
X46500000Y-64550000D03*
X46500000Y-66950000D03*
X46500000Y-68550000D03*
X46500000Y-70950000D03*
X46500000Y-72550000D03*
X46500000Y-74950000D03*
X46500000Y-76550000D03*
X46500000Y-78950000D03*
X46500000Y-80550000D03*
X46500000Y-82950000D03*
X46500000Y-84550000D03*
X46500000Y-86950000D03*
X46500000Y-88550000D03*
X46500000Y-90950000D03*
X46500000Y-92550000D03*
X46500000Y-94950000D03*
X46500000Y-96550000D03*
X46500000Y-98950000D03*
X46500000Y-100550000D03*
X46500000Y-102950000D03*
X46500000Y-104550000D03*
X46500000Y-106950000D03*
X46500000Y-108550000D03*
X46500000Y-110950000D03*
X46500000Y-112550000D03*
X46500000Y-114950000D03*
X46500000Y-116550000D03*
X49500000Y-54950000D03*
X49500000Y-56550000D03*
X49500000Y-58950000D03*
X49500000Y-60550000D03*
X49500000Y-62950000D03*
X49500000Y-64550000D03*
X49500000Y-66950000D03*
X49500000Y-68550000D03*
X49500000Y-70950000D03*
X49500000Y-72550000D03*
X49500000Y-74950000D03*
X49500000Y-76550000D03*
X49500000Y-78950000D03*
X49500000Y-80550000D03*
X49500000Y-82950000D03*
X49500000Y-84550000D03*
X49500000Y-86950000D03*
X49500000Y-88550000D03*
X49500000Y-90950000D03*
X49500000Y-92550000D03*
X49500000Y-94950000D03*
X49500000Y-96550000D03*
X49500000Y-98950000D03*
X49500000Y-100550000D03*
X49500000Y-102950000D03*
X49500000Y-104550000D03*
X49500000Y-106950000D03*
X49500000Y-108550000D03*
X49500000Y-110950000D03*
X49500000Y-112550000D03*
X49500000Y-114950000D03*
X49500000Y-116550000D03*
X52500000Y-54950000D03*
X52500000Y-56550000D03*
X52500000Y-58950000D03*
X52500000Y-60550000D03*
X52500000Y-62950000D03*
X52500000Y-64550000D03*
X52500000Y-66950000D03*
X52500000Y-68550000D03*
X52500000Y-70950000D03*
X52500000Y-72550000D03*
X52500000Y-74950000D03*
X52500000Y-76550000D03*
X52500000Y-78950000D03*
X52500000Y-80550000D03*
X52500000Y-82950000D03*
X52500000Y-84550000D03*
X52500000Y-86950000D03*
X52500000Y-88550000D03*
X52500000Y-90950000D03*
X52500000Y-92550000D03*
X52500000Y-94950000D03*
X52500000Y-96550000D03*
X52500000Y-98950000D03*
X52500000Y-100550000D03*
X52500000Y-102950000D03*
X52500000Y-104550000D03*
X52500000Y-106950000D03*
X52500000Y-108550000D03*
X52500000Y-110950000D03*
X52500000Y-112550000D03*
X52500000Y-114950000D03*
X52500000Y-116550000D03*
X55500000Y-54950000D03*
X55500000Y-56550000D03*
X55500000Y-58950000D03*
X55500000Y-60550000D03*
X55500000Y-62950000D03*
X55500000Y-64550000D03*
X55500000Y-66950000D03*
X55500000Y-68550000D03*
X55500000Y-70950000D03*
X55500000Y-72550000D03*
X55500000Y-74950000D03*
X55500000Y-76550000D03*
X55500000Y-78950000D03*
X55500000Y-80550000D03*
X55500000Y-82950000D03*
X55500000Y-84550000D03*
X55500000Y-86950000D03*
X55500000Y-88550000D03*
X55500000Y-90950000D03*
X55500000Y-92550000D03*
X55500000Y-94950000D03*
X55500000Y-96550000D03*
X55500000Y-98950000D03*
X55500000Y-100550000D03*
X55500000Y-102950000D03*
X55500000Y-104550000D03*
X55500000Y-106950000D03*
X55500000Y-108550000D03*
X55500000Y-110950000D03*
X55500000Y-112550000D03*
X55500000Y-114950000D03*
X55500000Y-116550000D03*
X58500000Y-54950000D03*
X58500000Y-56550000D03*
X58500000Y-58950000D03*
X58500000Y-60550000D03*
X58500000Y-62950000D03*
X58500000Y-64550000D03*
X58500000Y-66950000D03*
X58500000Y-68550000D03*
X58500000Y-70950000D03*
X58500000Y-72550000D03*
X58500000Y-74950000D03*
X58500000Y-76550000D03*
X58500000Y-78950000D03*
X58500000Y-80550000D03*
X58500000Y-82950000D03*
X58500000Y-84550000D03*
X58500000Y-86950000D03*
X58500000Y-88550000D03*
X58500000Y-90950000D03*
X58500000Y-92550000D03*
X58500000Y-94950000D03*
X58500000Y-96550000D03*
X58500000Y-98950000D03*
X58500000Y-100550000D03*
X58500000Y-102950000D03*
X58500000Y-104550000D03*
X58500000Y-106950000D03*
X58500000Y-108550000D03*
X58500000Y-110950000D03*
X58500000Y-112550000D03*
X58500000Y-114950000D03*
X58500000Y-116550000D03*
X61500000Y-54950000D03*
X61500000Y-56550000D03*
X61500000Y-58950000D03*
X61500000Y-60550000D03*
X61500000Y-62950000D03*
X61500000Y-64550000D03*
X61500000Y-66950000D03*
X61500000Y-68550000D03*
X61500000Y-70950000D03*
X61500000Y-72550000D03*
X61500000Y-74950000D03*
X61500000Y-76550000D03*
X61500000Y-78950000D03*
X61500000Y-80550000D03*
X61500000Y-82950000D03*
X61500000Y-84550000D03*
X61500000Y-86950000D03*
X61500000Y-88550000D03*
X61500000Y-90950000D03*
X61500000Y-92550000D03*
X61500000Y-94950000D03*
X61500000Y-96550000D03*
X61500000Y-98950000D03*
X61500000Y-100550000D03*
X61500000Y-102950000D03*
X61500000Y-104550000D03*
X61500000Y-106950000D03*
X61500000Y-108550000D03*
X61500000Y-110950000D03*
X61500000Y-112550000D03*
X61500000Y-114950000D03*
X61500000Y-116550000D03*
X64500000Y-54950000D03*
X64500000Y-56550000D03*
X64500000Y-58950000D03*
X64500000Y-60550000D03*
X64500000Y-62950000D03*
X64500000Y-64550000D03*
X64500000Y-66950000D03*
X64500000Y-68550000D03*
X64500000Y-70950000D03*
X64500000Y-72550000D03*
X64500000Y-74950000D03*
X64500000Y-76550000D03*
X64500000Y-78950000D03*
X64500000Y-80550000D03*
X64500000Y-82950000D03*
X64500000Y-84550000D03*
X64500000Y-86950000D03*
X64500000Y-88550000D03*
X64500000Y-90950000D03*
X64500000Y-92550000D03*
X64500000Y-94950000D03*
X64500000Y-96550000D03*
X64500000Y-98950000D03*
X64500000Y-100550000D03*
X64500000Y-102950000D03*
X64500000Y-104550000D03*
X64500000Y-106950000D03*
X64500000Y-108550000D03*
X64500000Y-110950000D03*
X64500000Y-112550000D03*
X64500000Y-114950000D03*
X64500000Y-116550000D03*
X67500000Y-54950000D03*
X67500000Y-56550000D03*
X67500000Y-58950000D03*
X67500000Y-60550000D03*
X67500000Y-62950000D03*
X67500000Y-64550000D03*
X67500000Y-66950000D03*
X67500000Y-68550000D03*
X67500000Y-70950000D03*
X67500000Y-72550000D03*
X67500000Y-74950000D03*
X67500000Y-76550000D03*
X67500000Y-78950000D03*
X67500000Y-80550000D03*
X67500000Y-82950000D03*
X67500000Y-84550000D03*
X67500000Y-86950000D03*
X67500000Y-88550000D03*
X67500000Y-90950000D03*
X67500000Y-92550000D03*
X67500000Y-94950000D03*
X67500000Y-96550000D03*
X67500000Y-98950000D03*
X67500000Y-100550000D03*
X67500000Y-102950000D03*
X67500000Y-104550000D03*
X67500000Y-106950000D03*
X67500000Y-108550000D03*
X67500000Y-110950000D03*
X67500000Y-112550000D03*
X67500000Y-114950000D03*
X67500000Y-116550000D03*
X70500000Y-54950000D03*
X70500000Y-56550000D03*
X70500000Y-58950000D03*
X70500000Y-60550000D03*
X70500000Y-62950000D03*
X70500000Y-64550000D03*
X70500000Y-66950000D03*
X70500000Y-68550000D03*
X70500000Y-70950000D03*
X70500000Y-72550000D03*
X70500000Y-74950000D03*
X70500000Y-76550000D03*
X70500000Y-78950000D03*
X70500000Y-80550000D03*
X70500000Y-82950000D03*
X70500000Y-84550000D03*
X70500000Y-86950000D03*
X70500000Y-88550000D03*
X70500000Y-90950000D03*
X70500000Y-92550000D03*
X70500000Y-94950000D03*
X70500000Y-96550000D03*
X70500000Y-98950000D03*
X70500000Y-100550000D03*
X70500000Y-102950000D03*
X70500000Y-104550000D03*
X70500000Y-106950000D03*
X70500000Y-108550000D03*
X70500000Y-110950000D03*
X70500000Y-112550000D03*
X70500000Y-114950000D03*
X70500000Y-116550000D03*
X73500000Y-54950000D03*
X73500000Y-56550000D03*
X73500000Y-58950000D03*
X73500000Y-60550000D03*
X73500000Y-62950000D03*
X73500000Y-64550000D03*
X73500000Y-66950000D03*
X73500000Y-68550000D03*
X73500000Y-70950000D03*
X73500000Y-72550000D03*
X73500000Y-74950000D03*
X73500000Y-76550000D03*
X73500000Y-78950000D03*
X73500000Y-80550000D03*
X73500000Y-82950000D03*
X73500000Y-84550000D03*
X73500000Y-86950000D03*
X73500000Y-88550000D03*
X73500000Y-90950000D03*
X73500000Y-92550000D03*
X73500000Y-94950000D03*
X73500000Y-96550000D03*
X73500000Y-98950000D03*
X73500000Y-100550000D03*
X73500000Y-102950000D03*
X73500000Y-104550000D03*
X73500000Y-106950000D03*
X73500000Y-108550000D03*
X73500000Y-110950000D03*
X73500000Y-112550000D03*
X73500000Y-114950000D03*
X73500000Y-116550000D03*
X76500000Y-54950000D03*
X76500000Y-56550000D03*
X76500000Y-58950000D03*
X76500000Y-60550000D03*
X76500000Y-62950000D03*
X76500000Y-64550000D03*
X76500000Y-66950000D03*
X76500000Y-68550000D03*
X76500000Y-70950000D03*
X76500000Y-72550000D03*
X76500000Y-74950000D03*
X76500000Y-76550000D03*
X76500000Y-78950000D03*
X76500000Y-80550000D03*
X76500000Y-82950000D03*
X76500000Y-84550000D03*
X76500000Y-86950000D03*
X76500000Y-88550000D03*
X76500000Y-90950000D03*
X76500000Y-92550000D03*
X76500000Y-94950000D03*
X76500000Y-96550000D03*
X76500000Y-98950000D03*
X76500000Y-100550000D03*
X76500000Y-102950000D03*
X76500000Y-104550000D03*
X76500000Y-106950000D03*
X76500000Y-108550000D03*
X76500000Y-110950000D03*
X76500000Y-112550000D03*
X76500000Y-114950000D03*
X76500000Y-116550000D03*
X79500000Y-54950000D03*
X79500000Y-56550000D03*
X79500000Y-58950000D03*
X79500000Y-60550000D03*
X79500000Y-62950000D03*
X79500000Y-64550000D03*
X79500000Y-66950000D03*
X79500000Y-68550000D03*
X79500000Y-70950000D03*
X79500000Y-72550000D03*
X79500000Y-74950000D03*
X79500000Y-76550000D03*
X79500000Y-78950000D03*
X79500000Y-80550000D03*
X79500000Y-82950000D03*
X79500000Y-84550000D03*
X79500000Y-86950000D03*
X79500000Y-88550000D03*
X79500000Y-90950000D03*
X79500000Y-92550000D03*
X79500000Y-94950000D03*
X79500000Y-96550000D03*
X79500000Y-98950000D03*
X79500000Y-100550000D03*
X79500000Y-102950000D03*
X79500000Y-104550000D03*
X79500000Y-106950000D03*
X79500000Y-108550000D03*
X79500000Y-110950000D03*
X79500000Y-112550000D03*
X79500000Y-114950000D03*
X79500000Y-116550000D03*
X82500000Y-54950000D03*
X82500000Y-56550000D03*
X82500000Y-58950000D03*
X82500000Y-60550000D03*
X82500000Y-62950000D03*
X82500000Y-64550000D03*
X82500000Y-66950000D03*
X82500000Y-68550000D03*
X82500000Y-70950000D03*
X82500000Y-72550000D03*
X82500000Y-74950000D03*
X82500000Y-76550000D03*
X82500000Y-78950000D03*
X82500000Y-80550000D03*
X82500000Y-82950000D03*
X82500000Y-84550000D03*
X82500000Y-86950000D03*
X82500000Y-88550000D03*
X82500000Y-90950000D03*
X82500000Y-92550000D03*
X82500000Y-94950000D03*
X82500000Y-96550000D03*
X82500000Y-98950000D03*
X82500000Y-100550000D03*
X82500000Y-102950000D03*
X82500000Y-104550000D03*
X82500000Y-106950000D03*
X82500000Y-108550000D03*
X82500000Y-110950000D03*
X82500000Y-112550000D03*
X82500000Y-114950000D03*
X82500000Y-116550000D03*
X85500000Y-54950000D03*
X85500000Y-56550000D03*
X85500000Y-58950000D03*
X85500000Y-60550000D03*
X85500000Y-62950000D03*
X85500000Y-64550000D03*
X85500000Y-66950000D03*
X85500000Y-68550000D03*
X85500000Y-70950000D03*
X85500000Y-72550000D03*
X85500000Y-74950000D03*
X85500000Y-76550000D03*
X85500000Y-78950000D03*
X85500000Y-80550000D03*
X85500000Y-82950000D03*
X85500000Y-84550000D03*
X85500000Y-86950000D03*
X85500000Y-88550000D03*
X85500000Y-90950000D03*
X85500000Y-92550000D03*
X85500000Y-94950000D03*
X85500000Y-96550000D03*
X85500000Y-98950000D03*
X85500000Y-100550000D03*
X85500000Y-102950000D03*
X85500000Y-104550000D03*
X85500000Y-106950000D03*
X85500000Y-108550000D03*
X85500000Y-110950000D03*
X85500000Y-112550000D03*
X85500000Y-114950000D03*
X85500000Y-116550000D03*
D13*
X32000000Y-55750000D03*
D12*
X32000000Y-58290000D03*
X32000000Y-60830000D03*
X32000000Y-63370000D03*
X32000000Y-65910000D03*
X32000000Y-68450000D03*
X32000000Y-70990000D03*
X32000000Y-73530000D03*
X32000000Y-76070000D03*
X32000000Y-78610000D03*
X32000000Y-81150000D03*
X32000000Y-83690000D03*
X32000000Y-86230000D03*
X32000000Y-88770000D03*
X32000000Y-91310000D03*
X32000000Y-93850000D03*
X32000000Y-96390000D03*
X32000000Y-98930000D03*
X32000000Y-101470000D03*
X32000000Y-104010000D03*
X32000000Y-106550000D03*
X32000000Y-109090000D03*
X32000000Y-111630000D03*
X32000000Y-114170000D03*
D14*
X21100000Y-81377500D03*
X21100000Y-80742500D03*
X21100000Y-80107500D03*
X21100000Y-79472500D03*
X21100000Y-78837500D03*
X21100000Y-78202500D03*
X21100000Y-77567500D03*
X21100000Y-76932500D03*
X21100000Y-76297500D03*
X21100000Y-75662500D03*
X21100000Y-75027500D03*
X21100000Y-74392500D03*
X21100000Y-73757500D03*
X21100000Y-73122500D03*
X15900000Y-73122500D03*
X15900000Y-73757500D03*
X15900000Y-74392500D03*
X15900000Y-75027500D03*
X15900000Y-75662500D03*
X15900000Y-76297500D03*
X15900000Y-76932500D03*
X15900000Y-77567500D03*
X15900000Y-78202500D03*
X15900000Y-78837500D03*
X15900000Y-79472500D03*
X15900000Y-80107500D03*
X15900000Y-80742500D03*
X15900000Y-81377500D03*
D16*
X20000000Y-39000000D03*
X21500000Y-39000000D03*
X20000000Y-36500000D03*
X21500000Y-36500000D03*
X20000000Y-34000000D03*
X21500000Y-34000000D03*
X20000000Y-31500000D03*
X21500000Y-31500000D03*
X20000000Y-28750000D03*
X21500000Y-28750000D03*
X20000000Y-26250000D03*
X21500000Y-26250000D03*
X20000000Y-23750000D03*
X21500000Y-23750000D03*
X20000000Y-21250000D03*
X21500000Y-21250000D03*
D13*
X46580000Y-14000000D03*
D12*
X44040000Y-14000000D03*
X41500000Y-14000000D03*
X38960000Y-14000000D03*
X36420000Y-14000000D03*
X33880000Y-14000000D03*
X31340000Y-14000000D03*
X28800000Y-14000000D03*
D13*
X16500000Y-21250000D03*
D12*
X16500000Y-23790000D03*
X16500000Y-26330000D03*
X16500000Y-28870000D03*
X16500000Y-31410000D03*
X16500000Y-33950000D03*
X16500000Y-36490000D03*
X16500000Y-39030000D03*
M02*
