M48
; DRILL file {KiCad (5.1.9)-1} date 06/01/21 09:40:50
; FORMAT={-:-/ absolute / metric / decimal}
; #@! TF.CreationDate,2021-06-01T09:40:50-07:00
; #@! TF.GenerationSoftware,Kicad,Pcbnew,(5.1.9)-1
; #@! TF.FileFunction,NonPlated,1,2,NPTH
FMAT,2
METRIC
T1C1.250
%
G90
G05
T1
X125.51Y-72.49G85X126.36Y-72.49
G05
X125.51Y-75.03G85X126.36Y-75.03
G05
X125.51Y-77.57G85X126.36Y-77.57
G05
X125.51Y-80.11G85X126.36Y-80.11
G05
X125.51Y-82.65G85X126.36Y-82.65
G05
X125.51Y-85.19G85X126.36Y-85.19
G05
X125.51Y-87.73G85X126.36Y-87.73
G05
X125.51Y-90.27G85X126.36Y-90.27
G05
X131.86Y-72.49G85X132.71Y-72.49
G05
X131.86Y-75.03G85X132.71Y-75.03
G05
X131.86Y-77.57G85X132.71Y-77.57
G05
X131.86Y-80.11G85X132.71Y-80.11
G05
X131.86Y-82.65G85X132.71Y-82.65
G05
X131.86Y-85.19G85X132.71Y-85.19
G05
X131.86Y-87.73G85X132.71Y-87.73
G05
X131.86Y-90.27G85X132.71Y-90.27
G05
X138.21Y-72.49G85X139.06Y-72.49
G05
X138.21Y-75.03G85X139.06Y-75.03
G05
X138.21Y-77.57G85X139.06Y-77.57
G05
X138.21Y-80.11G85X139.06Y-80.11
G05
X138.21Y-82.65G85X139.06Y-82.65
G05
X138.21Y-85.19G85X139.06Y-85.19
G05
X138.21Y-87.73G85X139.06Y-87.73
G05
X138.21Y-90.27G85X139.06Y-90.27
G05
X144.56Y-72.49G85X145.41Y-72.49
G05
X144.56Y-75.03G85X145.41Y-75.03
G05
X144.56Y-77.57G85X145.41Y-77.57
G05
X144.56Y-80.11G85X145.41Y-80.11
G05
X144.56Y-82.65G85X145.41Y-82.65
G05
X144.56Y-85.19G85X145.41Y-85.19
G05
X144.56Y-87.73G85X145.41Y-87.73
G05
X144.56Y-90.27G85X145.41Y-90.27
G05
X150.91Y-72.49G85X151.76Y-72.49
G05
X150.91Y-75.03G85X151.76Y-75.03
G05
X150.91Y-77.57G85X151.76Y-77.57
G05
X150.91Y-80.11G85X151.76Y-80.11
G05
X150.91Y-82.65G85X151.76Y-82.65
G05
X150.91Y-85.19G85X151.76Y-85.19
G05
X150.91Y-87.73G85X151.76Y-87.73
G05
X150.91Y-90.265G85X151.76Y-90.265
G05
X157.26Y-72.49G85X158.11Y-72.49
G05
X157.26Y-75.03G85X158.11Y-75.03
G05
X157.26Y-77.57G85X158.11Y-77.57
G05
X157.26Y-80.11G85X158.11Y-80.11
G05
X157.26Y-82.65G85X158.11Y-82.65
G05
X157.26Y-85.19G85X158.11Y-85.19
G05
X157.26Y-87.73G85X158.11Y-87.73
G05
X157.26Y-90.27G85X158.11Y-90.27
G05
X163.61Y-72.49G85X164.46Y-72.49
G05
X163.61Y-75.03G85X164.46Y-75.03
G05
X163.61Y-77.57G85X164.46Y-77.57
G05
X163.61Y-80.11G85X164.46Y-80.11
G05
X163.61Y-82.65G85X164.46Y-82.65
G05
X163.61Y-85.19G85X164.46Y-85.19
G05
X163.61Y-87.73G85X164.46Y-87.73
G05
X163.61Y-90.27G85X164.46Y-90.27
G05
X169.96Y-72.49G85X170.81Y-72.49
G05
X169.96Y-75.03G85X170.81Y-75.03
G05
X169.96Y-77.57G85X170.81Y-77.57
G05
X169.96Y-80.11G85X170.81Y-80.11
G05
X169.96Y-82.645G85X170.81Y-82.645
G05
X169.96Y-85.19G85X170.81Y-85.19
G05
X169.96Y-87.73G85X170.81Y-87.73
G05
X169.96Y-90.27G85X170.81Y-90.27
G05
T0
M30
