%TF.GenerationSoftware,KiCad,Pcbnew,(5.1.9)-1*%
%TF.CreationDate,2021-06-01T09:40:16-07:00*%
%TF.ProjectId,Reverse_Mount_SMT_LED_PoC,52657665-7273-4655-9f4d-6f756e745f53,rev?*%
%TF.SameCoordinates,Original*%
%TF.FileFunction,Legend,Top*%
%TF.FilePolarity,Positive*%
%FSLAX46Y46*%
G04 Gerber Fmt 4.6, Leading zero omitted, Abs format (unit mm)*
G04 Created by KiCad (PCBNEW (5.1.9)-1) date 2021-06-01 09:40:16*
%MOMM*%
%LPD*%
G01*
G04 APERTURE LIST*
%ADD10C,0.120000*%
%ADD11C,0.150000*%
%ADD12R,1.700000X1.700000*%
%ADD13O,1.700000X1.700000*%
%ADD14R,0.850000X0.400000*%
%ADD15O,2.100000X1.250000*%
%ADD16R,0.500000X0.900000*%
G04 APERTURE END LIST*
D10*
X147860000Y-65920000D02*
X147860000Y-67250000D01*
X146530000Y-65920000D02*
X147860000Y-65920000D01*
X145260000Y-65920000D02*
X145260000Y-68580000D01*
X145260000Y-68580000D02*
X127420000Y-68580000D01*
X145260000Y-65920000D02*
X127420000Y-65920000D01*
X127420000Y-65920000D02*
X127420000Y-68580000D01*
D11*
X125355000Y-75750000D02*
G75*
G03*
X125355000Y-75750000I-20000J0D01*
G01*
X125355000Y-78290000D02*
G75*
G03*
X125355000Y-78290000I-20000J0D01*
G01*
X125355000Y-80830000D02*
G75*
G03*
X125355000Y-80830000I-20000J0D01*
G01*
X125355000Y-83370000D02*
G75*
G03*
X125355000Y-83370000I-20000J0D01*
G01*
X125355000Y-85910000D02*
G75*
G03*
X125355000Y-85910000I-20000J0D01*
G01*
X125355000Y-88450000D02*
G75*
G03*
X125355000Y-88450000I-20000J0D01*
G01*
X125355000Y-90990000D02*
G75*
G03*
X125355000Y-90990000I-20000J0D01*
G01*
X131705000Y-73210000D02*
G75*
G03*
X131705000Y-73210000I-20000J0D01*
G01*
X131705000Y-75750000D02*
G75*
G03*
X131705000Y-75750000I-20000J0D01*
G01*
X131705000Y-78290000D02*
G75*
G03*
X131705000Y-78290000I-20000J0D01*
G01*
X131705000Y-80830000D02*
G75*
G03*
X131705000Y-80830000I-20000J0D01*
G01*
X131705000Y-83370000D02*
G75*
G03*
X131705000Y-83370000I-20000J0D01*
G01*
X131705000Y-85910000D02*
G75*
G03*
X131705000Y-85910000I-20000J0D01*
G01*
X131705000Y-88450000D02*
G75*
G03*
X131705000Y-88450000I-20000J0D01*
G01*
X131705000Y-90990000D02*
G75*
G03*
X131705000Y-90990000I-20000J0D01*
G01*
X138055000Y-73210000D02*
G75*
G03*
X138055000Y-73210000I-20000J0D01*
G01*
X138055000Y-75750000D02*
G75*
G03*
X138055000Y-75750000I-20000J0D01*
G01*
X138055000Y-78290000D02*
G75*
G03*
X138055000Y-78290000I-20000J0D01*
G01*
X138055000Y-80830000D02*
G75*
G03*
X138055000Y-80830000I-20000J0D01*
G01*
X138055000Y-83370000D02*
G75*
G03*
X138055000Y-83370000I-20000J0D01*
G01*
X138055000Y-85910000D02*
G75*
G03*
X138055000Y-85910000I-20000J0D01*
G01*
X138055000Y-88450000D02*
G75*
G03*
X138055000Y-88450000I-20000J0D01*
G01*
X138055000Y-90990000D02*
G75*
G03*
X138055000Y-90990000I-20000J0D01*
G01*
X144405000Y-73210000D02*
G75*
G03*
X144405000Y-73210000I-20000J0D01*
G01*
X144405000Y-75750000D02*
G75*
G03*
X144405000Y-75750000I-20000J0D01*
G01*
X144405000Y-78290000D02*
G75*
G03*
X144405000Y-78290000I-20000J0D01*
G01*
X144405000Y-80830000D02*
G75*
G03*
X144405000Y-80830000I-20000J0D01*
G01*
X144405000Y-83370000D02*
G75*
G03*
X144405000Y-83370000I-20000J0D01*
G01*
X144405000Y-85910000D02*
G75*
G03*
X144405000Y-85910000I-20000J0D01*
G01*
X144405000Y-88450000D02*
G75*
G03*
X144405000Y-88450000I-20000J0D01*
G01*
X144405000Y-90990000D02*
G75*
G03*
X144405000Y-90990000I-20000J0D01*
G01*
X150755000Y-73210000D02*
G75*
G03*
X150755000Y-73210000I-20000J0D01*
G01*
X150755000Y-75750000D02*
G75*
G03*
X150755000Y-75750000I-20000J0D01*
G01*
X150755000Y-78290000D02*
G75*
G03*
X150755000Y-78290000I-20000J0D01*
G01*
X150755000Y-80830000D02*
G75*
G03*
X150755000Y-80830000I-20000J0D01*
G01*
X150755000Y-83370000D02*
G75*
G03*
X150755000Y-83370000I-20000J0D01*
G01*
X150755000Y-85910000D02*
G75*
G03*
X150755000Y-85910000I-20000J0D01*
G01*
X150755000Y-88450000D02*
G75*
G03*
X150755000Y-88450000I-20000J0D01*
G01*
X150755000Y-90985000D02*
G75*
G03*
X150755000Y-90985000I-20000J0D01*
G01*
X157105000Y-73210000D02*
G75*
G03*
X157105000Y-73210000I-20000J0D01*
G01*
X157105000Y-75750000D02*
G75*
G03*
X157105000Y-75750000I-20000J0D01*
G01*
X157105000Y-78290000D02*
G75*
G03*
X157105000Y-78290000I-20000J0D01*
G01*
X157105000Y-80830000D02*
G75*
G03*
X157105000Y-80830000I-20000J0D01*
G01*
X157105000Y-83370000D02*
G75*
G03*
X157105000Y-83370000I-20000J0D01*
G01*
X157105000Y-85910000D02*
G75*
G03*
X157105000Y-85910000I-20000J0D01*
G01*
X157105000Y-88450000D02*
G75*
G03*
X157105000Y-88450000I-20000J0D01*
G01*
X157105000Y-90990000D02*
G75*
G03*
X157105000Y-90990000I-20000J0D01*
G01*
X163455000Y-73210000D02*
G75*
G03*
X163455000Y-73210000I-20000J0D01*
G01*
X163455000Y-75750000D02*
G75*
G03*
X163455000Y-75750000I-20000J0D01*
G01*
X163455000Y-78290000D02*
G75*
G03*
X163455000Y-78290000I-20000J0D01*
G01*
X163455000Y-80830000D02*
G75*
G03*
X163455000Y-80830000I-20000J0D01*
G01*
X163455000Y-83370000D02*
G75*
G03*
X163455000Y-83370000I-20000J0D01*
G01*
X163455000Y-85910000D02*
G75*
G03*
X163455000Y-85910000I-20000J0D01*
G01*
X163455000Y-88450000D02*
G75*
G03*
X163455000Y-88450000I-20000J0D01*
G01*
X163455000Y-90990000D02*
G75*
G03*
X163455000Y-90990000I-20000J0D01*
G01*
X169805000Y-73210000D02*
G75*
G03*
X169805000Y-73210000I-20000J0D01*
G01*
X169805000Y-75750000D02*
G75*
G03*
X169805000Y-75750000I-20000J0D01*
G01*
X169805000Y-78290000D02*
G75*
G03*
X169805000Y-78290000I-20000J0D01*
G01*
X169805000Y-80830000D02*
G75*
G03*
X169805000Y-80830000I-20000J0D01*
G01*
X169805000Y-83365000D02*
G75*
G03*
X169805000Y-83365000I-20000J0D01*
G01*
X169805000Y-85910000D02*
G75*
G03*
X169805000Y-85910000I-20000J0D01*
G01*
X169805000Y-88450000D02*
G75*
G03*
X169805000Y-88450000I-20000J0D01*
G01*
X169805000Y-90990000D02*
G75*
G03*
X169805000Y-90990000I-20000J0D01*
G01*
D10*
X115510000Y-71060000D02*
X116840000Y-71060000D01*
X115510000Y-72390000D02*
X115510000Y-71060000D01*
X115510000Y-73660000D02*
X118170000Y-73660000D01*
X118170000Y-73660000D02*
X118170000Y-91500000D01*
X115510000Y-73660000D02*
X115510000Y-91500000D01*
X115510000Y-91500000D02*
X118170000Y-91500000D01*
X121265000Y-73070000D02*
X120265000Y-73070000D01*
X120265000Y-71710000D02*
X121265000Y-71710000D01*
X121265000Y-75610000D02*
X120265000Y-75610000D01*
X120265000Y-74250000D02*
X121265000Y-74250000D01*
X121265000Y-78150000D02*
X120265000Y-78150000D01*
X120265000Y-76790000D02*
X121265000Y-76790000D01*
X121265000Y-80690000D02*
X120265000Y-80690000D01*
X120265000Y-79330000D02*
X121265000Y-79330000D01*
X121265000Y-83230000D02*
X120265000Y-83230000D01*
X120265000Y-81870000D02*
X121265000Y-81870000D01*
X121265000Y-85770000D02*
X120265000Y-85770000D01*
X120265000Y-84410000D02*
X121265000Y-84410000D01*
X121265000Y-88310000D02*
X120265000Y-88310000D01*
X120265000Y-86950000D02*
X121265000Y-86950000D01*
X121265000Y-90850000D02*
X120265000Y-90850000D01*
X120265000Y-89490000D02*
X121265000Y-89490000D01*
D11*
X125355000Y-73210000D02*
G75*
G03*
X125355000Y-73210000I-20000J0D01*
G01*
X148312380Y-67583333D02*
X149026666Y-67583333D01*
X149169523Y-67630952D01*
X149264761Y-67726190D01*
X149312380Y-67869047D01*
X149312380Y-67964285D01*
X148407619Y-67154761D02*
X148360000Y-67107142D01*
X148312380Y-67011904D01*
X148312380Y-66773809D01*
X148360000Y-66678571D01*
X148407619Y-66630952D01*
X148502857Y-66583333D01*
X148598095Y-66583333D01*
X148740952Y-66630952D01*
X149312380Y-67202380D01*
X149312380Y-66583333D01*
X128316904Y-75512380D02*
X128316904Y-74512380D01*
X128555000Y-74512380D01*
X128697857Y-74560000D01*
X128793095Y-74655238D01*
X128840714Y-74750476D01*
X128888333Y-74940952D01*
X128888333Y-75083809D01*
X128840714Y-75274285D01*
X128793095Y-75369523D01*
X128697857Y-75464761D01*
X128555000Y-75512380D01*
X128316904Y-75512380D01*
X129269285Y-74607619D02*
X129316904Y-74560000D01*
X129412142Y-74512380D01*
X129650238Y-74512380D01*
X129745476Y-74560000D01*
X129793095Y-74607619D01*
X129840714Y-74702857D01*
X129840714Y-74798095D01*
X129793095Y-74940952D01*
X129221666Y-75512380D01*
X129840714Y-75512380D01*
X128316904Y-78052380D02*
X128316904Y-77052380D01*
X128555000Y-77052380D01*
X128697857Y-77100000D01*
X128793095Y-77195238D01*
X128840714Y-77290476D01*
X128888333Y-77480952D01*
X128888333Y-77623809D01*
X128840714Y-77814285D01*
X128793095Y-77909523D01*
X128697857Y-78004761D01*
X128555000Y-78052380D01*
X128316904Y-78052380D01*
X129221666Y-77052380D02*
X129840714Y-77052380D01*
X129507380Y-77433333D01*
X129650238Y-77433333D01*
X129745476Y-77480952D01*
X129793095Y-77528571D01*
X129840714Y-77623809D01*
X129840714Y-77861904D01*
X129793095Y-77957142D01*
X129745476Y-78004761D01*
X129650238Y-78052380D01*
X129364523Y-78052380D01*
X129269285Y-78004761D01*
X129221666Y-77957142D01*
X128316904Y-80592380D02*
X128316904Y-79592380D01*
X128555000Y-79592380D01*
X128697857Y-79640000D01*
X128793095Y-79735238D01*
X128840714Y-79830476D01*
X128888333Y-80020952D01*
X128888333Y-80163809D01*
X128840714Y-80354285D01*
X128793095Y-80449523D01*
X128697857Y-80544761D01*
X128555000Y-80592380D01*
X128316904Y-80592380D01*
X129745476Y-79925714D02*
X129745476Y-80592380D01*
X129507380Y-79544761D02*
X129269285Y-80259047D01*
X129888333Y-80259047D01*
X128316904Y-83132380D02*
X128316904Y-82132380D01*
X128555000Y-82132380D01*
X128697857Y-82180000D01*
X128793095Y-82275238D01*
X128840714Y-82370476D01*
X128888333Y-82560952D01*
X128888333Y-82703809D01*
X128840714Y-82894285D01*
X128793095Y-82989523D01*
X128697857Y-83084761D01*
X128555000Y-83132380D01*
X128316904Y-83132380D01*
X129793095Y-82132380D02*
X129316904Y-82132380D01*
X129269285Y-82608571D01*
X129316904Y-82560952D01*
X129412142Y-82513333D01*
X129650238Y-82513333D01*
X129745476Y-82560952D01*
X129793095Y-82608571D01*
X129840714Y-82703809D01*
X129840714Y-82941904D01*
X129793095Y-83037142D01*
X129745476Y-83084761D01*
X129650238Y-83132380D01*
X129412142Y-83132380D01*
X129316904Y-83084761D01*
X129269285Y-83037142D01*
X128316904Y-85672380D02*
X128316904Y-84672380D01*
X128555000Y-84672380D01*
X128697857Y-84720000D01*
X128793095Y-84815238D01*
X128840714Y-84910476D01*
X128888333Y-85100952D01*
X128888333Y-85243809D01*
X128840714Y-85434285D01*
X128793095Y-85529523D01*
X128697857Y-85624761D01*
X128555000Y-85672380D01*
X128316904Y-85672380D01*
X129745476Y-84672380D02*
X129555000Y-84672380D01*
X129459761Y-84720000D01*
X129412142Y-84767619D01*
X129316904Y-84910476D01*
X129269285Y-85100952D01*
X129269285Y-85481904D01*
X129316904Y-85577142D01*
X129364523Y-85624761D01*
X129459761Y-85672380D01*
X129650238Y-85672380D01*
X129745476Y-85624761D01*
X129793095Y-85577142D01*
X129840714Y-85481904D01*
X129840714Y-85243809D01*
X129793095Y-85148571D01*
X129745476Y-85100952D01*
X129650238Y-85053333D01*
X129459761Y-85053333D01*
X129364523Y-85100952D01*
X129316904Y-85148571D01*
X129269285Y-85243809D01*
X128316904Y-88212380D02*
X128316904Y-87212380D01*
X128555000Y-87212380D01*
X128697857Y-87260000D01*
X128793095Y-87355238D01*
X128840714Y-87450476D01*
X128888333Y-87640952D01*
X128888333Y-87783809D01*
X128840714Y-87974285D01*
X128793095Y-88069523D01*
X128697857Y-88164761D01*
X128555000Y-88212380D01*
X128316904Y-88212380D01*
X129221666Y-87212380D02*
X129888333Y-87212380D01*
X129459761Y-88212380D01*
X128316904Y-90752380D02*
X128316904Y-89752380D01*
X128555000Y-89752380D01*
X128697857Y-89800000D01*
X128793095Y-89895238D01*
X128840714Y-89990476D01*
X128888333Y-90180952D01*
X128888333Y-90323809D01*
X128840714Y-90514285D01*
X128793095Y-90609523D01*
X128697857Y-90704761D01*
X128555000Y-90752380D01*
X128316904Y-90752380D01*
X129459761Y-90180952D02*
X129364523Y-90133333D01*
X129316904Y-90085714D01*
X129269285Y-89990476D01*
X129269285Y-89942857D01*
X129316904Y-89847619D01*
X129364523Y-89800000D01*
X129459761Y-89752380D01*
X129650238Y-89752380D01*
X129745476Y-89800000D01*
X129793095Y-89847619D01*
X129840714Y-89942857D01*
X129840714Y-89990476D01*
X129793095Y-90085714D01*
X129745476Y-90133333D01*
X129650238Y-90180952D01*
X129459761Y-90180952D01*
X129364523Y-90228571D01*
X129316904Y-90276190D01*
X129269285Y-90371428D01*
X129269285Y-90561904D01*
X129316904Y-90657142D01*
X129364523Y-90704761D01*
X129459761Y-90752380D01*
X129650238Y-90752380D01*
X129745476Y-90704761D01*
X129793095Y-90657142D01*
X129840714Y-90561904D01*
X129840714Y-90371428D01*
X129793095Y-90276190D01*
X129745476Y-90228571D01*
X129650238Y-90180952D01*
X134666904Y-72972380D02*
X134666904Y-71972380D01*
X134905000Y-71972380D01*
X135047857Y-72020000D01*
X135143095Y-72115238D01*
X135190714Y-72210476D01*
X135238333Y-72400952D01*
X135238333Y-72543809D01*
X135190714Y-72734285D01*
X135143095Y-72829523D01*
X135047857Y-72924761D01*
X134905000Y-72972380D01*
X134666904Y-72972380D01*
X135714523Y-72972380D02*
X135905000Y-72972380D01*
X136000238Y-72924761D01*
X136047857Y-72877142D01*
X136143095Y-72734285D01*
X136190714Y-72543809D01*
X136190714Y-72162857D01*
X136143095Y-72067619D01*
X136095476Y-72020000D01*
X136000238Y-71972380D01*
X135809761Y-71972380D01*
X135714523Y-72020000D01*
X135666904Y-72067619D01*
X135619285Y-72162857D01*
X135619285Y-72400952D01*
X135666904Y-72496190D01*
X135714523Y-72543809D01*
X135809761Y-72591428D01*
X136000238Y-72591428D01*
X136095476Y-72543809D01*
X136143095Y-72496190D01*
X136190714Y-72400952D01*
X134190714Y-75512380D02*
X134190714Y-74512380D01*
X134428809Y-74512380D01*
X134571666Y-74560000D01*
X134666904Y-74655238D01*
X134714523Y-74750476D01*
X134762142Y-74940952D01*
X134762142Y-75083809D01*
X134714523Y-75274285D01*
X134666904Y-75369523D01*
X134571666Y-75464761D01*
X134428809Y-75512380D01*
X134190714Y-75512380D01*
X135714523Y-75512380D02*
X135143095Y-75512380D01*
X135428809Y-75512380D02*
X135428809Y-74512380D01*
X135333571Y-74655238D01*
X135238333Y-74750476D01*
X135143095Y-74798095D01*
X136333571Y-74512380D02*
X136428809Y-74512380D01*
X136524047Y-74560000D01*
X136571666Y-74607619D01*
X136619285Y-74702857D01*
X136666904Y-74893333D01*
X136666904Y-75131428D01*
X136619285Y-75321904D01*
X136571666Y-75417142D01*
X136524047Y-75464761D01*
X136428809Y-75512380D01*
X136333571Y-75512380D01*
X136238333Y-75464761D01*
X136190714Y-75417142D01*
X136143095Y-75321904D01*
X136095476Y-75131428D01*
X136095476Y-74893333D01*
X136143095Y-74702857D01*
X136190714Y-74607619D01*
X136238333Y-74560000D01*
X136333571Y-74512380D01*
X134190714Y-78052380D02*
X134190714Y-77052380D01*
X134428809Y-77052380D01*
X134571666Y-77100000D01*
X134666904Y-77195238D01*
X134714523Y-77290476D01*
X134762142Y-77480952D01*
X134762142Y-77623809D01*
X134714523Y-77814285D01*
X134666904Y-77909523D01*
X134571666Y-78004761D01*
X134428809Y-78052380D01*
X134190714Y-78052380D01*
X135714523Y-78052380D02*
X135143095Y-78052380D01*
X135428809Y-78052380D02*
X135428809Y-77052380D01*
X135333571Y-77195238D01*
X135238333Y-77290476D01*
X135143095Y-77338095D01*
X136666904Y-78052380D02*
X136095476Y-78052380D01*
X136381190Y-78052380D02*
X136381190Y-77052380D01*
X136285952Y-77195238D01*
X136190714Y-77290476D01*
X136095476Y-77338095D01*
X134190714Y-80592380D02*
X134190714Y-79592380D01*
X134428809Y-79592380D01*
X134571666Y-79640000D01*
X134666904Y-79735238D01*
X134714523Y-79830476D01*
X134762142Y-80020952D01*
X134762142Y-80163809D01*
X134714523Y-80354285D01*
X134666904Y-80449523D01*
X134571666Y-80544761D01*
X134428809Y-80592380D01*
X134190714Y-80592380D01*
X135714523Y-80592380D02*
X135143095Y-80592380D01*
X135428809Y-80592380D02*
X135428809Y-79592380D01*
X135333571Y-79735238D01*
X135238333Y-79830476D01*
X135143095Y-79878095D01*
X136095476Y-79687619D02*
X136143095Y-79640000D01*
X136238333Y-79592380D01*
X136476428Y-79592380D01*
X136571666Y-79640000D01*
X136619285Y-79687619D01*
X136666904Y-79782857D01*
X136666904Y-79878095D01*
X136619285Y-80020952D01*
X136047857Y-80592380D01*
X136666904Y-80592380D01*
X134190714Y-83132380D02*
X134190714Y-82132380D01*
X134428809Y-82132380D01*
X134571666Y-82180000D01*
X134666904Y-82275238D01*
X134714523Y-82370476D01*
X134762142Y-82560952D01*
X134762142Y-82703809D01*
X134714523Y-82894285D01*
X134666904Y-82989523D01*
X134571666Y-83084761D01*
X134428809Y-83132380D01*
X134190714Y-83132380D01*
X135714523Y-83132380D02*
X135143095Y-83132380D01*
X135428809Y-83132380D02*
X135428809Y-82132380D01*
X135333571Y-82275238D01*
X135238333Y-82370476D01*
X135143095Y-82418095D01*
X136047857Y-82132380D02*
X136666904Y-82132380D01*
X136333571Y-82513333D01*
X136476428Y-82513333D01*
X136571666Y-82560952D01*
X136619285Y-82608571D01*
X136666904Y-82703809D01*
X136666904Y-82941904D01*
X136619285Y-83037142D01*
X136571666Y-83084761D01*
X136476428Y-83132380D01*
X136190714Y-83132380D01*
X136095476Y-83084761D01*
X136047857Y-83037142D01*
X134190714Y-85672380D02*
X134190714Y-84672380D01*
X134428809Y-84672380D01*
X134571666Y-84720000D01*
X134666904Y-84815238D01*
X134714523Y-84910476D01*
X134762142Y-85100952D01*
X134762142Y-85243809D01*
X134714523Y-85434285D01*
X134666904Y-85529523D01*
X134571666Y-85624761D01*
X134428809Y-85672380D01*
X134190714Y-85672380D01*
X135714523Y-85672380D02*
X135143095Y-85672380D01*
X135428809Y-85672380D02*
X135428809Y-84672380D01*
X135333571Y-84815238D01*
X135238333Y-84910476D01*
X135143095Y-84958095D01*
X136571666Y-85005714D02*
X136571666Y-85672380D01*
X136333571Y-84624761D02*
X136095476Y-85339047D01*
X136714523Y-85339047D01*
X134190714Y-88212380D02*
X134190714Y-87212380D01*
X134428809Y-87212380D01*
X134571666Y-87260000D01*
X134666904Y-87355238D01*
X134714523Y-87450476D01*
X134762142Y-87640952D01*
X134762142Y-87783809D01*
X134714523Y-87974285D01*
X134666904Y-88069523D01*
X134571666Y-88164761D01*
X134428809Y-88212380D01*
X134190714Y-88212380D01*
X135714523Y-88212380D02*
X135143095Y-88212380D01*
X135428809Y-88212380D02*
X135428809Y-87212380D01*
X135333571Y-87355238D01*
X135238333Y-87450476D01*
X135143095Y-87498095D01*
X136619285Y-87212380D02*
X136143095Y-87212380D01*
X136095476Y-87688571D01*
X136143095Y-87640952D01*
X136238333Y-87593333D01*
X136476428Y-87593333D01*
X136571666Y-87640952D01*
X136619285Y-87688571D01*
X136666904Y-87783809D01*
X136666904Y-88021904D01*
X136619285Y-88117142D01*
X136571666Y-88164761D01*
X136476428Y-88212380D01*
X136238333Y-88212380D01*
X136143095Y-88164761D01*
X136095476Y-88117142D01*
X134190714Y-90752380D02*
X134190714Y-89752380D01*
X134428809Y-89752380D01*
X134571666Y-89800000D01*
X134666904Y-89895238D01*
X134714523Y-89990476D01*
X134762142Y-90180952D01*
X134762142Y-90323809D01*
X134714523Y-90514285D01*
X134666904Y-90609523D01*
X134571666Y-90704761D01*
X134428809Y-90752380D01*
X134190714Y-90752380D01*
X135714523Y-90752380D02*
X135143095Y-90752380D01*
X135428809Y-90752380D02*
X135428809Y-89752380D01*
X135333571Y-89895238D01*
X135238333Y-89990476D01*
X135143095Y-90038095D01*
X136571666Y-89752380D02*
X136381190Y-89752380D01*
X136285952Y-89800000D01*
X136238333Y-89847619D01*
X136143095Y-89990476D01*
X136095476Y-90180952D01*
X136095476Y-90561904D01*
X136143095Y-90657142D01*
X136190714Y-90704761D01*
X136285952Y-90752380D01*
X136476428Y-90752380D01*
X136571666Y-90704761D01*
X136619285Y-90657142D01*
X136666904Y-90561904D01*
X136666904Y-90323809D01*
X136619285Y-90228571D01*
X136571666Y-90180952D01*
X136476428Y-90133333D01*
X136285952Y-90133333D01*
X136190714Y-90180952D01*
X136143095Y-90228571D01*
X136095476Y-90323809D01*
X140540714Y-72972380D02*
X140540714Y-71972380D01*
X140778809Y-71972380D01*
X140921666Y-72020000D01*
X141016904Y-72115238D01*
X141064523Y-72210476D01*
X141112142Y-72400952D01*
X141112142Y-72543809D01*
X141064523Y-72734285D01*
X141016904Y-72829523D01*
X140921666Y-72924761D01*
X140778809Y-72972380D01*
X140540714Y-72972380D01*
X142064523Y-72972380D02*
X141493095Y-72972380D01*
X141778809Y-72972380D02*
X141778809Y-71972380D01*
X141683571Y-72115238D01*
X141588333Y-72210476D01*
X141493095Y-72258095D01*
X142397857Y-71972380D02*
X143064523Y-71972380D01*
X142635952Y-72972380D01*
X140540714Y-75512380D02*
X140540714Y-74512380D01*
X140778809Y-74512380D01*
X140921666Y-74560000D01*
X141016904Y-74655238D01*
X141064523Y-74750476D01*
X141112142Y-74940952D01*
X141112142Y-75083809D01*
X141064523Y-75274285D01*
X141016904Y-75369523D01*
X140921666Y-75464761D01*
X140778809Y-75512380D01*
X140540714Y-75512380D01*
X142064523Y-75512380D02*
X141493095Y-75512380D01*
X141778809Y-75512380D02*
X141778809Y-74512380D01*
X141683571Y-74655238D01*
X141588333Y-74750476D01*
X141493095Y-74798095D01*
X142635952Y-74940952D02*
X142540714Y-74893333D01*
X142493095Y-74845714D01*
X142445476Y-74750476D01*
X142445476Y-74702857D01*
X142493095Y-74607619D01*
X142540714Y-74560000D01*
X142635952Y-74512380D01*
X142826428Y-74512380D01*
X142921666Y-74560000D01*
X142969285Y-74607619D01*
X143016904Y-74702857D01*
X143016904Y-74750476D01*
X142969285Y-74845714D01*
X142921666Y-74893333D01*
X142826428Y-74940952D01*
X142635952Y-74940952D01*
X142540714Y-74988571D01*
X142493095Y-75036190D01*
X142445476Y-75131428D01*
X142445476Y-75321904D01*
X142493095Y-75417142D01*
X142540714Y-75464761D01*
X142635952Y-75512380D01*
X142826428Y-75512380D01*
X142921666Y-75464761D01*
X142969285Y-75417142D01*
X143016904Y-75321904D01*
X143016904Y-75131428D01*
X142969285Y-75036190D01*
X142921666Y-74988571D01*
X142826428Y-74940952D01*
X140540714Y-78052380D02*
X140540714Y-77052380D01*
X140778809Y-77052380D01*
X140921666Y-77100000D01*
X141016904Y-77195238D01*
X141064523Y-77290476D01*
X141112142Y-77480952D01*
X141112142Y-77623809D01*
X141064523Y-77814285D01*
X141016904Y-77909523D01*
X140921666Y-78004761D01*
X140778809Y-78052380D01*
X140540714Y-78052380D01*
X142064523Y-78052380D02*
X141493095Y-78052380D01*
X141778809Y-78052380D02*
X141778809Y-77052380D01*
X141683571Y-77195238D01*
X141588333Y-77290476D01*
X141493095Y-77338095D01*
X142540714Y-78052380D02*
X142731190Y-78052380D01*
X142826428Y-78004761D01*
X142874047Y-77957142D01*
X142969285Y-77814285D01*
X143016904Y-77623809D01*
X143016904Y-77242857D01*
X142969285Y-77147619D01*
X142921666Y-77100000D01*
X142826428Y-77052380D01*
X142635952Y-77052380D01*
X142540714Y-77100000D01*
X142493095Y-77147619D01*
X142445476Y-77242857D01*
X142445476Y-77480952D01*
X142493095Y-77576190D01*
X142540714Y-77623809D01*
X142635952Y-77671428D01*
X142826428Y-77671428D01*
X142921666Y-77623809D01*
X142969285Y-77576190D01*
X143016904Y-77480952D01*
X140540714Y-80592380D02*
X140540714Y-79592380D01*
X140778809Y-79592380D01*
X140921666Y-79640000D01*
X141016904Y-79735238D01*
X141064523Y-79830476D01*
X141112142Y-80020952D01*
X141112142Y-80163809D01*
X141064523Y-80354285D01*
X141016904Y-80449523D01*
X140921666Y-80544761D01*
X140778809Y-80592380D01*
X140540714Y-80592380D01*
X141493095Y-79687619D02*
X141540714Y-79640000D01*
X141635952Y-79592380D01*
X141874047Y-79592380D01*
X141969285Y-79640000D01*
X142016904Y-79687619D01*
X142064523Y-79782857D01*
X142064523Y-79878095D01*
X142016904Y-80020952D01*
X141445476Y-80592380D01*
X142064523Y-80592380D01*
X142683571Y-79592380D02*
X142778809Y-79592380D01*
X142874047Y-79640000D01*
X142921666Y-79687619D01*
X142969285Y-79782857D01*
X143016904Y-79973333D01*
X143016904Y-80211428D01*
X142969285Y-80401904D01*
X142921666Y-80497142D01*
X142874047Y-80544761D01*
X142778809Y-80592380D01*
X142683571Y-80592380D01*
X142588333Y-80544761D01*
X142540714Y-80497142D01*
X142493095Y-80401904D01*
X142445476Y-80211428D01*
X142445476Y-79973333D01*
X142493095Y-79782857D01*
X142540714Y-79687619D01*
X142588333Y-79640000D01*
X142683571Y-79592380D01*
X140540714Y-83132380D02*
X140540714Y-82132380D01*
X140778809Y-82132380D01*
X140921666Y-82180000D01*
X141016904Y-82275238D01*
X141064523Y-82370476D01*
X141112142Y-82560952D01*
X141112142Y-82703809D01*
X141064523Y-82894285D01*
X141016904Y-82989523D01*
X140921666Y-83084761D01*
X140778809Y-83132380D01*
X140540714Y-83132380D01*
X141493095Y-82227619D02*
X141540714Y-82180000D01*
X141635952Y-82132380D01*
X141874047Y-82132380D01*
X141969285Y-82180000D01*
X142016904Y-82227619D01*
X142064523Y-82322857D01*
X142064523Y-82418095D01*
X142016904Y-82560952D01*
X141445476Y-83132380D01*
X142064523Y-83132380D01*
X143016904Y-83132380D02*
X142445476Y-83132380D01*
X142731190Y-83132380D02*
X142731190Y-82132380D01*
X142635952Y-82275238D01*
X142540714Y-82370476D01*
X142445476Y-82418095D01*
X140540714Y-85672380D02*
X140540714Y-84672380D01*
X140778809Y-84672380D01*
X140921666Y-84720000D01*
X141016904Y-84815238D01*
X141064523Y-84910476D01*
X141112142Y-85100952D01*
X141112142Y-85243809D01*
X141064523Y-85434285D01*
X141016904Y-85529523D01*
X140921666Y-85624761D01*
X140778809Y-85672380D01*
X140540714Y-85672380D01*
X141493095Y-84767619D02*
X141540714Y-84720000D01*
X141635952Y-84672380D01*
X141874047Y-84672380D01*
X141969285Y-84720000D01*
X142016904Y-84767619D01*
X142064523Y-84862857D01*
X142064523Y-84958095D01*
X142016904Y-85100952D01*
X141445476Y-85672380D01*
X142064523Y-85672380D01*
X142445476Y-84767619D02*
X142493095Y-84720000D01*
X142588333Y-84672380D01*
X142826428Y-84672380D01*
X142921666Y-84720000D01*
X142969285Y-84767619D01*
X143016904Y-84862857D01*
X143016904Y-84958095D01*
X142969285Y-85100952D01*
X142397857Y-85672380D01*
X143016904Y-85672380D01*
X140540714Y-88212380D02*
X140540714Y-87212380D01*
X140778809Y-87212380D01*
X140921666Y-87260000D01*
X141016904Y-87355238D01*
X141064523Y-87450476D01*
X141112142Y-87640952D01*
X141112142Y-87783809D01*
X141064523Y-87974285D01*
X141016904Y-88069523D01*
X140921666Y-88164761D01*
X140778809Y-88212380D01*
X140540714Y-88212380D01*
X141493095Y-87307619D02*
X141540714Y-87260000D01*
X141635952Y-87212380D01*
X141874047Y-87212380D01*
X141969285Y-87260000D01*
X142016904Y-87307619D01*
X142064523Y-87402857D01*
X142064523Y-87498095D01*
X142016904Y-87640952D01*
X141445476Y-88212380D01*
X142064523Y-88212380D01*
X142397857Y-87212380D02*
X143016904Y-87212380D01*
X142683571Y-87593333D01*
X142826428Y-87593333D01*
X142921666Y-87640952D01*
X142969285Y-87688571D01*
X143016904Y-87783809D01*
X143016904Y-88021904D01*
X142969285Y-88117142D01*
X142921666Y-88164761D01*
X142826428Y-88212380D01*
X142540714Y-88212380D01*
X142445476Y-88164761D01*
X142397857Y-88117142D01*
X140540714Y-90752380D02*
X140540714Y-89752380D01*
X140778809Y-89752380D01*
X140921666Y-89800000D01*
X141016904Y-89895238D01*
X141064523Y-89990476D01*
X141112142Y-90180952D01*
X141112142Y-90323809D01*
X141064523Y-90514285D01*
X141016904Y-90609523D01*
X140921666Y-90704761D01*
X140778809Y-90752380D01*
X140540714Y-90752380D01*
X141493095Y-89847619D02*
X141540714Y-89800000D01*
X141635952Y-89752380D01*
X141874047Y-89752380D01*
X141969285Y-89800000D01*
X142016904Y-89847619D01*
X142064523Y-89942857D01*
X142064523Y-90038095D01*
X142016904Y-90180952D01*
X141445476Y-90752380D01*
X142064523Y-90752380D01*
X142921666Y-90085714D02*
X142921666Y-90752380D01*
X142683571Y-89704761D02*
X142445476Y-90419047D01*
X143064523Y-90419047D01*
X146890714Y-72972380D02*
X146890714Y-71972380D01*
X147128809Y-71972380D01*
X147271666Y-72020000D01*
X147366904Y-72115238D01*
X147414523Y-72210476D01*
X147462142Y-72400952D01*
X147462142Y-72543809D01*
X147414523Y-72734285D01*
X147366904Y-72829523D01*
X147271666Y-72924761D01*
X147128809Y-72972380D01*
X146890714Y-72972380D01*
X147843095Y-72067619D02*
X147890714Y-72020000D01*
X147985952Y-71972380D01*
X148224047Y-71972380D01*
X148319285Y-72020000D01*
X148366904Y-72067619D01*
X148414523Y-72162857D01*
X148414523Y-72258095D01*
X148366904Y-72400952D01*
X147795476Y-72972380D01*
X148414523Y-72972380D01*
X149319285Y-71972380D02*
X148843095Y-71972380D01*
X148795476Y-72448571D01*
X148843095Y-72400952D01*
X148938333Y-72353333D01*
X149176428Y-72353333D01*
X149271666Y-72400952D01*
X149319285Y-72448571D01*
X149366904Y-72543809D01*
X149366904Y-72781904D01*
X149319285Y-72877142D01*
X149271666Y-72924761D01*
X149176428Y-72972380D01*
X148938333Y-72972380D01*
X148843095Y-72924761D01*
X148795476Y-72877142D01*
X146890714Y-75512380D02*
X146890714Y-74512380D01*
X147128809Y-74512380D01*
X147271666Y-74560000D01*
X147366904Y-74655238D01*
X147414523Y-74750476D01*
X147462142Y-74940952D01*
X147462142Y-75083809D01*
X147414523Y-75274285D01*
X147366904Y-75369523D01*
X147271666Y-75464761D01*
X147128809Y-75512380D01*
X146890714Y-75512380D01*
X147843095Y-74607619D02*
X147890714Y-74560000D01*
X147985952Y-74512380D01*
X148224047Y-74512380D01*
X148319285Y-74560000D01*
X148366904Y-74607619D01*
X148414523Y-74702857D01*
X148414523Y-74798095D01*
X148366904Y-74940952D01*
X147795476Y-75512380D01*
X148414523Y-75512380D01*
X149271666Y-74512380D02*
X149081190Y-74512380D01*
X148985952Y-74560000D01*
X148938333Y-74607619D01*
X148843095Y-74750476D01*
X148795476Y-74940952D01*
X148795476Y-75321904D01*
X148843095Y-75417142D01*
X148890714Y-75464761D01*
X148985952Y-75512380D01*
X149176428Y-75512380D01*
X149271666Y-75464761D01*
X149319285Y-75417142D01*
X149366904Y-75321904D01*
X149366904Y-75083809D01*
X149319285Y-74988571D01*
X149271666Y-74940952D01*
X149176428Y-74893333D01*
X148985952Y-74893333D01*
X148890714Y-74940952D01*
X148843095Y-74988571D01*
X148795476Y-75083809D01*
X146890714Y-78052380D02*
X146890714Y-77052380D01*
X147128809Y-77052380D01*
X147271666Y-77100000D01*
X147366904Y-77195238D01*
X147414523Y-77290476D01*
X147462142Y-77480952D01*
X147462142Y-77623809D01*
X147414523Y-77814285D01*
X147366904Y-77909523D01*
X147271666Y-78004761D01*
X147128809Y-78052380D01*
X146890714Y-78052380D01*
X147843095Y-77147619D02*
X147890714Y-77100000D01*
X147985952Y-77052380D01*
X148224047Y-77052380D01*
X148319285Y-77100000D01*
X148366904Y-77147619D01*
X148414523Y-77242857D01*
X148414523Y-77338095D01*
X148366904Y-77480952D01*
X147795476Y-78052380D01*
X148414523Y-78052380D01*
X148747857Y-77052380D02*
X149414523Y-77052380D01*
X148985952Y-78052380D01*
X146890714Y-80592380D02*
X146890714Y-79592380D01*
X147128809Y-79592380D01*
X147271666Y-79640000D01*
X147366904Y-79735238D01*
X147414523Y-79830476D01*
X147462142Y-80020952D01*
X147462142Y-80163809D01*
X147414523Y-80354285D01*
X147366904Y-80449523D01*
X147271666Y-80544761D01*
X147128809Y-80592380D01*
X146890714Y-80592380D01*
X147843095Y-79687619D02*
X147890714Y-79640000D01*
X147985952Y-79592380D01*
X148224047Y-79592380D01*
X148319285Y-79640000D01*
X148366904Y-79687619D01*
X148414523Y-79782857D01*
X148414523Y-79878095D01*
X148366904Y-80020952D01*
X147795476Y-80592380D01*
X148414523Y-80592380D01*
X148985952Y-80020952D02*
X148890714Y-79973333D01*
X148843095Y-79925714D01*
X148795476Y-79830476D01*
X148795476Y-79782857D01*
X148843095Y-79687619D01*
X148890714Y-79640000D01*
X148985952Y-79592380D01*
X149176428Y-79592380D01*
X149271666Y-79640000D01*
X149319285Y-79687619D01*
X149366904Y-79782857D01*
X149366904Y-79830476D01*
X149319285Y-79925714D01*
X149271666Y-79973333D01*
X149176428Y-80020952D01*
X148985952Y-80020952D01*
X148890714Y-80068571D01*
X148843095Y-80116190D01*
X148795476Y-80211428D01*
X148795476Y-80401904D01*
X148843095Y-80497142D01*
X148890714Y-80544761D01*
X148985952Y-80592380D01*
X149176428Y-80592380D01*
X149271666Y-80544761D01*
X149319285Y-80497142D01*
X149366904Y-80401904D01*
X149366904Y-80211428D01*
X149319285Y-80116190D01*
X149271666Y-80068571D01*
X149176428Y-80020952D01*
X146890714Y-83132380D02*
X146890714Y-82132380D01*
X147128809Y-82132380D01*
X147271666Y-82180000D01*
X147366904Y-82275238D01*
X147414523Y-82370476D01*
X147462142Y-82560952D01*
X147462142Y-82703809D01*
X147414523Y-82894285D01*
X147366904Y-82989523D01*
X147271666Y-83084761D01*
X147128809Y-83132380D01*
X146890714Y-83132380D01*
X147843095Y-82227619D02*
X147890714Y-82180000D01*
X147985952Y-82132380D01*
X148224047Y-82132380D01*
X148319285Y-82180000D01*
X148366904Y-82227619D01*
X148414523Y-82322857D01*
X148414523Y-82418095D01*
X148366904Y-82560952D01*
X147795476Y-83132380D01*
X148414523Y-83132380D01*
X148890714Y-83132380D02*
X149081190Y-83132380D01*
X149176428Y-83084761D01*
X149224047Y-83037142D01*
X149319285Y-82894285D01*
X149366904Y-82703809D01*
X149366904Y-82322857D01*
X149319285Y-82227619D01*
X149271666Y-82180000D01*
X149176428Y-82132380D01*
X148985952Y-82132380D01*
X148890714Y-82180000D01*
X148843095Y-82227619D01*
X148795476Y-82322857D01*
X148795476Y-82560952D01*
X148843095Y-82656190D01*
X148890714Y-82703809D01*
X148985952Y-82751428D01*
X149176428Y-82751428D01*
X149271666Y-82703809D01*
X149319285Y-82656190D01*
X149366904Y-82560952D01*
X146890714Y-85672380D02*
X146890714Y-84672380D01*
X147128809Y-84672380D01*
X147271666Y-84720000D01*
X147366904Y-84815238D01*
X147414523Y-84910476D01*
X147462142Y-85100952D01*
X147462142Y-85243809D01*
X147414523Y-85434285D01*
X147366904Y-85529523D01*
X147271666Y-85624761D01*
X147128809Y-85672380D01*
X146890714Y-85672380D01*
X147795476Y-84672380D02*
X148414523Y-84672380D01*
X148081190Y-85053333D01*
X148224047Y-85053333D01*
X148319285Y-85100952D01*
X148366904Y-85148571D01*
X148414523Y-85243809D01*
X148414523Y-85481904D01*
X148366904Y-85577142D01*
X148319285Y-85624761D01*
X148224047Y-85672380D01*
X147938333Y-85672380D01*
X147843095Y-85624761D01*
X147795476Y-85577142D01*
X149033571Y-84672380D02*
X149128809Y-84672380D01*
X149224047Y-84720000D01*
X149271666Y-84767619D01*
X149319285Y-84862857D01*
X149366904Y-85053333D01*
X149366904Y-85291428D01*
X149319285Y-85481904D01*
X149271666Y-85577142D01*
X149224047Y-85624761D01*
X149128809Y-85672380D01*
X149033571Y-85672380D01*
X148938333Y-85624761D01*
X148890714Y-85577142D01*
X148843095Y-85481904D01*
X148795476Y-85291428D01*
X148795476Y-85053333D01*
X148843095Y-84862857D01*
X148890714Y-84767619D01*
X148938333Y-84720000D01*
X149033571Y-84672380D01*
X146890714Y-88212380D02*
X146890714Y-87212380D01*
X147128809Y-87212380D01*
X147271666Y-87260000D01*
X147366904Y-87355238D01*
X147414523Y-87450476D01*
X147462142Y-87640952D01*
X147462142Y-87783809D01*
X147414523Y-87974285D01*
X147366904Y-88069523D01*
X147271666Y-88164761D01*
X147128809Y-88212380D01*
X146890714Y-88212380D01*
X147795476Y-87212380D02*
X148414523Y-87212380D01*
X148081190Y-87593333D01*
X148224047Y-87593333D01*
X148319285Y-87640952D01*
X148366904Y-87688571D01*
X148414523Y-87783809D01*
X148414523Y-88021904D01*
X148366904Y-88117142D01*
X148319285Y-88164761D01*
X148224047Y-88212380D01*
X147938333Y-88212380D01*
X147843095Y-88164761D01*
X147795476Y-88117142D01*
X149366904Y-88212380D02*
X148795476Y-88212380D01*
X149081190Y-88212380D02*
X149081190Y-87212380D01*
X148985952Y-87355238D01*
X148890714Y-87450476D01*
X148795476Y-87498095D01*
X146890714Y-90752380D02*
X146890714Y-89752380D01*
X147128809Y-89752380D01*
X147271666Y-89800000D01*
X147366904Y-89895238D01*
X147414523Y-89990476D01*
X147462142Y-90180952D01*
X147462142Y-90323809D01*
X147414523Y-90514285D01*
X147366904Y-90609523D01*
X147271666Y-90704761D01*
X147128809Y-90752380D01*
X146890714Y-90752380D01*
X147795476Y-89752380D02*
X148414523Y-89752380D01*
X148081190Y-90133333D01*
X148224047Y-90133333D01*
X148319285Y-90180952D01*
X148366904Y-90228571D01*
X148414523Y-90323809D01*
X148414523Y-90561904D01*
X148366904Y-90657142D01*
X148319285Y-90704761D01*
X148224047Y-90752380D01*
X147938333Y-90752380D01*
X147843095Y-90704761D01*
X147795476Y-90657142D01*
X148795476Y-89847619D02*
X148843095Y-89800000D01*
X148938333Y-89752380D01*
X149176428Y-89752380D01*
X149271666Y-89800000D01*
X149319285Y-89847619D01*
X149366904Y-89942857D01*
X149366904Y-90038095D01*
X149319285Y-90180952D01*
X148747857Y-90752380D01*
X149366904Y-90752380D01*
X153240714Y-72972380D02*
X153240714Y-71972380D01*
X153478809Y-71972380D01*
X153621666Y-72020000D01*
X153716904Y-72115238D01*
X153764523Y-72210476D01*
X153812142Y-72400952D01*
X153812142Y-72543809D01*
X153764523Y-72734285D01*
X153716904Y-72829523D01*
X153621666Y-72924761D01*
X153478809Y-72972380D01*
X153240714Y-72972380D01*
X154145476Y-71972380D02*
X154764523Y-71972380D01*
X154431190Y-72353333D01*
X154574047Y-72353333D01*
X154669285Y-72400952D01*
X154716904Y-72448571D01*
X154764523Y-72543809D01*
X154764523Y-72781904D01*
X154716904Y-72877142D01*
X154669285Y-72924761D01*
X154574047Y-72972380D01*
X154288333Y-72972380D01*
X154193095Y-72924761D01*
X154145476Y-72877142D01*
X155097857Y-71972380D02*
X155716904Y-71972380D01*
X155383571Y-72353333D01*
X155526428Y-72353333D01*
X155621666Y-72400952D01*
X155669285Y-72448571D01*
X155716904Y-72543809D01*
X155716904Y-72781904D01*
X155669285Y-72877142D01*
X155621666Y-72924761D01*
X155526428Y-72972380D01*
X155240714Y-72972380D01*
X155145476Y-72924761D01*
X155097857Y-72877142D01*
X153240714Y-75512380D02*
X153240714Y-74512380D01*
X153478809Y-74512380D01*
X153621666Y-74560000D01*
X153716904Y-74655238D01*
X153764523Y-74750476D01*
X153812142Y-74940952D01*
X153812142Y-75083809D01*
X153764523Y-75274285D01*
X153716904Y-75369523D01*
X153621666Y-75464761D01*
X153478809Y-75512380D01*
X153240714Y-75512380D01*
X154145476Y-74512380D02*
X154764523Y-74512380D01*
X154431190Y-74893333D01*
X154574047Y-74893333D01*
X154669285Y-74940952D01*
X154716904Y-74988571D01*
X154764523Y-75083809D01*
X154764523Y-75321904D01*
X154716904Y-75417142D01*
X154669285Y-75464761D01*
X154574047Y-75512380D01*
X154288333Y-75512380D01*
X154193095Y-75464761D01*
X154145476Y-75417142D01*
X155621666Y-74845714D02*
X155621666Y-75512380D01*
X155383571Y-74464761D02*
X155145476Y-75179047D01*
X155764523Y-75179047D01*
X153240714Y-78052380D02*
X153240714Y-77052380D01*
X153478809Y-77052380D01*
X153621666Y-77100000D01*
X153716904Y-77195238D01*
X153764523Y-77290476D01*
X153812142Y-77480952D01*
X153812142Y-77623809D01*
X153764523Y-77814285D01*
X153716904Y-77909523D01*
X153621666Y-78004761D01*
X153478809Y-78052380D01*
X153240714Y-78052380D01*
X154145476Y-77052380D02*
X154764523Y-77052380D01*
X154431190Y-77433333D01*
X154574047Y-77433333D01*
X154669285Y-77480952D01*
X154716904Y-77528571D01*
X154764523Y-77623809D01*
X154764523Y-77861904D01*
X154716904Y-77957142D01*
X154669285Y-78004761D01*
X154574047Y-78052380D01*
X154288333Y-78052380D01*
X154193095Y-78004761D01*
X154145476Y-77957142D01*
X155669285Y-77052380D02*
X155193095Y-77052380D01*
X155145476Y-77528571D01*
X155193095Y-77480952D01*
X155288333Y-77433333D01*
X155526428Y-77433333D01*
X155621666Y-77480952D01*
X155669285Y-77528571D01*
X155716904Y-77623809D01*
X155716904Y-77861904D01*
X155669285Y-77957142D01*
X155621666Y-78004761D01*
X155526428Y-78052380D01*
X155288333Y-78052380D01*
X155193095Y-78004761D01*
X155145476Y-77957142D01*
X153240714Y-80592380D02*
X153240714Y-79592380D01*
X153478809Y-79592380D01*
X153621666Y-79640000D01*
X153716904Y-79735238D01*
X153764523Y-79830476D01*
X153812142Y-80020952D01*
X153812142Y-80163809D01*
X153764523Y-80354285D01*
X153716904Y-80449523D01*
X153621666Y-80544761D01*
X153478809Y-80592380D01*
X153240714Y-80592380D01*
X154145476Y-79592380D02*
X154764523Y-79592380D01*
X154431190Y-79973333D01*
X154574047Y-79973333D01*
X154669285Y-80020952D01*
X154716904Y-80068571D01*
X154764523Y-80163809D01*
X154764523Y-80401904D01*
X154716904Y-80497142D01*
X154669285Y-80544761D01*
X154574047Y-80592380D01*
X154288333Y-80592380D01*
X154193095Y-80544761D01*
X154145476Y-80497142D01*
X155621666Y-79592380D02*
X155431190Y-79592380D01*
X155335952Y-79640000D01*
X155288333Y-79687619D01*
X155193095Y-79830476D01*
X155145476Y-80020952D01*
X155145476Y-80401904D01*
X155193095Y-80497142D01*
X155240714Y-80544761D01*
X155335952Y-80592380D01*
X155526428Y-80592380D01*
X155621666Y-80544761D01*
X155669285Y-80497142D01*
X155716904Y-80401904D01*
X155716904Y-80163809D01*
X155669285Y-80068571D01*
X155621666Y-80020952D01*
X155526428Y-79973333D01*
X155335952Y-79973333D01*
X155240714Y-80020952D01*
X155193095Y-80068571D01*
X155145476Y-80163809D01*
X153240714Y-83132380D02*
X153240714Y-82132380D01*
X153478809Y-82132380D01*
X153621666Y-82180000D01*
X153716904Y-82275238D01*
X153764523Y-82370476D01*
X153812142Y-82560952D01*
X153812142Y-82703809D01*
X153764523Y-82894285D01*
X153716904Y-82989523D01*
X153621666Y-83084761D01*
X153478809Y-83132380D01*
X153240714Y-83132380D01*
X154145476Y-82132380D02*
X154764523Y-82132380D01*
X154431190Y-82513333D01*
X154574047Y-82513333D01*
X154669285Y-82560952D01*
X154716904Y-82608571D01*
X154764523Y-82703809D01*
X154764523Y-82941904D01*
X154716904Y-83037142D01*
X154669285Y-83084761D01*
X154574047Y-83132380D01*
X154288333Y-83132380D01*
X154193095Y-83084761D01*
X154145476Y-83037142D01*
X155097857Y-82132380D02*
X155764523Y-82132380D01*
X155335952Y-83132380D01*
X153240714Y-85672380D02*
X153240714Y-84672380D01*
X153478809Y-84672380D01*
X153621666Y-84720000D01*
X153716904Y-84815238D01*
X153764523Y-84910476D01*
X153812142Y-85100952D01*
X153812142Y-85243809D01*
X153764523Y-85434285D01*
X153716904Y-85529523D01*
X153621666Y-85624761D01*
X153478809Y-85672380D01*
X153240714Y-85672380D01*
X154145476Y-84672380D02*
X154764523Y-84672380D01*
X154431190Y-85053333D01*
X154574047Y-85053333D01*
X154669285Y-85100952D01*
X154716904Y-85148571D01*
X154764523Y-85243809D01*
X154764523Y-85481904D01*
X154716904Y-85577142D01*
X154669285Y-85624761D01*
X154574047Y-85672380D01*
X154288333Y-85672380D01*
X154193095Y-85624761D01*
X154145476Y-85577142D01*
X155335952Y-85100952D02*
X155240714Y-85053333D01*
X155193095Y-85005714D01*
X155145476Y-84910476D01*
X155145476Y-84862857D01*
X155193095Y-84767619D01*
X155240714Y-84720000D01*
X155335952Y-84672380D01*
X155526428Y-84672380D01*
X155621666Y-84720000D01*
X155669285Y-84767619D01*
X155716904Y-84862857D01*
X155716904Y-84910476D01*
X155669285Y-85005714D01*
X155621666Y-85053333D01*
X155526428Y-85100952D01*
X155335952Y-85100952D01*
X155240714Y-85148571D01*
X155193095Y-85196190D01*
X155145476Y-85291428D01*
X155145476Y-85481904D01*
X155193095Y-85577142D01*
X155240714Y-85624761D01*
X155335952Y-85672380D01*
X155526428Y-85672380D01*
X155621666Y-85624761D01*
X155669285Y-85577142D01*
X155716904Y-85481904D01*
X155716904Y-85291428D01*
X155669285Y-85196190D01*
X155621666Y-85148571D01*
X155526428Y-85100952D01*
X153240714Y-88212380D02*
X153240714Y-87212380D01*
X153478809Y-87212380D01*
X153621666Y-87260000D01*
X153716904Y-87355238D01*
X153764523Y-87450476D01*
X153812142Y-87640952D01*
X153812142Y-87783809D01*
X153764523Y-87974285D01*
X153716904Y-88069523D01*
X153621666Y-88164761D01*
X153478809Y-88212380D01*
X153240714Y-88212380D01*
X154145476Y-87212380D02*
X154764523Y-87212380D01*
X154431190Y-87593333D01*
X154574047Y-87593333D01*
X154669285Y-87640952D01*
X154716904Y-87688571D01*
X154764523Y-87783809D01*
X154764523Y-88021904D01*
X154716904Y-88117142D01*
X154669285Y-88164761D01*
X154574047Y-88212380D01*
X154288333Y-88212380D01*
X154193095Y-88164761D01*
X154145476Y-88117142D01*
X155240714Y-88212380D02*
X155431190Y-88212380D01*
X155526428Y-88164761D01*
X155574047Y-88117142D01*
X155669285Y-87974285D01*
X155716904Y-87783809D01*
X155716904Y-87402857D01*
X155669285Y-87307619D01*
X155621666Y-87260000D01*
X155526428Y-87212380D01*
X155335952Y-87212380D01*
X155240714Y-87260000D01*
X155193095Y-87307619D01*
X155145476Y-87402857D01*
X155145476Y-87640952D01*
X155193095Y-87736190D01*
X155240714Y-87783809D01*
X155335952Y-87831428D01*
X155526428Y-87831428D01*
X155621666Y-87783809D01*
X155669285Y-87736190D01*
X155716904Y-87640952D01*
X153240714Y-90747380D02*
X153240714Y-89747380D01*
X153478809Y-89747380D01*
X153621666Y-89795000D01*
X153716904Y-89890238D01*
X153764523Y-89985476D01*
X153812142Y-90175952D01*
X153812142Y-90318809D01*
X153764523Y-90509285D01*
X153716904Y-90604523D01*
X153621666Y-90699761D01*
X153478809Y-90747380D01*
X153240714Y-90747380D01*
X154669285Y-90080714D02*
X154669285Y-90747380D01*
X154431190Y-89699761D02*
X154193095Y-90414047D01*
X154812142Y-90414047D01*
X155383571Y-89747380D02*
X155478809Y-89747380D01*
X155574047Y-89795000D01*
X155621666Y-89842619D01*
X155669285Y-89937857D01*
X155716904Y-90128333D01*
X155716904Y-90366428D01*
X155669285Y-90556904D01*
X155621666Y-90652142D01*
X155574047Y-90699761D01*
X155478809Y-90747380D01*
X155383571Y-90747380D01*
X155288333Y-90699761D01*
X155240714Y-90652142D01*
X155193095Y-90556904D01*
X155145476Y-90366428D01*
X155145476Y-90128333D01*
X155193095Y-89937857D01*
X155240714Y-89842619D01*
X155288333Y-89795000D01*
X155383571Y-89747380D01*
X159590714Y-72972380D02*
X159590714Y-71972380D01*
X159828809Y-71972380D01*
X159971666Y-72020000D01*
X160066904Y-72115238D01*
X160114523Y-72210476D01*
X160162142Y-72400952D01*
X160162142Y-72543809D01*
X160114523Y-72734285D01*
X160066904Y-72829523D01*
X159971666Y-72924761D01*
X159828809Y-72972380D01*
X159590714Y-72972380D01*
X161019285Y-72305714D02*
X161019285Y-72972380D01*
X160781190Y-71924761D02*
X160543095Y-72639047D01*
X161162142Y-72639047D01*
X162066904Y-72972380D02*
X161495476Y-72972380D01*
X161781190Y-72972380D02*
X161781190Y-71972380D01*
X161685952Y-72115238D01*
X161590714Y-72210476D01*
X161495476Y-72258095D01*
X159590714Y-75512380D02*
X159590714Y-74512380D01*
X159828809Y-74512380D01*
X159971666Y-74560000D01*
X160066904Y-74655238D01*
X160114523Y-74750476D01*
X160162142Y-74940952D01*
X160162142Y-75083809D01*
X160114523Y-75274285D01*
X160066904Y-75369523D01*
X159971666Y-75464761D01*
X159828809Y-75512380D01*
X159590714Y-75512380D01*
X161019285Y-74845714D02*
X161019285Y-75512380D01*
X160781190Y-74464761D02*
X160543095Y-75179047D01*
X161162142Y-75179047D01*
X161495476Y-74607619D02*
X161543095Y-74560000D01*
X161638333Y-74512380D01*
X161876428Y-74512380D01*
X161971666Y-74560000D01*
X162019285Y-74607619D01*
X162066904Y-74702857D01*
X162066904Y-74798095D01*
X162019285Y-74940952D01*
X161447857Y-75512380D01*
X162066904Y-75512380D01*
X159590714Y-78052380D02*
X159590714Y-77052380D01*
X159828809Y-77052380D01*
X159971666Y-77100000D01*
X160066904Y-77195238D01*
X160114523Y-77290476D01*
X160162142Y-77480952D01*
X160162142Y-77623809D01*
X160114523Y-77814285D01*
X160066904Y-77909523D01*
X159971666Y-78004761D01*
X159828809Y-78052380D01*
X159590714Y-78052380D01*
X161019285Y-77385714D02*
X161019285Y-78052380D01*
X160781190Y-77004761D02*
X160543095Y-77719047D01*
X161162142Y-77719047D01*
X161447857Y-77052380D02*
X162066904Y-77052380D01*
X161733571Y-77433333D01*
X161876428Y-77433333D01*
X161971666Y-77480952D01*
X162019285Y-77528571D01*
X162066904Y-77623809D01*
X162066904Y-77861904D01*
X162019285Y-77957142D01*
X161971666Y-78004761D01*
X161876428Y-78052380D01*
X161590714Y-78052380D01*
X161495476Y-78004761D01*
X161447857Y-77957142D01*
X159590714Y-80592380D02*
X159590714Y-79592380D01*
X159828809Y-79592380D01*
X159971666Y-79640000D01*
X160066904Y-79735238D01*
X160114523Y-79830476D01*
X160162142Y-80020952D01*
X160162142Y-80163809D01*
X160114523Y-80354285D01*
X160066904Y-80449523D01*
X159971666Y-80544761D01*
X159828809Y-80592380D01*
X159590714Y-80592380D01*
X161019285Y-79925714D02*
X161019285Y-80592380D01*
X160781190Y-79544761D02*
X160543095Y-80259047D01*
X161162142Y-80259047D01*
X161971666Y-79925714D02*
X161971666Y-80592380D01*
X161733571Y-79544761D02*
X161495476Y-80259047D01*
X162114523Y-80259047D01*
X159590714Y-83132380D02*
X159590714Y-82132380D01*
X159828809Y-82132380D01*
X159971666Y-82180000D01*
X160066904Y-82275238D01*
X160114523Y-82370476D01*
X160162142Y-82560952D01*
X160162142Y-82703809D01*
X160114523Y-82894285D01*
X160066904Y-82989523D01*
X159971666Y-83084761D01*
X159828809Y-83132380D01*
X159590714Y-83132380D01*
X161019285Y-82465714D02*
X161019285Y-83132380D01*
X160781190Y-82084761D02*
X160543095Y-82799047D01*
X161162142Y-82799047D01*
X162019285Y-82132380D02*
X161543095Y-82132380D01*
X161495476Y-82608571D01*
X161543095Y-82560952D01*
X161638333Y-82513333D01*
X161876428Y-82513333D01*
X161971666Y-82560952D01*
X162019285Y-82608571D01*
X162066904Y-82703809D01*
X162066904Y-82941904D01*
X162019285Y-83037142D01*
X161971666Y-83084761D01*
X161876428Y-83132380D01*
X161638333Y-83132380D01*
X161543095Y-83084761D01*
X161495476Y-83037142D01*
X159590714Y-85672380D02*
X159590714Y-84672380D01*
X159828809Y-84672380D01*
X159971666Y-84720000D01*
X160066904Y-84815238D01*
X160114523Y-84910476D01*
X160162142Y-85100952D01*
X160162142Y-85243809D01*
X160114523Y-85434285D01*
X160066904Y-85529523D01*
X159971666Y-85624761D01*
X159828809Y-85672380D01*
X159590714Y-85672380D01*
X161019285Y-85005714D02*
X161019285Y-85672380D01*
X160781190Y-84624761D02*
X160543095Y-85339047D01*
X161162142Y-85339047D01*
X161971666Y-84672380D02*
X161781190Y-84672380D01*
X161685952Y-84720000D01*
X161638333Y-84767619D01*
X161543095Y-84910476D01*
X161495476Y-85100952D01*
X161495476Y-85481904D01*
X161543095Y-85577142D01*
X161590714Y-85624761D01*
X161685952Y-85672380D01*
X161876428Y-85672380D01*
X161971666Y-85624761D01*
X162019285Y-85577142D01*
X162066904Y-85481904D01*
X162066904Y-85243809D01*
X162019285Y-85148571D01*
X161971666Y-85100952D01*
X161876428Y-85053333D01*
X161685952Y-85053333D01*
X161590714Y-85100952D01*
X161543095Y-85148571D01*
X161495476Y-85243809D01*
X159590714Y-88212380D02*
X159590714Y-87212380D01*
X159828809Y-87212380D01*
X159971666Y-87260000D01*
X160066904Y-87355238D01*
X160114523Y-87450476D01*
X160162142Y-87640952D01*
X160162142Y-87783809D01*
X160114523Y-87974285D01*
X160066904Y-88069523D01*
X159971666Y-88164761D01*
X159828809Y-88212380D01*
X159590714Y-88212380D01*
X161019285Y-87545714D02*
X161019285Y-88212380D01*
X160781190Y-87164761D02*
X160543095Y-87879047D01*
X161162142Y-87879047D01*
X161447857Y-87212380D02*
X162114523Y-87212380D01*
X161685952Y-88212380D01*
X159590714Y-90752380D02*
X159590714Y-89752380D01*
X159828809Y-89752380D01*
X159971666Y-89800000D01*
X160066904Y-89895238D01*
X160114523Y-89990476D01*
X160162142Y-90180952D01*
X160162142Y-90323809D01*
X160114523Y-90514285D01*
X160066904Y-90609523D01*
X159971666Y-90704761D01*
X159828809Y-90752380D01*
X159590714Y-90752380D01*
X161019285Y-90085714D02*
X161019285Y-90752380D01*
X160781190Y-89704761D02*
X160543095Y-90419047D01*
X161162142Y-90419047D01*
X161685952Y-90180952D02*
X161590714Y-90133333D01*
X161543095Y-90085714D01*
X161495476Y-89990476D01*
X161495476Y-89942857D01*
X161543095Y-89847619D01*
X161590714Y-89800000D01*
X161685952Y-89752380D01*
X161876428Y-89752380D01*
X161971666Y-89800000D01*
X162019285Y-89847619D01*
X162066904Y-89942857D01*
X162066904Y-89990476D01*
X162019285Y-90085714D01*
X161971666Y-90133333D01*
X161876428Y-90180952D01*
X161685952Y-90180952D01*
X161590714Y-90228571D01*
X161543095Y-90276190D01*
X161495476Y-90371428D01*
X161495476Y-90561904D01*
X161543095Y-90657142D01*
X161590714Y-90704761D01*
X161685952Y-90752380D01*
X161876428Y-90752380D01*
X161971666Y-90704761D01*
X162019285Y-90657142D01*
X162066904Y-90561904D01*
X162066904Y-90371428D01*
X162019285Y-90276190D01*
X161971666Y-90228571D01*
X161876428Y-90180952D01*
X165940714Y-72972380D02*
X165940714Y-71972380D01*
X166178809Y-71972380D01*
X166321666Y-72020000D01*
X166416904Y-72115238D01*
X166464523Y-72210476D01*
X166512142Y-72400952D01*
X166512142Y-72543809D01*
X166464523Y-72734285D01*
X166416904Y-72829523D01*
X166321666Y-72924761D01*
X166178809Y-72972380D01*
X165940714Y-72972380D01*
X167369285Y-72305714D02*
X167369285Y-72972380D01*
X167131190Y-71924761D02*
X166893095Y-72639047D01*
X167512142Y-72639047D01*
X167940714Y-72972380D02*
X168131190Y-72972380D01*
X168226428Y-72924761D01*
X168274047Y-72877142D01*
X168369285Y-72734285D01*
X168416904Y-72543809D01*
X168416904Y-72162857D01*
X168369285Y-72067619D01*
X168321666Y-72020000D01*
X168226428Y-71972380D01*
X168035952Y-71972380D01*
X167940714Y-72020000D01*
X167893095Y-72067619D01*
X167845476Y-72162857D01*
X167845476Y-72400952D01*
X167893095Y-72496190D01*
X167940714Y-72543809D01*
X168035952Y-72591428D01*
X168226428Y-72591428D01*
X168321666Y-72543809D01*
X168369285Y-72496190D01*
X168416904Y-72400952D01*
X165940714Y-75512380D02*
X165940714Y-74512380D01*
X166178809Y-74512380D01*
X166321666Y-74560000D01*
X166416904Y-74655238D01*
X166464523Y-74750476D01*
X166512142Y-74940952D01*
X166512142Y-75083809D01*
X166464523Y-75274285D01*
X166416904Y-75369523D01*
X166321666Y-75464761D01*
X166178809Y-75512380D01*
X165940714Y-75512380D01*
X167416904Y-74512380D02*
X166940714Y-74512380D01*
X166893095Y-74988571D01*
X166940714Y-74940952D01*
X167035952Y-74893333D01*
X167274047Y-74893333D01*
X167369285Y-74940952D01*
X167416904Y-74988571D01*
X167464523Y-75083809D01*
X167464523Y-75321904D01*
X167416904Y-75417142D01*
X167369285Y-75464761D01*
X167274047Y-75512380D01*
X167035952Y-75512380D01*
X166940714Y-75464761D01*
X166893095Y-75417142D01*
X168083571Y-74512380D02*
X168178809Y-74512380D01*
X168274047Y-74560000D01*
X168321666Y-74607619D01*
X168369285Y-74702857D01*
X168416904Y-74893333D01*
X168416904Y-75131428D01*
X168369285Y-75321904D01*
X168321666Y-75417142D01*
X168274047Y-75464761D01*
X168178809Y-75512380D01*
X168083571Y-75512380D01*
X167988333Y-75464761D01*
X167940714Y-75417142D01*
X167893095Y-75321904D01*
X167845476Y-75131428D01*
X167845476Y-74893333D01*
X167893095Y-74702857D01*
X167940714Y-74607619D01*
X167988333Y-74560000D01*
X168083571Y-74512380D01*
X165940714Y-78052380D02*
X165940714Y-77052380D01*
X166178809Y-77052380D01*
X166321666Y-77100000D01*
X166416904Y-77195238D01*
X166464523Y-77290476D01*
X166512142Y-77480952D01*
X166512142Y-77623809D01*
X166464523Y-77814285D01*
X166416904Y-77909523D01*
X166321666Y-78004761D01*
X166178809Y-78052380D01*
X165940714Y-78052380D01*
X167416904Y-77052380D02*
X166940714Y-77052380D01*
X166893095Y-77528571D01*
X166940714Y-77480952D01*
X167035952Y-77433333D01*
X167274047Y-77433333D01*
X167369285Y-77480952D01*
X167416904Y-77528571D01*
X167464523Y-77623809D01*
X167464523Y-77861904D01*
X167416904Y-77957142D01*
X167369285Y-78004761D01*
X167274047Y-78052380D01*
X167035952Y-78052380D01*
X166940714Y-78004761D01*
X166893095Y-77957142D01*
X168416904Y-78052380D02*
X167845476Y-78052380D01*
X168131190Y-78052380D02*
X168131190Y-77052380D01*
X168035952Y-77195238D01*
X167940714Y-77290476D01*
X167845476Y-77338095D01*
X165940714Y-80592380D02*
X165940714Y-79592380D01*
X166178809Y-79592380D01*
X166321666Y-79640000D01*
X166416904Y-79735238D01*
X166464523Y-79830476D01*
X166512142Y-80020952D01*
X166512142Y-80163809D01*
X166464523Y-80354285D01*
X166416904Y-80449523D01*
X166321666Y-80544761D01*
X166178809Y-80592380D01*
X165940714Y-80592380D01*
X167416904Y-79592380D02*
X166940714Y-79592380D01*
X166893095Y-80068571D01*
X166940714Y-80020952D01*
X167035952Y-79973333D01*
X167274047Y-79973333D01*
X167369285Y-80020952D01*
X167416904Y-80068571D01*
X167464523Y-80163809D01*
X167464523Y-80401904D01*
X167416904Y-80497142D01*
X167369285Y-80544761D01*
X167274047Y-80592380D01*
X167035952Y-80592380D01*
X166940714Y-80544761D01*
X166893095Y-80497142D01*
X167845476Y-79687619D02*
X167893095Y-79640000D01*
X167988333Y-79592380D01*
X168226428Y-79592380D01*
X168321666Y-79640000D01*
X168369285Y-79687619D01*
X168416904Y-79782857D01*
X168416904Y-79878095D01*
X168369285Y-80020952D01*
X167797857Y-80592380D01*
X168416904Y-80592380D01*
X165940714Y-83132380D02*
X165940714Y-82132380D01*
X166178809Y-82132380D01*
X166321666Y-82180000D01*
X166416904Y-82275238D01*
X166464523Y-82370476D01*
X166512142Y-82560952D01*
X166512142Y-82703809D01*
X166464523Y-82894285D01*
X166416904Y-82989523D01*
X166321666Y-83084761D01*
X166178809Y-83132380D01*
X165940714Y-83132380D01*
X167416904Y-82132380D02*
X166940714Y-82132380D01*
X166893095Y-82608571D01*
X166940714Y-82560952D01*
X167035952Y-82513333D01*
X167274047Y-82513333D01*
X167369285Y-82560952D01*
X167416904Y-82608571D01*
X167464523Y-82703809D01*
X167464523Y-82941904D01*
X167416904Y-83037142D01*
X167369285Y-83084761D01*
X167274047Y-83132380D01*
X167035952Y-83132380D01*
X166940714Y-83084761D01*
X166893095Y-83037142D01*
X167797857Y-82132380D02*
X168416904Y-82132380D01*
X168083571Y-82513333D01*
X168226428Y-82513333D01*
X168321666Y-82560952D01*
X168369285Y-82608571D01*
X168416904Y-82703809D01*
X168416904Y-82941904D01*
X168369285Y-83037142D01*
X168321666Y-83084761D01*
X168226428Y-83132380D01*
X167940714Y-83132380D01*
X167845476Y-83084761D01*
X167797857Y-83037142D01*
X165940714Y-85672380D02*
X165940714Y-84672380D01*
X166178809Y-84672380D01*
X166321666Y-84720000D01*
X166416904Y-84815238D01*
X166464523Y-84910476D01*
X166512142Y-85100952D01*
X166512142Y-85243809D01*
X166464523Y-85434285D01*
X166416904Y-85529523D01*
X166321666Y-85624761D01*
X166178809Y-85672380D01*
X165940714Y-85672380D01*
X167416904Y-84672380D02*
X166940714Y-84672380D01*
X166893095Y-85148571D01*
X166940714Y-85100952D01*
X167035952Y-85053333D01*
X167274047Y-85053333D01*
X167369285Y-85100952D01*
X167416904Y-85148571D01*
X167464523Y-85243809D01*
X167464523Y-85481904D01*
X167416904Y-85577142D01*
X167369285Y-85624761D01*
X167274047Y-85672380D01*
X167035952Y-85672380D01*
X166940714Y-85624761D01*
X166893095Y-85577142D01*
X168321666Y-85005714D02*
X168321666Y-85672380D01*
X168083571Y-84624761D02*
X167845476Y-85339047D01*
X168464523Y-85339047D01*
X165940714Y-88212380D02*
X165940714Y-87212380D01*
X166178809Y-87212380D01*
X166321666Y-87260000D01*
X166416904Y-87355238D01*
X166464523Y-87450476D01*
X166512142Y-87640952D01*
X166512142Y-87783809D01*
X166464523Y-87974285D01*
X166416904Y-88069523D01*
X166321666Y-88164761D01*
X166178809Y-88212380D01*
X165940714Y-88212380D01*
X167416904Y-87212380D02*
X166940714Y-87212380D01*
X166893095Y-87688571D01*
X166940714Y-87640952D01*
X167035952Y-87593333D01*
X167274047Y-87593333D01*
X167369285Y-87640952D01*
X167416904Y-87688571D01*
X167464523Y-87783809D01*
X167464523Y-88021904D01*
X167416904Y-88117142D01*
X167369285Y-88164761D01*
X167274047Y-88212380D01*
X167035952Y-88212380D01*
X166940714Y-88164761D01*
X166893095Y-88117142D01*
X168369285Y-87212380D02*
X167893095Y-87212380D01*
X167845476Y-87688571D01*
X167893095Y-87640952D01*
X167988333Y-87593333D01*
X168226428Y-87593333D01*
X168321666Y-87640952D01*
X168369285Y-87688571D01*
X168416904Y-87783809D01*
X168416904Y-88021904D01*
X168369285Y-88117142D01*
X168321666Y-88164761D01*
X168226428Y-88212380D01*
X167988333Y-88212380D01*
X167893095Y-88164761D01*
X167845476Y-88117142D01*
X165940714Y-90752380D02*
X165940714Y-89752380D01*
X166178809Y-89752380D01*
X166321666Y-89800000D01*
X166416904Y-89895238D01*
X166464523Y-89990476D01*
X166512142Y-90180952D01*
X166512142Y-90323809D01*
X166464523Y-90514285D01*
X166416904Y-90609523D01*
X166321666Y-90704761D01*
X166178809Y-90752380D01*
X165940714Y-90752380D01*
X167416904Y-89752380D02*
X166940714Y-89752380D01*
X166893095Y-90228571D01*
X166940714Y-90180952D01*
X167035952Y-90133333D01*
X167274047Y-90133333D01*
X167369285Y-90180952D01*
X167416904Y-90228571D01*
X167464523Y-90323809D01*
X167464523Y-90561904D01*
X167416904Y-90657142D01*
X167369285Y-90704761D01*
X167274047Y-90752380D01*
X167035952Y-90752380D01*
X166940714Y-90704761D01*
X166893095Y-90657142D01*
X168321666Y-89752380D02*
X168131190Y-89752380D01*
X168035952Y-89800000D01*
X167988333Y-89847619D01*
X167893095Y-89990476D01*
X167845476Y-90180952D01*
X167845476Y-90561904D01*
X167893095Y-90657142D01*
X167940714Y-90704761D01*
X168035952Y-90752380D01*
X168226428Y-90752380D01*
X168321666Y-90704761D01*
X168369285Y-90657142D01*
X168416904Y-90561904D01*
X168416904Y-90323809D01*
X168369285Y-90228571D01*
X168321666Y-90180952D01*
X168226428Y-90133333D01*
X168035952Y-90133333D01*
X167940714Y-90180952D01*
X167893095Y-90228571D01*
X167845476Y-90323809D01*
X172290714Y-72972380D02*
X172290714Y-71972380D01*
X172528809Y-71972380D01*
X172671666Y-72020000D01*
X172766904Y-72115238D01*
X172814523Y-72210476D01*
X172862142Y-72400952D01*
X172862142Y-72543809D01*
X172814523Y-72734285D01*
X172766904Y-72829523D01*
X172671666Y-72924761D01*
X172528809Y-72972380D01*
X172290714Y-72972380D01*
X173766904Y-71972380D02*
X173290714Y-71972380D01*
X173243095Y-72448571D01*
X173290714Y-72400952D01*
X173385952Y-72353333D01*
X173624047Y-72353333D01*
X173719285Y-72400952D01*
X173766904Y-72448571D01*
X173814523Y-72543809D01*
X173814523Y-72781904D01*
X173766904Y-72877142D01*
X173719285Y-72924761D01*
X173624047Y-72972380D01*
X173385952Y-72972380D01*
X173290714Y-72924761D01*
X173243095Y-72877142D01*
X174147857Y-71972380D02*
X174814523Y-71972380D01*
X174385952Y-72972380D01*
X172290714Y-75512380D02*
X172290714Y-74512380D01*
X172528809Y-74512380D01*
X172671666Y-74560000D01*
X172766904Y-74655238D01*
X172814523Y-74750476D01*
X172862142Y-74940952D01*
X172862142Y-75083809D01*
X172814523Y-75274285D01*
X172766904Y-75369523D01*
X172671666Y-75464761D01*
X172528809Y-75512380D01*
X172290714Y-75512380D01*
X173766904Y-74512380D02*
X173290714Y-74512380D01*
X173243095Y-74988571D01*
X173290714Y-74940952D01*
X173385952Y-74893333D01*
X173624047Y-74893333D01*
X173719285Y-74940952D01*
X173766904Y-74988571D01*
X173814523Y-75083809D01*
X173814523Y-75321904D01*
X173766904Y-75417142D01*
X173719285Y-75464761D01*
X173624047Y-75512380D01*
X173385952Y-75512380D01*
X173290714Y-75464761D01*
X173243095Y-75417142D01*
X174385952Y-74940952D02*
X174290714Y-74893333D01*
X174243095Y-74845714D01*
X174195476Y-74750476D01*
X174195476Y-74702857D01*
X174243095Y-74607619D01*
X174290714Y-74560000D01*
X174385952Y-74512380D01*
X174576428Y-74512380D01*
X174671666Y-74560000D01*
X174719285Y-74607619D01*
X174766904Y-74702857D01*
X174766904Y-74750476D01*
X174719285Y-74845714D01*
X174671666Y-74893333D01*
X174576428Y-74940952D01*
X174385952Y-74940952D01*
X174290714Y-74988571D01*
X174243095Y-75036190D01*
X174195476Y-75131428D01*
X174195476Y-75321904D01*
X174243095Y-75417142D01*
X174290714Y-75464761D01*
X174385952Y-75512380D01*
X174576428Y-75512380D01*
X174671666Y-75464761D01*
X174719285Y-75417142D01*
X174766904Y-75321904D01*
X174766904Y-75131428D01*
X174719285Y-75036190D01*
X174671666Y-74988571D01*
X174576428Y-74940952D01*
X172290714Y-78052380D02*
X172290714Y-77052380D01*
X172528809Y-77052380D01*
X172671666Y-77100000D01*
X172766904Y-77195238D01*
X172814523Y-77290476D01*
X172862142Y-77480952D01*
X172862142Y-77623809D01*
X172814523Y-77814285D01*
X172766904Y-77909523D01*
X172671666Y-78004761D01*
X172528809Y-78052380D01*
X172290714Y-78052380D01*
X173766904Y-77052380D02*
X173290714Y-77052380D01*
X173243095Y-77528571D01*
X173290714Y-77480952D01*
X173385952Y-77433333D01*
X173624047Y-77433333D01*
X173719285Y-77480952D01*
X173766904Y-77528571D01*
X173814523Y-77623809D01*
X173814523Y-77861904D01*
X173766904Y-77957142D01*
X173719285Y-78004761D01*
X173624047Y-78052380D01*
X173385952Y-78052380D01*
X173290714Y-78004761D01*
X173243095Y-77957142D01*
X174290714Y-78052380D02*
X174481190Y-78052380D01*
X174576428Y-78004761D01*
X174624047Y-77957142D01*
X174719285Y-77814285D01*
X174766904Y-77623809D01*
X174766904Y-77242857D01*
X174719285Y-77147619D01*
X174671666Y-77100000D01*
X174576428Y-77052380D01*
X174385952Y-77052380D01*
X174290714Y-77100000D01*
X174243095Y-77147619D01*
X174195476Y-77242857D01*
X174195476Y-77480952D01*
X174243095Y-77576190D01*
X174290714Y-77623809D01*
X174385952Y-77671428D01*
X174576428Y-77671428D01*
X174671666Y-77623809D01*
X174719285Y-77576190D01*
X174766904Y-77480952D01*
X172290714Y-80592380D02*
X172290714Y-79592380D01*
X172528809Y-79592380D01*
X172671666Y-79640000D01*
X172766904Y-79735238D01*
X172814523Y-79830476D01*
X172862142Y-80020952D01*
X172862142Y-80163809D01*
X172814523Y-80354285D01*
X172766904Y-80449523D01*
X172671666Y-80544761D01*
X172528809Y-80592380D01*
X172290714Y-80592380D01*
X173719285Y-79592380D02*
X173528809Y-79592380D01*
X173433571Y-79640000D01*
X173385952Y-79687619D01*
X173290714Y-79830476D01*
X173243095Y-80020952D01*
X173243095Y-80401904D01*
X173290714Y-80497142D01*
X173338333Y-80544761D01*
X173433571Y-80592380D01*
X173624047Y-80592380D01*
X173719285Y-80544761D01*
X173766904Y-80497142D01*
X173814523Y-80401904D01*
X173814523Y-80163809D01*
X173766904Y-80068571D01*
X173719285Y-80020952D01*
X173624047Y-79973333D01*
X173433571Y-79973333D01*
X173338333Y-80020952D01*
X173290714Y-80068571D01*
X173243095Y-80163809D01*
X174433571Y-79592380D02*
X174528809Y-79592380D01*
X174624047Y-79640000D01*
X174671666Y-79687619D01*
X174719285Y-79782857D01*
X174766904Y-79973333D01*
X174766904Y-80211428D01*
X174719285Y-80401904D01*
X174671666Y-80497142D01*
X174624047Y-80544761D01*
X174528809Y-80592380D01*
X174433571Y-80592380D01*
X174338333Y-80544761D01*
X174290714Y-80497142D01*
X174243095Y-80401904D01*
X174195476Y-80211428D01*
X174195476Y-79973333D01*
X174243095Y-79782857D01*
X174290714Y-79687619D01*
X174338333Y-79640000D01*
X174433571Y-79592380D01*
X172290714Y-83127380D02*
X172290714Y-82127380D01*
X172528809Y-82127380D01*
X172671666Y-82175000D01*
X172766904Y-82270238D01*
X172814523Y-82365476D01*
X172862142Y-82555952D01*
X172862142Y-82698809D01*
X172814523Y-82889285D01*
X172766904Y-82984523D01*
X172671666Y-83079761D01*
X172528809Y-83127380D01*
X172290714Y-83127380D01*
X173719285Y-82127380D02*
X173528809Y-82127380D01*
X173433571Y-82175000D01*
X173385952Y-82222619D01*
X173290714Y-82365476D01*
X173243095Y-82555952D01*
X173243095Y-82936904D01*
X173290714Y-83032142D01*
X173338333Y-83079761D01*
X173433571Y-83127380D01*
X173624047Y-83127380D01*
X173719285Y-83079761D01*
X173766904Y-83032142D01*
X173814523Y-82936904D01*
X173814523Y-82698809D01*
X173766904Y-82603571D01*
X173719285Y-82555952D01*
X173624047Y-82508333D01*
X173433571Y-82508333D01*
X173338333Y-82555952D01*
X173290714Y-82603571D01*
X173243095Y-82698809D01*
X174766904Y-83127380D02*
X174195476Y-83127380D01*
X174481190Y-83127380D02*
X174481190Y-82127380D01*
X174385952Y-82270238D01*
X174290714Y-82365476D01*
X174195476Y-82413095D01*
X172290714Y-85672380D02*
X172290714Y-84672380D01*
X172528809Y-84672380D01*
X172671666Y-84720000D01*
X172766904Y-84815238D01*
X172814523Y-84910476D01*
X172862142Y-85100952D01*
X172862142Y-85243809D01*
X172814523Y-85434285D01*
X172766904Y-85529523D01*
X172671666Y-85624761D01*
X172528809Y-85672380D01*
X172290714Y-85672380D01*
X173719285Y-84672380D02*
X173528809Y-84672380D01*
X173433571Y-84720000D01*
X173385952Y-84767619D01*
X173290714Y-84910476D01*
X173243095Y-85100952D01*
X173243095Y-85481904D01*
X173290714Y-85577142D01*
X173338333Y-85624761D01*
X173433571Y-85672380D01*
X173624047Y-85672380D01*
X173719285Y-85624761D01*
X173766904Y-85577142D01*
X173814523Y-85481904D01*
X173814523Y-85243809D01*
X173766904Y-85148571D01*
X173719285Y-85100952D01*
X173624047Y-85053333D01*
X173433571Y-85053333D01*
X173338333Y-85100952D01*
X173290714Y-85148571D01*
X173243095Y-85243809D01*
X174195476Y-84767619D02*
X174243095Y-84720000D01*
X174338333Y-84672380D01*
X174576428Y-84672380D01*
X174671666Y-84720000D01*
X174719285Y-84767619D01*
X174766904Y-84862857D01*
X174766904Y-84958095D01*
X174719285Y-85100952D01*
X174147857Y-85672380D01*
X174766904Y-85672380D01*
X172290714Y-88212380D02*
X172290714Y-87212380D01*
X172528809Y-87212380D01*
X172671666Y-87260000D01*
X172766904Y-87355238D01*
X172814523Y-87450476D01*
X172862142Y-87640952D01*
X172862142Y-87783809D01*
X172814523Y-87974285D01*
X172766904Y-88069523D01*
X172671666Y-88164761D01*
X172528809Y-88212380D01*
X172290714Y-88212380D01*
X173719285Y-87212380D02*
X173528809Y-87212380D01*
X173433571Y-87260000D01*
X173385952Y-87307619D01*
X173290714Y-87450476D01*
X173243095Y-87640952D01*
X173243095Y-88021904D01*
X173290714Y-88117142D01*
X173338333Y-88164761D01*
X173433571Y-88212380D01*
X173624047Y-88212380D01*
X173719285Y-88164761D01*
X173766904Y-88117142D01*
X173814523Y-88021904D01*
X173814523Y-87783809D01*
X173766904Y-87688571D01*
X173719285Y-87640952D01*
X173624047Y-87593333D01*
X173433571Y-87593333D01*
X173338333Y-87640952D01*
X173290714Y-87688571D01*
X173243095Y-87783809D01*
X174147857Y-87212380D02*
X174766904Y-87212380D01*
X174433571Y-87593333D01*
X174576428Y-87593333D01*
X174671666Y-87640952D01*
X174719285Y-87688571D01*
X174766904Y-87783809D01*
X174766904Y-88021904D01*
X174719285Y-88117142D01*
X174671666Y-88164761D01*
X174576428Y-88212380D01*
X174290714Y-88212380D01*
X174195476Y-88164761D01*
X174147857Y-88117142D01*
X172290714Y-90752380D02*
X172290714Y-89752380D01*
X172528809Y-89752380D01*
X172671666Y-89800000D01*
X172766904Y-89895238D01*
X172814523Y-89990476D01*
X172862142Y-90180952D01*
X172862142Y-90323809D01*
X172814523Y-90514285D01*
X172766904Y-90609523D01*
X172671666Y-90704761D01*
X172528809Y-90752380D01*
X172290714Y-90752380D01*
X173719285Y-89752380D02*
X173528809Y-89752380D01*
X173433571Y-89800000D01*
X173385952Y-89847619D01*
X173290714Y-89990476D01*
X173243095Y-90180952D01*
X173243095Y-90561904D01*
X173290714Y-90657142D01*
X173338333Y-90704761D01*
X173433571Y-90752380D01*
X173624047Y-90752380D01*
X173719285Y-90704761D01*
X173766904Y-90657142D01*
X173814523Y-90561904D01*
X173814523Y-90323809D01*
X173766904Y-90228571D01*
X173719285Y-90180952D01*
X173624047Y-90133333D01*
X173433571Y-90133333D01*
X173338333Y-90180952D01*
X173290714Y-90228571D01*
X173243095Y-90323809D01*
X174671666Y-90085714D02*
X174671666Y-90752380D01*
X174433571Y-89704761D02*
X174195476Y-90419047D01*
X174814523Y-90419047D01*
X116506666Y-69512380D02*
X116506666Y-70226666D01*
X116459047Y-70369523D01*
X116363809Y-70464761D01*
X116220952Y-70512380D01*
X116125714Y-70512380D01*
X117506666Y-70512380D02*
X116935238Y-70512380D01*
X117220952Y-70512380D02*
X117220952Y-69512380D01*
X117125714Y-69655238D01*
X117030476Y-69750476D01*
X116935238Y-69798095D01*
X123033333Y-72852380D02*
X122700000Y-72376190D01*
X122461904Y-72852380D02*
X122461904Y-71852380D01*
X122842857Y-71852380D01*
X122938095Y-71900000D01*
X122985714Y-71947619D01*
X123033333Y-72042857D01*
X123033333Y-72185714D01*
X122985714Y-72280952D01*
X122938095Y-72328571D01*
X122842857Y-72376190D01*
X122461904Y-72376190D01*
X123985714Y-72852380D02*
X123414285Y-72852380D01*
X123700000Y-72852380D02*
X123700000Y-71852380D01*
X123604761Y-71995238D01*
X123509523Y-72090476D01*
X123414285Y-72138095D01*
X123023333Y-75382380D02*
X122690000Y-74906190D01*
X122451904Y-75382380D02*
X122451904Y-74382380D01*
X122832857Y-74382380D01*
X122928095Y-74430000D01*
X122975714Y-74477619D01*
X123023333Y-74572857D01*
X123023333Y-74715714D01*
X122975714Y-74810952D01*
X122928095Y-74858571D01*
X122832857Y-74906190D01*
X122451904Y-74906190D01*
X123404285Y-74477619D02*
X123451904Y-74430000D01*
X123547142Y-74382380D01*
X123785238Y-74382380D01*
X123880476Y-74430000D01*
X123928095Y-74477619D01*
X123975714Y-74572857D01*
X123975714Y-74668095D01*
X123928095Y-74810952D01*
X123356666Y-75382380D01*
X123975714Y-75382380D01*
X123138333Y-77922380D02*
X122805000Y-77446190D01*
X122566904Y-77922380D02*
X122566904Y-76922380D01*
X122947857Y-76922380D01*
X123043095Y-76970000D01*
X123090714Y-77017619D01*
X123138333Y-77112857D01*
X123138333Y-77255714D01*
X123090714Y-77350952D01*
X123043095Y-77398571D01*
X122947857Y-77446190D01*
X122566904Y-77446190D01*
X123471666Y-76922380D02*
X124090714Y-76922380D01*
X123757380Y-77303333D01*
X123900238Y-77303333D01*
X123995476Y-77350952D01*
X124043095Y-77398571D01*
X124090714Y-77493809D01*
X124090714Y-77731904D01*
X124043095Y-77827142D01*
X123995476Y-77874761D01*
X123900238Y-77922380D01*
X123614523Y-77922380D01*
X123519285Y-77874761D01*
X123471666Y-77827142D01*
X123023333Y-80462380D02*
X122690000Y-79986190D01*
X122451904Y-80462380D02*
X122451904Y-79462380D01*
X122832857Y-79462380D01*
X122928095Y-79510000D01*
X122975714Y-79557619D01*
X123023333Y-79652857D01*
X123023333Y-79795714D01*
X122975714Y-79890952D01*
X122928095Y-79938571D01*
X122832857Y-79986190D01*
X122451904Y-79986190D01*
X123880476Y-79795714D02*
X123880476Y-80462380D01*
X123642380Y-79414761D02*
X123404285Y-80129047D01*
X124023333Y-80129047D01*
X123023333Y-83002380D02*
X122690000Y-82526190D01*
X122451904Y-83002380D02*
X122451904Y-82002380D01*
X122832857Y-82002380D01*
X122928095Y-82050000D01*
X122975714Y-82097619D01*
X123023333Y-82192857D01*
X123023333Y-82335714D01*
X122975714Y-82430952D01*
X122928095Y-82478571D01*
X122832857Y-82526190D01*
X122451904Y-82526190D01*
X123928095Y-82002380D02*
X123451904Y-82002380D01*
X123404285Y-82478571D01*
X123451904Y-82430952D01*
X123547142Y-82383333D01*
X123785238Y-82383333D01*
X123880476Y-82430952D01*
X123928095Y-82478571D01*
X123975714Y-82573809D01*
X123975714Y-82811904D01*
X123928095Y-82907142D01*
X123880476Y-82954761D01*
X123785238Y-83002380D01*
X123547142Y-83002380D01*
X123451904Y-82954761D01*
X123404285Y-82907142D01*
X123023333Y-85542380D02*
X122690000Y-85066190D01*
X122451904Y-85542380D02*
X122451904Y-84542380D01*
X122832857Y-84542380D01*
X122928095Y-84590000D01*
X122975714Y-84637619D01*
X123023333Y-84732857D01*
X123023333Y-84875714D01*
X122975714Y-84970952D01*
X122928095Y-85018571D01*
X122832857Y-85066190D01*
X122451904Y-85066190D01*
X123880476Y-84542380D02*
X123690000Y-84542380D01*
X123594761Y-84590000D01*
X123547142Y-84637619D01*
X123451904Y-84780476D01*
X123404285Y-84970952D01*
X123404285Y-85351904D01*
X123451904Y-85447142D01*
X123499523Y-85494761D01*
X123594761Y-85542380D01*
X123785238Y-85542380D01*
X123880476Y-85494761D01*
X123928095Y-85447142D01*
X123975714Y-85351904D01*
X123975714Y-85113809D01*
X123928095Y-85018571D01*
X123880476Y-84970952D01*
X123785238Y-84923333D01*
X123594761Y-84923333D01*
X123499523Y-84970952D01*
X123451904Y-85018571D01*
X123404285Y-85113809D01*
X123138333Y-88082380D02*
X122805000Y-87606190D01*
X122566904Y-88082380D02*
X122566904Y-87082380D01*
X122947857Y-87082380D01*
X123043095Y-87130000D01*
X123090714Y-87177619D01*
X123138333Y-87272857D01*
X123138333Y-87415714D01*
X123090714Y-87510952D01*
X123043095Y-87558571D01*
X122947857Y-87606190D01*
X122566904Y-87606190D01*
X123471666Y-87082380D02*
X124138333Y-87082380D01*
X123709761Y-88082380D01*
X123023333Y-90622380D02*
X122690000Y-90146190D01*
X122451904Y-90622380D02*
X122451904Y-89622380D01*
X122832857Y-89622380D01*
X122928095Y-89670000D01*
X122975714Y-89717619D01*
X123023333Y-89812857D01*
X123023333Y-89955714D01*
X122975714Y-90050952D01*
X122928095Y-90098571D01*
X122832857Y-90146190D01*
X122451904Y-90146190D01*
X123594761Y-90050952D02*
X123499523Y-90003333D01*
X123451904Y-89955714D01*
X123404285Y-89860476D01*
X123404285Y-89812857D01*
X123451904Y-89717619D01*
X123499523Y-89670000D01*
X123594761Y-89622380D01*
X123785238Y-89622380D01*
X123880476Y-89670000D01*
X123928095Y-89717619D01*
X123975714Y-89812857D01*
X123975714Y-89860476D01*
X123928095Y-89955714D01*
X123880476Y-90003333D01*
X123785238Y-90050952D01*
X123594761Y-90050952D01*
X123499523Y-90098571D01*
X123451904Y-90146190D01*
X123404285Y-90241428D01*
X123404285Y-90431904D01*
X123451904Y-90527142D01*
X123499523Y-90574761D01*
X123594761Y-90622380D01*
X123785238Y-90622380D01*
X123880476Y-90574761D01*
X123928095Y-90527142D01*
X123975714Y-90431904D01*
X123975714Y-90241428D01*
X123928095Y-90146190D01*
X123880476Y-90098571D01*
X123785238Y-90050952D01*
X128316904Y-72972380D02*
X128316904Y-71972380D01*
X128555000Y-71972380D01*
X128697857Y-72020000D01*
X128793095Y-72115238D01*
X128840714Y-72210476D01*
X128888333Y-72400952D01*
X128888333Y-72543809D01*
X128840714Y-72734285D01*
X128793095Y-72829523D01*
X128697857Y-72924761D01*
X128555000Y-72972380D01*
X128316904Y-72972380D01*
X129840714Y-72972380D02*
X129269285Y-72972380D01*
X129555000Y-72972380D02*
X129555000Y-71972380D01*
X129459761Y-72115238D01*
X129364523Y-72210476D01*
X129269285Y-72258095D01*
%LPC*%
D12*
X146530000Y-67250000D03*
D13*
X143990000Y-67250000D03*
X141450000Y-67250000D03*
X138910000Y-67250000D03*
X136370000Y-67250000D03*
X133830000Y-67250000D03*
X131290000Y-67250000D03*
X128750000Y-67250000D03*
D14*
X125935000Y-74200000D03*
X125935000Y-75860000D03*
D15*
X125935000Y-75030000D03*
D14*
X125935000Y-76740000D03*
X125935000Y-78400000D03*
D15*
X125935000Y-77570000D03*
D14*
X125935000Y-79280000D03*
X125935000Y-80940000D03*
D15*
X125935000Y-80110000D03*
D14*
X125935000Y-81820000D03*
X125935000Y-83480000D03*
D15*
X125935000Y-82650000D03*
D14*
X125935000Y-84360000D03*
X125935000Y-86020000D03*
D15*
X125935000Y-85190000D03*
D14*
X125935000Y-86900000D03*
X125935000Y-88560000D03*
D15*
X125935000Y-87730000D03*
D14*
X125935000Y-89440000D03*
X125935000Y-91100000D03*
D15*
X125935000Y-90270000D03*
D14*
X132285000Y-71660000D03*
X132285000Y-73320000D03*
D15*
X132285000Y-72490000D03*
D14*
X132285000Y-74200000D03*
X132285000Y-75860000D03*
D15*
X132285000Y-75030000D03*
D14*
X132285000Y-76740000D03*
X132285000Y-78400000D03*
D15*
X132285000Y-77570000D03*
D14*
X132285000Y-79280000D03*
X132285000Y-80940000D03*
D15*
X132285000Y-80110000D03*
D14*
X132285000Y-81820000D03*
X132285000Y-83480000D03*
D15*
X132285000Y-82650000D03*
D14*
X132285000Y-84360000D03*
X132285000Y-86020000D03*
D15*
X132285000Y-85190000D03*
D14*
X132285000Y-86900000D03*
X132285000Y-88560000D03*
D15*
X132285000Y-87730000D03*
D14*
X132285000Y-89440000D03*
X132285000Y-91100000D03*
D15*
X132285000Y-90270000D03*
D14*
X138635000Y-71660000D03*
X138635000Y-73320000D03*
D15*
X138635000Y-72490000D03*
D14*
X138635000Y-74200000D03*
X138635000Y-75860000D03*
D15*
X138635000Y-75030000D03*
D14*
X138635000Y-76740000D03*
X138635000Y-78400000D03*
D15*
X138635000Y-77570000D03*
D14*
X138635000Y-79280000D03*
X138635000Y-80940000D03*
D15*
X138635000Y-80110000D03*
D14*
X138635000Y-81820000D03*
X138635000Y-83480000D03*
D15*
X138635000Y-82650000D03*
D14*
X138635000Y-84360000D03*
X138635000Y-86020000D03*
D15*
X138635000Y-85190000D03*
D14*
X138635000Y-86900000D03*
X138635000Y-88560000D03*
D15*
X138635000Y-87730000D03*
D14*
X138635000Y-89440000D03*
X138635000Y-91100000D03*
D15*
X138635000Y-90270000D03*
D14*
X144985000Y-71660000D03*
X144985000Y-73320000D03*
D15*
X144985000Y-72490000D03*
D14*
X144985000Y-74200000D03*
X144985000Y-75860000D03*
D15*
X144985000Y-75030000D03*
D14*
X144985000Y-76740000D03*
X144985000Y-78400000D03*
D15*
X144985000Y-77570000D03*
D14*
X144985000Y-79280000D03*
X144985000Y-80940000D03*
D15*
X144985000Y-80110000D03*
D14*
X144985000Y-81820000D03*
X144985000Y-83480000D03*
D15*
X144985000Y-82650000D03*
D14*
X144985000Y-84360000D03*
X144985000Y-86020000D03*
D15*
X144985000Y-85190000D03*
D14*
X144985000Y-86900000D03*
X144985000Y-88560000D03*
D15*
X144985000Y-87730000D03*
D14*
X144985000Y-89440000D03*
X144985000Y-91100000D03*
D15*
X144985000Y-90270000D03*
D14*
X151335000Y-71660000D03*
X151335000Y-73320000D03*
D15*
X151335000Y-72490000D03*
D14*
X151335000Y-74200000D03*
X151335000Y-75860000D03*
D15*
X151335000Y-75030000D03*
D14*
X151335000Y-76740000D03*
X151335000Y-78400000D03*
D15*
X151335000Y-77570000D03*
D14*
X151335000Y-79280000D03*
X151335000Y-80940000D03*
D15*
X151335000Y-80110000D03*
D14*
X151335000Y-81820000D03*
X151335000Y-83480000D03*
D15*
X151335000Y-82650000D03*
D14*
X151335000Y-84360000D03*
X151335000Y-86020000D03*
D15*
X151335000Y-85190000D03*
D14*
X151335000Y-86900000D03*
X151335000Y-88560000D03*
D15*
X151335000Y-87730000D03*
D14*
X151335000Y-89435000D03*
X151335000Y-91095000D03*
D15*
X151335000Y-90265000D03*
D14*
X157685000Y-71660000D03*
X157685000Y-73320000D03*
D15*
X157685000Y-72490000D03*
D14*
X157685000Y-74200000D03*
X157685000Y-75860000D03*
D15*
X157685000Y-75030000D03*
D14*
X157685000Y-76740000D03*
X157685000Y-78400000D03*
D15*
X157685000Y-77570000D03*
D14*
X157685000Y-79280000D03*
X157685000Y-80940000D03*
D15*
X157685000Y-80110000D03*
D14*
X157685000Y-81820000D03*
X157685000Y-83480000D03*
D15*
X157685000Y-82650000D03*
D14*
X157685000Y-84360000D03*
X157685000Y-86020000D03*
D15*
X157685000Y-85190000D03*
D14*
X157685000Y-86900000D03*
X157685000Y-88560000D03*
D15*
X157685000Y-87730000D03*
D14*
X157685000Y-89440000D03*
X157685000Y-91100000D03*
D15*
X157685000Y-90270000D03*
D14*
X164035000Y-71660000D03*
X164035000Y-73320000D03*
D15*
X164035000Y-72490000D03*
D14*
X164035000Y-74200000D03*
X164035000Y-75860000D03*
D15*
X164035000Y-75030000D03*
D14*
X164035000Y-76740000D03*
X164035000Y-78400000D03*
D15*
X164035000Y-77570000D03*
D14*
X164035000Y-79280000D03*
X164035000Y-80940000D03*
D15*
X164035000Y-80110000D03*
D14*
X164035000Y-81820000D03*
X164035000Y-83480000D03*
D15*
X164035000Y-82650000D03*
D14*
X164035000Y-84360000D03*
X164035000Y-86020000D03*
D15*
X164035000Y-85190000D03*
D14*
X164035000Y-86900000D03*
X164035000Y-88560000D03*
D15*
X164035000Y-87730000D03*
D14*
X164035000Y-89440000D03*
X164035000Y-91100000D03*
D15*
X164035000Y-90270000D03*
D14*
X170385000Y-71660000D03*
X170385000Y-73320000D03*
D15*
X170385000Y-72490000D03*
D14*
X170385000Y-74200000D03*
X170385000Y-75860000D03*
D15*
X170385000Y-75030000D03*
D14*
X170385000Y-76740000D03*
X170385000Y-78400000D03*
D15*
X170385000Y-77570000D03*
D14*
X170385000Y-79280000D03*
X170385000Y-80940000D03*
D15*
X170385000Y-80110000D03*
D14*
X170385000Y-81815000D03*
X170385000Y-83475000D03*
D15*
X170385000Y-82645000D03*
D14*
X170385000Y-84360000D03*
X170385000Y-86020000D03*
D15*
X170385000Y-85190000D03*
D14*
X170385000Y-86900000D03*
X170385000Y-88560000D03*
D15*
X170385000Y-87730000D03*
D14*
X170385000Y-89440000D03*
X170385000Y-91100000D03*
D15*
X170385000Y-90270000D03*
D12*
X116840000Y-72390000D03*
D13*
X116840000Y-74930000D03*
X116840000Y-77470000D03*
X116840000Y-80010000D03*
X116840000Y-82550000D03*
X116840000Y-85090000D03*
X116840000Y-87630000D03*
X116840000Y-90170000D03*
D16*
X121515000Y-72390000D03*
X120015000Y-72390000D03*
X121515000Y-74930000D03*
X120015000Y-74930000D03*
X121515000Y-77470000D03*
X120015000Y-77470000D03*
X121515000Y-80010000D03*
X120015000Y-80010000D03*
X121515000Y-82550000D03*
X120015000Y-82550000D03*
X121515000Y-85090000D03*
X120015000Y-85090000D03*
X121515000Y-87630000D03*
X120015000Y-87630000D03*
X121515000Y-90170000D03*
X120015000Y-90170000D03*
D14*
X125935000Y-71660000D03*
X125935000Y-73320000D03*
D15*
X125935000Y-72490000D03*
M02*
