%TF.GenerationSoftware,KiCad,Pcbnew,(5.1.9)-1*%
%TF.CreationDate,2021-06-01T09:40:16-07:00*%
%TF.ProjectId,Reverse_Mount_SMT_LED_PoC,52657665-7273-4655-9f4d-6f756e745f53,rev?*%
%TF.SameCoordinates,Original*%
%TF.FileFunction,Copper,L2,Bot*%
%TF.FilePolarity,Positive*%
%FSLAX46Y46*%
G04 Gerber Fmt 4.6, Leading zero omitted, Abs format (unit mm)*
G04 Created by KiCad (PCBNEW (5.1.9)-1) date 2021-06-01 09:40:16*
%MOMM*%
%LPD*%
G01*
G04 APERTURE LIST*
%TA.AperFunction,ComponentPad*%
%ADD10R,1.700000X1.700000*%
%TD*%
%TA.AperFunction,ComponentPad*%
%ADD11O,1.700000X1.700000*%
%TD*%
%TA.AperFunction,ViaPad*%
%ADD12C,0.800000*%
%TD*%
%TA.AperFunction,Conductor*%
%ADD13C,0.200000*%
%TD*%
%TA.AperFunction,Conductor*%
%ADD14C,0.250000*%
%TD*%
G04 APERTURE END LIST*
D10*
X146530000Y-67250000D03*
D11*
X143990000Y-67250000D03*
X141450000Y-67250000D03*
X138910000Y-67250000D03*
X136370000Y-67250000D03*
X133830000Y-67250000D03*
X131290000Y-67250000D03*
X128750000Y-67250000D03*
D10*
X116840000Y-72390000D03*
D11*
X116840000Y-74930000D03*
X116840000Y-77470000D03*
X116840000Y-80010000D03*
X116840000Y-82550000D03*
X116840000Y-85090000D03*
X116840000Y-87630000D03*
X116840000Y-90170000D03*
D12*
X128750000Y-71700000D03*
X128750000Y-74200000D03*
X128750000Y-76700000D03*
X128750000Y-79200000D03*
X128750000Y-81800000D03*
X128750000Y-84300000D03*
X128750000Y-86800000D03*
X128750000Y-89400000D03*
X134950000Y-74200000D03*
X134950000Y-84300000D03*
X134950000Y-89400000D03*
X134950000Y-76700000D03*
X134950000Y-81800000D03*
X134950000Y-86800000D03*
X134950000Y-71700000D03*
X134950000Y-79200000D03*
X141450000Y-81800000D03*
X141450000Y-84300000D03*
X141450000Y-86800000D03*
X141450000Y-71700000D03*
X141450000Y-74200000D03*
X141450000Y-76700000D03*
X141450000Y-89400000D03*
X141450000Y-79200000D03*
X147450000Y-76700000D03*
X147450000Y-81800000D03*
X147450000Y-86800000D03*
X147450000Y-71700000D03*
X147450000Y-84300000D03*
X147450000Y-74200000D03*
X147450000Y-89400000D03*
X147450000Y-79200000D03*
X153750000Y-71700000D03*
X153750000Y-89400000D03*
X153750000Y-81800000D03*
X153750000Y-84300000D03*
X153750000Y-74200000D03*
X153750000Y-76700000D03*
X153750000Y-86800000D03*
X153750000Y-79200000D03*
X160150000Y-84300000D03*
X160150000Y-74200000D03*
X160150000Y-76700000D03*
X160150000Y-86800000D03*
X160150000Y-79200000D03*
X160150000Y-71700000D03*
X160150000Y-89400000D03*
X160150000Y-81800000D03*
X166550000Y-84300000D03*
X166550000Y-74200000D03*
X166550000Y-76700000D03*
X166550000Y-86800000D03*
X166550000Y-79200000D03*
X166550000Y-71700000D03*
X166550000Y-89400000D03*
X166550000Y-81800000D03*
X168150000Y-79200000D03*
X168150000Y-89400000D03*
X168150000Y-76700000D03*
X168150000Y-81800000D03*
X168150000Y-84300000D03*
X168150000Y-86800000D03*
X168150000Y-74200000D03*
X168150000Y-71700000D03*
D13*
X128750000Y-67450000D02*
X128750000Y-71700000D01*
X128750000Y-71700000D02*
X128750000Y-74200000D01*
X128750000Y-74200000D02*
X128750000Y-76700000D01*
X128750000Y-76700000D02*
X128750000Y-79200000D01*
X128750000Y-79200000D02*
X128750000Y-81800000D01*
X128750000Y-81800000D02*
X128750000Y-84300000D01*
X128750000Y-84300000D02*
X128750000Y-86800000D01*
X128750000Y-86800000D02*
X128750000Y-89400000D01*
D14*
X131290000Y-67250000D02*
X131290000Y-68040000D01*
X131290000Y-68040000D02*
X134950000Y-71700000D01*
X134950000Y-71700000D02*
X134950000Y-76700000D01*
X134950000Y-76700000D02*
X134950000Y-79200000D01*
X134950000Y-79200000D02*
X134950000Y-81800000D01*
X134950000Y-81800000D02*
X134950000Y-84300000D01*
X134950000Y-84300000D02*
X134950000Y-86800000D01*
X134950000Y-86800000D02*
X134950000Y-89400000D01*
X140850000Y-71100000D02*
X141450000Y-71700000D01*
X137680000Y-71100000D02*
X140850000Y-71100000D01*
X133830000Y-67250000D02*
X137680000Y-71100000D01*
X141450000Y-71700000D02*
X141450000Y-74200000D01*
X141450000Y-74200000D02*
X141450000Y-76700000D01*
X141450000Y-76700000D02*
X141450000Y-79200000D01*
X141450000Y-79200000D02*
X141450000Y-81800000D01*
X141450000Y-81800000D02*
X141450000Y-89400000D01*
X146250000Y-70500000D02*
X147450000Y-71700000D01*
X139620000Y-70500000D02*
X146250000Y-70500000D01*
X136370000Y-67250000D02*
X139620000Y-70500000D01*
X147450000Y-71700000D02*
X147450000Y-89400000D01*
X151950000Y-69900000D02*
X153750000Y-71700000D01*
X141560000Y-69900000D02*
X151950000Y-69900000D01*
X138910000Y-67250000D02*
X141560000Y-69900000D01*
X153750000Y-71700000D02*
X153750000Y-89400000D01*
X157750000Y-69300000D02*
X160150000Y-71700000D01*
X143500000Y-69300000D02*
X157750000Y-69300000D01*
X141450000Y-67250000D02*
X143500000Y-69300000D01*
X160150000Y-71700000D02*
X160150000Y-89400000D01*
X163550000Y-68700000D02*
X166550000Y-71700000D01*
X145440000Y-68700000D02*
X163550000Y-68700000D01*
X143990000Y-67250000D02*
X145440000Y-68700000D01*
X166550000Y-71700000D02*
X166550000Y-89400000D01*
X163700000Y-67250000D02*
X168150000Y-71700000D01*
X146530000Y-67250000D02*
X163700000Y-67250000D01*
X168150000Y-71700000D02*
X168150000Y-89400000D01*
M02*
