%TF.GenerationSoftware,KiCad,Pcbnew,(5.1.9)-1*%
%TF.CreationDate,2021-06-01T09:40:16-07:00*%
%TF.ProjectId,Reverse_Mount_SMT_LED_PoC,52657665-7273-4655-9f4d-6f756e745f53,rev?*%
%TF.SameCoordinates,Original*%
%TF.FileFunction,Paste,Top*%
%TF.FilePolarity,Positive*%
%FSLAX46Y46*%
G04 Gerber Fmt 4.6, Leading zero omitted, Abs format (unit mm)*
G04 Created by KiCad (PCBNEW (5.1.9)-1) date 2021-06-01 09:40:16*
%MOMM*%
%LPD*%
G01*
G04 APERTURE LIST*
%ADD10R,0.850000X0.400000*%
%ADD11R,0.500000X0.900000*%
G04 APERTURE END LIST*
D10*
X125935000Y-74200000D03*
X125935000Y-75860000D03*
X125935000Y-76740000D03*
X125935000Y-78400000D03*
X125935000Y-79280000D03*
X125935000Y-80940000D03*
X125935000Y-81820000D03*
X125935000Y-83480000D03*
X125935000Y-84360000D03*
X125935000Y-86020000D03*
X125935000Y-86900000D03*
X125935000Y-88560000D03*
X125935000Y-89440000D03*
X125935000Y-91100000D03*
X132285000Y-71660000D03*
X132285000Y-73320000D03*
X132285000Y-74200000D03*
X132285000Y-75860000D03*
X132285000Y-76740000D03*
X132285000Y-78400000D03*
X132285000Y-79280000D03*
X132285000Y-80940000D03*
X132285000Y-81820000D03*
X132285000Y-83480000D03*
X132285000Y-84360000D03*
X132285000Y-86020000D03*
X132285000Y-86900000D03*
X132285000Y-88560000D03*
X132285000Y-89440000D03*
X132285000Y-91100000D03*
X138635000Y-71660000D03*
X138635000Y-73320000D03*
X138635000Y-74200000D03*
X138635000Y-75860000D03*
X138635000Y-76740000D03*
X138635000Y-78400000D03*
X138635000Y-79280000D03*
X138635000Y-80940000D03*
X138635000Y-81820000D03*
X138635000Y-83480000D03*
X138635000Y-84360000D03*
X138635000Y-86020000D03*
X138635000Y-86900000D03*
X138635000Y-88560000D03*
X138635000Y-89440000D03*
X138635000Y-91100000D03*
X144985000Y-71660000D03*
X144985000Y-73320000D03*
X144985000Y-74200000D03*
X144985000Y-75860000D03*
X144985000Y-76740000D03*
X144985000Y-78400000D03*
X144985000Y-79280000D03*
X144985000Y-80940000D03*
X144985000Y-81820000D03*
X144985000Y-83480000D03*
X144985000Y-84360000D03*
X144985000Y-86020000D03*
X144985000Y-86900000D03*
X144985000Y-88560000D03*
X144985000Y-89440000D03*
X144985000Y-91100000D03*
X151335000Y-71660000D03*
X151335000Y-73320000D03*
X151335000Y-74200000D03*
X151335000Y-75860000D03*
X151335000Y-76740000D03*
X151335000Y-78400000D03*
X151335000Y-79280000D03*
X151335000Y-80940000D03*
X151335000Y-81820000D03*
X151335000Y-83480000D03*
X151335000Y-84360000D03*
X151335000Y-86020000D03*
X151335000Y-86900000D03*
X151335000Y-88560000D03*
X151335000Y-89435000D03*
X151335000Y-91095000D03*
X157685000Y-71660000D03*
X157685000Y-73320000D03*
X157685000Y-74200000D03*
X157685000Y-75860000D03*
X157685000Y-76740000D03*
X157685000Y-78400000D03*
X157685000Y-79280000D03*
X157685000Y-80940000D03*
X157685000Y-81820000D03*
X157685000Y-83480000D03*
X157685000Y-84360000D03*
X157685000Y-86020000D03*
X157685000Y-86900000D03*
X157685000Y-88560000D03*
X157685000Y-89440000D03*
X157685000Y-91100000D03*
X164035000Y-71660000D03*
X164035000Y-73320000D03*
X164035000Y-74200000D03*
X164035000Y-75860000D03*
X164035000Y-76740000D03*
X164035000Y-78400000D03*
X164035000Y-79280000D03*
X164035000Y-80940000D03*
X164035000Y-81820000D03*
X164035000Y-83480000D03*
X164035000Y-84360000D03*
X164035000Y-86020000D03*
X164035000Y-86900000D03*
X164035000Y-88560000D03*
X164035000Y-89440000D03*
X164035000Y-91100000D03*
X170385000Y-71660000D03*
X170385000Y-73320000D03*
X170385000Y-74200000D03*
X170385000Y-75860000D03*
X170385000Y-76740000D03*
X170385000Y-78400000D03*
X170385000Y-79280000D03*
X170385000Y-80940000D03*
X170385000Y-81815000D03*
X170385000Y-83475000D03*
X170385000Y-84360000D03*
X170385000Y-86020000D03*
X170385000Y-86900000D03*
X170385000Y-88560000D03*
X170385000Y-89440000D03*
X170385000Y-91100000D03*
D11*
X121515000Y-72390000D03*
X120015000Y-72390000D03*
X121515000Y-74930000D03*
X120015000Y-74930000D03*
X121515000Y-77470000D03*
X120015000Y-77470000D03*
X121515000Y-80010000D03*
X120015000Y-80010000D03*
X121515000Y-82550000D03*
X120015000Y-82550000D03*
X121515000Y-85090000D03*
X120015000Y-85090000D03*
X121515000Y-87630000D03*
X120015000Y-87630000D03*
X121515000Y-90170000D03*
X120015000Y-90170000D03*
D10*
X125935000Y-71660000D03*
X125935000Y-73320000D03*
M02*
