M48
; DRILL file {KiCad (5.1.9)-1} date 06/01/21 09:40:50
; FORMAT={-:-/ absolute / metric / decimal}
; #@! TF.CreationDate,2021-06-01T09:40:50-07:00
; #@! TF.GenerationSoftware,Kicad,Pcbnew,(5.1.9)-1
; #@! TF.FileFunction,Plated,1,2,PTH
FMAT,2
METRIC
T1C0.400
T2C1.000
%
G90
G05
T1
X128.75Y-71.7
X128.75Y-74.2
X128.75Y-76.7
X128.75Y-79.2
X128.75Y-81.8
X128.75Y-84.3
X128.75Y-86.8
X128.75Y-89.4
X134.95Y-71.7
X134.95Y-74.2
X134.95Y-76.7
X134.95Y-79.2
X134.95Y-81.8
X134.95Y-84.3
X134.95Y-86.8
X134.95Y-89.4
X141.45Y-71.7
X141.45Y-74.2
X141.45Y-76.7
X141.45Y-79.2
X141.45Y-81.8
X141.45Y-84.3
X141.45Y-86.8
X141.45Y-89.4
X147.45Y-71.7
X147.45Y-74.2
X147.45Y-76.7
X147.45Y-79.2
X147.45Y-81.8
X147.45Y-84.3
X147.45Y-86.8
X147.45Y-89.4
X153.75Y-71.7
X153.75Y-74.2
X153.75Y-76.7
X153.75Y-79.2
X153.75Y-81.8
X153.75Y-84.3
X153.75Y-86.8
X153.75Y-89.4
X160.15Y-71.7
X160.15Y-74.2
X160.15Y-76.7
X160.15Y-79.2
X160.15Y-81.8
X160.15Y-84.3
X160.15Y-86.8
X160.15Y-89.4
X166.55Y-71.7
X166.55Y-74.2
X166.55Y-76.7
X166.55Y-79.2
X166.55Y-81.8
X166.55Y-84.3
X166.55Y-86.8
X166.55Y-89.4
X168.15Y-71.7
X168.15Y-74.2
X168.15Y-76.7
X168.15Y-79.2
X168.15Y-81.8
X168.15Y-84.3
X168.15Y-86.8
X168.15Y-89.4
T2
X116.84Y-72.39
X116.84Y-74.93
X116.84Y-77.47
X116.84Y-80.01
X116.84Y-82.55
X116.84Y-85.09
X116.84Y-87.63
X116.84Y-90.17
X128.75Y-67.25
X131.29Y-67.25
X133.83Y-67.25
X136.37Y-67.25
X138.91Y-67.25
X141.45Y-67.25
X143.99Y-67.25
X146.53Y-67.25
T0
M30
